<svg width="141" height="141" viewBox="0 0 141 141" fill="none" xmlns="http://www.w3.org/2000/svg">
<g opacity="0.5">
<path d="M37.6548 52.1443C37.6548 37.3734 49.629 25.3992 64.3999 25.3992H76.9097C91.6806 25.3992 103.655 37.3734 103.655 52.1443V64.6541C103.655 79.425 91.6806 91.3992 76.9097 91.3992H64.3999C49.629 91.3992 37.6548 79.425 37.6548 64.6541V52.1443Z" fill="#FF5C00"/>
<path d="M20.3694 107.168C20.3364 107.803 20.4373 108.438 20.6653 109.031C20.8934 109.625 21.2436 110.164 21.6933 110.614C22.1429 111.063 22.682 111.413 23.2756 111.642C23.8692 111.87 24.5041 111.97 25.1392 111.938C25.7662 111.935 26.3896 111.842 26.9898 111.661V108.599H24.2901V106.147H29.6705V113.397C28.3639 114.242 26.8473 114.704 25.2918 114.733C20.7796 114.733 17.6601 111.718 17.6601 107.206C17.6223 106.217 17.7868 105.231 18.1435 104.307C18.5003 103.384 19.0418 102.544 19.7349 101.837C20.428 101.131 21.2581 100.573 22.1742 100.199C23.0904 99.8245 24.0733 99.6412 25.0628 99.6601C26.6924 99.63 28.2925 100.096 29.6514 100.996V104.315C29.1212 103.692 28.4617 103.192 27.7188 102.849C26.9758 102.507 26.1672 102.33 25.349 102.331C22.4776 102.331 20.3694 104.144 20.3694 107.168Z" fill="#131313"/>
<path d="M31.4066 109.505C31.3922 108.841 31.5128 108.18 31.761 107.563C32.0093 106.947 32.3801 106.387 32.851 105.918C33.3219 105.449 33.8831 105.08 34.5006 104.834C35.1181 104.588 35.7791 104.47 36.4435 104.487C37.1025 104.487 37.755 104.617 38.3638 104.869C38.9726 105.121 39.5257 105.491 39.9917 105.957C40.4576 106.423 40.8272 106.976 41.0794 107.585C41.3316 108.194 41.4614 108.846 41.4614 109.505C41.4614 110.164 41.3316 110.816 41.0794 111.425C40.8272 112.034 40.4576 112.587 39.9917 113.053C39.5257 113.519 38.9726 113.889 38.3638 114.141C37.755 114.393 37.1025 114.523 36.4435 114.523C35.7794 114.538 35.119 114.419 34.5022 114.173C33.8853 113.927 33.3246 113.558 32.854 113.089C32.3834 112.62 32.0126 112.061 31.7638 111.445C31.5151 110.829 31.3936 110.169 31.4066 109.505ZM38.7044 109.505C38.7463 109.183 38.7191 108.857 38.6246 108.546C38.5301 108.236 38.3706 107.95 38.1566 107.706C37.9426 107.463 37.6791 107.267 37.3837 107.134C37.0883 107 36.7678 106.931 36.4435 106.931C36.1193 106.931 35.7987 107 35.5033 107.134C35.2079 107.267 34.9444 107.463 34.7304 107.706C34.5165 107.95 34.3569 108.236 34.2624 108.546C34.168 108.857 34.1408 109.183 34.1826 109.505C34.1408 109.827 34.168 110.153 34.2624 110.464C34.3569 110.774 34.5165 111.06 34.7304 111.304C34.9444 111.548 35.2079 111.743 35.5033 111.876C35.7987 112.01 36.1193 112.079 36.4435 112.079C36.7678 112.079 37.0883 112.01 37.3837 111.876C37.6791 111.743 37.9426 111.548 38.1566 111.304C38.3706 111.06 38.5301 110.774 38.6246 110.464C38.7191 110.153 38.7463 109.827 38.7044 109.505Z" fill="#131313"/>
<path d="M42.5394 110.917V99.8508H45.3536V110.964C45.3536 111.756 45.7638 112.147 46.3648 112.147C46.5267 112.158 46.6889 112.131 46.8392 112.07C46.9895 112.009 47.1241 111.915 47.2329 111.794L48.578 113.779C47.9574 114.275 47.1778 114.529 46.3839 114.494C43.7605 114.523 42.5394 113.092 42.5394 110.917Z" fill="#131313"/>
<path d="M58.7091 99.8508V114.332H56.2192L56.0666 113.321C55.7143 113.698 55.2873 113.999 54.8126 114.202C54.338 114.406 53.8261 114.509 53.3096 114.504C50.6672 114.504 48.8356 112.3 48.8356 109.486C48.8356 106.672 50.6672 104.468 53.3096 104.468C53.794 104.459 54.2752 104.547 54.7255 104.725C55.1758 104.904 55.5862 105.17 55.933 105.508V99.8508H58.7091ZM55.933 110.526V108.484C55.7848 108.047 55.5076 107.666 55.138 107.39C54.7684 107.114 54.3238 106.957 53.8629 106.939C53.2387 107.015 52.6639 107.317 52.2471 107.788C51.8303 108.259 51.6002 108.866 51.6002 109.495C51.6002 110.124 51.8303 110.731 52.2471 111.202C52.6639 111.673 53.2387 111.976 53.8629 112.052C54.3222 112.038 54.7664 111.885 55.1362 111.612C55.506 111.339 55.784 110.96 55.933 110.526Z" fill="#131313"/>
<path d="M69.8037 110.316H63.2595C63.2523 110.593 63.303 110.869 63.4085 111.126C63.514 111.383 63.6719 111.615 63.8721 111.807C64.0724 111.999 64.3105 112.147 64.5714 112.242C64.8322 112.337 65.11 112.376 65.3869 112.357C65.8466 112.372 66.301 112.255 66.6965 112.02C67.092 111.785 67.4121 111.442 67.6191 111.031L69.6129 111.985C69.241 112.767 68.6474 113.421 67.9061 113.867C67.1648 114.313 66.3085 114.531 65.4441 114.494C62.0671 114.494 60.4644 112.348 60.4644 109.476C60.4644 106.605 62.2579 104.468 65.3105 104.468C68.1056 104.468 69.8228 106.433 69.8228 109.486C69.8344 109.763 69.828 110.04 69.8037 110.316ZM63.3168 108.408H67.2185C67.0277 107.282 66.4458 106.643 65.3105 106.643C64.8107 106.62 64.3215 106.793 63.9486 107.127C63.5756 107.461 63.3487 107.928 63.3168 108.427V108.408Z" fill="#131313"/>
<path d="M80.9936 108.227V114.332H78.1794V108.608C78.1804 108.379 78.1334 108.153 78.0416 107.943C77.9498 107.733 77.8151 107.545 77.6462 107.391C77.4772 107.236 77.2778 107.119 77.0608 107.046C76.8438 106.973 76.6139 106.946 76.3859 106.967C75.8877 106.949 75.4021 107.127 75.0331 107.462C74.664 107.797 74.4408 108.263 74.4112 108.761V114.361H71.597V104.678H74.125L74.2777 105.794C74.648 105.382 75.1011 105.052 75.6074 104.827C76.1137 104.602 76.6618 104.486 77.2159 104.487C77.7173 104.454 78.22 104.528 78.6909 104.703C79.1617 104.879 79.5898 105.153 79.947 105.506C80.3041 105.86 80.5821 106.285 80.7625 106.754C80.9429 107.223 81.0217 107.725 80.9936 108.227Z" fill="#131313"/>
<path d="M87.9957 99.8508H90.9148V111.785H95.8373V114.332H87.9957V99.8508Z" fill="#131313"/>
<path d="M97.6021 101.435C97.6002 101.119 97.6923 100.809 97.8666 100.546C98.0409 100.282 98.2896 100.077 98.5811 99.955C98.8726 99.8332 99.1937 99.8009 99.5036 99.8621C99.8136 99.9232 100.098 100.075 100.322 100.299C100.545 100.522 100.697 100.807 100.758 101.117C100.819 101.426 100.787 101.748 100.665 102.039C100.543 102.331 100.338 102.579 100.074 102.754C99.8109 102.928 99.5015 103.02 99.1857 103.018C98.7672 103.013 98.3673 102.845 98.0714 102.549C97.7755 102.253 97.607 101.853 97.6021 101.435ZM97.7833 104.678H100.607V114.332H97.7452L97.7833 104.678Z" fill="#131313"/>
<path d="M112.541 108.227V114.332H109.679V108.608C109.682 108.379 109.636 108.151 109.545 107.941C109.453 107.731 109.319 107.542 109.149 107.387C108.98 107.232 108.78 107.115 108.562 107.042C108.345 106.97 108.114 106.945 107.886 106.967C107.389 106.952 106.906 107.13 106.539 107.465C106.172 107.8 105.95 108.265 105.921 108.761V114.361H103.059V104.678H105.587L105.739 105.794C106.108 105.383 106.56 105.053 107.064 104.828C107.569 104.603 108.116 104.487 108.668 104.487C109.177 104.439 109.69 104.502 110.173 104.672C110.655 104.841 111.096 105.112 111.463 105.467C111.831 105.823 112.118 106.253 112.304 106.729C112.49 107.205 112.571 107.716 112.541 108.227Z" fill="#131313"/>
<path d="M123.598 110.316H117.053C117.046 110.593 117.097 110.869 117.202 111.126C117.308 111.383 117.466 111.614 117.666 111.807C117.866 111.999 118.104 112.147 118.365 112.242C118.626 112.337 118.904 112.376 119.181 112.357C119.64 112.371 120.094 112.253 120.489 112.019C120.885 111.784 121.205 111.441 121.413 111.031L123.397 111.985C123.028 112.767 122.436 113.421 121.696 113.868C120.956 114.314 120.101 114.532 119.238 114.494C115.861 114.494 114.258 112.348 114.258 109.476C114.258 106.605 116.052 104.439 119.143 104.439C121.938 104.439 123.655 106.405 123.655 109.457C123.655 109.744 123.636 110.031 123.598 110.316ZM117.111 108.408H120.993C120.802 107.282 120.221 106.643 119.085 106.643C118.589 106.625 118.104 106.801 117.736 107.134C117.367 107.467 117.143 107.931 117.111 108.427V108.408Z" fill="#131313"/>
<path d="M79.1923 56.3313C78.8802 56.0164 78.5087 55.7664 78.0993 55.5957C77.69 55.4251 77.2509 55.3373 76.8074 55.3373C76.364 55.3373 75.9249 55.4251 75.5156 55.5957C75.1062 55.7664 74.7347 56.0164 74.4225 56.3313L74.0028 56.7606C73.7643 57.3521 72.4001 57.8577 70.9692 57.8863C69.5383 57.9149 68.1646 57.4761 67.9165 56.9323L67.5826 56.5412C67.1124 56.0778 66.5157 55.7637 65.8676 55.6385C65.2194 55.5133 64.5486 55.5824 63.9397 55.8373C63.3307 56.0921 62.8106 56.5213 62.4448 57.0709C62.0791 57.6205 61.8839 58.2659 61.8839 58.9261C61.8839 59.5863 62.0791 60.2317 62.4448 60.7813C62.8106 61.3309 63.3307 61.7601 63.9397 62.0149C64.5486 62.2698 65.2194 62.3389 65.8676 62.2137C66.5157 62.0884 67.1124 61.7744 67.5826 61.311L68.0119 60.8817C68.2504 60.2807 69.605 59.7751 71.0455 59.7465C72.486 59.7179 73.8502 60.1662 74.0887 60.7005L74.5084 61.1107C74.8146 61.4491 75.1867 61.7214 75.6019 61.9109C76.0171 62.1003 76.4667 62.2028 76.923 62.2122C77.3793 62.2215 77.8327 62.1375 78.2553 61.9653C78.678 61.793 79.0609 61.5362 79.3807 61.2106C79.7005 60.8849 79.9503 60.4974 80.1149 60.0717C80.2794 59.646 80.3552 59.1911 80.3375 58.7351C80.3199 58.279 80.2092 57.8314 80.0123 57.4197C79.8153 57.0079 79.5363 56.6408 79.1923 56.3409V56.3313Z" fill="white"/>
<path d="M90.8211 45.0937C90.5096 44.7775 90.1383 44.5265 89.7289 44.3552C89.3195 44.1838 88.88 44.0956 88.4362 44.0956C87.9924 44.0956 87.553 44.1838 87.1435 44.3552C86.7341 44.5265 86.3628 44.7775 86.0513 45.0937L85.6316 45.5229C85.3931 46.1144 84.0289 46.62 82.598 46.6486C81.167 46.6772 79.7933 46.2384 79.5453 45.6947L79.1255 45.2844C78.6553 44.8211 78.0586 44.507 77.4105 44.3818C76.7623 44.2565 76.0915 44.3257 75.4826 44.5805C74.8736 44.8354 74.3535 45.2646 73.9877 45.8142C73.622 46.3637 73.4268 47.0092 73.4268 47.6694C73.4268 48.3295 73.622 48.975 73.9877 49.5245C74.3535 50.0741 74.8736 50.5033 75.4826 50.7582C76.0915 51.013 76.7623 51.0822 77.4105 50.9569C78.0586 50.8317 78.6553 50.5176 79.1255 50.0543L79.5548 49.6154C79.7933 49.024 81.148 48.5184 82.5884 48.4898C84.0289 48.4611 85.3835 48.9 85.6316 49.4437L86.0513 49.8635C86.6948 50.4246 87.5283 50.7187 88.3814 50.6857C89.2346 50.6527 90.0429 50.2951 90.6411 49.6859C91.2393 49.0767 91.5822 48.2621 91.5997 47.4085C91.6172 46.5549 91.308 45.7268 90.7353 45.0937H90.8211Z" fill="white"/>
<path d="M91.0405 67.0348C90.7283 66.7198 90.3568 66.4698 89.9475 66.2992C89.5381 66.1286 89.099 66.0408 88.6556 66.0408C88.2121 66.0408 87.773 66.1286 87.3637 66.2992C86.9544 66.4698 86.5829 66.7198 86.2707 67.0348L85.8414 67.4736C85.6124 68.0556 84.2483 68.5612 82.8173 68.5898C81.3864 68.6184 80.0127 68.1796 79.7647 67.6358L79.3449 67.2256C78.8747 66.7622 78.278 66.4482 77.6298 66.3229C76.9816 66.1977 76.3109 66.2668 75.7019 66.5217C75.0929 66.7765 74.5729 67.2057 74.2071 67.7553C73.8413 68.3049 73.6462 68.9503 73.6462 69.6105C73.6462 70.2707 73.8413 70.9161 74.2071 71.4657C74.5729 72.0153 75.0929 72.4445 75.7019 72.6993C76.3109 72.9542 76.9816 73.0233 77.6298 72.8981C78.278 72.7729 78.8747 72.4588 79.3449 71.9954L79.7742 71.5661C80.0031 70.9651 81.3673 70.4595 82.7983 70.4309C84.2292 70.4023 85.6029 70.8507 85.8509 71.3849L86.2707 71.7951C86.9141 72.3562 87.7477 72.6504 88.6008 72.6174C89.454 72.5844 90.2623 72.2267 90.8605 71.6175C91.4587 71.0084 91.8016 70.1937 91.8191 69.3401C91.8366 68.4865 91.5274 67.6585 90.9546 67.0253L91.0405 67.0348Z" fill="white"/>
<path d="M67.1819 45.3512C66.8666 45.0393 66.4926 44.793 66.0816 44.6265C65.6705 44.4599 65.2306 44.3765 64.7871 44.3809C64.3436 44.3853 63.9054 44.4776 63.4978 44.6523C63.0902 44.827 62.7212 45.0808 62.4121 45.3989L61.9924 45.8377C61.7921 46.4291 60.4279 46.9252 58.997 47.0015C57.566 47.0778 56.1923 46.5913 55.9443 46.0476L55.5341 45.6374C55.0593 45.1787 54.4594 44.8707 53.8101 44.752C53.1607 44.6332 52.4907 44.7091 51.8843 44.9701C51.2779 45.231 50.7622 45.6654 50.4019 46.2186C50.0417 46.7718 49.853 47.4191 49.8596 48.0792C49.8662 48.7394 50.0678 49.3828 50.439 49.9287C50.8103 50.4746 51.3346 50.8986 51.946 51.1473C52.5575 51.3961 53.2289 51.4586 53.8758 51.3269C54.5227 51.1952 55.1162 50.8752 55.5818 50.4072L56.0015 49.9683C56.24 49.3769 57.6042 48.8617 59.0351 48.8427C60.4661 48.8236 61.8398 49.2529 62.0783 49.7966L62.498 50.2068C63.1415 50.768 63.975 51.0621 64.8281 51.0291C65.6813 50.9961 66.4896 50.6385 67.0878 50.0293C67.686 49.4201 68.0289 48.6054 68.0464 47.7518C68.0639 46.8982 67.7547 46.0702 67.1819 45.437V45.3512Z" fill="white"/>
<path d="M67.4014 67.2255C67.0899 66.9094 66.7186 66.6583 66.3092 66.487C65.8998 66.3157 65.4604 66.2274 65.0165 66.2274C64.5727 66.2274 64.1333 66.3157 63.7239 66.487C63.3144 66.6583 62.9432 66.9094 62.6316 67.2255L62.2023 67.6548C61.9734 68.2462 60.6092 68.7518 59.1783 68.7804C57.7473 68.8091 56.3736 68.3702 56.1256 67.8265L55.7059 67.4163C55.2357 66.9529 54.639 66.6388 53.9908 66.5136C53.3426 66.3883 52.6719 66.4575 52.0629 66.7124C51.4539 66.9672 50.9338 67.3964 50.5681 67.946C50.2023 68.4956 50.0071 69.141 50.0071 69.8012C50.0071 70.4614 50.2023 71.1068 50.5681 71.6564C50.9338 72.206 51.4539 72.6351 52.0629 72.89C52.6719 73.1449 53.3426 73.214 53.9908 73.0888C54.639 72.9635 55.2357 72.6495 55.7059 72.1861L56.1352 71.7473C56.3736 71.1558 57.7283 70.6502 59.1592 70.6216C60.5902 70.593 61.9639 71.0318 62.2119 71.5756L62.6316 71.9858C62.9378 72.3242 63.3099 72.5965 63.7251 72.786C64.1404 72.9754 64.5899 73.0779 65.0462 73.0873C65.5025 73.0966 65.9559 73.0126 66.3786 72.8404C66.8012 72.6681 67.1842 72.4113 67.504 72.0857C67.8237 71.76 68.0736 71.3724 68.2381 70.9467C68.4026 70.521 68.4784 70.0662 68.4608 69.6101C68.4431 69.1541 68.3324 68.7065 68.1355 68.2947C67.9386 67.883 67.6596 67.5159 67.3156 67.2159L67.4014 67.2255Z" fill="white"/>
<path d="M73.4113 55.7494C73.7275 55.4379 73.9785 55.0666 74.1498 54.6572C74.3212 54.2478 74.4094 53.8084 74.4094 53.3645C74.4094 52.9207 74.3212 52.4813 74.1498 52.0719C73.9785 51.6624 73.7275 51.2912 73.4113 50.9796C72.5421 50.0173 71.9981 48.8057 71.8564 47.5168C71.9414 46.28 72.4081 45.1001 73.1919 44.1397C73.6506 43.6649 73.9586 43.0651 74.0773 42.4157C74.196 41.7663 74.1202 41.0963 73.8592 40.4899C73.5983 39.8835 73.1639 39.3678 72.6107 39.0076C72.0575 38.6473 71.4102 38.4587 70.75 38.4653C70.0899 38.4719 69.4465 38.6734 68.9006 39.0447C68.3547 39.4159 67.9307 39.9402 67.682 40.5517C67.4332 41.1632 67.3707 41.8346 67.5024 42.4815C67.6341 43.1283 67.9541 43.7219 68.4221 44.1874C69.2963 45.1437 69.8441 46.353 69.9866 47.6408C69.9117 48.9159 69.4227 50.1318 68.5938 51.1037C68.2656 51.4124 68.003 51.7842 67.8218 52.1968C67.6406 52.6094 67.5446 53.0544 67.5395 53.505C67.5344 53.9556 67.6204 54.4026 67.7921 54.8192C67.9639 55.2358 68.218 55.6135 68.5392 55.9296C68.8604 56.2456 69.2421 56.4936 69.6615 56.6587C70.0808 56.8237 70.5291 56.9024 70.9796 56.89C71.4301 56.8777 71.8734 56.7745 72.2831 56.5867C72.6927 56.3989 73.0602 56.1304 73.3636 55.7971L73.4113 55.7494Z" fill="white"/>
<path d="M73.6307 78.1008C73.9468 77.7892 74.1978 77.418 74.3692 77.0085C74.5405 76.5991 74.6288 76.1597 74.6288 75.7159C74.6288 75.272 74.5405 74.8326 74.3692 74.4232C74.1978 74.0138 73.9468 73.6425 73.6307 73.331C72.7497 72.3836 72.192 71.1812 72.0376 69.8967C72.1119 68.6249 72.5935 67.4107 73.4113 66.4338C73.8747 65.9636 74.1887 65.3669 74.314 64.7188C74.4392 64.0706 74.3701 63.3998 74.1152 62.7908C73.8603 62.1819 73.4312 61.6618 72.8816 61.296C72.332 60.9303 71.6866 60.7351 71.0264 60.7351C70.3662 60.7351 69.7208 60.9303 69.1712 61.296C68.6216 61.6618 68.1924 62.1819 67.9376 62.7908C67.6827 63.3998 67.6135 64.0706 67.7388 64.7188C67.864 65.3669 68.1781 65.9636 68.6415 66.4338C69.5196 67.3875 70.0681 68.5981 70.206 69.8872C70.129 71.163 69.6441 72.3803 68.8227 73.3596C68.2016 73.9921 67.8572 74.8455 67.8652 75.7319C67.8733 76.6184 68.2331 77.4653 68.8657 78.0865C69.4982 78.7076 70.3515 79.052 71.238 79.044C72.1245 79.0359 72.9714 78.6761 73.5925 78.0435L73.6307 78.1008Z" fill="white"/>
<path d="M61.4582 66.7963C61.7743 66.4848 62.0254 66.1135 62.1967 65.7041C62.368 65.2947 62.4563 64.8553 62.4563 64.4114C62.4563 63.9676 62.368 63.5282 62.1967 63.1188C62.0254 62.7093 61.7743 62.3381 61.4582 62.0265C60.5818 61.0727 60.0365 59.8616 59.9032 58.5732C59.9775 57.3014 60.4592 56.0872 61.277 55.1103C61.7356 54.6355 62.0436 54.0357 62.1624 53.3863C62.2811 52.7369 62.2052 52.0669 61.9443 51.4605C61.6833 50.8541 61.2489 50.3384 60.6957 49.9782C60.1425 49.6179 59.4952 49.4292 58.8351 49.4358C58.1749 49.4424 57.5315 49.644 56.9856 50.0153C56.4397 50.3865 56.0158 50.9108 55.767 51.5223C55.5182 52.1338 55.4558 52.8052 55.5874 53.452C55.7191 54.0989 56.0391 54.6924 56.5071 55.158C57.3783 56.1283 57.9164 57.3517 58.043 58.6495C57.966 59.9225 57.481 61.1367 56.6598 62.1124C56.3522 62.4256 56.1094 62.7963 55.9451 63.2033C55.7808 63.6104 55.6983 64.0458 55.7023 64.4847C55.7103 65.3712 56.0702 66.2181 56.7027 66.8393C57.3352 67.4604 58.1886 67.8048 59.075 67.7968C59.514 67.7928 59.9478 67.7024 60.3518 67.5307C60.7558 67.3591 61.122 67.1095 61.4296 66.7963H61.4582Z" fill="white"/>
<path d="M85.2596 66.5673C85.5734 66.2545 85.8224 65.8828 85.9923 65.4736C86.1622 65.0643 86.2496 64.6255 86.2496 64.1824C86.2496 63.7393 86.1622 63.3006 85.9923 62.8913C85.8224 62.4821 85.5734 62.1104 85.2596 61.7975C84.3883 60.8403 83.8438 59.631 83.7046 58.3442C83.7816 57.0712 84.2666 55.857 85.0879 54.8813C85.5465 54.4065 85.8545 53.8067 85.9733 53.1573C86.092 52.5079 86.0161 51.8379 85.7552 51.2315C85.4942 50.6251 85.0598 50.1094 84.5066 49.7491C83.9534 49.3889 83.3061 49.2002 82.646 49.2068C81.9859 49.2134 81.3424 49.415 80.7965 49.7862C80.2506 50.1575 79.8267 50.6818 79.5779 51.2933C79.3291 51.9048 79.2667 52.5761 79.3984 53.223C79.5301 53.8699 79.85 54.4634 80.3181 54.929C81.2086 55.9019 81.7608 57.1367 81.8921 58.4491C81.8172 59.7243 81.3282 60.9401 80.4993 61.912C80.171 62.2207 79.9084 62.5925 79.7273 63.0052C79.5461 63.4178 79.4501 63.8627 79.445 64.3133C79.4399 64.764 79.5258 65.211 79.6976 65.6276C79.8694 66.0442 80.1235 66.4219 80.4447 66.7379C80.7659 67.054 81.1476 67.302 81.5669 67.467C81.9863 67.6321 82.4346 67.7107 82.8851 67.6984C83.3356 67.686 83.7789 67.5828 84.1885 67.3951C84.5982 67.2073 84.9657 66.9387 85.2691 66.6055L85.2596 66.5673Z" fill="white"/>
</g>
</svg>
