<svg width="141" height="141" viewBox="0 0 141 141" fill="none" xmlns="http://www.w3.org/2000/svg">
<path d="M56.978 79.8813V79.8088C56.978 79.6909 56.978 79.5821 56.9327 79.4551V79.3916V79.1831C56.9327 79.0471 56.8783 78.9201 56.8511 78.7841V78.7297C56.8511 78.6753 56.8511 78.6299 56.8511 78.5937C56.4099 76.9829 55.4185 75.5776 54.049 74.6218C53.8767 74.5115 53.6981 74.4116 53.514 74.3225L53.4052 74.2591L53.0152 74.0596L52.8067 73.9598L52.4893 73.8329L52.1991 73.7241L51.9452 73.6424L51.5553 73.5427H51.5099C51.2793 73.4987 51.0711 73.3762 50.9207 73.196C50.7702 73.0158 50.6868 72.789 50.6847 72.5543V68.2287C50.6865 67.9929 50.7695 67.7649 50.9198 67.5832C51.0702 67.4015 51.2786 67.2772 51.5099 67.2312C51.6822 67.2312 51.8636 67.1406 52.0721 67.0771H52.1538C52.3082 67.0217 52.4595 66.9581 52.6072 66.8867H52.6978C52.8653 66.8171 53.0288 66.7384 53.1875 66.6509H53.2601C53.4347 66.5605 53.6042 66.4606 53.7679 66.3516C53.922 66.2519 54.0671 66.1431 54.2394 66.007L54.6566 65.6443L54.7291 65.5808L55.0918 65.2L55.1644 65.1184C55.2823 64.9823 55.4002 64.8463 55.509 64.7012L55.8173 64.2388L56.0803 63.7672V63.6675C56.1649 63.5042 56.2374 63.341 56.2979 63.1778V63.078C56.3614 62.8967 56.4249 62.7244 56.4702 62.5521V62.4795C56.5246 62.2982 56.57 62.1168 56.6062 61.9445V61.6906C56.6062 61.5183 56.6697 61.3279 56.6969 61.083V61.0196C56.7065 60.8293 56.7065 60.6386 56.6969 60.4483V60.3485C56.6969 60.1672 56.6969 59.9949 56.6969 59.8044V59.7228C56.7013 59.6655 56.7013 59.6079 56.6969 59.5505V59.351C56.7013 59.2755 56.7013 59.1998 56.6969 59.1243C56.6969 59.0427 56.6969 58.9702 56.6969 58.8795L56.6425 58.6618C56.6476 58.6106 56.6476 58.5589 56.6425 58.5077C56.6425 58.417 56.6425 58.3354 56.5699 58.2538L56.5246 58.1178C56.5246 58.0452 56.5246 57.9727 56.4521 57.9092C56.3795 57.8457 56.3886 57.755 56.3523 57.6553L56.2888 57.5193L56.2072 57.3288L56.2344 57.1112L56.1619 56.9752C56.128 56.9056 56.0886 56.8389 56.044 56.7757C56.0085 56.7099 55.9692 56.6463 55.9261 56.5852L55.8445 56.4583L55.7085 56.2497L55.6269 56.1409L55.4818 56.0049L55.3276 55.76L55.2188 55.6331L55.1644 55.5787L54.9014 55.2976L54.7472 55.1615C54.6475 55.0709 54.5477 54.9711 54.4389 54.8895L54.2938 54.7716C54.176 54.6809 54.0671 54.5993 53.9402 54.5177L53.7951 54.427C53.6605 54.3408 53.5212 54.2621 53.378 54.1912C53.3494 54.1655 53.3153 54.1469 53.2782 54.1368H53.2329L52.8248 53.9011L52.716 53.8557H52.6525C52.5201 53.7874 52.3839 53.7268 52.2444 53.6744H52.1084H52.0359L51.6459 53.493H51.4736H51.3558L51.0293 53.366L50.7935 53.3388H50.6303H50.4489H49.7326L49.1431 53.3842C48.9436 53.3842 48.7441 53.4386 48.5356 53.4749L47.9552 53.629H47.9008L47.3658 53.8104H47.2932C47.1061 53.882 46.9242 53.9669 46.7491 54.0643C46.571 54.1502 46.3983 54.2471 46.2323 54.3545C46.069 54.4542 45.9149 54.563 45.7335 54.6991C45.5793 54.8169 45.4342 54.9439 45.2892 55.0709C44.8366 55.4826 44.4403 55.9521 44.1103 56.4673C43.9946 56.6396 43.8887 56.8183 43.7929 57.0024C43.5011 57.5544 43.2846 58.143 43.1491 58.7525C43.1017 58.9807 42.9779 59.1859 42.7982 59.3342C42.6185 59.4826 42.3936 59.5653 42.1606 59.5687H37.7445C37.5115 59.5653 37.2866 59.4826 37.1069 59.3342C36.9272 59.1859 36.8034 58.9807 36.756 58.7525C36.7612 58.7134 36.7612 58.6738 36.756 58.6346V58.5712C36.756 58.4805 36.756 58.3898 36.6925 58.2991C36.6291 58.2084 36.6109 58.0543 36.5656 57.9273C36.5708 57.8791 36.5708 57.8305 36.5656 57.7822C36.5021 57.6281 36.4386 57.483 36.3661 57.3288V57.2472C35.5404 55.545 34.0727 54.2404 32.2854 53.6199H32.2401L31.569 53.493H31.4058H31.3151L30.9705 53.3751H30.7257H30.626H30.3176H29.7463L29.2113 53.2844H29.1569L28.6219 53.357H28.5221C28.3498 53.357 28.1685 53.4295 27.9871 53.4839C27.8179 53.5288 27.6514 53.5833 27.4884 53.6472H27.434C27.2707 53.7106 27.1075 53.7741 26.9443 53.8557H26.8717L26.3095 54.1912L25.8652 54.4814L25.4027 54.8714C25.1088 55.114 24.8358 55.381 24.5866 55.6693C24.4596 55.8054 24.3417 55.9595 24.2148 56.1228C23.6295 56.9143 23.2156 57.8192 22.9996 58.7797C22.9522 59.0079 22.8285 59.2131 22.6488 59.3614C22.4691 59.5098 22.2442 59.5925 22.0112 59.5959H17.6766C17.4421 59.5945 17.215 59.5128 17.0335 59.3643C16.852 59.2157 16.7269 59.0094 16.6791 58.7797V58.6618V58.5984C16.6791 58.4986 16.6247 58.4079 16.6066 58.3173C16.5884 58.2266 16.525 58.0724 16.4796 57.9364L16.3345 57.8185C16.2801 57.6734 16.2166 57.5374 16.1441 57.3832L16.0988 57.2744C16.0171 57.1112 15.9265 56.957 15.8358 56.8029C15.2002 55.7131 14.2864 54.8118 13.1879 54.1912C13.0337 54.1006 12.8614 54.0189 12.6982 53.9373H12.5894C12.4474 53.875 12.3021 53.8205 12.1541 53.7741L11.9546 53.629L11.5919 53.5202L11.3108 53.4567L10.9934 53.3932L10.6488 53.3388L10.3677 53.2844H9.79639H9.20696H9.14349L8.57219 53.3932H8.48151L7.90115 53.5383C6.68468 53.8795 5.58198 54.5407 4.70796 55.453C3.83393 56.3653 3.22058 57.4954 2.9318 58.7253C2.82709 59.1201 2.76029 59.5239 2.7323 59.9314V59.9314C2.7323 60.0039 2.7323 60.0674 2.7323 60.1309V60.5389V61.0014V61.1102C2.7323 61.2825 2.7323 61.4458 2.80485 61.6181V61.745C2.83451 61.9134 2.87387 62.0799 2.92273 62.2438V62.3344C2.92273 62.4795 3.01341 62.6337 3.06782 62.7788V62.8604C3.1313 63.0236 3.19478 63.1778 3.26732 63.3319L3.31266 63.4317C3.38521 63.5828 3.46682 63.737 3.5575 63.8942C3.64347 64.047 3.7373 64.1953 3.83861 64.3385C3.93709 64.483 4.04303 64.6222 4.156 64.7556L4.20134 64.8191C4.43415 65.1017 4.68884 65.3655 4.96307 65.608L5.38927 65.9526C5.6979 66.1826 6.02553 66.3858 6.36863 66.5602C6.89796 66.8278 7.45841 67.0289 8.03717 67.1587C8.17636 67.1562 8.31462 67.182 8.44349 67.2346C8.57237 67.2873 8.68916 67.3656 8.78675 67.4649C8.88434 67.5642 8.96067 67.6823 9.01109 67.8121C9.06151 67.9419 9.08496 68.0806 9.08001 68.2197V72.5361C9.07663 72.7691 8.99394 72.994 8.84558 73.1737C8.69721 73.3534 8.49203 73.4771 8.26388 73.5245H8.15506H8.08251L7.81047 73.5971L7.44774 73.715L7.50215 73.8601L7.4024 73.7241L7.26638 73.8419C7.11508 73.8977 6.96677 73.9613 6.82204 74.0324L6.73136 74.0777C5.88623 74.4855 5.13045 75.057 4.5078 75.759C3.88516 76.461 3.40804 77.2797 3.10409 78.1674C3.04062 78.3488 2.98621 78.5392 2.94087 78.7206V78.8476V78.911C2.90496 79.0452 2.8777 79.1815 2.85925 79.3191V79.5005V79.5821C2.85925 79.709 2.85925 79.836 2.85925 79.9901C2.85925 80.1352 2.85925 80.2713 2.85925 80.4163V80.5342V80.9967V81.0965C2.85925 81.2688 2.85925 81.4411 2.9318 81.6133V81.7403C2.93924 81.9286 2.95741 82.1163 2.98621 82.3025V82.3841C2.98621 82.5383 3.07689 82.6925 3.14037 82.8557V82.9192C3.20384 83.0824 3.26732 83.2365 3.34893 83.4088V83.4814C3.42464 83.6491 3.5094 83.8126 3.60284 83.9711C3.69352 84.1252 3.79327 84.2794 3.89302 84.4245C3.99155 84.577 4.10063 84.7225 4.21948 84.8597V84.9051C4.4612 85.1969 4.72495 85.4698 5.00841 85.7212L5.46182 86.0839C6.25243 86.6709 7.1577 87.0849 8.11879 87.2991C8.62546 87.4076 9.14219 87.4624 9.66037 87.4623H9.72385C10.1995 87.4609 10.6737 87.4092 11.1385 87.3082H11.1929H11.2926H11.347L11.6644 87.2265L11.9274 87.1449L12.2267 87.0361L12.4896 86.9273L12.7707 86.7913L13.0247 86.6643L13.2876 86.5102L13.5325 86.356L13.7773 86.1928L14.0131 86.0114L14.2307 85.83L14.4665 85.6215L14.6479 85.4401C14.7295 85.3676 14.802 85.2859 14.8836 85.2043L15.0469 85.0139C15.1194 84.9232 15.1919 84.8416 15.2554 84.7509L15.4005 84.5605L15.6 84.2612L15.7179 84.0708C15.7814 83.9711 15.8358 83.8622 15.8993 83.7534L15.9627 83.6265V83.563L16.3345 83.2093L16.4071 83.028L16.5431 82.6562C16.5431 82.6562 16.5431 82.5836 16.5431 82.5474V82.4748L16.661 82.0486V82.0033C16.7084 81.7751 16.8321 81.5699 17.0118 81.4216C17.1915 81.2732 17.4164 81.1905 17.6494 81.1871H21.9659C22.1993 81.1889 22.4251 81.2709 22.6051 81.4196C22.7851 81.5682 22.9084 81.7744 22.9543 82.0033C22.9515 82.0425 22.9515 82.0819 22.9543 82.1212V82.1756L23.0359 82.4567C23.0359 82.5564 23.0994 82.6562 23.1266 82.7559C23.1538 82.8557 23.1901 82.9373 23.2263 83.0189C23.2626 83.1005 23.3079 83.2184 23.3533 83.3182L23.4621 83.563L23.6253 83.8713L23.7432 84.0799C23.7976 84.1706 23.852 84.2612 23.9155 84.3519L24.0606 84.5696L24.2601 84.8325L24.4959 85.023L24.7226 85.2859L24.8858 85.4492L25.1488 85.7031L25.312 85.8391L25.5931 86.0658L25.7745 86.2018L26.0737 86.4104L26.2551 86.5192L26.5816 86.7097L26.7357 86.7822L27.0803 86.9454L27.2707 87.018L27.6425 87.154L27.833 87.2084L28.2501 87.3172H28.3408C28.8323 87.4248 29.3339 87.4795 29.837 87.4804H29.9368C30.4124 87.478 30.8864 87.4263 31.3514 87.3263H31.4058H31.5056H31.56L31.8774 87.2447L32.1403 87.1631L32.4396 87.0542L32.7116 86.9364L32.9837 86.8094L33.2285 86.6824L33.5006 86.5283L33.7454 86.3741L33.9812 86.2109L34.2169 86.0295L34.4436 85.8482L34.6704 85.6487L34.8698 85.4492L35.0875 85.2225L35.2507 85.032L35.4683 84.7691L35.6044 84.5696C35.676 84.4796 35.7426 84.3857 35.8039 84.2885L35.9218 84.089C35.9852 83.9801 36.0487 83.8804 36.1031 83.7716L36.1847 83.6174L36.3389 83.2728L36.4205 83.0824C36.4205 82.9554 36.5112 82.8375 36.5565 82.7015L36.6109 82.5202C36.6109 82.3932 36.6835 82.2663 36.7198 82.1121V82.0577C36.7656 81.8288 36.8889 81.6226 37.069 81.474C37.249 81.3253 37.4747 81.2433 37.7082 81.2416H42.0246C42.2581 81.2433 42.4838 81.3253 42.6639 81.474C42.8439 81.6226 42.9672 81.8288 43.0131 82.0577V82.1665V82.23C43.0131 82.3207 43.0584 82.4204 43.0856 82.5111C43.1128 82.6018 43.1491 82.7106 43.1853 82.8103L43.2851 83.0824C43.3176 83.1788 43.357 83.2728 43.403 83.3635C43.403 83.4542 43.4846 83.5358 43.5209 83.6174C43.5637 83.7139 43.6122 83.8077 43.666 83.8985L43.802 84.1343L43.9561 84.3882L44.0922 84.5968L44.2917 84.8597L44.4458 85.0502C44.5184 85.1409 44.6 85.2225 44.6725 85.3041L44.8448 85.4764L45.0897 85.7212L45.271 85.8754L45.5521 86.093L45.7244 86.229L46.0327 86.4376L46.2232 86.5464L46.5406 86.7278L46.731 86.8275L47.0756 86.9817L47.266 87.0633L47.6287 87.1903L47.8282 87.2537L48.2272 87.3626H48.327C48.8217 87.4693 49.3262 87.524 49.8323 87.5258H49.8958C50.588 87.5231 51.2758 87.4161 51.9361 87.2084H51.9905C52.1601 87.1575 52.3266 87.0969 52.4893 87.027H52.5618C52.8976 86.8894 53.222 86.7257 53.5321 86.5374H53.6047L54.0399 86.2381L54.1034 86.1837C54.2485 86.0749 54.3845 85.9661 54.5296 85.8391C54.6747 85.7122 54.7835 85.5943 54.9105 85.4764L54.974 85.4038C55.0828 85.2859 55.2007 85.159 55.3095 85.023L55.373 84.9414C55.4818 84.8053 55.5815 84.6602 55.6813 84.5152C55.7719 84.3701 55.8626 84.234 55.9442 84.089V83.9983C56.0259 83.8532 56.1075 83.699 56.18 83.5449V83.4451C56.2526 83.2819 56.316 83.1277 56.3795 82.9554V82.901C56.4339 82.7469 56.4883 82.5927 56.5337 82.4295V82.3297C56.5804 82.1629 56.6168 81.9933 56.6425 81.8219V81.7131C56.6425 81.5317 56.6969 81.3594 56.715 81.1781V81.1055C56.715 80.9332 56.715 80.77 56.715 80.5705V80.498C56.9962 80.1715 56.9871 80.0264 56.978 79.8813ZM50.1225 77.5145C50.691 77.5145 51.2468 77.6831 51.7195 77.999C52.1923 78.3149 52.5607 78.7638 52.7783 79.2891C52.9958 79.8143 53.0528 80.3923 52.9419 80.95C52.8309 81.5076 52.5572 82.0198 52.1551 82.4218C51.7531 82.8238 51.2409 83.0976 50.6833 83.2085C50.1257 83.3194 49.5477 83.2625 49.0224 83.0449C48.4972 82.8274 48.0482 82.4589 47.7323 81.9862C47.4165 81.5135 47.2479 80.9577 47.2479 80.3891C47.2503 79.6275 47.5539 78.8977 48.0925 78.3591C48.6311 77.8206 49.3608 77.5169 50.1225 77.5145ZM43.2398 78.1947L43.1944 78.3488V78.3942C43.1944 78.5302 43.1219 78.6571 43.0856 78.8113C43.0868 78.8324 43.0868 78.8536 43.0856 78.8748C43.04 79.1046 42.917 79.3118 42.7372 79.462C42.5573 79.6122 42.3314 79.6961 42.0972 79.7H37.7445C37.5102 79.6961 37.2843 79.6122 37.1044 79.462C36.9246 79.3118 36.8016 79.1046 36.756 78.8748L36.7107 78.6753C36.7107 78.5846 36.7107 78.4848 36.6291 78.3942C36.5475 78.3035 36.5747 78.1947 36.5293 78.0677C36.484 77.9407 36.4658 77.9045 36.4386 77.8319L36.2845 77.5599L36.1666 77.315C36.1666 77.2153 36.0668 77.1246 36.0215 77.0339L35.8855 76.7982C35.8311 76.7075 35.7767 76.6168 35.7132 76.5261L35.5681 76.3085L35.3777 76.0455L35.2144 75.8551C35.1437 75.7662 35.068 75.6815 34.9877 75.6012L34.8245 75.4289L34.5706 75.184L34.4708 75.048L34.1897 74.8304L34.0084 74.6943C33.9122 74.6227 33.8123 74.5561 33.7091 74.4948L33.5278 74.377L33.2013 74.1956L33.0109 74.0958L32.6572 73.9145L32.4668 73.8419L32.095 73.7059L31.9046 73.6515L31.4874 73.5427H31.4421C31.2123 73.4971 31.005 73.3741 30.8548 73.1943C30.7047 73.0144 30.6207 72.7885 30.6169 72.5543V68.2287C30.6199 67.9946 30.7022 67.7685 30.8505 67.5872C30.9987 67.406 31.2041 67.2805 31.433 67.2312C31.469 67.2375 31.5058 67.2375 31.5418 67.2312H31.6053C31.7094 67.2094 31.8123 67.1822 31.9136 67.1496L32.2038 67.059L32.5031 66.9501L32.7751 66.8323L33.0562 66.6962L33.3192 66.5602L33.5822 66.406L33.8361 66.2428L34.0537 66.0887L34.1172 66.0433L34.3258 65.8801L34.4981 65.7441L34.5797 65.6625L34.7792 65.4902L34.9061 65.3541L35.0149 65.2453C35.0801 65.1832 35.1407 65.1165 35.1963 65.0458L35.2779 64.9551V64.9007C35.6063 64.5109 35.8892 64.085 36.1213 63.6312L36.3026 63.2231C36.3214 63.1917 36.3366 63.1582 36.348 63.1234C36.4024 62.9964 36.4477 62.8604 36.493 62.7334L36.5565 62.5521C36.5565 62.4251 36.6291 62.2891 36.6563 62.1531V62.0443C36.7021 61.8153 36.8254 61.6092 37.0055 61.4606C37.1855 61.3119 37.4112 61.2298 37.6447 61.2281H41.9611C42.1941 61.2315 42.419 61.3142 42.5987 61.4626C42.7784 61.6109 42.9022 61.8161 42.9496 62.0443V62.2166C42.9496 62.3163 42.9949 62.4161 43.0221 62.5067L43.1219 62.7969C43.1219 62.8876 43.1853 62.9783 43.2216 63.069C43.2554 63.1649 43.2948 63.2587 43.3395 63.3501C43.3763 63.4403 43.4187 63.5281 43.4665 63.6131C43.4665 63.7037 43.5481 63.7944 43.5934 63.8851C43.6388 63.9758 43.6932 64.0483 43.7385 64.1299L43.9017 64.3929V64.4473C43.9357 64.5082 43.9752 64.5659 44.0196 64.6196C44.0749 64.7049 44.1355 64.7867 44.201 64.8645L44.3733 65.0821L44.5909 65.3179L44.7723 65.5083L45.008 65.7259L45.1985 65.8982L45.4615 66.1068L45.661 66.2519L45.9421 66.4423C46.0051 66.4899 46.0718 66.5323 46.1416 66.5693L46.4499 66.7416L46.6494 66.8413L47.1663 66.8867L47.3567 66.9592L47.7285 67.0952L47.9189 67.1496L48.3179 67.2585H48.3814C48.6096 67.3059 48.8147 67.4296 48.9631 67.6093C49.1115 67.789 49.1942 68.0139 49.1975 68.2469V72.5633C49.1942 72.7963 49.1115 73.0212 48.9631 73.2009C48.8147 73.3806 48.6096 73.5044 48.3814 73.5518L48.2091 73.6062L48.0005 73.6606H47.8282L47.5743 73.7422L47.3748 73.8147L47.2479 73.8601L46.8942 74.0233L46.7763 74.0777L46.7129 74.1412C46.3501 74.3252 46.0042 74.5406 45.6791 74.785L45.5884 74.8576L45.2166 75.1659L45.1441 75.2384L44.8176 75.5558L44.7451 75.6465C44.6453 75.7553 44.5546 75.8641 44.464 75.982L44.3551 76.1271C44.2735 76.245 44.1828 76.3538 44.1103 76.4717L44.0468 76.5805V76.6349L43.8292 76.9977L43.7748 77.1246V77.17L43.5934 77.5508L43.5209 77.7322C43.3304 77.9317 43.2851 78.0677 43.2398 78.1947ZM29.8642 63.0871C29.2957 63.0871 28.7399 62.9185 28.2672 62.6026C27.7945 62.2868 27.426 61.8378 27.2084 61.3126C26.9909 60.7873 26.9339 60.2093 27.0449 59.6517C27.1558 59.0941 27.4296 58.5819 27.8316 58.1798C28.2336 57.7778 28.7458 57.504 29.3034 57.3931C29.861 57.2822 30.439 57.3391 30.9643 57.5567C31.4896 57.7743 31.9385 58.1427 32.2544 58.6155C32.5702 59.0882 32.7388 59.644 32.7388 60.2125C32.7388 60.9749 32.436 61.7061 31.8969 62.2451C31.3578 62.7842 30.6266 63.0871 29.8642 63.0871ZM29.8642 77.5145C30.4328 77.5145 30.9885 77.6831 31.4613 77.999C31.934 78.3149 32.3024 78.7638 32.52 79.2891C32.7376 79.8143 32.7945 80.3923 32.6836 80.95C32.5727 81.5076 32.2989 82.0198 31.8969 82.4218C31.4949 82.8238 30.9827 83.0976 30.425 83.2085C29.8674 83.3194 29.2894 83.2625 28.7642 83.0449C28.2389 82.8274 27.7899 82.4589 27.4741 81.9862C27.1582 81.5135 26.9896 80.9577 26.9896 80.3891C26.992 79.6275 27.2956 78.8977 27.8342 78.3591C28.3728 77.8206 29.1026 77.5169 29.8642 77.5145ZM47.0937 60.2125C47.0937 59.6436 47.2626 59.0874 47.5788 58.6145C47.8951 58.1416 48.3446 57.7732 48.8704 57.5558C49.3962 57.3385 49.9746 57.2822 50.5325 57.3938C51.0903 57.5055 51.6025 57.7801 52.0042 58.1831C52.4058 58.586 52.6789 59.0991 52.7888 59.6573C52.8987 60.2155 52.8405 60.7938 52.6215 61.3189C52.4025 61.844 52.0327 62.2923 51.5588 62.6071C51.0849 62.9218 50.5282 63.0889 49.9593 63.0871C49.1984 63.0847 48.4696 62.7808 47.9325 62.242C47.3953 61.7031 47.0937 60.9733 47.0937 60.2125ZM16.3345 63.0055C16.398 62.8604 16.4434 62.7153 16.4887 62.5793L16.5431 62.4251C16.5431 62.2891 16.6247 62.1531 16.6519 62.008V61.9445C16.6519 61.9445 16.6519 61.8992 16.6519 61.881C16.6993 61.6529 16.8231 61.4477 17.0028 61.2993C17.1825 61.151 17.4073 61.0683 17.6404 61.0649H21.9568C22.1898 61.0683 22.4147 61.151 22.5944 61.2993C22.7741 61.4477 22.8978 61.6529 22.9452 61.881L22.9906 62.0533L23.0722 62.3435C23.0722 62.4433 23.1357 62.5339 23.1629 62.6337C23.1901 62.7334 23.2263 62.8151 23.2626 62.9148L23.3805 63.1869C23.4173 63.2771 23.4597 63.3649 23.5074 63.4498L23.6435 63.7219C23.6888 63.8035 23.7342 63.8851 23.7886 63.9667C23.8364 64.0583 23.8909 64.1462 23.9518 64.2297L24.1059 64.4564L24.2964 64.7103L24.4687 64.9189L24.6772 65.1546C24.7407 65.2181 24.7951 65.2816 24.8586 65.336L25.0944 65.5627L25.2485 65.6987L25.5115 65.9073L25.711 66.0524L25.9921 66.2428C26.0545 66.2887 26.1213 66.3282 26.1916 66.3607C26.2941 66.4295 26.4001 66.493 26.509 66.5511L26.6994 66.6418L27.044 66.805L27.2345 66.8776L27.6063 67.0136L27.7967 67.068L28.2138 67.1768C28.4436 67.2224 28.6509 67.3454 28.8011 67.5253C28.9512 67.7051 29.0352 67.931 29.039 68.1653V72.4817C29.0356 72.7147 28.953 72.9396 28.8046 73.1193C28.6562 73.299 28.451 73.4227 28.2229 73.4701H28.1141H28.0597L27.7423 73.5518L27.4793 73.6424L27.1891 73.7422C27.0955 73.7743 27.0045 73.8137 26.9171 73.8601L26.645 73.987C26.5546 74.0269 26.4668 74.0723 26.3821 74.123L26.1281 74.2591L25.8742 74.4314C25.7952 74.4775 25.7195 74.529 25.6475 74.5855L25.3936 74.776L25.1851 74.9392L24.9402 75.1659C24.8783 75.2187 24.8207 75.2763 24.7679 75.3382C24.6826 75.413 24.6037 75.4949 24.5322 75.583L24.378 75.7553C24.2975 75.845 24.2218 75.9388 24.1513 76.0364L24.0153 76.2178L23.8067 76.517C23.7738 76.5794 23.7375 76.64 23.6979 76.6984C23.6344 76.8072 23.5709 76.916 23.5165 77.0249L23.4168 77.2153L23.2626 77.5599L23.181 77.7503C23.1357 77.8773 23.0903 77.9952 23.045 78.1312L22.9906 78.3125C22.9543 78.4395 22.918 78.5755 22.8817 78.7206V78.775C22.8377 79.0056 22.7152 79.2138 22.535 79.3643C22.3548 79.5147 22.1281 79.5981 21.8933 79.6002H17.6766C17.4408 79.5985 17.2128 79.5154 17.0311 79.3651C16.8493 79.2148 16.725 79.0063 16.6791 78.775V78.6753V78.6118C16.6573 78.5077 16.6301 78.4048 16.5975 78.3035C16.5741 78.2077 16.5438 78.1138 16.5068 78.0224L16.3345 77.8138L16.2166 77.5417C16.1769 77.4454 16.1315 77.3515 16.0806 77.2606L15.9446 76.9977L15.7995 76.7528V76.7075C15.7542 76.6259 15.6998 76.5533 15.6544 76.4808C15.6203 76.4228 15.5809 76.3681 15.5365 76.3175L15.4277 76.1362C15.3936 76.0811 15.3541 76.0294 15.3098 75.982L15.1829 75.8188L15.0741 75.71C15.0245 75.6453 14.9699 75.5847 14.9108 75.5286C14.8762 75.4849 14.8366 75.4454 14.7929 75.4107L14.6569 75.2747L14.4756 75.1115L14.3305 75.048C13.9331 74.6987 13.4982 74.3946 13.0337 74.1412L12.6257 73.9598H12.5622H12.4806L12.0906 73.8147H11.9909H11.9093L11.5193 73.715H11.4649H11.3652C11.1363 73.6691 10.9301 73.5458 10.7815 73.3658C10.6328 73.1858 10.5508 72.96 10.5491 72.7266V68.2287C10.5504 67.9942 10.6321 67.7672 10.7807 67.5856C10.9292 67.4041 11.1355 67.279 11.3652 67.2312C11.3982 67.2365 11.4319 67.2365 11.4649 67.2312H11.5284L11.8458 67.1406L12.1269 67.0499L12.4352 66.932L12.6982 66.8232L12.9884 66.6872L13.2423 66.5511L13.5325 66.3788L13.7592 66.2428L13.9677 66.0887L14.0403 66.0343C14.1137 65.985 14.1834 65.9304 14.2489 65.871L14.3849 65.7622L14.539 65.6262L14.7113 65.472L14.9199 65.2544C14.994 65.1864 15.0636 65.1137 15.1285 65.0368L15.2282 64.9189C15.6809 64.3731 16.0479 63.7615 16.3164 63.1052L16.3345 63.0055ZM9.8508 63.0871C9.2815 63.0907 8.72395 62.9252 8.24885 62.6115C7.77374 62.2978 7.40247 61.8501 7.18212 61.3252C6.96176 60.8002 6.90224 60.2217 7.0111 59.6629C7.11996 59.1041 7.3923 58.5902 7.79359 58.1863C8.19488 57.7825 8.70705 57.5069 9.26515 57.3945C9.82326 57.2821 10.4022 57.338 10.9285 57.555C11.4548 57.772 11.9049 58.1405 12.2215 58.6136C12.5382 59.0867 12.7073 59.6432 12.7073 60.2125C12.7049 60.9726 12.4025 61.701 11.8659 62.2393C11.3293 62.7776 10.6018 63.0823 9.84173 63.0871H9.8508ZM12.7073 80.3891C12.7073 80.9577 12.5387 81.5135 12.2228 81.9862C11.9069 82.4589 11.458 82.8274 10.9327 83.0449C10.4075 83.2625 9.82948 83.3194 9.27186 83.2085C8.71424 83.0976 8.20203 82.8238 7.80001 82.4218C7.39799 82.0198 7.12421 81.5076 7.0133 80.95C6.90238 80.3923 6.95931 79.8143 7.17688 79.2891C7.39445 78.7638 7.7629 78.3149 8.23562 77.999C8.70835 77.6831 9.26412 77.5145 9.83267 77.5145C10.5951 77.5145 11.3262 77.8174 11.8653 78.3565C12.4044 78.8956 12.7073 79.6268 12.7073 80.3891Z" fill="#131313"/>
<path d="M77.3448 56.0049L75.6854 57.5646C74.8223 56.7325 73.6649 56.276 72.4662 56.2951C71.9223 56.2907 71.3833 56.3974 70.8821 56.6085C70.3808 56.8197 69.9279 57.1308 69.5511 57.523C69.1742 57.9151 68.8813 58.38 68.6902 58.8892C68.4992 59.3985 68.414 59.9413 68.4399 60.4846C68.4114 61.0289 68.4947 61.5733 68.6847 62.0842C68.8747 62.595 69.1674 63.0616 69.5446 63.455C69.9219 63.8484 70.3758 64.1603 70.8782 64.3716C71.3807 64.5828 71.9211 64.6888 72.4662 64.6831C73.0609 64.6954 73.6521 64.5885 74.2049 64.369C74.7578 64.1494 75.2611 63.8215 75.6854 63.4045L77.3448 64.937C76.6048 65.7451 75.6751 66.3559 74.6397 66.7143C73.6043 67.0728 72.4959 67.1675 71.4147 66.9899C70.3335 66.8124 69.3136 66.3681 68.4472 65.6974C67.5808 65.0266 66.8953 64.1505 66.4526 63.1482C66.0099 62.146 65.824 61.0492 65.9116 59.957C65.9993 58.8648 66.3578 57.8117 66.9548 56.8929C67.5517 55.9741 68.3682 55.2186 69.3305 54.6946C70.2928 54.1707 71.3705 53.8948 72.4662 53.892C73.3811 53.889 74.2867 54.0751 75.1263 54.4387C75.9658 54.8023 76.7212 55.3355 77.3448 56.0049Z" fill="#131313"/>
<path d="M72.4664 67.2675C70.6626 67.2675 68.9327 66.551 67.6573 65.2755C66.3818 64.0001 65.6653 62.2702 65.6653 60.4664C65.6653 58.6626 66.3818 56.9327 67.6573 55.6573C68.9327 54.3818 70.6626 53.6653 72.4664 53.6653C73.4086 53.6698 74.3398 53.8677 75.2024 54.2467C76.065 54.6258 76.8406 55.1779 77.4811 55.8688L77.6171 56.0049L75.6856 57.8185L75.5586 57.6915C74.7275 56.8961 73.6167 56.4596 72.4664 56.4764C71.9463 56.4707 71.4306 56.5717 70.9512 56.7734C70.4718 56.975 70.0389 57.2729 69.6793 57.6487C69.3198 58.0244 69.0411 58.47 68.8607 58.9578C68.6803 59.4456 68.602 59.9652 68.6306 60.4845C68.602 61.0038 68.6803 61.5235 68.8607 62.0113C69.0411 62.4991 69.3198 62.9446 69.6793 63.3204C70.0389 63.6961 70.4718 63.994 70.9512 64.1957C71.4306 64.3973 71.9463 64.4984 72.4664 64.4927C73.0368 64.5049 73.6039 64.402 74.1336 64.1901C74.6634 63.9782 75.145 63.6617 75.5496 63.2594L75.6765 63.1324L77.6171 64.9461L77.4811 65.0821C76.8403 65.7715 76.0643 66.3214 75.2015 66.6974C74.3387 67.0734 73.4076 67.2675 72.4664 67.2675ZM72.4664 54.0734C70.809 54.1357 69.2402 54.838 68.0896 56.0327C66.9391 57.2273 66.2963 58.8214 66.2963 60.48C66.2963 62.1386 66.9391 63.7327 68.0896 64.9273C69.2402 66.122 70.809 66.8243 72.4664 66.8867C73.3274 66.8855 74.1795 66.7134 74.9734 66.3802C75.7673 66.0471 76.4872 65.5596 77.0912 64.9461L75.6947 63.6675C74.815 64.4649 73.6624 64.8935 72.4755 64.8645C71.9055 64.8727 71.3399 64.7638 70.8138 64.5444C70.2876 64.3251 69.8122 64 69.4168 63.5894C69.0215 63.1787 68.7147 62.6913 68.5155 62.1572C68.3163 61.6231 68.2289 61.0538 68.2588 60.4845C68.2355 59.9177 68.3272 59.3519 68.5282 58.8214C68.7292 58.2908 69.0355 57.8064 69.4285 57.3973C69.8216 56.9881 70.2933 56.6627 70.8154 56.4406C71.3375 56.2184 71.899 56.1041 72.4664 56.1046C73.6524 56.0908 74.8007 56.521 75.6856 57.3107L77.0912 56.0049C76.4852 55.3946 75.7648 54.9098 74.9712 54.5784C74.1776 54.2469 73.3264 54.0753 72.4664 54.0734Z" fill="#131313"/>
<path d="M84.0011 54.0189C87.6284 54.0189 89.6233 56.159 89.6233 58.8976C89.6513 59.784 89.3954 60.6561 88.893 61.3869C88.3906 62.1176 87.668 62.6688 86.8303 62.9601C87.6234 63.5759 88.2784 64.3513 88.7528 65.2362L89.8591 66.9592H86.9936L86.1593 65.6624C85.1618 64.1299 84.8444 63.8488 83.5658 63.7944H82.1512V66.9592H79.603V54.0189H84.0011ZM82.1875 61.3913H84.2822C85.9417 61.3913 87.2384 60.6387 87.2384 58.8976C87.2384 57.1565 85.9417 56.422 84.2822 56.422H82.1512L82.1875 61.3913Z" fill="#131313"/>
<path d="M90.2035 67.1405H86.8937L85.9869 65.7622C85.0256 64.2841 84.7627 64.0211 83.5566 63.9486H82.3415V67.1043H79.4215V53.8285H84.0009C87.474 53.8285 89.7864 55.8688 89.7864 58.8976C89.8139 59.763 89.5815 60.6168 89.1192 61.349C88.657 62.0812 87.9861 62.6581 87.1929 63.0055C87.8611 63.6251 88.43 64.3439 88.8796 65.1365L90.2035 67.1405ZM87.066 66.7688H89.5144L88.6075 65.336C88.1443 64.4774 87.5083 63.724 86.7395 63.1234L86.4221 62.9239L86.7758 62.7878C87.5751 62.5056 88.2641 61.9768 88.7433 61.2775C89.2225 60.5783 89.4671 59.7449 89.4418 58.8976C89.4418 56.0502 87.3108 54.2094 84.0009 54.2094H79.8114V66.7688H81.9878V63.604H83.5929C84.9622 63.604 85.3339 64.012 86.3133 65.5627L87.066 66.7688ZM84.2458 61.5818H81.9697V56.2316H84.2458C86.1501 56.2316 87.3833 57.2835 87.3833 58.8976C87.3833 60.5117 86.2136 61.5818 84.2458 61.5818ZM82.3415 61.2009H84.2458C85.08 61.2009 86.9662 60.9833 86.9662 58.8976C86.9662 57.2109 85.5334 56.6124 84.2458 56.6124H82.3415V61.2009Z" fill="#131313"/>
<path d="M94.7014 66.9592V62.6337L90.1039 54.0189H93.0057L95.9982 59.4598L98.9725 54.0189H101.874L97.2587 62.6337V66.9592H94.7014Z" fill="#131313"/>
<path d="M97.4401 67.1405H94.5202V62.679L89.7866 53.8285H93.1146L95.9983 59.0971L98.8548 53.8285H102.183L97.4311 62.679L97.4401 67.1405ZM94.892 66.7688H97.0411V62.543L101.575 54.1912H99.0906L96.0074 59.8588L92.897 54.1912H90.4123L94.892 62.6155V66.7688Z" fill="#131313"/>
<path d="M107.769 54.0189C111.396 54.0189 113.536 56.159 113.536 58.9883C113.536 61.8175 111.396 63.9758 107.769 63.9758H106.109V66.9592H103.561V54.0189H107.769ZM107.977 61.5818C109.619 61.5818 111.115 60.82 111.115 58.9883C111.115 57.1565 109.619 56.422 107.977 56.422H106.109V61.5818H107.977Z" fill="#131313"/>
<path d="M106.263 67.1405H103.334V53.8285H107.769C111.332 53.8285 113.726 55.9051 113.726 58.9883C113.726 62.0714 111.332 64.1662 107.769 64.1662H106.263V67.1405ZM103.706 66.7688H105.883V63.7944H107.769C111.16 63.7944 113.355 61.9082 113.355 58.9883C113.355 56.0683 111.106 54.1912 107.769 54.1912H103.706V66.7688ZM107.977 61.7631H105.883V56.2316H107.977C109.637 56.2316 111.305 57.084 111.305 58.952C111.305 61.0377 109.582 61.7631 107.977 61.7631ZM106.263 61.3913H107.977C108.666 61.3913 110.933 61.219 110.933 58.9883C110.933 57.2291 109.337 56.6124 107.977 56.6124H106.263V61.3913Z" fill="#131313"/>
<path d="M120.691 66.9592H118.143V56.422H114.597V54.0189H124.245V56.422H120.691V66.9592Z" fill="#131313"/>
<path d="M120.881 67.1405H117.952V56.6124H114.407V53.8285H124.382V56.6124H120.836L120.881 67.1405ZM118.333 66.7688H120.51V56.2316H124.055V54.1912H114.778V56.2316H118.333V66.7688Z" fill="#131313"/>
<path d="M138.473 60.4845C138.473 61.788 138.087 63.0623 137.363 64.1462C136.639 65.2301 135.61 66.0751 134.406 66.5744C133.202 67.0736 131.877 67.2047 130.598 66.9511C129.32 66.6974 128.145 66.0704 127.223 65.1494C126.3 64.2283 125.672 63.0544 125.416 61.7762C125.161 60.498 125.29 59.1727 125.788 57.9679C126.285 56.7632 127.129 55.7329 128.212 55.0074C129.295 54.2819 130.568 53.8938 131.872 53.892C132.738 53.8908 133.597 54.0604 134.398 54.3912C135.198 54.722 135.926 55.2074 136.539 55.8197C137.153 56.432 137.639 57.1591 137.971 57.9596C138.303 58.76 138.474 59.618 138.473 60.4845ZM127.873 60.4845C127.873 61.0145 127.977 61.5392 128.18 62.0288C128.383 62.5184 128.68 62.9632 129.055 63.3379C129.429 63.7126 129.874 64.0099 130.364 64.2127C130.853 64.4155 131.378 64.5199 131.908 64.5199C132.438 64.5199 132.963 64.4155 133.452 64.2127C133.942 64.0099 134.387 63.7126 134.762 63.3379C135.136 62.9632 135.434 62.5184 135.636 62.0288C135.839 61.5392 135.943 61.0145 135.943 60.4845C135.943 59.9546 135.839 59.4299 135.636 58.9403C135.434 58.4507 135.136 58.0058 134.762 57.6311C134.387 57.2564 133.942 56.9592 133.452 56.7564C132.963 56.5536 132.438 56.4492 131.908 56.4492C131.378 56.4492 130.853 56.5536 130.364 56.7564C129.874 56.9592 129.429 57.2564 129.055 57.6311C128.68 58.0058 128.383 58.4507 128.18 58.9403C127.977 59.4299 127.873 59.9546 127.873 60.4845Z" fill="#131313"/>
<path d="M131.872 67.2675C130.53 67.2675 129.219 66.8697 128.103 66.1244C126.988 65.379 126.118 64.3197 125.605 63.0803C125.092 61.8408 124.957 60.477 125.219 59.1612C125.481 57.8455 126.127 56.6368 127.075 55.6882C128.024 54.7396 129.233 54.0936 130.548 53.8319C131.864 53.5702 133.228 53.7045 134.467 54.2179C135.707 54.7313 136.766 55.6006 137.512 56.7161C138.257 57.8316 138.655 59.143 138.655 60.4845C138.655 62.2835 137.94 64.0088 136.668 65.2808C135.396 66.5529 133.671 67.2675 131.872 67.2675ZM131.872 54.0733C130.604 54.0733 129.364 54.4493 128.31 55.1538C127.256 55.8583 126.434 56.8596 125.949 58.0311C125.463 59.2026 125.336 60.4916 125.584 61.7353C125.831 62.9789 126.442 64.1213 127.338 65.0179C128.235 65.9145 129.377 66.5251 130.621 66.7725C131.865 67.0199 133.154 66.8929 134.325 66.4077C135.497 65.9224 136.498 65.1007 137.202 64.0464C137.907 62.9921 138.283 61.7525 138.283 60.4845C138.283 58.7842 137.607 57.1535 136.405 55.9511C135.203 54.7488 133.572 54.0733 131.872 54.0733ZM131.872 64.8644C131.302 64.8727 130.736 64.7638 130.21 64.5444C129.684 64.3251 129.208 64 128.813 63.5894C128.418 63.1787 128.111 62.6912 127.912 62.1572C127.713 61.6231 127.625 61.0538 127.655 60.4845C127.632 59.9169 127.724 59.3504 127.925 58.8192C128.127 58.2881 128.434 57.8033 128.828 57.394C129.222 56.9847 129.695 56.6595 130.218 56.4379C130.741 56.2163 131.304 56.1029 131.872 56.1046C132.443 56.0939 133.011 56.2009 133.539 56.4191C134.067 56.6374 134.545 56.962 134.942 57.373C135.34 57.7839 135.648 58.2722 135.848 58.8075C136.049 59.3429 136.137 59.9137 136.107 60.4845C136.137 61.0553 136.049 61.6262 135.848 62.1615C135.648 62.6968 135.34 63.1852 134.942 63.5961C134.545 64.007 134.067 64.3317 133.539 64.5499C133.011 64.7681 132.443 64.8752 131.872 64.8644ZM131.872 56.4764C131.352 56.4706 130.836 56.5717 130.357 56.7734C129.877 56.975 129.444 57.2729 129.085 57.6487C128.725 58.0244 128.446 58.47 128.266 58.9578C128.086 59.4456 128.007 59.9652 128.036 60.4845C128.011 61.0058 128.091 61.5267 128.273 62.0158C128.455 62.5048 128.735 62.9518 129.095 63.3297C129.455 63.7075 129.888 64.0083 130.367 64.2139C130.847 64.4194 131.363 64.5254 131.885 64.5254C132.407 64.5254 132.924 64.4194 133.403 64.2139C133.883 64.0083 134.316 63.7075 134.676 63.3297C135.036 62.9518 135.315 62.5048 135.497 62.0158C135.679 61.5267 135.76 61.0058 135.735 60.4845C135.762 59.9632 135.682 59.4419 135.5 58.9528C135.317 58.4637 135.036 58.0174 134.674 57.6415C134.311 57.2657 133.876 56.9683 133.394 56.7679C132.912 56.5674 132.394 56.4682 131.872 56.4764Z" fill="#131313"/>
<path d="M66.7625 85.6215V72.6813H69.3106V83.2094H75.1324V85.6125L66.7625 85.6215Z" fill="#131313"/>
<path d="M75.2776 85.8119H66.5721V72.4999H69.5012V83.028H75.2776V85.8119ZM66.9077 85.4311H74.9058V83.4089H69.1203V72.8717H66.9439L66.9077 85.4311Z" fill="#131313"/>
<path d="M82.8584 83.2094V85.6125H77.1998V83.2094H78.7505V75.0481H77.1998V72.6813H82.8584V75.0481H81.3077V83.2094H82.8584Z" fill="#131313"/>
<path d="M83.049 85.8119H77.0187V83.028H78.5693V75.2747H77.0187V72.4999H83.049V75.2747H81.4893V83.028H83.049V85.8119ZM77.3905 85.4311H82.6681V83.4089H81.1175V74.9029H82.6681V72.8717H77.3905V74.9029H78.9049V83.4089H77.3905V85.4311Z" fill="#131313"/>
<path d="M94.5746 85.6215L88.4626 77.4602V85.6215H85.9054V72.6813H87.4016L93.5408 80.8426V72.6813H96.1343V85.6215H94.5746Z" fill="#131313"/>
<path d="M96.2793 85.8119H94.4657L88.6258 78.0315V85.8119H85.724V72.4999H87.5376L93.3866 80.2804V72.4999H96.3156L96.2793 85.8119ZM94.6652 85.4311H95.9075V72.8717H93.7312V81.3957L87.3109 72.8717H86.0958V85.4311H88.2722V76.907L94.6652 85.4311Z" fill="#131313"/>
<path d="M107.27 77.9136V80.3167H101.675V83.2094H107.733V85.6125H99.1268V72.6813H107.733V75.0481H101.675V77.8773L107.27 77.9136Z" fill="#131313"/>
<path d="M107.923 85.8119H98.9363V72.4999H107.923V75.2747H101.865V77.7685H107.46V80.4889H101.865V83.028H107.923V85.8119ZM99.3081 85.4311H107.551V83.4089H101.484V80.1353H107.089V78.104H101.484V74.9029H107.551V72.8717H99.3081V85.4311Z" fill="#131313"/>
</svg>
