<svg width="116" height="25" viewBox="0 0 116 25" fill="none" xmlns="http://www.w3.org/2000/svg">
<path d="M58.0386 5.19098V2.40698H46.2066V5.19098H50.6436V21.75H53.6016V5.19098H58.0386Z" fill="#131313"/>
<path d="M74.7929 2.40698H64.1209V21.75H74.7929V18.966H67.0789V12.876H74.5609V10.092H67.0789V5.19098H74.7929V2.40698Z" fill="#131313"/>
<path d="M82.1009 2.40698V21.75H85.0589V13.833H85.5809L91.1199 21.75H94.6869L88.6549 13.485C91.2359 12.905 92.9469 10.875 92.9469 8.09098C92.9469 7.24998 92.7729 4.95898 90.6559 3.53798C89.4089 2.69698 87.9009 2.40698 85.5519 2.40698H82.1009ZM85.0589 5.13298H86.0739C87.5239 5.13298 90.1049 5.39398 90.1049 8.11998C90.1049 11.194 86.7989 11.281 85.9869 11.281H85.0589V5.13298Z" fill="#131313"/>
<path d="M105.103 21.75H108.061V13.398L114.412 2.40698H111.048L106.582 10.15L102.116 2.40698H98.7521L105.103 13.398V21.75Z" fill="#131313"/>
<path d="M0.115967 2.40698L8.69997 22.997L17.284 2.40698H14.094L8.69997 15.892L3.30597 2.40698H0.115967Z" fill="#131313"/>
<path fill-rule="evenodd" clip-rule="evenodd" d="M31.4167 24.1667C38.0901 24.1667 43.5 18.7568 43.5 12.0833C43.5 5.40989 38.0901 0 31.4167 0C24.7433 0 19.3334 5.40989 19.3334 12.0833C19.3334 18.7568 24.7433 24.1667 31.4167 24.1667ZM31.4167 19.3333C35.4208 19.3333 38.6667 16.0874 38.6667 12.0833C38.6667 8.07927 35.4208 4.83333 31.4167 4.83333C27.4126 4.83333 24.1667 8.07927 24.1667 12.0833C24.1667 16.0874 27.4126 19.3333 31.4167 19.3333Z" fill="url(#paint0_linear)"/>
<defs>
<linearGradient id="paint0_linear" x1="31.4167" y1="0" x2="31.4167" y2="24.1667" gradientUnits="userSpaceOnUse">
<stop stop-color="#1264AD"/>
<stop offset="1" stop-color="#48C6C9"/>
</linearGradient>
</defs>
</svg>
