<svg width="116" height="25" viewBox="0 0 116 25" fill="none" xmlns="http://www.w3.org/2000/svg">
<path d="M58.0379 5.19098V2.40698H46.2059V5.19098H50.6429V21.75H53.6009V5.19098H58.0379Z" fill="#131313"/>
<path d="M74.7922 2.40698H64.1202V21.75H74.7922V18.966H67.0782V12.876H74.5602V10.092H67.0782V5.19098H74.7922V2.40698Z" fill="#131313"/>
<path d="M82.1002 2.40698V21.75H85.0582V13.833H85.5802L91.1192 21.75H94.6862L88.6542 13.485C91.2352 12.905 92.9462 10.875 92.9462 8.09098C92.9462 7.24998 92.7722 4.95898 90.6552 3.53798C89.4082 2.69698 87.9002 2.40698 85.5512 2.40698H82.1002ZM85.0582 5.13298H86.0732C87.5232 5.13298 90.1042 5.39398 90.1042 8.11998C90.1042 11.194 86.7982 11.281 85.9862 11.281H85.0582V5.13298Z" fill="#131313"/>
<path d="M105.102 21.75H108.06V13.398L114.411 2.40698H111.047L106.581 10.15L102.115 2.40698H98.7514L105.102 13.398V21.75Z" fill="#131313"/>
<path d="M0.115234 2.40698L8.69923 22.997L17.2832 2.40698H14.0932L8.69923 15.892L3.30523 2.40698H0.115234Z" fill="#131313"/>
<path fill-rule="evenodd" clip-rule="evenodd" d="M28.1497 0.0423925L31.3341 9.75835L34.5323 0C39.6961 1.39727 43.5007 6.18536 43.5007 11.8772C43.5007 18.6645 38.0908 24.1666 31.4173 24.1666C24.7439 24.1666 19.334 18.6645 19.334 11.8772C19.334 6.24158 23.0638 1.49194 28.1497 0.0423925ZM39.334 11.7925C39.334 16.2861 35.7523 19.9289 31.334 19.9289C26.9157 19.9289 23.334 16.2861 23.334 11.7925C23.334 9.1867 24.5384 6.86705 26.4118 5.37789L31.3346 17.8948L36.2571 5.37866C38.13 6.86785 39.334 9.18716 39.334 11.7925Z" fill="url(#paint0_linear_2198_12429)"/>
<defs>
<linearGradient id="paint0_linear_2198_12429" x1="31.4173" y1="0" x2="31.4173" y2="24.1667" gradientUnits="userSpaceOnUse">
<stop stop-color="#E30E00"/>
<stop offset="1" stop-color="#FF8A00"/>
</linearGradient>
</defs>
</svg>
