<svg width="75" height="75" viewBox="0 0 75 75" fill="none" xmlns="http://www.w3.org/2000/svg">
<path fill-rule="evenodd" clip-rule="evenodd" d="M27.3588 0.908272L37.2412 30.5554L47.1667 0.778687C63.1925 5.04217 75 19.6527 75 37.0209C75 57.7316 58.2107 74.5209 37.5 74.5209C16.7893 74.5209 0 57.7316 0 37.0209C0 19.8245 11.575 5.33157 27.3588 0.908272ZM62.069 36.7623C62.069 50.4742 50.9533 61.5899 37.2414 61.5899C23.5295 61.5899 12.4138 50.4742 12.4138 36.7623C12.4138 28.8111 16.1515 21.7329 21.9657 17.1889L37.2434 55.383L52.5201 17.1913C58.3326 21.7354 62.069 28.8125 62.069 36.7623Z" fill="url(#paint0_linear_2092_232776)"/>
<defs>
<linearGradient id="paint0_linear_2092_232776" x1="37.5" y1="0.778687" x2="37.5" y2="74.5209" gradientUnits="userSpaceOnUse">
<stop stop-color="#E30E00"/>
<stop offset="1" stop-color="#FF8A00"/>
</linearGradient>
</defs>
</svg>
