<svg width="15" height="15" viewBox="0 0 15 15" fill="none" xmlns="http://www.w3.org/2000/svg">
<path d="M7.5 0C3.358 0 0 3.358 0 7.5C0 11.642 3.358 15 7.5 15C11.642 15 15 11.642 15 7.5C15 3.358 11.642 0 7.5 0ZM6.63333 10.7373V7.304C6.63333 7.07415 6.72464 6.85371 6.88717 6.69117C7.04971 6.52864 7.27015 6.43733 7.5 6.43733C7.72985 6.43733 7.95029 6.52864 8.11283 6.69117C8.27536 6.85371 8.36667 7.07415 8.36667 7.304V10.7373C8.36667 10.9672 8.27536 11.1876 8.11283 11.3502C7.95029 11.5127 7.72985 11.604 7.5 11.604C7.27015 11.604 7.04971 11.5127 6.88717 11.3502C6.72464 11.1876 6.63333 10.9672 6.63333 10.7373V10.7373ZM7.5 5.49167C7.29398 5.49167 7.09258 5.43057 6.92128 5.31611C6.74998 5.20165 6.61647 5.03897 6.53763 4.84863C6.45878 4.65829 6.43816 4.44884 6.47835 4.24678C6.51854 4.04472 6.61775 3.85911 6.76343 3.71343C6.90911 3.56775 7.09472 3.46854 7.29678 3.42835C7.49884 3.38816 7.70829 3.40878 7.89863 3.48763C8.08897 3.56647 8.25165 3.69998 8.36611 3.87128C8.48057 4.04258 8.54167 4.24398 8.54167 4.45C8.54167 4.72627 8.43192 4.99122 8.23657 5.18657C8.04122 5.38192 7.77627 5.49167 7.5 5.49167Z" fill="#838383"/>
</svg>
