<svg width="47" height="47" viewBox="0 0 47 47" fill="none" xmlns="http://www.w3.org/2000/svg">
<circle cx="23.5" cy="23.5" r="23" stroke="#48C6C9"/>
<path fill-rule="evenodd" clip-rule="evenodd" d="M30.9474 13.8045L35.2324 22.4266C35.2487 22.4587 35.2539 22.4949 35.2471 22.53C35.2404 22.5651 35.2221 22.5972 35.195 22.6216L23.6222 33.2446C23.5893 33.2748 23.5455 33.2917 23.5 33.2917C23.4545 33.2917 23.4107 33.2748 23.3778 33.2446L11.805 22.6222C11.7779 22.5978 11.7596 22.5657 11.7529 22.5306C11.7461 22.4955 11.7513 22.4593 11.7676 22.4272L16.0526 13.8052C16.0665 13.7762 16.0887 13.7517 16.1167 13.7345C16.1447 13.7174 16.1772 13.7083 16.2105 13.7084L30.7881 13.7084C30.8215 13.708 30.8543 13.7168 30.8826 13.7339C30.9108 13.751 30.9333 13.7755 30.9474 13.8045Z" fill="#48C6C9"/>
<path fill-rule="evenodd" clip-rule="evenodd" d="M21.9068 23.9412C21.9959 23.9467 22.4558 23.969 23.4817 23.969C24.2977 23.969 24.8771 23.9491 25.0804 23.9412C28.2339 23.8283 30.5877 23.3813 30.5877 22.8461C30.5877 22.311 28.2339 21.8646 25.0804 21.7499L25.0804 23.4961C24.8741 23.5082 24.2837 23.5365 23.4676 23.5365C22.4884 23.5365 21.9981 23.5033 21.9098 23.4967L21.9098 21.7511C18.763 21.8652 16.4143 22.3122 16.4143 22.8461C16.4143 23.3801 18.7622 23.8271 21.9098 23.9406L21.9068 23.9412ZM21.9068 21.5705L21.9068 20.0079L17.5152 20.0079L17.5152 17.625L29.472 17.625L29.472 20.0079L25.0811 20.0079L25.0811 21.5699C28.6501 21.7033 31.334 22.279 31.334 22.9688C31.334 23.6586 28.6501 24.2336 25.0811 24.3677L25.0811 29.375L21.9076 29.375L21.9076 24.3659C18.3468 24.2324 15.6673 23.6573 15.6673 22.9682C15.6673 22.279 18.3446 21.7039 21.9076 21.5699L21.9068 21.5705Z" fill="white"/>
</svg>
