<svg width="47" height="47" viewBox="0 0 47 47" fill="none" xmlns="http://www.w3.org/2000/svg">
<circle cx="23.5" cy="23.5" r="23" stroke="#48C6C9"/>
<path fill-rule="evenodd" clip-rule="evenodd" d="M26.6786 11.7916L23.5822 21.2393L20.4721 11.7497C15.4502 13.1081 11.75 17.7643 11.75 23.2996C11.75 29.8996 17.0107 35.25 23.5 35.25C29.9893 35.25 35.25 29.8996 35.25 23.2996C35.25 17.8199 31.6237 13.2016 26.6786 11.7916ZM15.8017 23.2172C15.8017 27.5869 19.2846 31.1292 23.581 31.1292C27.8774 31.1292 31.3603 27.5869 31.3603 23.2172C31.3603 20.6833 30.1892 18.4277 28.3674 16.9796L23.5804 29.1512L18.7937 16.9803C16.9725 18.4284 15.8017 20.6838 15.8017 23.2172Z" fill="#48C6C9"/>
</svg>
