<svg width="15" height="12" viewBox="0 0 15 12" fill="none" xmlns="http://www.w3.org/2000/svg">
<path d="M14.8823 3.93085L11.0692 0.117554C10.9538 0.00280662 10.7808 -0.0312464 10.6302 0.0300814C10.4797 0.0925388 10.3817 0.239241 10.3817 0.402406V2.1638H7.5001C7.27803 2.1638 7.0976 2.34407 7.0976 2.56631C7.0976 2.78854 7.27787 2.96897 7.5001 2.96897H10.7845C11.0068 2.96897 11.1872 2.78854 11.1872 2.56631V1.37429L14.0281 4.21554L11.1872 7.0563V5.86413C11.1872 5.64189 11.0068 5.46146 10.7845 5.46146H4.61802V3.69958C4.61802 3.53658 4.5199 3.38987 4.36948 3.32742C4.21891 3.2656 4.04606 3.29966 3.93066 3.41489L0.118016 7.2277C-0.0393385 7.38489 -0.0393385 7.63973 0.118016 7.79692L3.93083 11.6102C4.00781 11.6872 4.11094 11.728 4.21535 11.728C4.26732 11.728 4.31977 11.718 4.36964 11.6975C4.52006 11.6352 4.61818 11.4885 4.61818 11.3254V9.5638H7.50026C7.72266 9.5638 7.90293 9.38321 7.90293 9.16114C7.90293 8.93874 7.72266 8.75847 7.50026 8.75847H4.21487C3.99264 8.75847 3.81221 8.93874 3.81221 9.16114C3.81221 9.16324 3.81221 9.16533 3.81221 9.16727C3.81237 9.21569 3.81269 9.80314 3.81269 10.3538L0.971924 7.51239L3.81285 4.67162C3.81285 5.21308 3.81253 5.79085 3.81237 5.85525C3.81188 5.88398 3.8143 5.91286 3.81995 5.94175C3.85723 6.13042 4.02266 6.26679 4.21503 6.26679H10.3819V8.02803C10.3819 8.19135 10.4798 8.33805 10.6304 8.40035C10.7803 8.46168 10.954 8.42811 11.0694 8.31288L14.8825 4.50007C14.958 4.4247 15 4.32238 15 4.21538C15 4.10838 14.9579 4.00622 14.8823 3.93085Z" fill="#F4F4F4"/>
</svg>
