<svg xmlns="http://www.w3.org/2000/svg" viewBox="0 0 115.76 33.17"><defs><style>.cls-1{fill:#fff;}</style></defs><g id="Layer_2" data-name="Layer 2"><g id="Layer_1-2" data-name="Layer 1"><path class="cls-1" d="M9,4.59a2.3,2.3,0,1,1,2.3-2.3A2.3,2.3,0,0,1,9,4.59"/><path class="cls-1" d="M2.3,4.61A2.3,2.3,0,1,1,4.59,2.3,2.3,2.3,0,0,1,2.3,4.61"/><path class="cls-1" d="M12.35,12.34A2.3,2.3,0,1,1,14.64,10a2.29,2.29,0,0,1-2.29,2.3"/><path class="cls-1" d="M5.62,12.36a2.3,2.3,0,1,1,2.29-2.3,2.31,2.31,0,0,1-2.29,2.3"/><path class="cls-1" d="M15.87,18.74a2.3,2.3,0,1,1,2.29-2.3,2.29,2.29,0,0,1-2.29,2.3"/><path class="cls-1" d="M9.14,18.75a2.3,2.3,0,1,1,2.29-2.3,2.29,2.29,0,0,1-2.29,2.3"/><path class="cls-1" d="M9.07,28.56a2.3,2.3,0,1,0,2.3,2.29,2.3,2.3,0,0,0-2.3-2.29"/><path class="cls-1" d="M2.33,28.57a2.3,2.3,0,0,0,0,4.6,2.3,2.3,0,1,0,0-4.6"/><path class="cls-1" d="M12.36,21.11a2.3,2.3,0,1,0,2.31,2.29,2.29,2.29,0,0,0-2.31-2.29"/><path class="cls-1" d="M5.63,21.12a2.3,2.3,0,1,0,2.3,2.29,2.29,2.29,0,0,0-2.3-2.29"/><polygon class="cls-1" points="38 19.96 34.26 10.69 31.02 10.69 36.63 23.55 39.51 23.55 44.89 10.69 41.83 10.69 38 19.96"/><path class="cls-1" d="M53.33,10.44c-4.32,0-6.42,2.15-6.42,6.56,0,4.65,2,6.82,6.42,6.82s6.41-2.13,6.41-6.7S57.7,10.44,53.33,10.44Zm0,11C51,21.43,50,20.07,50,17c0-2.83,1.08-4.21,3.31-4.21s3.32,1.37,3.32,4.31S55.59,21.43,53.33,21.43Z"/><polygon class="cls-1" points="61.65 13.11 65.74 13.11 65.74 23.55 68.69 23.55 68.69 13.11 72.8 13.11 72.8 10.71 61.65 10.71 61.65 13.11"/><path class="cls-1" d="M74.6,17.35c0,2.35.64,4,2,5.07a5.78,5.78,0,0,0,4,1.14h4.6V21.15H80.71c-2,0-2.87-.82-2.91-2.9h7.39V15.84H77.82C78,14,78.87,13.1,80.71,13.1h4.48V10.69H80.66C76.52,10.69,74.6,12.81,74.6,17.35Z"/><path class="cls-1" d="M100.76,14.6c0-2.67-1.44-3.91-4.53-3.91H89.57V23.56h2.86v-5h3l2.78,5h3.24l-3.18-5.33C99.87,17.83,100.76,16.54,100.76,14.6Zm-8.33-1.45H95.6c1.71,0,2.26.36,2.26,1.49s-.57,1.5-2.26,1.5H92.43Z"/><polygon class="cls-1" points="112.42 10.69 109.31 15.44 106.27 10.74 106.24 10.69 102.99 10.69 107.92 17.89 107.92 23.55 110.78 23.55 110.78 17.9 115.76 10.69 112.42 10.69"/></g></g></svg>