<svg width="40" height="40" viewBox="0 0 40 40" fill="none" xmlns="http://www.w3.org/2000/svg">
<g opacity="0.5">
<path fill-rule="evenodd" clip-rule="evenodd" d="M20 0C26.7778 0 32.32 5.54217 32.32 12.32C32.32 15.5246 31.0804 18.4519 29.0612 20.6469C35.517 23.3977 40 29.7811 40 37.28C40 38.0378 39.7439 38.7315 39.2377 39.2377C38.7315 39.7439 38.0378 40 37.28 40C36.5222 40 35.8285 39.7439 35.3223 39.2377C34.8161 38.7315 34.56 38.0378 34.56 37.28C34.56 30.2338 28.9662 24.64 21.92 24.64H18.08C11.0338 24.64 5.44 30.2338 5.44 37.28C5.44 38.0378 5.18391 38.7315 4.67769 39.2377C4.17146 39.7439 3.4778 40 2.72 40C1.9622 40 1.26854 39.7439 0.762318 39.2377C0.256092 38.7315 0 38.0378 0 37.28C0 29.7811 4.48295 23.3977 10.9388 20.6469C8.91956 18.4519 7.68 15.5246 7.68 12.32C7.68 5.54217 13.2222 0 20 0ZM26.88 12.32C26.88 8.53783 23.7822 5.44 20 5.44C16.2178 5.44 13.12 8.53783 13.12 12.32C13.12 16.1022 16.2178 19.2 20 19.2C23.7822 19.2 26.88 16.1022 26.88 12.32Z" fill="#131313"/>
</g>
</svg>
