<svg width="9" height="7" viewBox="0 0 9 7" fill="none" xmlns="http://www.w3.org/2000/svg">
<path fill-rule="evenodd" clip-rule="evenodd" d="M4.10853 4.60661C4.32473 4.77777 4.67641 4.77687 4.89147 4.60661L8.60853 1.66394C8.82473 1.49278 9 1.57605 9 1.85497V6.17787C9 6.45453 8.77753 6.67881 8.50007 6.67881H0.499927C0.223825 6.67881 0 6.45679 0 6.17787V1.85497C0 1.57831 0.176405 1.49368 0.391473 1.66394L4.10853 4.60661ZM7.61564 0.778809C7.89171 0.778809 7.94113 0.916862 7.72343 1.08921L4.65535 3.5181C4.56955 3.58603 4.431 3.58647 4.34465 3.5181L1.27657 1.08921C1.06003 0.917778 1.10883 0.778809 1.38436 0.778809H7.61564Z" fill="#131313"/>
</svg>
