<svg width="15" height="12" viewBox="0 0 15 12" fill="none" xmlns="http://www.w3.org/2000/svg">
<path d="M14.8823 3.93091L11.0692 0.117615C10.9538 0.00286766 10.7808 -0.0311853 10.6302 0.0301424C10.4797 0.0925999 10.3817 0.239302 10.3817 0.402467V2.16386H7.5001C7.27803 2.16386 7.0976 2.34414 7.0976 2.56637C7.0976 2.7886 7.27787 2.96903 7.5001 2.96903H10.7845C11.0068 2.96903 11.1872 2.7886 11.1872 2.56637V1.37435L14.0281 4.2156L11.1872 7.05637V5.86419C11.1872 5.64195 11.0068 5.46152 10.7845 5.46152H4.61802V3.69964C4.61802 3.53664 4.5199 3.38993 4.36948 3.32748C4.2189 3.26567 4.04606 3.29972 3.93066 3.41495L0.118016 7.22776C-0.0393385 7.38495 -0.0393385 7.63979 0.118016 7.79698L3.93083 11.6103C4.00781 11.6873 4.11094 11.7281 4.21535 11.7281C4.26732 11.7281 4.31977 11.7181 4.36964 11.6976C4.52006 11.6353 4.61818 11.4886 4.61818 11.3254V9.56386H7.50026C7.72266 9.56386 7.90293 9.38327 7.90293 9.1612C7.90293 8.9388 7.72266 8.75853 7.50026 8.75853H4.21487C3.99264 8.75853 3.81221 8.9388 3.81221 9.1612C3.81221 9.1633 3.81221 9.16539 3.81221 9.16733C3.81237 9.21575 3.81269 9.8032 3.81269 10.3539L0.971924 7.51245L3.81285 4.67168C3.81285 5.21314 3.81253 5.79092 3.81237 5.85531C3.81188 5.88404 3.8143 5.91293 3.81995 5.94181C3.85723 6.13048 4.02266 6.26685 4.21503 6.26685H10.3819V8.02809C10.3819 8.19141 10.4798 8.33811 10.6304 8.40041C10.7803 8.46174 10.954 8.42817 11.0694 8.31294L14.8825 4.50013C14.958 4.42476 15 4.32244 15 4.21544C15 4.10844 14.9579 4.00628 14.8823 3.93091Z" fill="#131313"/>
</svg>
