<svg width="12" height="13" viewBox="0 0 12 13" fill="none" xmlns="http://www.w3.org/2000/svg">
<path opacity="0.5" fill-rule="evenodd" clip-rule="evenodd" d="M0.428572 0C0.271796 0 0.127534 0.0895387 0.0524097 0.233467C-0.0227147 0.377399 -0.0167104 0.552747 0.0680654 0.690686L3.85715 6.8558V10.3104C3.85715 10.4692 3.9375 10.6162 4.06843 10.6967L7.71129 12.9381C7.84381 13.0196 8.00791 13.0207 8.14137 12.9408C8.27482 12.861 8.35715 12.7125 8.35715 12.5517V6.84957L11.9378 0.680923C12.0181 0.542513 12.0208 0.369546 11.9449 0.228433C11.869 0.0873197 11.7262 0 11.5714 0H0.428572ZM4.64623 6.48172L1.21357 0.896553H10.8099L7.56224 6.49149C7.52152 6.56165 7.50001 6.64211 7.50001 6.72414V11.768L4.71429 10.054V6.72414C4.71429 6.63817 4.69068 6.55402 4.64623 6.48172Z" fill="#131313"/>
</svg>
