<svg width="15" height="15" viewBox="0 0 15 15" fill="none" xmlns="http://www.w3.org/2000/svg">
<path d="M7.58828 1.33597C9.56722 1.33597 9.80193 1.34338 10.5839 1.37921C12.5925 1.47062 13.5307 2.42365 13.6221 4.41741C13.6579 5.19874 13.6647 5.43344 13.6647 7.41238C13.6647 9.39194 13.6573 9.62603 13.6221 10.4074C13.53 12.3993 12.5943 13.3541 10.5839 13.4456C9.80193 13.4814 9.56845 13.4888 7.58828 13.4888C5.60934 13.4888 5.37463 13.4814 4.59331 13.4456C2.57978 13.3535 1.64651 12.3962 1.5551 10.4067C1.51928 9.62541 1.51187 9.39132 1.51187 7.41177C1.51187 5.43282 1.5199 5.19874 1.5551 4.41679C1.64713 2.42365 2.58287 1.47 4.59331 1.37859C5.37525 1.34338 5.60934 1.33597 7.58828 1.33597ZM7.58828 0C5.57537 0 5.32337 0.00864706 4.53278 0.0444706C1.84107 0.168 0.345131 1.66147 0.221602 4.35565C0.185161 5.14685 0.176514 5.39885 0.176514 7.41177C0.176514 9.42468 0.185161 9.67729 0.220984 10.4679C0.344514 13.1596 1.83798 14.6555 4.53216 14.7791C5.32337 14.8149 5.57537 14.8235 7.58828 14.8235C9.60119 14.8235 9.85381 14.8149 10.6444 14.7791C13.3336 14.6555 14.8333 13.1621 14.955 10.4679C14.9914 9.67729 15 9.42468 15 7.41177C15 5.39885 14.9914 5.14685 14.9556 4.35627C14.8345 1.66703 13.3392 0.168618 10.645 0.0450882C9.85381 0.00864706 9.60119 0 7.58828 0V0ZM7.58828 3.60582C5.48643 3.60582 3.78234 5.30991 3.78234 7.41177C3.78234 9.51362 5.48643 11.2183 7.58828 11.2183C9.69013 11.2183 11.3942 9.51424 11.3942 7.41177C11.3942 5.30991 9.69013 3.60582 7.58828 3.60582ZM7.58828 9.88235C6.2239 9.88235 5.11769 8.77677 5.11769 7.41177C5.11769 6.04738 6.2239 4.94118 7.58828 4.94118C8.95266 4.94118 10.0589 6.04738 10.0589 7.41177C10.0589 8.77677 8.95266 9.88235 7.58828 9.88235ZM11.5449 2.56632C11.0533 2.56632 10.6549 2.96471 10.6549 3.45574C10.6549 3.94676 11.0533 4.34515 11.5449 4.34515C12.036 4.34515 12.4337 3.94676 12.4337 3.45574C12.4337 2.96471 12.036 2.56632 11.5449 2.56632Z" fill="#131313"/>
</svg>
