<svg width="8" height="10" viewBox="0 0 8 10" fill="none" xmlns="http://www.w3.org/2000/svg">
<path d="M4.13477 0.634277C3.20651 0.63428 2.31627 1.00303 1.65989 1.65941C1.00352 2.31578 0.634768 3.20602 0.634766 4.13428C0.634766 6.93428 4.13477 9.63428 4.13477 9.63428C4.13477 9.63428 7.63477 6.93428 7.63477 4.13428C7.63477 3.67465 7.54424 3.21952 7.36835 2.79488C7.19245 2.37024 6.93465 1.98441 6.60964 1.6594C6.28464 1.3344 5.8988 1.07659 5.47416 0.900697C5.04952 0.724806 4.59439 0.634276 4.13477 0.634277ZM4.13477 6.18109C3.72995 6.18108 3.33422 6.06104 2.99762 5.83613C2.66103 5.61122 2.39869 5.29155 2.24377 4.91754C2.08886 4.54354 2.04833 4.13199 2.12731 3.73495C2.20629 3.33791 2.40123 2.97321 2.68748 2.68696C2.97373 2.40071 3.33844 2.20577 3.73548 2.1268C4.13252 2.04782 4.54406 2.08836 4.91807 2.24328C5.29207 2.39819 5.61174 2.66054 5.83664 2.99713C6.06155 3.33373 6.18159 3.72946 6.18159 4.13428C6.18159 4.40307 6.12865 4.66923 6.02579 4.91756C5.92293 5.16589 5.77216 5.39153 5.58209 5.5816C5.39203 5.77166 5.16638 5.92243 4.91805 6.02529C4.66972 6.12815 4.40356 6.18109 4.13477 6.18109Z" fill="#131313"/>
</svg>
