<svg width="15" height="13" viewBox="0 0 15 13" fill="none" xmlns="http://www.w3.org/2000/svg">
<path d="M14.8235 2.10939C14.2781 2.35766 13.692 2.52487 13.0768 2.60024C13.705 2.21452 14.1874 1.60334 14.414 0.87498C13.8266 1.23219 13.1756 1.49187 12.4826 1.63184C11.9286 1.02572 11.1374 0.646973 10.2628 0.646973C8.29932 0.646973 6.8565 2.5255 7.29997 4.4756C4.77318 4.34576 2.53235 3.10439 1.03209 1.21762C0.235324 2.61924 0.618882 4.4528 1.97276 5.38129C1.47494 5.36483 1.00553 5.22486 0.596029 4.99115C0.562676 6.43583 1.57253 7.78741 3.03512 8.08825C2.60709 8.20732 2.13829 8.23519 1.66147 8.14145C2.04812 9.38029 3.171 10.2816 4.50265 10.3069C3.22412 11.3348 1.61329 11.794 0 11.5989C1.34585 12.4837 2.94494 12.9999 4.662 12.9999C10.3085 12.9999 13.4987 8.10979 13.306 3.72381C13.9001 3.28363 14.4159 2.73451 14.8235 2.10939Z" fill="#131313"/>
</svg>
