<svg width="14" height="14" viewBox="0 0 14 14" fill="none" xmlns="http://www.w3.org/2000/svg">
<path fill-rule="evenodd" clip-rule="evenodd" d="M7.14234 6V8.4H11.1931C11.0298 9.429 9.96866 11.42 7.14234 11.42C4.70374 11.42 2.71409 9.441 2.71409 7C2.71409 4.56 4.70374 2.58 7.14234 2.58C8.52999 2.58 9.45849 3.16 9.98907 3.66L11.9277 1.83C10.6829 0.69 9.07077 0 7.14234 0C3.19364 0 0 3.13 0 7C0 10.87 3.19364 14 7.14234 14C11.2645 14 14 11.16 14 7.16C14 6.7 13.948 6.35 13.8867 6H7.14234Z" fill="#F4F4F4"/>
</svg>
