<svg width="57" height="48" viewBox="0 0 57 48" fill="none" xmlns="http://www.w3.org/2000/svg">
<path d="M18.2239 47.3447C8.17515 47.3447 0 39.17 0 29.1209C0 19.0717 8.17475 10.8969 18.2239 10.8969C28.273 10.8969 36.4478 19.0716 36.4478 29.1209C36.4478 39.1701 28.2726 47.3447 18.2239 47.3447ZM18.2239 12.6797C14.9721 12.6797 11.7934 13.644 9.08967 15.4505C6.38593 17.2571 4.27863 19.8249 3.03424 22.8291C1.78985 25.8333 1.46426 29.1391 2.09864 32.3284C2.73303 35.5176 4.29889 38.4472 6.59823 40.7465C8.89757 43.0458 11.8271 44.6117 15.0164 45.2461C18.2056 45.8805 21.5114 45.5549 24.5156 44.3105C27.5199 43.0661 30.0876 40.9588 31.8942 38.2551C33.7008 35.5513 34.665 32.3726 34.665 29.1209C34.6601 24.7619 32.9263 20.5829 29.8441 17.5007C26.7618 14.4184 22.5828 12.6846 18.2239 12.6797Z" fill="#299ED3"/>
<path d="M12.2842 39.4016C11.5236 39.4016 10.7801 39.176 10.1477 38.7535C9.51537 38.331 9.02249 37.7304 8.73144 37.0277C8.44039 36.3251 8.36423 35.5519 8.51261 34.8059C8.66099 34.06 9.02723 33.3748 9.56502 32.837C10.1028 32.2992 10.788 31.933 11.5339 31.7846C12.2799 31.6362 13.0531 31.7124 13.7557 32.0034C14.4584 32.2945 15.059 32.7873 15.4815 33.4197C15.9041 34.0521 16.1296 34.7956 16.1296 35.5561C16.1285 36.5757 15.723 37.5531 15.0021 38.274C14.2811 38.9949 13.3037 39.4004 12.2842 39.4016ZM12.2842 33.4937C11.8762 33.4937 11.4774 33.6147 11.1382 33.8413C10.799 34.068 10.5347 34.3901 10.3786 34.767C10.2225 35.1439 10.1816 35.5586 10.2612 35.9587C10.3408 36.3588 10.5373 36.7263 10.8257 37.0148C11.1142 37.3032 11.4817 37.4996 11.8819 37.5792C12.282 37.6588 12.6967 37.6179 13.0736 37.4618C13.4504 37.3057 13.7726 37.0413 13.9992 36.7021C14.2258 36.3629 14.3468 35.9641 14.3467 35.5561C14.3461 35.0093 14.1286 34.485 13.742 34.0983C13.3553 33.7116 12.831 33.4942 12.2842 33.4936V33.4937Z" fill="#299ED3"/>
<path d="M27.267 30.0122C26.6078 30.0122 25.9634 29.8168 25.4154 29.4506C24.8673 29.0844 24.4401 28.5639 24.1878 27.9549C23.9355 27.3459 23.8695 26.6758 23.9981 26.0293C24.1267 25.3828 24.4441 24.789 24.9102 24.3229C25.3763 23.8568 25.9701 23.5393 26.6166 23.4107C27.2631 23.2821 27.9332 23.3481 28.5422 23.6004C29.1512 23.8526 29.6717 24.2798 30.0379 24.8278C30.4041 25.3759 30.5996 26.0203 30.5996 26.6794C30.5986 27.563 30.2472 28.4101 29.6224 29.0349C28.9976 29.6597 28.1505 30.0112 27.267 30.0122ZM27.267 25.1295C26.9604 25.1295 26.6608 25.2204 26.4059 25.3907C26.151 25.561 25.9523 25.803 25.8349 26.0863C25.7176 26.3695 25.6869 26.6811 25.7467 26.9818C25.8065 27.2824 25.9541 27.5586 26.1709 27.7754C26.3877 27.9922 26.6638 28.1398 26.9645 28.1996C27.2652 28.2594 27.5768 28.2287 27.86 28.1113C28.1432 27.994 28.3853 27.7953 28.5556 27.5404C28.7259 27.2855 28.8168 26.9859 28.8167 26.6793C28.8162 26.2685 28.6528 25.8746 28.3622 25.5841C28.0717 25.2936 27.6778 25.1302 27.267 25.1297V25.1295Z" fill="#299ED3"/>
<path d="M9.54842 25.4855C9.12005 25.4855 8.70131 25.3585 8.34514 25.1205C7.98897 24.8825 7.71136 24.5442 7.54743 24.1485C7.38351 23.7527 7.34062 23.3173 7.42419 22.8971C7.50775 22.477 7.71403 22.0911 8.01693 21.7882C8.31983 21.4853 8.70575 21.279 9.12588 21.1954C9.54601 21.1119 9.98149 21.1547 10.3772 21.3187C10.773 21.4826 11.1113 21.7602 11.3493 22.1164C11.5872 22.4725 11.7143 22.8913 11.7143 23.3197C11.7135 23.8938 11.4851 24.4443 11.0791 24.8503C10.673 25.2563 10.1226 25.4847 9.54842 25.4855ZM9.54842 22.9359C9.47267 22.9359 9.39862 22.9583 9.33564 23.0004C9.27266 23.0425 9.22357 23.1023 9.19458 23.1723C9.1656 23.2423 9.15801 23.3193 9.17279 23.3936C9.18757 23.4679 9.22404 23.5361 9.27761 23.5897C9.33117 23.6432 9.39941 23.6797 9.4737 23.6945C9.54799 23.7093 9.625 23.7017 9.69498 23.6727C9.76496 23.6437 9.82477 23.5946 9.86686 23.5316C9.90894 23.4687 9.9314 23.3946 9.9314 23.3189C9.93123 23.2173 9.89082 23.12 9.81903 23.0482C9.74725 22.9765 9.64994 22.9361 9.54842 22.9359Z" fill="#299ED3"/>
<path d="M19.236 32.8656C19.795 32.8656 20.2481 32.4124 20.2481 31.8534C20.2481 31.2945 19.795 30.8413 19.236 30.8413C18.677 30.8413 18.2239 31.2945 18.2239 31.8534C18.2239 32.4124 18.677 32.8656 19.236 32.8656Z" fill="#299ED3"/>
<path d="M18.8388 21.1782C19.3978 21.1782 19.8509 20.7251 19.8509 20.1661C19.8509 19.6071 19.3978 19.1539 18.8388 19.1539C18.2798 19.1539 17.8267 19.6071 17.8267 20.1661C17.8267 20.7251 18.2798 21.1782 18.8388 21.1782Z" fill="#299ED3"/>
<path d="M20.2471 43.0021C20.0185 43.0018 19.7988 42.9137 19.6334 42.756C19.4679 42.5983 19.3693 42.3831 19.358 42.1548C19.3467 41.9265 19.4235 41.7026 19.5726 41.5293C19.7217 41.3561 19.9316 41.2467 20.159 41.2238C20.4016 41.1985 25.9054 40.5634 28.929 35.1224C29.0438 34.9158 29.2361 34.7632 29.4634 34.6983C29.6908 34.6334 29.9346 34.6615 30.1413 34.7763C30.3479 34.8912 30.5005 35.0835 30.5654 35.3108C30.6303 35.5382 30.6022 35.782 30.4873 35.9886C26.9953 42.272 20.6058 42.9707 20.3356 42.9974C20.3058 43.0005 20.2763 43.0021 20.2471 43.0021Z" fill="#299ED3"/>
<path d="M38.8088 36.4476C37.2902 36.4485 35.7774 36.26 34.3054 35.8864C34.1913 35.8582 34.0838 35.8077 33.9893 35.7377C33.8947 35.6678 33.815 35.5799 33.7546 35.479C33.6941 35.3781 33.6543 35.2662 33.6373 35.1499C33.6203 35.0335 33.6265 34.915 33.6555 34.801C33.6845 34.6871 33.7358 34.58 33.8064 34.4859C33.877 34.3919 33.9655 34.3127 34.0668 34.253C34.1681 34.1933 34.2802 34.1543 34.3967 34.1381C34.5132 34.1219 34.6317 34.1289 34.7455 34.1588C36.0734 34.4957 37.4382 34.6656 38.8083 34.6647C47.0094 34.6647 54.0146 28.5451 55.1023 20.4301C55.1337 20.1957 55.2569 19.9835 55.4448 19.84C55.6327 19.6965 55.8699 19.6335 56.1043 19.6649C56.3386 19.6963 56.5509 19.8195 56.6944 20.0074C56.8379 20.1953 56.9009 20.4325 56.8695 20.6669C56.2775 25.037 54.1212 29.0444 50.8002 31.9461C47.4792 34.8478 43.2189 36.4471 38.8088 36.4476Z" fill="#299ED3"/>
<path d="M22.507 13.2133C22.3638 13.2132 22.2228 13.1786 22.0958 13.1125C21.9688 13.0464 21.8596 12.9507 21.7774 12.8335C21.6952 12.7163 21.6425 12.581 21.6235 12.4391C21.6046 12.2972 21.6201 12.1528 21.6688 12.0182C23.1638 7.90189 26.0894 4.46057 29.9113 2.3225C33.7333 0.184429 38.1968 -0.507778 42.4868 0.372256C42.7169 0.421298 42.9184 0.559354 43.0471 0.756315C43.1759 0.953276 43.2216 1.19316 43.1742 1.42366C43.1268 1.65415 42.9902 1.85656 42.7941 1.98673C42.5981 2.1169 42.3585 2.16428 42.1277 2.11854C38.2572 1.3249 34.2304 1.9495 30.7822 3.87835C27.334 5.80719 24.6944 8.91166 23.3451 12.6251C23.2827 12.7974 23.1688 12.9463 23.0189 13.0515C22.8689 13.1567 22.6902 13.2133 22.507 13.2133Z" fill="#299ED3"/>
<path d="M44.7492 15.6344C44.0838 15.6344 43.4298 15.4617 42.8511 15.1333C42.2724 14.8049 41.7888 14.3319 41.4476 13.7606C41.1064 13.1893 40.9193 12.5393 40.9045 11.8741C40.8897 11.2088 41.0478 10.5511 41.3633 9.96527C41.6788 9.37941 42.1409 8.88544 42.7045 8.53164C43.2681 8.17785 43.9138 7.97633 44.5785 7.94679C45.2433 7.91724 45.9043 8.06069 46.497 8.3631C47.0898 8.66551 47.5939 9.11654 47.9601 9.6721C48.0903 9.86944 48.1368 10.1104 48.0894 10.342C48.0419 10.5737 47.9044 10.7769 47.7071 10.9072C47.5097 11.0374 47.2687 11.0839 47.0371 11.0364C46.8055 10.989 46.6022 10.8515 46.472 10.6541C46.2589 10.3304 45.959 10.0732 45.6065 9.912C45.254 9.75083 44.8633 9.6922 44.479 9.74282C44.0948 9.79345 43.7325 9.95128 43.4338 10.1982C43.1351 10.4452 42.912 10.7713 42.7901 11.1392C42.6681 11.5071 42.6523 11.9019 42.7443 12.2784C42.8364 12.6549 43.0326 12.9978 43.3105 13.268C43.5885 13.5381 43.9369 13.7245 44.3158 13.8057C44.6948 13.887 45.089 13.8599 45.4533 13.7275C45.5632 13.6873 45.68 13.6692 45.797 13.6741C45.9139 13.6791 46.0288 13.707 46.135 13.7563C46.2411 13.8057 46.3365 13.8754 46.4157 13.9616C46.495 14.0478 46.5564 14.1488 46.5966 14.2587C46.6368 14.3687 46.6549 14.4855 46.65 14.6025C46.645 14.7194 46.6171 14.8343 46.5678 14.9404C46.5185 15.0466 46.4487 15.142 46.3625 15.2212C46.2763 15.3004 46.1753 15.3619 46.0654 15.4021C45.6437 15.5563 45.1982 15.6349 44.7492 15.6344Z" fill="#299ED3"/>
<path d="M47.4847 26.1914C47.0563 26.1914 46.6376 26.0644 46.2814 25.8264C45.9252 25.5884 45.6476 25.2502 45.4837 24.8544C45.3198 24.4587 45.2769 24.0232 45.3605 23.6031C45.444 23.1829 45.6503 22.797 45.9532 22.4941C46.2561 22.1912 46.642 21.9849 47.0622 21.9014C47.4823 21.8178 47.9178 21.8607 48.3135 22.0246C48.7093 22.1885 49.0475 22.4661 49.2855 22.8223C49.5235 23.1785 49.6505 23.5972 49.6505 24.0256C49.6498 24.5998 49.4214 25.1502 49.0154 25.5563C48.6094 25.9623 48.0589 26.1907 47.4847 26.1914ZM47.4847 23.6418C47.4089 23.6418 47.3349 23.6643 47.2719 23.7064C47.2089 23.7484 47.1599 23.8083 47.1309 23.8782C47.1019 23.9482 47.0943 24.0252 47.1091 24.0995C47.1238 24.1738 47.1603 24.242 47.2139 24.2956C47.2674 24.3492 47.3357 24.3856 47.41 24.4004C47.4843 24.4152 47.5613 24.4076 47.6313 24.3786C47.7012 24.3496 47.7611 24.3006 47.8031 24.2376C47.8452 24.1746 47.8677 24.1005 47.8677 24.0248C47.8674 23.9233 47.827 23.8261 47.7552 23.7543C47.6835 23.6826 47.5862 23.6422 47.4847 23.6419V23.6418Z" fill="#299ED3"/>
<path d="M37.797 16.503C38.356 16.503 38.8092 16.0499 38.8092 15.4909C38.8092 14.9319 38.356 14.4788 37.797 14.4788C37.2381 14.4788 36.7849 14.9319 36.7849 15.4909C36.7849 16.0499 37.2381 16.503 37.797 16.503Z" fill="#299ED3"/>
<path d="M38.1943 28.1903C38.7533 28.1903 39.2064 27.7371 39.2064 27.1782C39.2064 26.6192 38.7533 26.166 38.1943 26.166C37.6353 26.166 37.1821 26.6192 37.1821 27.1782C37.1821 27.7371 37.6353 28.1903 38.1943 28.1903Z" fill="#299ED3"/>
<path d="M27.3241 12.6798C27.1689 12.6797 27.0164 12.639 26.8818 12.5619C26.7471 12.4847 26.6349 12.3738 26.5563 12.24C26.4776 12.1062 26.4353 11.9542 26.4334 11.799C26.4315 11.6438 26.4702 11.4909 26.5456 11.3552C30.0376 5.07188 36.4273 4.37326 36.6975 4.34659C36.9327 4.32307 37.1677 4.39397 37.3507 4.5437C37.5337 4.69343 37.6497 4.90971 37.6732 5.14498C37.6967 5.38024 37.6258 5.61522 37.4761 5.79821C37.3264 5.9812 37.1101 6.09721 36.8748 6.12073C36.6416 6.1449 31.13 6.77577 28.1041 12.2221C28.0267 12.361 27.9136 12.4767 27.7764 12.5572C27.6393 12.6377 27.4831 12.68 27.3241 12.6798Z" fill="#299ED3"/>
<path d="M52.4912 21.9288C50.3582 21.9288 47.7906 21.3764 46.1173 19.1454C45.1381 17.8402 44.719 16.2734 44.871 14.4884C45.0205 12.7291 45.6941 11.1183 46.2884 10.0012C44.8685 9.63576 42.6724 8.7747 41.5364 6.82002C39.7557 3.76116 41.5296 0.807953 41.5477 0.778371C41.6716 0.576974 41.8703 0.433025 42.1003 0.378191C42.3303 0.323358 42.5727 0.362131 42.7741 0.485981C42.9755 0.609831 43.1194 0.808614 43.1742 1.0386C43.2291 1.26858 43.1903 1.51093 43.0664 1.71233C43.0209 1.78985 41.8532 3.82059 43.0775 5.92371C44.343 8.10105 47.7581 8.47544 47.7922 8.47914C47.947 8.49499 48.0949 8.55102 48.2213 8.64168C48.3477 8.73233 48.4482 8.85446 48.5128 8.99594C48.5775 9.13743 48.604 9.29336 48.5898 9.44826C48.5756 9.60317 48.5211 9.75166 48.4318 9.87902C48.4306 9.8806 48.2439 10.1486 47.994 10.5967C47.5517 11.3875 46.7895 12.9632 46.647 14.6394C46.5333 15.9751 46.8346 17.131 47.5429 18.0756C50.0322 21.3938 55.6668 19.7132 55.7232 19.696C55.9491 19.6262 56.1935 19.649 56.4026 19.7594C56.6117 19.8698 56.7683 20.0587 56.8381 20.2847C56.9079 20.5106 56.8851 20.755 56.7747 20.9641C56.6643 21.1731 56.4754 21.3298 56.2495 21.3996C55.0269 21.7474 53.7623 21.9254 52.4912 21.9288Z" fill="#299ED3"/>
</svg>
