<svg width="83" height="83" viewBox="0 0 83 83" fill="none" xmlns="http://www.w3.org/2000/svg">
<path d="M54.8162 31.2326C56.8863 31.2349 58.8824 30.2562 60.4134 28.488C60.4796 28.4117 60.5332 28.3196 60.5714 28.217C60.6095 28.1144 60.6313 28.0032 60.6355 27.8899C60.6398 27.7766 60.6264 27.6633 60.5962 27.5565C60.566 27.4498 60.5195 27.3516 60.4594 27.2676C60.3992 27.1837 60.3267 27.1156 60.2458 27.0672C60.165 27.0188 60.0774 26.9912 59.9881 26.9857C59.8988 26.9803 59.8095 26.9973 59.7254 27.0357C59.6413 27.074 59.5639 27.133 59.4978 27.2093C58.7312 28.0928 57.819 28.7482 56.8276 29.1278C55.8362 29.5074 54.7906 29.6017 53.7669 29.4038C52.7432 29.2058 51.7672 28.7206 50.9099 27.9836C50.0525 27.2465 49.3355 26.2761 48.811 25.1429C48.719 24.9467 48.5695 24.8047 48.3952 24.748C48.2209 24.6913 48.036 24.7245 47.8809 24.8403C47.7258 24.9561 47.6132 25.1451 47.5676 25.3661C47.522 25.587 47.5472 25.8218 47.6377 26.0192C48.3755 27.6034 49.4252 28.9169 50.6837 29.8309C51.9422 30.7449 53.3663 31.2279 54.8162 31.2326Z" fill="#FF9C22"/>
<path d="M62.9423 21.4456C62.5845 21.0495 62.2154 20.6615 61.8348 20.2814C56.3102 14.7853 48.8172 11.6977 41.0043 11.6977C33.1913 11.6977 25.6983 14.7853 20.1737 20.2814C14.6491 25.7774 11.5454 33.2317 11.5454 41.0043C11.5454 48.7769 14.6491 56.2311 20.1737 61.7272C25.5984 67.1194 32.9228 70.1947 40.5906 70.2996C48.2584 70.4045 55.665 67.5307 61.2367 62.2889C66.8084 57.0472 70.1058 49.8506 70.4284 42.2285C70.751 34.6064 68.0732 27.1596 62.9641 21.4705C62.9571 21.4617 62.9497 21.4536 62.9423 21.4456ZM69.0547 41.0043C69.0529 46.0267 67.689 50.9557 65.1069 55.2715C62.5249 59.5874 58.8202 63.1303 54.3834 65.5269C49.9467 67.9234 44.9422 69.0847 39.8975 68.8884C34.8528 68.6922 29.9548 67.1456 25.7197 64.4117C26.8552 64.1676 27.9217 63.6748 28.8416 62.9691C28.9893 62.8558 29.0857 62.6889 29.1098 62.5049C29.1338 62.3209 29.0836 62.135 28.97 61.9879C28.8564 61.8407 28.6889 61.7444 28.504 61.72C28.3191 61.6956 28.1321 61.7452 27.9839 61.8578C26.8541 62.725 25.4661 63.1932 24.039 63.1885C24.0213 63.1885 24.0038 63.1899 23.9866 63.1912C21.4791 61.2815 19.3094 58.969 17.5667 56.3491C17.6405 55.1418 18.0536 53.9794 18.7588 52.9941C19.4641 52.0088 20.4331 51.2403 21.5558 50.776C21.6412 50.7407 21.7188 50.689 21.7842 50.6239C21.8495 50.5588 21.9013 50.4816 21.9367 50.3965C21.972 50.3115 21.9902 50.2204 21.9901 50.1284C21.99 50.0364 21.9718 49.9453 21.9363 49.8603C21.9009 49.7754 21.8489 49.6982 21.7835 49.6332C21.7181 49.5681 21.6404 49.5166 21.5549 49.4814C21.4695 49.4463 21.3779 49.4282 21.2854 49.4283C21.1929 49.4284 21.1013 49.4465 21.0159 49.4818C19.9255 49.933 18.9505 50.6214 18.1624 51.4966C17.3744 52.3717 16.7934 53.4113 16.4621 54.539C14.2665 50.5832 13.0654 46.1576 12.9615 41.6399C12.8576 37.1223 13.8539 32.6467 15.8654 28.5951C15.9251 30.8413 16.7003 33.0106 18.0794 34.7901C18.1931 34.9375 18.361 35.0339 18.5462 35.0582C18.7314 35.0824 18.9187 35.0325 19.0668 34.9194C19.215 34.8062 19.3119 34.6392 19.3363 34.455C19.3607 34.2708 19.3105 34.0845 19.1968 33.9371C18.1694 32.6119 17.5245 31.0332 17.3316 29.3707C17.9371 30.054 18.6815 30.6015 19.5156 30.9771C20.3497 31.3527 21.2545 31.5479 22.1701 31.5497C22.2243 31.5497 22.279 31.549 22.3335 31.5476C23.3618 31.521 24.3689 31.2505 25.2709 30.7586C26.1729 30.2667 26.9438 29.5675 27.5194 28.7194C28.0949 27.8712 28.4586 26.8986 28.58 25.8824C28.7014 24.8662 28.5771 23.8358 28.2175 22.8771C28.1863 22.7893 28.1379 22.7087 28.075 22.6398C28.0121 22.5709 27.9361 22.5152 27.8514 22.4758C27.7666 22.4365 27.6748 22.4143 27.5814 22.4107C27.4879 22.407 27.3947 22.4219 27.3071 22.4544C27.2195 22.487 27.1393 22.5366 27.0712 22.6003C27.003 22.6641 26.9483 22.7407 26.9103 22.8257C26.8723 22.9107 26.8516 23.0024 26.8496 23.0954C26.8475 23.1884 26.8641 23.2809 26.8984 23.3674C27.1412 24.0144 27.2473 24.7041 27.21 25.3937C27.1728 26.0832 26.993 26.7577 26.6818 27.375C26.3707 27.9923 25.9349 28.5391 25.4018 28.9813C24.8686 29.4234 24.2495 29.7515 23.5832 29.9448C22.9168 30.1382 22.2175 30.1928 21.529 30.1052C20.8405 30.0176 20.1775 29.7896 19.5816 29.4356C18.9856 29.0815 18.4695 28.609 18.0654 28.0476C17.6613 27.4861 17.3779 26.8478 17.233 26.1725C18.3575 24.3981 19.6778 22.7544 21.1694 21.272C21.5319 20.9115 21.9026 20.5625 22.2816 20.2249C23.6189 20.2168 24.7111 20.6192 25.614 21.458C25.7508 21.5829 25.9317 21.649 26.1172 21.6418C26.3028 21.6347 26.478 21.555 26.6047 21.4199C26.7315 21.2849 26.7995 21.1056 26.794 20.9209C26.7884 20.7363 26.7098 20.5612 26.5752 20.434C25.9935 19.8882 25.306 19.4663 24.5546 19.1942C26.4266 18.7712 28.384 18.931 30.1616 19.652C31.9392 20.3729 33.451 21.6201 34.4921 23.2245C34.5935 23.3805 34.7531 23.4901 34.9357 23.529C35.1184 23.568 35.3091 23.5332 35.4659 23.4322C35.6227 23.3313 35.7328 23.1726 35.772 22.9909C35.8111 22.8092 35.7761 22.6195 35.6747 22.4635C34.7005 20.9574 33.3613 19.7192 31.7803 18.8627C30.1993 18.0062 28.4272 17.5589 26.6269 17.5619C26.3206 17.5619 26.0166 17.5754 25.7143 17.6004C29.3146 15.2805 33.4 13.8095 37.6587 13.2995C41.9175 12.7895 46.2371 13.2541 50.2879 14.6577C48.9552 15.4011 47.8465 16.4853 47.0763 17.798C46.3061 19.1107 45.9025 20.6043 45.9072 22.1243C45.9072 22.6552 45.9563 23.1849 46.0539 23.7069C46.084 23.8675 46.1696 24.0126 46.2959 24.1171C46.4222 24.2215 46.5812 24.2788 46.7454 24.279C46.7891 24.2791 46.8326 24.2751 46.8755 24.2673C46.9664 24.2505 47.0532 24.216 47.1307 24.1658C47.2082 24.1156 47.2751 24.0507 47.3274 23.9748C47.3797 23.8989 47.4165 23.8135 47.4356 23.7234C47.4547 23.6334 47.4558 23.5405 47.4388 23.45C47.3569 23.0128 47.3157 22.569 47.3156 22.1243C47.3109 20.6415 47.7706 19.194 48.6309 17.983C49.4911 16.7721 50.7092 15.8578 52.1159 15.3672C55.3731 16.7683 58.3333 18.7721 60.8391 21.272C61.141 21.5725 61.4349 21.8788 61.7207 22.1907C61.7144 23.1263 61.5227 24.0515 61.1567 24.9133C61.1194 24.9983 61.0994 25.0897 61.0979 25.1824C61.0963 25.2751 61.1133 25.3671 61.1478 25.4532C61.1823 25.5393 61.2337 25.6178 61.2989 25.684C61.364 25.7502 61.4418 25.8029 61.5276 25.839C61.6134 25.8751 61.7056 25.8939 61.7987 25.8944C61.8919 25.8948 61.9842 25.8768 62.0704 25.8415C62.1565 25.8062 62.2347 25.7542 62.3005 25.6886C62.3663 25.6229 62.4184 25.545 62.4537 25.4592C62.6977 24.8841 62.8772 24.284 62.9889 23.6697C66.9328 28.5939 69.0723 34.7081 69.0547 41.0043Z" fill="url(#paint0_linear)"/>
<path d="M55.0809 24.7209C55.2523 24.7209 55.4167 24.6576 55.538 24.5449C55.6592 24.4322 55.7273 24.2793 55.7273 24.1199C55.7273 23.9604 55.6592 23.8076 55.538 23.6948C55.4167 23.5821 55.2523 23.5188 55.0809 23.5188C54.7272 23.5188 54.3881 23.3882 54.138 23.1557C53.888 22.9232 53.7475 22.6079 53.7475 22.2791C53.7475 21.9503 53.888 21.6349 54.138 21.4025C54.3881 21.17 54.7272 21.0394 55.0809 21.0394C55.2523 21.0394 55.4167 20.976 55.538 20.8633C55.6592 20.7506 55.7273 20.5977 55.7273 20.4383C55.7273 20.2789 55.6592 20.126 55.538 20.0133C55.4167 19.9005 55.2523 19.8372 55.0809 19.8372C54.3843 19.8372 53.7163 20.0945 53.2238 20.5524C52.7313 21.0103 52.4546 21.6314 52.4546 22.2791C52.4546 22.9267 52.7313 23.5478 53.2238 24.0057C53.7163 24.4637 54.3843 24.7209 55.0809 24.7209Z" fill="#FF9C22"/>
<path d="M45.0908 42.6279C45.251 42.6279 45.4047 42.5435 45.518 42.3932C45.6313 42.2429 45.695 42.039 45.695 41.8265C45.695 41.6139 45.6313 41.4101 45.518 41.2598C45.4047 41.1095 45.251 41.025 45.0908 41.025C44.8443 41.025 44.6034 40.9281 44.3984 40.7465C44.1935 40.5648 44.0338 40.3067 43.9395 40.0047C43.8452 39.7026 43.8205 39.3703 43.8686 39.0496C43.9166 38.729 44.0353 38.4345 44.2096 38.2033C44.3839 37.9721 44.6059 37.8147 44.8477 37.7509C45.0894 37.6871 45.34 37.7199 45.5677 37.845C45.7954 37.9701 45.99 38.1819 46.1269 38.4538C46.2638 38.7256 46.3369 39.0452 46.3369 39.3721C46.3369 39.5846 46.4006 39.7885 46.5139 39.9388C46.6272 40.0891 46.7809 40.1735 46.9411 40.1735C47.1014 40.1735 47.255 40.0891 47.3684 39.9388C47.4817 39.7885 47.5453 39.5846 47.5453 39.3721C47.5453 38.7282 47.4014 38.0987 47.1317 37.5633C46.8619 37.0278 46.4786 36.6105 46.0301 36.3641C45.5816 36.1177 45.0881 36.0532 44.6119 36.1788C44.1358 36.3045 43.6984 36.6146 43.3551 37.0699C43.0119 37.5252 42.7781 38.1054 42.6834 38.7369C42.5887 39.3685 42.6373 40.0231 42.8231 40.618C43.0089 41.213 43.3235 41.7214 43.7271 42.0792C44.1308 42.437 44.6053 42.6279 45.0908 42.6279Z" fill="url(#paint1_linear)"/>
<path d="M50.8179 40.1067C50.8204 39.2479 50.6039 38.3996 50.1845 37.6246C50.1446 37.5492 50.0883 37.4815 50.0186 37.4254C49.949 37.3693 49.8675 37.3259 49.7788 37.2978C49.69 37.2696 49.5959 37.2573 49.5017 37.2614C49.4076 37.2655 49.3153 37.2861 49.2302 37.3219C49.145 37.3577 49.0688 37.408 49.0058 37.4699C48.9429 37.5318 48.8944 37.6042 48.8633 37.6827C48.8322 37.7612 48.8189 37.8445 48.8244 37.9275C48.8299 38.0106 48.854 38.0919 48.8952 38.1667C49.2229 38.7724 49.3919 39.4355 49.3898 40.1067C49.3898 40.8353 49.1901 41.5531 48.8077 42.1989C48.4253 42.8446 47.8716 43.3991 47.1938 43.815C46.5161 44.2309 45.7343 44.496 44.9154 44.5875C44.0964 44.6791 43.2645 44.5944 42.4907 44.3407C41.7168 44.087 41.024 43.6718 40.4713 43.1306C39.9186 42.5894 39.5225 41.9382 39.3167 41.2326C39.1109 40.527 39.1016 39.7879 39.2895 39.0785C39.4774 38.369 39.857 37.7102 40.3959 37.1582C40.5196 37.0317 40.5813 36.8669 40.5674 36.7002C40.5535 36.5335 40.4651 36.3785 40.3217 36.2693C40.1783 36.1601 39.9917 36.1057 39.8028 36.118C39.6139 36.1303 39.4383 36.2083 39.3146 36.3348C38.6252 37.0407 38.1396 37.8834 37.8991 38.7909C37.6586 39.6983 37.6704 40.6437 37.9335 41.5463C38.1967 42.4488 38.7033 43.2818 39.4102 43.9741C40.1171 44.6664 41.0032 45.1975 41.993 45.5221C42.9828 45.8466 44.0469 45.955 45.0945 45.838C46.142 45.721 47.142 45.382 48.0089 44.85C48.8759 44.318 49.5842 43.6087 50.0733 42.7828C50.5624 41.9568 50.8179 41.0387 50.8179 40.1067Z" fill="#FF9C22"/>
<path d="M44.9497 34.5258C46.0904 34.5261 47.1946 35.0201 48.0687 35.9212C48.2063 36.0633 48.3841 36.1323 48.563 36.1131C48.742 36.094 48.9074 35.9882 49.0229 35.8191C49.1384 35.65 49.1946 35.4313 49.179 35.2113C49.1634 34.9913 49.0774 34.7879 48.9398 34.6458C47.8216 33.4931 46.409 32.861 44.9497 32.8605C44.7701 32.8605 44.5978 32.9482 44.4708 33.1043C44.3438 33.2605 44.2725 33.4723 44.2725 33.6931C44.2725 33.914 44.3438 34.1258 44.4708 34.2819C44.5978 34.4381 44.7701 34.5258 44.9497 34.5258Z" fill="#FF9C22"/>
<path d="M30.2855 54.0754C30.1409 54.1103 30.0093 54.1618 29.8983 54.2268C29.7873 54.2919 29.699 54.3692 29.6384 54.4544C29.5779 54.5397 29.5463 54.6312 29.5454 54.7236C29.5446 54.8161 29.5745 54.9078 29.6335 54.9934C30.6384 56.4609 30.7064 58.0948 29.8247 59.5897C29.7709 59.6773 29.7469 59.7703 29.7542 59.8633C29.7615 59.9564 29.7999 60.0477 29.8672 60.1319C29.9345 60.2161 30.0294 60.2916 30.1463 60.3539C30.2632 60.4163 30.3998 60.4643 30.5482 60.4951C30.6967 60.526 30.854 60.5391 31.0111 60.5337C31.1681 60.5283 31.3218 60.5045 31.4632 60.4637C31.6046 60.4228 31.731 60.3658 31.8349 60.2958C31.9388 60.2259 32.0182 60.1444 32.0686 60.0561C33.1428 58.2366 33.06 56.2475 31.8357 54.4615C31.7768 54.3759 31.6899 54.298 31.5801 54.2322C31.4702 54.1665 31.3396 54.1142 31.1957 54.0783C31.0517 54.0425 30.8973 54.0238 30.7411 54.0233C30.5849 54.0228 30.4301 54.0405 30.2855 54.0754Z" fill="#FF9C22"/>
<path d="M27.0904 49.1942C26.9443 49.1199 26.7807 49.1214 26.6355 49.1982C26.4903 49.2751 26.3754 49.421 26.3161 49.604C26.2568 49.7869 26.258 49.9919 26.3193 50.1738C26.3806 50.3558 26.4971 50.4997 26.6432 50.574C27.3523 50.9339 27.993 51.477 28.5233 52.1679C28.6328 52.31 28.7828 52.3917 28.9404 52.3952C29.098 52.3987 29.2502 52.3236 29.3636 52.1865C29.477 52.0494 29.5423 51.8614 29.5451 51.664C29.5479 51.4665 29.488 51.2758 29.3785 51.1337C28.733 50.2931 27.9534 49.6322 27.0904 49.1942Z" fill="#FF9C22"/>
<path d="M27.2387 56.479C27.0609 56.479 26.8905 56.5633 26.7648 56.7133C26.6391 56.8634 26.5685 57.0669 26.5685 57.2791C26.5685 57.9285 26.4072 58.5634 26.105 59.1033C25.8027 59.6433 25.3731 60.0642 24.8705 60.3127C24.368 60.5612 23.8149 60.6263 23.2814 60.4996C22.7478 60.3729 22.2577 60.0601 21.873 59.6009C21.4884 59.1417 21.2264 58.5566 21.1203 57.9197C21.0141 57.2827 21.0686 56.6225 21.2768 56.0225C21.485 55.4225 21.8375 54.9097 22.2898 54.5489C22.7422 54.1881 23.274 53.9955 23.818 53.9955C23.9957 53.9955 24.1662 53.9112 24.2919 53.7611C24.4175 53.6111 24.4881 53.4076 24.4881 53.1954C24.4881 52.9832 24.4175 52.7797 24.2919 52.6297C24.1662 52.4796 23.9957 52.3954 23.818 52.3954C23.0089 52.3954 22.2179 52.6818 21.5452 53.2184C20.8724 53.755 20.3481 54.5178 20.0385 55.4102C19.7288 56.3025 19.6478 57.2845 19.8057 58.2318C19.9635 59.1792 20.3531 60.0494 20.9253 60.7324C21.4974 61.4154 22.2263 61.8805 23.0199 62.069C23.8134 62.2574 24.636 62.1607 25.3835 61.791C26.131 61.4214 26.7699 60.7954 27.2194 59.9923C27.6689 59.1892 27.9089 58.245 27.9089 57.2791C27.9089 57.0669 27.8383 56.8634 27.7126 56.7133C27.5869 56.5633 27.4164 56.479 27.2387 56.479Z" fill="url(#paint2_linear)"/>
<path d="M37.0193 27.9767C36.8316 27.9767 36.6515 28.0504 36.5187 28.1816C36.3859 28.3128 36.3113 28.4907 36.3113 28.6762C36.3107 30.2873 35.8866 31.8706 35.0803 33.271C34.274 34.6714 33.1132 35.8409 31.7118 36.6649C30.3103 37.4888 28.7162 37.939 27.0856 37.9713C25.4551 38.0036 23.844 37.6169 22.4102 36.8491C22.3285 36.8053 22.2389 36.7777 22.1464 36.768C22.0539 36.7583 21.9604 36.7668 21.8713 36.7928C21.7821 36.8188 21.699 36.8619 21.6267 36.9197C21.5543 36.9774 21.4943 37.0487 21.4498 37.1294C21.4054 37.2101 21.3775 37.2986 21.3677 37.39C21.3579 37.4813 21.3664 37.5737 21.3928 37.6618C21.4191 37.7499 21.4628 37.832 21.5212 37.9034C21.5797 37.9748 21.6518 38.0342 21.7335 38.0781C23.383 38.9618 25.2366 39.4069 27.1126 39.37C28.9887 39.333 30.8228 38.8152 32.4353 37.8673C34.0478 36.9194 35.3834 35.5739 36.3111 33.9627C37.2388 32.3515 37.7269 30.5298 37.7274 28.6762C37.7274 28.4907 37.6528 28.3128 37.52 28.1816C37.3872 28.0504 37.2071 27.9767 37.0193 27.9767Z" fill="#FF9C22"/>
<path d="M47.9527 54.8417C47.9523 53.7984 48.3137 52.7715 49.0042 51.853C49.0694 51.7684 49.1106 51.6754 49.1253 51.5793C49.1401 51.4833 49.1281 51.3861 49.0901 51.2933C49.0522 51.2006 48.9889 51.1142 48.9041 51.039C48.8192 50.9639 48.7144 50.9015 48.5957 50.8555C48.4771 50.8096 48.3469 50.7809 48.2126 50.7712C48.0784 50.7614 47.9428 50.7708 47.8137 50.7988C47.6845 50.8268 47.5644 50.8729 47.4603 50.9343C47.3561 50.9958 47.27 51.0713 47.2068 51.1568C46.101 52.626 45.6859 54.3114 46.0234 55.963C46.3608 57.6146 47.4327 59.1442 49.08 60.3247C49.2721 60.4601 49.5312 60.5357 49.8007 60.5349C50.0702 60.5341 50.3284 60.457 50.519 60.3205C50.7096 60.184 50.8172 59.999 50.8183 59.806C50.8194 59.6129 50.7139 59.4273 50.5249 59.2897C49.7069 58.7069 49.0584 58.0137 48.6169 57.2502C48.1754 56.4867 47.9496 55.6681 47.9527 54.8417Z" fill="#FF9C22"/>
<path d="M60.2871 57.3815C60.2066 57.3326 60.1174 57.3003 60.0247 57.2866C59.932 57.2729 59.8375 57.2779 59.7467 57.3015C59.656 57.3251 59.5706 57.3667 59.4955 57.424C59.4205 57.4813 59.3572 57.5532 59.3093 57.6354C58.7638 58.5685 57.9914 59.3416 57.067 59.8794C56.1427 60.4172 55.098 60.7015 54.0344 60.7047C53.268 60.7061 52.5083 60.5599 51.7948 60.2739C51.7076 60.2384 51.6143 60.2209 51.5203 60.2224C51.4264 60.2238 51.3337 60.2442 51.2475 60.2824C51.1613 60.3206 51.0833 60.3758 51.0181 60.4449C50.9528 60.514 50.9015 60.5955 50.8672 60.6849C50.8329 60.7742 50.8162 60.8697 50.818 60.9656C50.8199 61.0616 50.8403 61.1563 50.878 61.2442C50.9158 61.3321 50.9701 61.4116 51.038 61.4779C51.1059 61.5443 51.1859 61.5963 51.2735 61.631C52.9438 62.299 54.792 62.3389 56.4884 61.7437C58.1849 61.1484 59.6192 59.9567 60.5357 58.3811C60.5836 58.2988 60.6152 58.2076 60.6287 58.1128C60.6421 58.018 60.6372 57.9215 60.6141 57.8286C60.591 57.7358 60.5502 57.6485 60.4941 57.5718C60.438 57.4951 60.3677 57.4304 60.2871 57.3815Z" fill="#FF9C22"/>
<path d="M54.7964 47.5116C54.6093 47.5116 54.4298 47.5856 54.2975 47.7172C54.1652 47.8489 54.0908 48.0274 54.0908 48.2136C54.0908 48.3997 54.1652 48.5783 54.2975 48.7099C54.4298 48.8415 54.6093 48.9155 54.7964 48.9155C56.4044 48.9173 57.946 49.5536 59.0831 50.6847C60.2201 51.8159 60.8597 53.3495 60.8615 54.9492C60.8615 55.1354 60.9358 55.3139 61.0681 55.4456C61.2005 55.5772 61.3799 55.6512 61.5671 55.6512C61.7542 55.6512 61.9337 55.5772 62.066 55.4456C62.1983 55.3139 62.2726 55.1354 62.2726 54.9492C62.2704 52.9773 61.482 51.0869 60.0804 49.6925C58.6788 48.2982 56.7785 47.5139 54.7964 47.5116Z" fill="#FF9C22"/>
<path d="M53.6861 54.001C53.7935 54.001 53.8964 53.9164 53.9724 53.7658C54.0483 53.6153 54.091 53.4111 54.091 53.1982C54.091 52.9852 54.0483 52.781 53.9724 52.6305C53.8964 52.4799 53.7935 52.3954 53.6861 52.3954C53.3595 52.3954 53.0462 52.6526 52.8153 53.1106C52.5843 53.5685 52.4546 54.1896 52.4546 54.8372C52.4546 55.4848 52.5843 56.1059 52.8153 56.5639C53.0462 57.0218 53.3595 57.2791 53.6861 57.2791C53.7935 57.2791 53.8964 57.1945 53.9724 57.0439C54.0483 56.8934 54.091 56.6892 54.091 56.4763C54.091 56.2634 54.0483 56.0592 53.9724 55.9086C53.8964 55.758 53.7935 55.6735 53.6861 55.6735C53.5742 55.6735 53.467 55.5854 53.3879 55.4285C53.3088 55.2717 53.2643 55.059 53.2643 54.8372C53.2643 54.6154 53.3088 54.4027 53.3879 54.2459C53.467 54.0891 53.5742 54.001 53.6861 54.001Z" fill="url(#paint3_linear)"/>
<defs>
<linearGradient id="paint0_linear" x1="41" y1="11.6977" x2="41" y2="70.3023" gradientUnits="userSpaceOnUse">
<stop stop-color="#D20D00"/>
<stop offset="1" stop-color="#FF4D00"/>
</linearGradient>
<linearGradient id="paint1_linear" x1="45.0908" y1="36.1163" x2="45.0908" y2="42.6279" gradientUnits="userSpaceOnUse">
<stop stop-color="#E30E00"/>
<stop offset="1" stop-color="#FF8A00"/>
</linearGradient>
<linearGradient id="paint2_linear" x1="23.818" y1="52.3954" x2="23.818" y2="62.1628" gradientUnits="userSpaceOnUse">
<stop stop-color="#E30E00"/>
<stop offset="1" stop-color="#FF8A00"/>
</linearGradient>
<linearGradient id="paint3_linear" x1="53.2728" y1="52.3954" x2="53.2728" y2="57.2791" gradientUnits="userSpaceOnUse">
<stop stop-color="#E30E00"/>
<stop offset="1" stop-color="#FF8A00"/>
</linearGradient>
</defs>
</svg>
