<svg width="836" height="1028" viewBox="0 0 836 1028" fill="none" xmlns="http://www.w3.org/2000/svg">
<path d="M740.31 157.844C852.785 171.243 979.799 177.651 980.995 234.612C982.192 291.573 858.299 398.935 786.203 466.058C713.994 532.639 844.487 547.328 848.5 610.5C852.4 673.129 865.259 624.36 833 656C761.703 779 573.918 811.036 471.127 814.879C368.223 818.179 347.065 847.753 251 840C154.822 831.704 132.291 720.67 179 656C225.709 591.33 249.009 585.839 280.072 497.238C311.134 408.638 200.563 301.946 203.059 233.454C204.713 164.571 320.277 134.278 426.606 129.133C532.204 124.139 628.678 144.835 740.31 157.844Z" fill="#F8007A"/>
<path d="M567.397 780.487C483.018 812.341 377.468 865.369 306.414 851.668C235.088 837.464 197.67 756.848 213.306 676.231C229.213 596.117 298.174 516.003 307.623 439.373C316.8 362.239 265.335 287.899 281.955 238.616C297.716 189.146 381.018 163.726 452.684 158.888C524.665 153.23 584.468 167.146 657.429 149.254C730.391 131.361 815.969 80.6518 876.305 87.1273C936.37 93.0991 971.779 155.939 967.92 220.45C963.745 285.781 920.618 351.962 939.37 430.29C958.121 508.618 1038.75 599.092 1022.63 650.706C1006.51 702.321 894.228 714.759 805.623 726.132C717.29 738.009 652.635 748.82 567.397 780.487Z" fill="url(#paint0_linear)"/>
<path fill-rule="evenodd" clip-rule="evenodd" d="M231.007 688.514C241.507 729.514 267.507 819.214 287.507 850.014C292.14 857.149 296.934 863.67 301.677 869.552C319.657 890.02 340.2 908.458 383.329 933.394C430.742 960.807 493.163 942.011 550.216 924.603C562.132 896.346 575.586 865.867 590.507 834.014C646.907 713.614 665.007 683.847 667.007 684.014C666.673 660.347 667.307 606.114 672.507 578.514C677.707 550.914 682.007 541.014 683.507 539.514C680.84 529.514 677.107 505.314 683.507 488.514C689.907 471.714 701.173 442.514 706.007 430.014C701.173 424.347 686.607 414.714 667.007 421.514C642.507 430.014 621.507 452.014 610.507 488.514C601.707 517.714 602.507 531.68 604.007 535.014C597.507 545.68 584.307 572.014 583.507 592.014C582.707 612.014 583.173 623.68 583.507 627.014L561.507 599.014L231.007 688.514Z" fill="#F0D7BF"/>
<path d="M326.507 309.014L364.507 226.514L353.007 206.514C347.174 196.014 329.007 180.314 303.007 201.514C277.007 222.714 307.84 282.014 326.507 309.014Z" fill="#F0D7BF"/>
<g filter="url(#filter0_d)">
<rect x="734.935" y="228.661" width="643.352" height="339.351" rx="38" transform="rotate(114.674 734.935 228.661)" fill="#131313"/>
</g>
<rect x="723.193" y="233.422" width="610.475" height="322.009" rx="29" transform="rotate(114.674 723.193 233.422)" fill="white"/>
<path d="M169.507 590.014C145.907 555.214 164.007 535.847 176.007 530.514C199.507 513.514 215.507 535.014 218.007 538.014C220.507 541.014 223.507 546.014 241.007 578.014C258.507 610.014 241.007 619.014 231.507 625.514C222.007 632.014 199.007 633.514 169.507 590.014Z" fill="#F0D7BF"/>
<path d="M198.007 471.514C178.007 425.514 202.569 419.344 214.507 414.514C246.507 404.014 249.643 422.797 252.13 425.514C254.617 428.231 252.13 425.514 265.007 456.014C278.156 487.159 261.58 503.529 252.13 509.416C242.679 515.303 219.264 520.405 198.007 471.514Z" fill="#F0D7BF"/>
<path d="M239.507 358.514C245.795 326.014 272.007 325.371 284.007 328.014C300.007 331.537 302.739 342.014 304.007 351.014C304.521 354.661 308.007 363.514 305.79 383.532C302.07 417.134 279.13 418.505 268.007 418.014C256.884 417.522 229.379 410.856 239.507 358.514Z" fill="#F0D7BF"/>
<path opacity="0.5" d="M247.507 374.014C249.107 359.214 256.507 353.18 260.007 352.014C285.607 341.214 291.007 367.847 290.507 382.514C289.34 382.68 284.707 383.314 275.507 384.514C266.307 385.714 254.34 392.68 249.507 396.014C248.173 394.847 245.907 388.814 247.507 374.014Z" fill="white"/>
<path opacity="0.5" d="M198.507 602.014C191.707 590.814 199.007 581.68 203.507 578.514C221.907 568.114 234.173 589.847 238.007 602.014C234.84 602.847 227.807 605.114 225.007 607.514C222.207 609.914 218.173 615.847 216.507 618.514C213.34 617.68 205.307 613.214 198.507 602.014Z" fill="white"/>
<path opacity="0.5" d="M212.507 471.514C208.507 454.314 219.173 446.68 225.007 445.014C250.607 437.414 259.007 463.514 260.007 477.514C258.507 477.514 253.207 478.214 244.007 481.014C234.807 483.814 227.507 489.847 225.007 492.514C222.507 492.68 216.507 488.714 212.507 471.514Z" fill="white"/>
<defs>
<filter id="filter0_d" x="126.384" y="67.3845" width="640.166" height="789.507" filterUnits="userSpaceOnUse" color-interpolation-filters="sRGB">
<feFlood flood-opacity="0" result="BackgroundImageFix"/>
<feColorMatrix in="SourceAlpha" type="matrix" values="0 0 0 0 0 0 0 0 0 0 0 0 0 0 0 0 0 0 127 0"/>
<feOffset dy="12"/>
<feGaussianBlur stdDeviation="22"/>
<feColorMatrix type="matrix" values="0 0 0 0 0 0 0 0 0 0 0 0 0 0 0 0 0 0 0.4 0"/>
<feBlend mode="normal" in2="BackgroundImageFix" result="effect1_dropShadow"/>
<feBlend mode="normal" in="SourceGraphic" in2="effect1_dropShadow" result="shape"/>
</filter>
<linearGradient id="paint0_linear" x1="771.662" y1="802.964" x2="415.867" y2="143.302" gradientUnits="userSpaceOnUse">
<stop stop-color="#1264AD"/>
<stop offset="1" stop-color="#48C6C9"/>
</linearGradient>
</defs>
</svg>
