<svg xmlns="http://www.w3.org/2000/svg" viewBox="0 0 683 864" width="683" height="864">
	<defs>
		<linearGradient id="grd1" gradientUnits="userSpaceOnUse"  x1="618.662" y1="717.964" x2="262.867" y2="58.302">
			<stop offset="0" stop-color="#1264ad"  />
			<stop offset="1" stop-color="#48c6c9"  />
		</linearGradient>
	</defs>
	<style>
		tspan { white-space:pre }
		.shp0 { fill: #f8007a } 
		.shp1 { fill: url(#grd1) } 
		.shp2 { fill: #f0d7bf } 
		.shp3 { fill: #131313 } 
		.shp4 { fill: #ffffff } 
		.shp5 { opacity: 0.502;fill: #ffffff } 
	</style>
	<path id="Layer" class="shp0" d="M587.31 72.84C699.78 86.24 826.8 92.65 828 149.61C829.19 206.57 705.3 313.94 633.2 381.06C560.99 447.64 691.49 462.33 695.5 525.5C699.4 588.13 712.26 539.36 680 571C608.7 694 420.92 726.04 318.13 729.88C215.22 733.18 194.06 762.75 98 755C1.82 746.7 -20.71 635.67 26 571C72.71 506.33 96.01 500.84 127.07 412.24C158.13 323.64 47.56 216.95 50.06 148.45C51.71 79.57 167.28 49.28 273.61 44.13C379.2 39.14 475.68 59.84 587.31 72.84Z" />
	<path id="Layer" class="shp1" d="M414.4 695.49C330.02 727.34 224.47 780.37 153.41 766.67C82.09 752.46 44.67 671.85 60.31 591.23C76.21 511.12 145.17 431 154.62 354.37C163.8 277.24 112.33 202.9 128.95 153.62C144.72 104.15 228.02 78.73 299.68 73.89C371.66 68.23 431.47 82.15 504.43 64.25C577.39 46.36 662.97 -4.35 723.3 2.13C783.37 8.1 818.78 70.94 814.92 135.45C810.75 200.78 767.62 266.96 786.37 345.29C805.12 423.62 885.75 514.09 869.63 565.71C853.51 617.32 741.23 629.76 652.62 641.13C564.29 653.01 499.63 663.82 414.4 695.49Z" />
	<path id="Layer" fill-rule="evenodd" class="shp2" d="M78.01 603.51C88.51 644.51 114.51 734.21 134.51 765.01C139.14 772.15 143.93 778.67 148.68 784.55C166.66 805.02 187.2 823.46 230.33 848.39C277.74 875.81 340.16 857.01 397.22 839.6C409.13 811.35 422.59 780.87 437.51 749.01C493.91 628.61 512.01 598.85 514.01 599.01C513.67 575.35 514.31 521.11 519.51 493.51C524.71 465.91 529.01 456.01 530.51 454.51C527.84 444.51 524.11 420.31 530.51 403.51C536.91 386.71 548.17 357.51 553.01 345.01C548.17 339.35 533.61 329.71 514.01 336.51C489.51 345.01 468.51 367.01 457.51 403.51C448.71 432.71 449.51 446.68 451.01 450.01C444.51 460.68 431.31 487.01 430.51 507.01C429.71 527.01 430.17 538.68 430.51 542.01L408.51 514.01L78.01 603.51Z" />
	<path id="Layer" class="shp2" d="M173.51 224.01L211.51 141.51L200.01 121.51C194.17 111.01 176.01 95.31 150.01 116.51C124.01 137.71 154.84 197.01 173.51 224.01Z" />
	<g id="Layer">
		<path id="Layer" class="shp3" d="M566.07 178.19L329.23 693.74C320.46 712.84 297.93 721.18 278.83 712.41L39.53 602.47C20.43 593.7 12.09 571.17 20.86 552.08L257.7 36.53C266.48 17.43 289 9.09 308.1 17.86L547.4 127.8C566.5 136.57 574.84 159.1 566.07 178.19Z" />
	</g>
	<path id="Layer" class="shp4" d="M558.09 174.77L327.45 676.81C320.76 691.38 303.57 697.75 289 691.05L49.09 580.84C34.52 574.15 28.15 556.96 34.84 542.38L265.48 40.35C272.17 25.78 289.36 19.41 303.94 26.1L543.84 136.32C558.41 143.01 564.78 160.2 558.09 174.77Z" />
	<path id="Layer" class="shp2" d="M16.51 505.01C-7.09 470.21 11.01 450.85 23.01 445.51C46.51 428.51 62.51 450.01 65.01 453.01C67.51 456.01 70.51 461.01 88.01 493.01C105.51 525.01 88.01 534.01 78.51 540.51C69.01 547.01 46.01 548.51 16.51 505.01Z" />
	<path id="Layer" class="shp2" d="M45.01 386.51C25.01 340.51 49.57 334.34 61.51 329.51C93.51 319.01 96.64 337.8 99.13 340.51C101.62 343.23 99.13 340.51 112.01 371.01C125.16 402.16 108.58 418.53 99.13 424.42C89.68 430.3 66.26 435.4 45.01 386.51Z" />
	<path id="Layer" class="shp2" d="M86.51 273.51C92.79 241.01 119.01 240.37 131.01 243.01C147.01 246.54 149.74 257.01 151.01 266.01C151.52 269.66 155.01 278.51 152.79 298.53C149.07 332.13 126.13 333.5 115.01 333.01C103.88 332.52 76.38 325.86 86.51 273.51Z" />
	<path id="Layer" class="shp5" d="M94.51 289.01C96.11 274.21 103.51 268.18 107.01 267.01C132.61 256.21 138.01 282.85 137.51 297.51C136.34 297.68 131.71 298.31 122.51 299.51C113.31 300.71 101.34 307.68 96.51 311.01C95.17 309.85 92.91 303.81 94.51 289.01Z" />
	<path id="Layer" class="shp5" d="M45.51 517.01C38.71 505.81 46.01 496.68 50.51 493.51C68.91 483.11 81.17 504.85 85.01 517.01C81.84 517.85 74.81 520.11 72.01 522.51C69.21 524.91 65.17 530.85 63.51 533.51C60.34 532.68 52.31 528.21 45.51 517.01Z" />
	<path id="Layer" class="shp5" d="M59.51 386.51C55.51 369.31 66.17 361.68 72.01 360.01C97.61 352.41 106.01 378.51 107.01 392.51C105.51 392.51 100.21 393.21 91.01 396.01C81.81 398.81 74.51 404.85 72.01 407.51C69.51 407.68 63.51 403.71 59.51 386.51Z" />
</svg>