<svg width="641" height="881" viewBox="0 0 641 881" fill="none" xmlns="http://www.w3.org/2000/svg">
<path fill-rule="evenodd" clip-rule="evenodd" d="M105.007 621.514C115.507 662.514 141.507 752.214 161.507 783.014C166.14 790.149 170.934 796.67 175.677 802.552C193.657 823.02 214.2 841.458 257.329 866.394C304.742 893.807 367.163 875.011 424.216 857.603C436.132 829.346 449.586 798.867 464.507 767.014C520.907 646.614 539.007 616.847 541.007 617.014C540.673 593.347 541.307 539.114 546.507 511.514C551.707 483.914 556.007 474.014 557.507 472.514C554.84 462.514 551.107 438.314 557.507 421.514C563.907 404.714 575.173 375.514 580.007 363.014C575.173 357.347 560.607 347.714 541.007 354.514C516.507 363.014 495.507 385.014 484.507 421.514C475.707 450.714 476.507 464.68 478.007 468.014C471.507 478.68 458.307 505.014 457.507 525.014C456.707 545.014 457.173 556.68 457.507 560.014L435.507 532.014L105.007 621.514Z" fill="#F0D7BF"/>
<path d="M200.507 242.014L238.507 159.514L227.007 139.514C221.174 129.014 203.007 113.314 177.007 134.514C151.007 155.714 181.84 215.014 200.507 242.014Z" fill="#F0D7BF"/>
<g filter="url(#filter0_d)">
<rect x="608.935" y="161.661" width="643.352" height="339.351" rx="38" transform="rotate(114.674 608.935 161.661)" fill="#131313"/>
</g>
<rect x="597.193" y="166.422" width="610.475" height="322.009" rx="29" transform="rotate(114.674 597.193 166.422)" fill="white"/>
<path d="M43.5068 523.014C19.9068 488.214 38.0068 468.847 50.0068 463.514C73.5068 446.514 89.5068 468.014 92.0068 471.014C94.5068 474.014 97.5068 479.014 115.007 511.014C132.507 543.014 115.007 552.014 105.507 558.514C96.0068 565.014 73.0068 566.514 43.5068 523.014Z" fill="#F0D7BF"/>
<path d="M72.0068 404.514C52.0068 358.514 76.5695 352.344 88.5068 347.514C120.507 337.014 123.643 355.797 126.13 358.514C128.617 361.231 126.13 358.514 139.007 389.014C152.156 420.159 135.58 436.529 126.13 442.416C116.679 448.303 93.264 453.405 72.0068 404.514Z" fill="#F0D7BF"/>
<path d="M113.507 291.514C119.795 259.014 146.007 258.371 158.007 261.014C174.007 264.537 176.739 275.014 178.007 284.014C178.521 287.661 182.007 296.514 179.79 316.532C176.07 350.134 153.13 351.505 142.007 351.014C130.884 350.522 103.379 343.856 113.507 291.514Z" fill="#F0D7BF"/>
<path opacity="0.5" d="M121.507 307.014C123.107 292.214 130.507 286.18 134.007 285.014C159.607 274.214 165.007 300.847 164.507 315.514C163.34 315.68 158.707 316.314 149.507 317.514C140.307 318.714 128.34 325.68 123.507 329.014C122.173 327.847 119.907 321.814 121.507 307.014Z" fill="white"/>
<path opacity="0.5" d="M72.5068 535.014C65.7068 523.814 73.0068 514.68 77.5068 511.514C95.9068 501.114 108.173 522.847 112.007 535.014C108.84 535.847 101.807 538.114 99.0068 540.514C96.2068 542.914 92.1735 548.847 90.5068 551.514C87.3401 550.68 79.3068 546.214 72.5068 535.014Z" fill="white"/>
<path opacity="0.5" d="M86.5068 404.514C82.5068 387.314 93.1734 379.68 99.0068 378.014C124.607 370.414 133.007 396.514 134.007 410.514C132.507 410.514 127.207 411.214 118.007 414.014C108.807 416.814 101.507 422.847 99.0068 425.514C96.5068 425.68 90.5068 421.714 86.5068 404.514Z" fill="white"/>
<defs>
<filter id="filter0_d" x="0.38446" y="0.384521" width="640.166" height="789.507" filterUnits="userSpaceOnUse" color-interpolation-filters="sRGB">
<feFlood flood-opacity="0" result="BackgroundImageFix"/>
<feColorMatrix in="SourceAlpha" type="matrix" values="0 0 0 0 0 0 0 0 0 0 0 0 0 0 0 0 0 0 127 0"/>
<feOffset dy="12"/>
<feGaussianBlur stdDeviation="22"/>
<feColorMatrix type="matrix" values="0 0 0 0 0 0 0 0 0 0 0 0 0 0 0 0 0 0 0.4 0"/>
<feBlend mode="normal" in2="BackgroundImageFix" result="effect1_dropShadow"/>
<feBlend mode="normal" in="SourceGraphic" in2="effect1_dropShadow" result="shape"/>
</filter>
</defs>
</svg>
