<svg width="96" height="64" viewBox="0 0 96 64" fill="none" xmlns="http://www.w3.org/2000/svg">
<path opacity="0.1" fill-rule="evenodd" clip-rule="evenodd" d="M93.4898 -1.54782e-05C95.1176 4.82252 96 9.98821 96 15.36C96 41.8697 74.5097 63.36 48 63.36C21.4903 63.36 9.50814e-06 41.8696 1.18257e-05 15.36C1.22953e-05 9.9882 0.882429 4.82252 2.51021 -2.34319e-05L23.6336 -2.15853e-05C20.8253 4.44556 19.2001 9.713 19.2001 15.36C19.2001 31.2658 32.0943 44.16 48.0001 44.16C63.9059 44.16 76.8001 31.2658 76.8001 15.36C76.8001 9.713 75.1748 4.44557 72.3665 -1.73249e-05L93.4898 -1.54782e-05Z" fill="white"/>
</svg>
