<svg width="144" height="140" viewBox="0 0 144 140" fill="none" xmlns="http://www.w3.org/2000/svg">
<path d="M71.8075 42.3362C71.7405 42.3358 71.6743 42.3493 71.6128 42.3757C71.5513 42.402 71.496 42.4408 71.4503 42.4895C69.5628 44.3661 68.3085 46.7802 67.8611 49.3974L64.8637 52.6859C64.7332 52.828 64.6474 53.005 64.6169 53.1951C64.5864 53.3851 64.6126 53.5799 64.6921 53.7554C64.7713 53.9374 64.9032 54.092 65.0709 54.1993C65.2386 54.3066 65.4346 54.3618 65.634 54.358L67.7 54.358L67.7 54.3789C67.7013 54.7823 67.863 55.1687 68.1496 55.4539C68.4363 55.7391 68.8248 55.8999 69.2302 55.9012L69.2513 55.9012L69.2478 56.476C69.248 56.8677 69.4045 57.2432 69.6829 57.5202C69.9613 57.7971 70.3388 57.9528 70.7325 57.9531L72.8825 57.9531C73.0775 57.9533 73.2707 57.9153 73.451 57.8412C73.6312 57.767 73.795 57.6583 73.9329 57.5211C74.0709 57.3838 74.1802 57.2209 74.2547 57.0416C74.3293 56.8623 74.3675 56.6701 74.3672 56.476L74.3672 55.8978L74.3882 55.8978C74.5891 55.8995 74.7883 55.8612 74.9741 55.7853C75.16 55.7093 75.3286 55.5971 75.4702 55.4553C75.6118 55.3138 75.724 55.1459 75.8003 54.9612C75.8766 54.7765 75.9156 54.5786 75.9149 54.3789L75.9149 54.358L77.9809 54.358C78.1166 54.36 78.2514 54.3348 78.3771 54.2839C78.5028 54.2331 78.617 54.1576 78.7128 54.0619C78.8026 53.9746 78.874 53.8704 78.9229 53.7554C79.0037 53.5802 79.0305 53.3851 79 53.1948C78.9694 53.0044 78.8829 52.8274 78.7513 52.6859L75.7574 49.3939C75.3071 46.778 74.0517 44.3655 72.1647 42.4895C72.1184 42.4415 72.063 42.4032 72.0016 42.3769C71.9403 42.3506 71.8743 42.3367 71.8075 42.3362ZM65.599 53.3478L67.7105 51.0242C67.7105 51.1078 67.7 51.1949 67.7 51.2785L67.7 53.3687L65.599 53.3478ZM73.3797 56.476C73.3792 56.6071 73.3267 56.7326 73.2335 56.8253C73.1404 56.9179 73.0142 56.9702 72.8825 56.9707L70.736 56.9672C70.6051 56.9668 70.4798 56.915 70.3873 56.8229C70.2948 56.7309 70.2426 56.6062 70.2422 56.476L70.2387 55.9012L73.3762 55.9012L73.3797 56.476ZM77.9809 53.3756H75.9149V51.2785C75.9149 51.2019 75.9044 51.1218 75.9044 51.0451L77.9809 53.3756ZM74.9275 51.2785L74.924 54.3824C74.9234 54.5236 74.8668 54.6588 74.7665 54.7587C74.6661 54.8585 74.5301 54.9149 74.3882 54.9154L69.2267 54.9154C69.0848 54.9149 68.9489 54.8585 68.8485 54.7587C68.7481 54.6588 68.6915 54.5236 68.691 54.3824C68.691 53.3443 68.691 52.3132 68.6875 51.2785C68.7093 48.4045 69.824 45.6452 71.8075 43.5554C73.791 45.6452 74.9057 48.4045 74.9275 51.2785Z" fill="url(#paint0_linear)"/>
<path d="M72.8789 48.7727C73.1668 48.4918 73.3308 48.1086 73.3348 47.7075C73.342 47.3475 73.2231 46.9963 72.9984 46.7141C72.7737 46.4319 72.4572 46.2362 72.1034 46.1608C71.7495 46.0853 71.3803 46.1347 71.0591 46.3005C70.7378 46.4663 70.4846 46.7381 70.3428 47.0694C70.2011 47.4006 70.1796 47.7706 70.2821 48.1159C70.3846 48.4612 70.6047 48.7602 70.9047 48.9616C71.2046 49.1631 71.5657 49.2544 71.9259 49.22C72.2861 49.1855 72.6231 49.0274 72.8789 48.7727ZM71.2706 47.7071C71.2726 47.5661 71.3299 47.4315 71.4301 47.3318C71.5303 47.232 71.6657 47.1751 71.8074 47.1731C71.9136 47.1731 72.0174 47.2044 72.1056 47.2631C72.1939 47.3218 72.2627 47.4052 72.3034 47.5028C72.344 47.6003 72.3546 47.7077 72.3339 47.8113C72.3132 47.9149 72.2621 48.0101 72.187 48.0847C72.1119 48.1594 72.0163 48.2103 71.9121 48.2309C71.808 48.2515 71.7001 48.2409 71.602 48.2005C71.5039 48.1601 71.42 48.0916 71.3611 48.0038C71.3021 47.916 71.2706 47.8127 71.2706 47.7071Z" fill="url(#paint1_linear)"/>
<path d="M72.3045 51.3029L72.3045 52.8426C72.3004 52.9716 72.2471 53.0942 72.1554 53.1854C72.0637 53.2767 71.9405 53.3297 71.8108 53.3338C71.6791 53.3333 71.5529 53.281 71.4598 53.1884C71.3666 53.0957 71.3141 52.9702 71.3136 52.8391L71.3136 51.2994C71.314 51.1692 71.3661 51.0445 71.4586 50.9525C71.5511 50.8605 71.6765 50.8086 71.8073 50.8082C71.939 50.8087 72.0652 50.861 72.1583 50.9537C72.2515 51.0463 72.304 51.1718 72.3045 51.3029Z" fill="url(#paint2_linear)"/>
<path d="M62.212 72.1026C62.2144 70.0433 61.2305 68.0574 59.4532 66.5343C59.3765 66.4685 59.2839 66.4151 59.1807 66.3772C59.0776 66.3393 58.9659 66.3176 58.8519 66.3134C58.738 66.3091 58.6242 66.3224 58.5168 66.3525C58.4095 66.3826 58.3108 66.4288 58.2264 66.4886C58.1421 66.5484 58.0736 66.6206 58.025 66.7011C57.9763 66.7815 57.9485 66.8686 57.9431 66.9575C57.9376 67.0463 57.9547 67.1351 57.9932 67.2188C58.0318 67.3025 58.0911 67.3794 58.1678 67.4452C59.0559 68.2079 59.7147 69.1154 60.0963 70.1016C60.4779 71.0879 60.5726 72.1281 60.3737 73.1465C60.1747 74.1649 59.687 75.1359 58.9461 75.9888C58.2052 76.8417 57.2297 77.555 56.0907 78.0768C55.8935 78.1684 55.7507 78.3171 55.6937 78.4905C55.6367 78.6639 55.6701 78.8478 55.7865 79.0021C55.9029 79.1564 56.0929 79.2684 56.315 79.3138C56.537 79.3591 56.7731 79.334 56.9715 79.244C58.5639 78.51 59.8843 77.4658 60.803 76.2138C61.7217 74.9618 62.2073 73.5451 62.212 72.1026Z" fill="#FF9C22"/>
<path d="M52.3742 64.0186C51.9761 64.3744 51.586 64.7417 51.204 65.1203C45.6794 70.6164 42.5757 78.0706 42.5757 85.8432C42.5757 93.6158 45.6794 101.07 51.204 106.566C56.7286 112.062 64.2215 115.15 72.0345 115.15C79.8475 115.15 87.3405 112.062 92.8651 106.566C98.2853 101.169 101.377 93.8829 101.482 86.2547C101.587 78.6266 98.6987 71.2582 93.4297 65.7153C88.1607 60.1724 80.9268 56.892 73.2651 56.5711C65.6034 56.2502 58.1179 58.9142 52.3992 63.9968C52.3904 64.0039 52.3823 64.0112 52.3742 64.0186ZM72.0345 57.9377C77.0831 57.9396 82.0376 59.2963 86.3759 61.8651C90.7142 64.4338 94.2755 68.1193 96.6845 72.5332C99.0934 76.947 100.261 81.9256 100.064 86.9442C99.8662 91.9628 98.3116 96.8356 95.5635 101.049C95.3182 99.9192 94.8228 98.8582 94.1135 97.943C93.9996 97.7961 93.8317 97.7002 93.6468 97.6762C93.4619 97.6523 93.275 97.7023 93.1271 97.8153C92.9792 97.9282 92.8824 98.095 92.8579 98.2789C92.8334 98.4628 92.8832 98.6488 92.9964 98.7962C93.8681 99.9203 94.3387 101.301 94.334 102.721C94.334 102.738 94.3354 102.756 94.3367 102.773C92.417 105.267 90.0926 107.426 87.4591 109.16C86.2455 109.086 85.077 108.675 84.0866 107.974C83.0963 107.272 82.3237 106.308 81.857 105.191C81.8215 105.106 81.7696 105.029 81.7042 104.964C81.6387 104.899 81.561 104.847 81.4756 104.812C81.3901 104.777 81.2985 104.759 81.2061 104.759C81.1136 104.759 81.022 104.777 80.9366 104.813C80.8512 104.848 80.7736 104.9 80.7082 104.965C80.6429 105.03 80.5911 105.107 80.5557 105.192C80.5204 105.277 80.5022 105.368 80.5023 105.46C80.5024 105.552 80.5206 105.643 80.5561 105.728C81.0096 106.813 81.7016 107.783 82.5813 108.567C83.461 109.351 84.506 109.929 85.6396 110.258C81.6632 112.443 77.2146 113.638 72.6735 113.741C68.1324 113.844 63.6335 112.853 59.5609 110.852C61.8188 110.793 63.9993 110.022 65.7881 108.65C65.9362 108.536 66.0332 108.369 66.0575 108.185C66.0819 108.001 66.0317 107.815 65.918 107.667C65.8043 107.52 65.6364 107.423 65.4512 107.399C65.266 107.375 65.0788 107.425 64.9306 107.538C63.5986 108.56 62.0117 109.202 60.3405 109.394C61.0273 108.791 61.5777 108.051 61.9553 107.221C62.3329 106.391 62.529 105.491 62.5308 104.58C62.5308 104.526 62.5301 104.472 62.5287 104.417C62.502 103.394 62.2301 102.393 61.7356 101.495C61.2411 100.598 60.5384 99.831 59.6858 99.2584C58.8332 98.6858 57.8555 98.3241 56.8341 98.2033C55.8126 98.0824 54.7769 98.2061 53.8131 98.5639C53.725 98.5949 53.6439 98.6431 53.5746 98.7056C53.5054 98.7682 53.4494 98.8438 53.4098 98.9281C53.3703 99.0124 53.348 99.1037 53.3443 99.1967C53.3406 99.2897 53.3556 99.3824 53.3883 99.4696C53.4211 99.5567 53.4709 99.6365 53.535 99.7043C53.5991 99.7721 53.6761 99.8265 53.7615 99.8643C53.8469 99.9022 53.9391 99.9227 54.0326 99.9247C54.1261 99.9268 54.2191 99.9103 54.3061 99.8761C54.9563 99.6346 55.6497 99.5291 56.3428 99.5661C57.036 99.6032 57.7139 99.7821 58.3344 100.092C58.9549 100.401 59.5046 100.835 59.9491 101.365C60.3935 101.895 60.7232 102.511 60.9176 103.174C61.112 103.837 61.1669 104.533 61.0788 105.218C60.9907 105.903 60.7616 106.562 60.4057 107.155C60.0498 107.748 59.5749 108.262 59.0105 108.664C58.4461 109.066 57.8045 109.347 57.1257 109.492C55.3421 108.373 53.6899 107.059 52.1997 105.576C51.8374 105.215 51.4865 104.846 51.1472 104.469C51.1391 103.139 51.5435 102.052 52.3867 101.154C52.5122 101.018 52.5786 100.838 52.5715 100.653C52.5643 100.469 52.4842 100.294 52.3485 100.168C52.2127 100.042 52.0324 99.9746 51.8468 99.9801C51.6612 99.9856 51.4853 100.064 51.3574 100.198C50.8088 100.776 50.3847 101.46 50.1112 102.208C49.686 100.346 49.8466 98.3983 50.5713 96.6299C51.296 94.8615 52.5496 93.3575 54.1624 92.3217C54.3192 92.2208 54.4293 92.062 54.4685 91.8804C54.5076 91.6987 54.4727 91.509 54.3712 91.353C54.2698 91.1969 54.1102 91.0874 53.9276 91.0485C53.7449 91.0095 53.5542 91.0443 53.3974 91.1452C51.8835 92.1144 50.6389 93.4466 49.7779 95.0195C48.917 96.5923 48.4674 98.3553 48.4704 100.146C48.4704 100.451 48.4839 100.753 48.509 101.054C46.1772 97.4724 44.6985 93.4082 44.1859 89.1714C43.6732 84.9347 44.1402 80.6374 45.5511 76.6075C46.2983 77.9333 47.3881 79.0363 48.7077 79.8025C50.0272 80.5687 51.5286 80.9703 53.0565 80.9656C53.5901 80.9656 54.1226 80.9168 54.6473 80.8196C54.8087 80.7897 54.9546 80.7045 55.0596 80.5789C55.1646 80.4533 55.2222 80.2951 55.2223 80.1317C55.2224 80.0883 55.2185 80.045 55.2106 80.0023C55.1937 79.9118 55.159 79.8256 55.1085 79.7484C55.0581 79.6713 54.9928 79.6048 54.9165 79.5528C54.8403 79.5007 54.7544 79.4641 54.6639 79.4451C54.5734 79.4261 54.48 79.425 54.389 79.4419C53.9496 79.5234 53.5035 79.5644 53.0565 79.5645C51.5659 79.5692 50.1109 79.1118 48.8937 78.256C47.6764 77.4002 46.7574 76.1884 46.2643 74.789C47.6727 71.5486 49.6868 68.6037 52.1997 66.1109C52.5018 65.8105 52.8097 65.5181 53.1233 65.2338C54.0637 65.2401 54.9937 65.4308 55.86 65.7949C55.9454 65.832 56.0373 65.8519 56.1305 65.8534C56.2236 65.855 56.3161 65.8381 56.4027 65.8037C56.4892 65.7694 56.5681 65.7183 56.6346 65.6535C56.7012 65.5886 56.7542 65.5113 56.7905 65.4259C56.8268 65.3406 56.8457 65.2489 56.8461 65.1562C56.8465 65.0635 56.8285 64.9717 56.793 64.886C56.7575 64.8003 56.7052 64.7224 56.6392 64.657C56.5733 64.5915 56.4949 64.5397 56.4087 64.5046C55.8306 64.2619 55.2274 64.0833 54.6099 63.9722C59.5597 60.0486 65.7056 57.9202 72.0345 57.9377Z" fill="url(#paint3_linear)"/>
<path d="M55.6664 71.8395C55.6664 71.6689 55.6028 71.5053 55.4894 71.3847C55.3761 71.2641 55.2225 71.1963 55.0622 71.1963C54.902 71.1963 54.7483 71.2641 54.635 71.3847C54.5217 71.5053 54.458 71.6689 54.458 71.8395C54.458 72.1913 54.3267 72.5286 54.093 72.7774C53.8593 73.0262 53.5424 73.1659 53.2119 73.1659C52.8814 73.1659 52.5644 73.0262 52.3307 72.7774C52.097 72.5286 51.9657 72.1913 51.9657 71.8395C51.9657 71.6689 51.9021 71.5053 51.7888 71.3847C51.6754 71.2641 51.5218 71.1963 51.3615 71.1963C51.2013 71.1963 51.0476 71.2641 50.9343 71.3847C50.821 71.5053 50.7573 71.6689 50.7573 71.8395C50.7573 72.5324 51.0159 73.1969 51.4762 73.6869C51.9366 74.1769 52.5609 74.4521 53.2119 74.4521C53.8629 74.4521 54.4872 74.1769 54.9475 73.6869C55.4078 73.1969 55.6664 72.5324 55.6664 71.8395Z" fill="#FF9C22"/>
<path d="M73.6666 81.7777C73.6666 81.6183 73.5817 81.4654 73.4306 81.3527C73.2795 81.24 73.0746 81.1766 72.861 81.1766C72.6473 81.1766 72.4424 81.24 72.2913 81.3527C72.1402 81.4654 72.0554 81.6183 72.0554 81.7777C72.0554 82.0229 71.9579 82.2626 71.7753 82.4665C71.5928 82.6703 71.3333 82.8292 71.0297 82.9231C70.7261 83.0169 70.392 83.0414 70.0697 82.9936C69.7474 82.9458 69.4513 82.8277 69.2189 82.6543C68.9866 82.4809 68.8283 82.2601 68.7642 82.0196C68.7001 81.7791 68.733 81.5298 68.8588 81.3033C68.9845 81.0768 69.1975 80.8832 69.4707 80.7469C69.744 80.6107 70.0652 80.538 70.3938 80.538C70.6075 80.538 70.8124 80.4747 70.9635 80.3619C71.1145 80.2492 71.1994 80.0963 71.1994 79.9369C71.1994 79.7775 71.1145 79.6246 70.9635 79.5119C70.8124 79.3992 70.6075 79.3359 70.3938 79.3359C69.7465 79.3359 69.1138 79.4791 68.5756 79.7474C68.0374 80.0157 67.6179 80.3971 67.3702 80.8433C67.1225 81.2894 67.0577 81.7804 67.184 82.2541C67.3103 82.7278 67.622 83.1629 68.0797 83.5044C68.5374 83.8459 69.1205 84.0784 69.7553 84.1727C70.3902 84.2669 71.0482 84.2185 71.6462 84.0337C72.2443 83.8489 72.7554 83.5359 73.115 83.1343C73.4746 82.7328 73.6666 82.2607 73.6666 81.7777Z" fill="url(#paint4_linear)"/>
<path d="M71.1323 76.0801C70.269 76.0776 69.4162 76.293 68.6372 76.7103C68.5614 76.7499 68.4934 76.806 68.437 76.8752C68.3806 76.9445 68.337 77.0256 68.3087 77.1139C68.2804 77.2021 68.268 77.2958 68.2722 77.3895C68.2763 77.4831 68.297 77.575 68.333 77.6596C68.3689 77.7443 68.4195 77.8202 68.4818 77.8828C68.544 77.9454 68.6167 77.9936 68.6957 78.0246C68.7746 78.0556 68.8582 78.0687 68.9417 78.0633C69.0252 78.0578 69.107 78.0339 69.1822 77.9928C69.7911 77.6669 70.4576 77.4987 71.1323 77.5008C71.8647 77.5008 72.5862 77.6995 73.2353 78.0799C73.8843 78.4603 74.4417 79.0112 74.8598 79.6854C75.2779 80.3597 75.5443 81.1374 75.6363 81.9521C75.7283 82.7669 75.6432 83.5945 75.3882 84.3643C75.1332 85.1342 74.7159 85.8234 74.1718 86.3732C73.6278 86.9231 72.9733 87.3171 72.264 87.5219C71.5547 87.7266 70.8118 87.7359 70.0987 87.5489C69.3855 87.362 68.7233 86.9843 68.1684 86.4482C68.0412 86.3251 67.8756 86.2638 67.7081 86.2776C67.5405 86.2915 67.3847 86.3794 67.2749 86.522C67.1652 86.6647 67.1105 86.8504 67.1228 87.0383C67.1352 87.2262 67.2136 87.4009 67.3408 87.5239C68.0504 88.2098 68.8974 88.6929 69.8096 88.9322C70.7218 89.1714 71.672 89.1596 72.5793 88.8979C73.4865 88.6361 74.3238 88.1321 75.0197 87.4289C75.7157 86.7256 76.2495 85.8441 76.5758 84.8594C76.902 83.8747 77.0109 82.8161 76.8933 81.7739C76.7757 80.7318 76.4349 79.737 75.9001 78.8746C75.3654 78.0121 74.6525 77.3075 73.8222 76.8209C72.992 76.3342 72.0691 76.0801 71.1323 76.0801Z" fill="#FF9C22"/>
<path d="M65.5221 81.918C65.5225 80.7832 66.019 79.6847 66.9248 78.815C67.0676 78.6782 67.137 78.5013 67.1177 78.3233C67.0985 78.1453 66.9921 77.9807 66.8221 77.8658C66.6521 77.7509 66.4324 77.695 66.2112 77.7105C65.99 77.726 65.7856 77.8116 65.6428 77.9484C64.484 79.0609 63.8487 80.4662 63.8481 81.918C63.8481 82.0966 63.9363 82.268 64.0933 82.3944C64.2503 82.5207 64.4632 82.5917 64.6851 82.5917C64.9071 82.5917 65.12 82.5207 65.277 82.3944C65.434 82.268 65.5221 82.0966 65.5221 81.918Z" fill="#FF9C22"/>
<path d="M85.1735 96.5065C85.2086 96.6504 85.2603 96.7813 85.3257 96.8918C85.3911 97.0022 85.4688 97.0901 85.5545 97.1503C85.6402 97.2105 85.7322 97.242 85.8251 97.2428C85.9181 97.2437 86.0102 97.2139 86.0963 97.1552C87.5714 96.1555 89.2138 96.0879 90.7165 96.9649C90.8045 97.0185 90.898 97.0423 90.9915 97.0351C91.0851 97.0278 91.1768 96.9896 91.2615 96.9227C91.3461 96.8557 91.422 96.7614 91.4847 96.6451C91.5473 96.5288 91.5956 96.3929 91.6266 96.2452C91.6576 96.0975 91.6708 95.941 91.6654 95.7847C91.6599 95.6285 91.636 95.4756 91.5949 95.3349C91.5539 95.1942 91.4966 95.0686 91.4262 94.9652C91.3559 94.8618 91.274 94.7828 91.1853 94.7327C89.3563 93.6641 87.3569 93.7464 85.5617 94.9643C85.4756 95.023 85.3973 95.1094 85.3312 95.2187C85.2651 95.3279 85.2125 95.4579 85.1765 95.6011C85.1404 95.7443 85.1216 95.898 85.1211 96.0533C85.1206 96.2087 85.1384 96.3627 85.1735 96.5065Z" fill="#FF9C22"/>
<path d="M80.2669 99.685C80.1922 99.8302 80.1937 99.993 80.2709 100.137C80.3481 100.282 80.4949 100.396 80.6788 100.455C80.8627 100.514 81.0687 100.513 81.2516 100.452C81.4344 100.391 81.5791 100.275 81.6538 100.13C82.0156 99.4244 82.5615 98.7871 83.256 98.2594C83.3988 98.1505 83.481 98.0013 83.4845 97.8445C83.488 97.6877 83.4126 97.5363 83.2747 97.4235C83.1369 97.3106 82.9479 97.2457 82.7495 97.2429C82.551 97.2402 82.3593 97.2998 82.2165 97.4087C81.3714 98.0508 80.7071 98.8264 80.2669 99.685Z" fill="#FF9C22"/>
<path d="M87.5897 99.5375C87.5897 99.7143 87.6745 99.8839 87.8253 100.009C87.9761 100.134 88.1807 100.204 88.394 100.204C89.0468 100.204 89.6849 100.365 90.2277 100.665C90.7705 100.966 91.1935 101.393 91.4434 101.893C91.6932 102.393 91.7585 102.944 91.6312 103.474C91.5038 104.005 91.1895 104.493 90.7279 104.875C90.2663 105.258 89.6781 105.519 89.0379 105.624C88.3976 105.73 87.734 105.676 87.1308 105.469C86.5277 105.261 86.0122 104.911 85.6496 104.461C85.2869 104.011 85.0933 103.482 85.0933 102.941C85.0933 102.764 85.0086 102.594 84.8578 102.469C84.7069 102.344 84.5024 102.274 84.2891 102.274C84.0758 102.274 83.8712 102.344 83.7204 102.469C83.5696 102.594 83.4849 102.764 83.4849 102.941C83.4849 103.745 83.7728 104.532 84.3122 105.202C84.8516 105.871 85.6183 106.392 86.5153 106.7C87.4123 107.009 88.3994 107.089 89.3517 106.932C90.3039 106.775 91.1787 106.387 91.8652 105.818C92.5518 105.249 93.0193 104.524 93.2087 103.734C93.3981 102.945 93.3009 102.127 92.9294 101.383C92.5578 100.639 91.9286 100.004 91.1213 99.5566C90.314 99.1094 89.3649 98.8708 88.394 98.8708C88.1807 98.8708 87.9761 98.941 87.8253 99.066C87.6745 99.1911 87.5897 99.3606 87.5897 99.5375Z" fill="url(#paint5_linear)"/>
<path d="M58.9395 89.8077C58.9395 89.9945 59.0135 90.1737 59.1454 90.3058C59.2772 90.4379 59.4561 90.5121 59.6425 90.5121C61.262 90.5127 62.8535 90.9347 64.2612 91.7368C65.6689 92.5389 66.8444 93.6936 67.6727 95.0879C68.5009 96.4821 68.9535 98.0679 68.9859 99.6901C69.0184 101.312 68.6297 102.915 67.8579 104.341C67.8138 104.423 67.7861 104.512 67.7764 104.604C67.7667 104.696 67.7751 104.789 67.8013 104.878C67.8275 104.966 67.8708 105.049 67.9289 105.121C67.9869 105.193 68.0585 105.253 68.1397 105.297C68.2208 105.341 68.3098 105.369 68.4016 105.378C68.4934 105.388 68.5863 105.38 68.6748 105.354C68.7634 105.327 68.8459 105.284 68.9177 105.226C68.9895 105.168 69.0492 105.096 69.0933 105.015C69.9815 103.374 70.429 101.53 70.3919 99.6632C70.3547 97.7969 69.8342 95.9722 68.8814 94.368C67.9286 92.7639 66.5761 91.4352 64.9565 90.5123C63.3369 89.5894 61.5058 89.1039 59.6425 89.1033C59.4561 89.1033 59.2772 89.1775 59.1454 89.3096C59.0135 89.4417 58.9395 89.6209 58.9395 89.8077Z" fill="#FF9C22"/>
<path d="M85.9435 78.9308C84.8949 78.9312 83.8626 78.5717 82.9394 77.8847C82.8543 77.8199 82.7608 77.7789 82.6643 77.7643C82.5677 77.7496 82.47 77.7615 82.3768 77.7993C82.2835 77.837 82.1967 77.9 82.1211 77.9844C82.0456 78.0688 81.9829 78.173 81.9367 78.2911C81.8905 78.4092 81.8617 78.5387 81.8519 78.6722C81.8421 78.8058 81.8516 78.9407 81.8797 79.0691C81.9079 79.1976 81.9541 79.3171 82.0159 79.4207C82.0776 79.5243 82.1536 79.61 82.2395 79.6728C83.7163 80.773 85.4106 81.1859 87.0707 80.8502C88.7308 80.5145 90.2684 79.4481 91.4551 77.8093C91.5912 77.6182 91.6671 77.3605 91.6663 77.0924C91.6655 76.8242 91.5881 76.5674 91.4508 76.3778C91.3136 76.1882 91.1277 76.0812 90.9336 76.0801C90.7395 76.079 90.553 76.1839 90.4146 76.3719C89.8288 77.1857 89.132 77.8308 88.3646 78.27C87.5971 78.7093 86.7742 78.9339 85.9435 78.9308Z" fill="#FF9C22"/>
<path d="M88.497 66.6598C88.4478 66.7399 88.4154 66.8286 88.4016 66.9208C88.3878 67.013 88.3929 67.107 88.4166 67.1973C88.4403 67.2876 88.4822 67.3726 88.5398 67.4472C88.5973 67.5219 88.6696 67.5848 88.7523 67.6325C89.6902 68.1752 90.4672 68.9436 91.0078 69.8632C91.5485 70.7827 91.8343 71.822 91.8375 72.8801C91.8388 73.6425 91.6919 74.3984 91.4044 75.1081C91.3687 75.195 91.3511 75.2878 91.3526 75.3812C91.3541 75.4747 91.3746 75.5669 91.413 75.6527C91.4514 75.7384 91.5069 75.816 91.5763 75.8809C91.6457 75.9458 91.7277 75.9968 91.8175 76.031C91.9074 76.0651 92.0033 76.0818 92.0998 76.0799C92.1963 76.0781 92.2914 76.0578 92.3798 76.0202C92.4682 75.9827 92.548 75.9286 92.6147 75.8611C92.6814 75.7935 92.7337 75.7139 92.7686 75.6268C93.4401 73.9651 93.4802 72.1265 92.8819 70.4388C92.2835 68.7511 91.0856 67.3242 89.5018 66.4124C89.419 66.3648 89.3274 66.3333 89.2321 66.3199C89.1369 66.3066 89.0398 66.3115 88.9465 66.3345C88.8532 66.3574 88.7654 66.398 88.6883 66.4538C88.6112 66.5096 88.5462 66.5796 88.497 66.6598Z" fill="#FF9C22"/>
<path d="M78.5757 72.1223C78.5757 72.3084 78.65 72.487 78.7823 72.6186C78.9147 72.7503 79.0941 72.8242 79.2813 72.8242C79.4684 72.8242 79.6479 72.7503 79.7802 72.6186C79.9125 72.487 79.9868 72.3084 79.9868 72.1223C79.9887 70.5226 80.6282 68.9889 81.7653 67.8578C82.9023 66.7266 84.4439 66.0903 86.0519 66.0886C86.2391 66.0886 86.4185 66.0146 86.5508 65.883C86.6832 65.7513 86.7575 65.5728 86.7575 65.3866C86.7575 65.2005 86.6832 65.0219 86.5508 64.8903C86.4185 64.7586 86.2391 64.6847 86.0519 64.6847C84.0698 64.6869 82.1695 65.4712 80.7679 66.8656C79.3663 68.2599 78.5779 70.1504 78.5757 72.1223Z" fill="#FF9C22"/>
<path d="M85.0988 73.227C85.0988 73.1202 85.0138 73.0178 84.8625 72.9422C84.7111 72.8667 84.5059 72.8242 84.2918 72.8242C84.0778 72.8242 83.8726 72.8667 83.7212 72.9422C83.5699 73.0178 83.4849 73.1202 83.4849 73.227C83.4849 73.5519 83.7435 73.8636 84.2038 74.0933C84.6641 74.3231 85.2884 74.4521 85.9394 74.4521C86.5904 74.4521 87.2147 74.3231 87.675 74.0933C88.1354 73.8636 88.394 73.5519 88.394 73.227C88.394 73.1202 88.3089 73.0178 88.1576 72.9422C88.0063 72.8667 87.801 72.8242 87.587 72.8242C87.373 72.8242 87.1677 72.8667 87.0164 72.9422C86.865 73.0178 86.78 73.1202 86.78 73.227C86.78 73.3383 86.6914 73.445 86.5338 73.5237C86.3762 73.6024 86.1623 73.6466 85.9394 73.6466C85.7165 73.6466 85.5027 73.6024 85.345 73.5237C85.1874 73.445 85.0988 73.3383 85.0988 73.227Z" fill="url(#paint6_linear)"/>
<defs>
<linearGradient id="paint0_linear" x1="67.0831" y1="46.8337" x2="76.4819" y2="56.2813" gradientUnits="userSpaceOnUse">
<stop stop-color="#0D5DA5"/>
<stop offset="1" stop-color="#33B8BB"/>
</linearGradient>
<linearGradient id="paint1_linear" x1="70.6747" y1="46.5804" x2="72.8673" y2="48.7844" gradientUnits="userSpaceOnUse">
<stop stop-color="#0D5DA5"/>
<stop offset="1" stop-color="#33B8BB"/>
</linearGradient>
<linearGradient id="paint2_linear" x1="71.0717" y1="51.3374" x2="72.5347" y2="52.8081" gradientUnits="userSpaceOnUse">
<stop stop-color="#0D5DA5"/>
<stop offset="1" stop-color="#33B8BB"/>
</linearGradient>
<linearGradient id="paint3_linear" x1="42.5757" y1="85.8475" x2="101.485" y2="85.8475" gradientUnits="userSpaceOnUse">
<stop stop-color="#D20D00"/>
<stop offset="1" stop-color="#FF4D00"/>
</linearGradient>
<linearGradient id="paint4_linear" x1="67.1211" y1="81.7777" x2="73.6666" y2="81.7777" gradientUnits="userSpaceOnUse">
<stop stop-color="#E30E00"/>
<stop offset="1" stop-color="#FF8A00"/>
</linearGradient>
<linearGradient id="paint5_linear" x1="83.4849" y1="102.941" x2="93.303" y2="102.941" gradientUnits="userSpaceOnUse">
<stop stop-color="#E30E00"/>
<stop offset="1" stop-color="#FF8A00"/>
</linearGradient>
<linearGradient id="paint6_linear" x1="83.4849" y1="73.6382" x2="88.394" y2="73.6382" gradientUnits="userSpaceOnUse">
<stop stop-color="#E30E00"/>
<stop offset="1" stop-color="#FF8A00"/>
</linearGradient>
</defs>
</svg>
