<svg width="20" height="20" viewBox="0 0 20 20" fill="none" xmlns="http://www.w3.org/2000/svg">
<path fill-rule="evenodd" clip-rule="evenodd" d="M10 0C13.3889 0 16.16 2.77109 16.16 6.16C16.16 7.76231 15.5402 9.22596 14.5306 10.3234C17.7585 11.6988 20 14.8906 20 18.64C20 19.0189 19.872 19.3657 19.6188 19.6188C19.3657 19.872 19.0189 20 18.64 20C18.2611 20 17.9143 19.872 17.6612 19.6188C17.408 19.3657 17.28 19.0189 17.28 18.64C17.28 15.1169 14.4831 12.32 10.96 12.32H9.04C5.51691 12.32 2.72 15.1169 2.72 18.64C2.72 19.0189 2.59196 19.3657 2.33884 19.6188C2.08573 19.872 1.7389 20 1.36 20C0.981102 20 0.63427 19.872 0.381159 19.6188C0.128046 19.3657 0 19.0189 0 18.64C0 14.8906 2.24148 11.6988 5.46941 10.3234C4.45978 9.22596 3.84 7.76231 3.84 6.16C3.84 2.77109 6.61109 0 10 0ZM13.44 6.16C13.44 4.26891 11.8911 2.72 10 2.72C8.10892 2.72 6.56 4.26891 6.56 6.16C6.56 8.05109 8.10892 9.6 10 9.6C11.8911 9.6 13.44 8.05109 13.44 6.16Z" fill="#131313"/>
</svg>
