<svg xmlns="http://www.w3.org/2000/svg" viewBox="0 0 78.41 33.07"><defs><style>.cls-1{fill:#828c95;}</style></defs><g id="Layer_2" data-name="Layer 2"><g id="Layer_1-2" data-name="Layer 1"><path class="cls-1" d="M12.46,11.21a3.38,3.38,0,0,1-.41,1.69A3.5,3.5,0,0,1,11,14.1a5.15,5.15,0,0,1-1.63.72,7.51,7.51,0,0,1-2,.25H0V0H8.38A2.9,2.9,0,0,1,9.8.34a3.61,3.61,0,0,1,1.09.88,4.34,4.34,0,0,1,.69,1.23,4.26,4.26,0,0,1,.24,1.41,4.1,4.1,0,0,1-.54,2A3.36,3.36,0,0,1,9.66,7.34a3.92,3.92,0,0,1,2,1.36A4,4,0,0,1,12.46,11.21ZM3.48,3V6.09H6.9a1.56,1.56,0,0,0,1-.38,1.51,1.51,0,0,0,.44-1.19A1.56,1.56,0,0,0,8,3.38,1.28,1.28,0,0,0,7,3ZM8.91,10.5a1.78,1.78,0,0,0-.4-1.18,1.26,1.26,0,0,0-1-.49h-4v3.29H7.34a1.54,1.54,0,0,0,1.13-.45A1.58,1.58,0,0,0,8.91,10.5Z"/><path class="cls-1" d="M18.72,0h3.14l5.49,15.07H23.79l-1.17-3.38H17.93l-1.14,3.38H13.22Zm3.33,9.29L20.29,4,18.48,9.29Z"/><path class="cls-1" d="M39.26,3.06H34.67v12H31.19v-12h-4.6V0H39.26Z"/><path class="cls-1" d="M52.86,3.06H48.28v12H44.8v-12H40.19V0H52.86Z"/><path class="cls-1" d="M55,15.07V0h3.48V12h7.3v3.06Z"/><path class="cls-1" d="M78.41,12v3.06H67.82V0h10.4V3.06H71.3V6h5.94V8.81H71.3V12Z"/><path class="cls-1" d="M17.74,33.07V23.68h1.19V32h5.24v1.06Z"/><path class="cls-1" d="M30.49,33.07V23.68h1.19v9.39Z"/><path class="cls-1" d="M40.14,25.9v7.17H39V23.68h.92L45.69,31v-7.3h1.19v9.38h-1Z"/><path class="cls-1" d="M60.53,32v1.06H54.15V23.68h6.26v1.06H55.34v3h4.41v1H55.34V32Z"/></g></g></svg>