<svg xmlns="http://www.w3.org/2000/svg" xmlns:xlink="http://www.w3.org/1999/xlink" viewBox="0 0 244.58 110.98"><defs><style>.cls-1{fill:url(#linear-gradient);}.cls-2{fill:url(#linear-gradient-2);}.cls-3{fill:url(#linear-gradient-3);}.cls-4{fill:url(#linear-gradient-4);}.cls-5{fill:url(#linear-gradient-5);}.cls-6{fill:url(#linear-gradient-6);}.cls-7{fill:url(#linear-gradient-7);}.cls-8{fill:url(#linear-gradient-8);}.cls-9{fill:url(#linear-gradient-9);}.cls-10{fill:url(#linear-gradient-10);}.cls-11{fill:url(#linear-gradient-11);}.cls-12{fill:url(#linear-gradient-12);}.cls-13{fill:url(#linear-gradient-13);}.cls-14{fill:url(#linear-gradient-14);}.cls-15{fill:url(#linear-gradient-15);}.cls-16{fill:url(#linear-gradient-16);}.cls-17{fill:url(#linear-gradient-17);}.cls-18{fill:url(#linear-gradient-18);}.cls-19{fill:url(#linear-gradient-19);}.cls-20{fill:url(#linear-gradient-20);}.cls-21{fill:url(#linear-gradient-21);}.cls-22{fill:url(#linear-gradient-22);}.cls-23{fill:url(#linear-gradient-23);}.cls-24{fill:url(#linear-gradient-24);}.cls-25{fill:url(#linear-gradient-25);}.cls-26{fill:url(#linear-gradient-26);}.cls-27{fill:url(#linear-gradient-27);}</style><linearGradient id="linear-gradient" x1="1582.99" y1="-2103.7" x2="1582.99" y2="-2154.38" gradientTransform="translate(-1570.76 2182.09)" gradientUnits="userSpaceOnUse"><stop offset="0" stop-color="#c9f6bd"/><stop offset="0.21" stop-color="#c6f6be"/><stop offset="0.38" stop-color="#bbf6c2"/><stop offset="0.54" stop-color="#aaf6c9"/><stop offset="0.7" stop-color="#92f6d2"/><stop offset="0.84" stop-color="#77f5df"/><stop offset="0.98" stop-color="#51f5ed"/><stop offset="1" stop-color="#4df5ef"/></linearGradient><linearGradient id="linear-gradient-2" x1="1607.45" y1="-2157.16" x2="1607.45" y2="-2113.6" gradientTransform="translate(-1570.76 2182.09)" gradientUnits="userSpaceOnUse"><stop offset="0" stop-color="#f6a3b3"/><stop offset="0.19" stop-color="#f3a2b4"/><stop offset="0.35" stop-color="#e8a0b7"/><stop offset="0.5" stop-color="#d79dbc"/><stop offset="0.64" stop-color="#bf98c4"/><stop offset="0.78" stop-color="#9f91cd"/><stop offset="0.91" stop-color="#7e89d9"/><stop offset="1" stop-color="#6083e2"/></linearGradient><linearGradient id="linear-gradient-3" x1="1570.82" y1="-2082.43" x2="1600.35" y2="-2104.09" gradientTransform="translate(-1570.76 2182.09)" gradientUnits="userSpaceOnUse"><stop offset="0.23" stop-color="#f2bac7"/><stop offset="0.57" stop-color="#f3b7c4"/><stop offset="0.84" stop-color="#f4acbb"/><stop offset="1" stop-color="#f6a3b3"/></linearGradient><linearGradient id="linear-gradient-4" x1="1729.74" y1="-2098.6" x2="1729.74" y2="-2153.15" gradientTransform="translate(-1570.76 2182.09)" gradientUnits="userSpaceOnUse"><stop offset="0.23" stop-color="#6083e2"/><stop offset="0.4" stop-color="#6386e1"/><stop offset="0.54" stop-color="#6d91de"/><stop offset="0.67" stop-color="#7da2d8"/><stop offset="0.79" stop-color="#90bad0"/><stop offset="0.91" stop-color="#add9c6"/><stop offset="1" stop-color="#c9f6bd"/></linearGradient><linearGradient id="linear-gradient-5" x1="1754.2" y1="-2088.04" x2="1754.2" y2="-2133.9" gradientTransform="translate(-1570.76 2182.09)" gradientUnits="userSpaceOnUse"><stop offset="0.23" stop-color="#e88fa4"/><stop offset="0.38" stop-color="#e591a6"/><stop offset="0.5" stop-color="#da98aa"/><stop offset="0.61" stop-color="#c9a3b2"/><stop offset="0.72" stop-color="#b1b2be"/><stop offset="0.82" stop-color="#91c6cd"/><stop offset="0.92" stop-color="#70dede"/><stop offset="1" stop-color="#4df5ef"/></linearGradient><linearGradient id="linear-gradient-6" x1="1724.53" y1="-2105.22" x2="1745.24" y2="-2118.65" xlink:href="#linear-gradient-3"/><linearGradient id="linear-gradient-7" x1="1631.91" y1="-2070.61" x2="1631.91" y2="-2121.93" xlink:href="#linear-gradient-5"/><linearGradient id="linear-gradient-8" x1="1656.37" y1="-2170.53" x2="1656.37" y2="-2090.8" xlink:href="#linear-gradient-5"/><linearGradient id="linear-gradient-9" x1="1624.86" y1="-2072.33" x2="1649" y2="-2087.89" xlink:href="#linear-gradient-3"/><linearGradient id="linear-gradient-10" x1="1680.82" y1="-2074.18" x2="1680.82" y2="-2136.5" gradientTransform="translate(-1570.76 2182.09)" gradientUnits="userSpaceOnUse"><stop offset="0.23" stop-color="#7d6ee6"/><stop offset="0.39" stop-color="#7c71e6"/><stop offset="0.51" stop-color="#787ce7"/><stop offset="0.63" stop-color="#7288e8"/><stop offset="0.75" stop-color="#6aa0ea"/><stop offset="0.86" stop-color="#5fc0ec"/><stop offset="0.96" stop-color="#52e6ee"/><stop offset="1" stop-color="#4df5ef"/></linearGradient><linearGradient id="linear-gradient-11" x1="1705.28" y1="-2192.93" x2="1705.28" y2="-2110.63" gradientTransform="translate(-1570.76 2182.09)" gradientUnits="userSpaceOnUse"><stop offset="0.23" stop-color="#c9f6bd"/><stop offset="0.39" stop-color="#c6f6be"/><stop offset="0.53" stop-color="#bbf6c2"/><stop offset="0.65" stop-color="#aaf6c9"/><stop offset="0.77" stop-color="#92f6d2"/><stop offset="0.88" stop-color="#77f5df"/><stop offset="0.99" stop-color="#51f5ed"/><stop offset="1" stop-color="#4df5ef"/></linearGradient><linearGradient id="linear-gradient-12" x1="1675.72" y1="-2088.01" x2="1699.61" y2="-2103.67" xlink:href="#linear-gradient-3"/><linearGradient id="linear-gradient-13" x1="1607.45" y1="-2196.02" x2="1607.45" y2="-2156.54" gradientTransform="translate(-1570.76 2182.09)" gradientUnits="userSpaceOnUse"><stop offset="0.23" stop-color="#f6a3b3"/><stop offset="0.39" stop-color="#f3a1b4"/><stop offset="0.53" stop-color="#e89db8"/><stop offset="0.65" stop-color="#d795bf"/><stop offset="0.77" stop-color="#bf8ac9"/><stop offset="0.89" stop-color="#a080d6"/><stop offset="1" stop-color="#7f6fe5"/><stop offset="1" stop-color="#7d6ee6"/></linearGradient><linearGradient id="linear-gradient-14" x1="1631.91" y1="-2133.59" x2="1631.91" y2="-2176" gradientTransform="translate(-1570.76 2182.09)" gradientUnits="userSpaceOnUse"><stop offset="0" stop-color="#e88fa4"/><stop offset="0.19" stop-color="#e591a6"/><stop offset="0.35" stop-color="#da98aa"/><stop offset="0.5" stop-color="#c9a3b2"/><stop offset="0.64" stop-color="#b1b2be"/><stop offset="0.77" stop-color="#91c6cd"/><stop offset="0.9" stop-color="#70dede"/><stop offset="1" stop-color="#4df5ef"/></linearGradient><linearGradient id="linear-gradient-15" x1="1601.73" y1="-2122.53" x2="1624.88" y2="-2136.78" xlink:href="#linear-gradient-3"/><linearGradient id="linear-gradient-16" x1="1656.37" y1="-2205.63" x2="1656.37" y2="-2166.06" xlink:href="#linear-gradient-5"/><linearGradient id="linear-gradient-17" x1="1680.82" y1="-2201.12" x2="1680.82" y2="-2164.52" gradientTransform="translate(-1570.76 2182.09)" gradientUnits="userSpaceOnUse"><stop offset="0" stop-color="#c9f6bd"/><stop offset="0.23" stop-color="#caf3bc"/><stop offset="0.42" stop-color="#cde8ba"/><stop offset="0.6" stop-color="#d2d7b6"/><stop offset="0.77" stop-color="#dabfb0"/><stop offset="0.93" stop-color="#e3a0a8"/><stop offset="1" stop-color="#e88fa4"/></linearGradient><linearGradient id="linear-gradient-18" x1="1651.42" y1="-2140.56" x2="1673.95" y2="-2155.56" xlink:href="#linear-gradient-3"/><linearGradient id="linear-gradient-19" x1="1778.66" y1="-2181.84" x2="1778.66" y2="-2118.04" gradientTransform="translate(-1570.76 2182.09)" gradientUnits="userSpaceOnUse"><stop offset="0.23" stop-color="#e88fa4"/><stop offset="0.41" stop-color="#e792a5"/><stop offset="0.56" stop-color="#e49da7"/><stop offset="0.59" stop-color="#e3a0a8"/><stop offset="0.64" stop-color="#d8a6ad"/><stop offset="0.73" stop-color="#bcb6ba"/><stop offset="0.85" stop-color="#8dcfcf"/><stop offset="0.99" stop-color="#52f2ed"/><stop offset="1" stop-color="#4df5ef"/></linearGradient><linearGradient id="linear-gradient-20" x1="1803.12" y1="-2102.5" x2="1803.12" y2="-2162.69" gradientTransform="translate(-1570.76 2182.09)" gradientUnits="userSpaceOnUse"><stop offset="0.23" stop-color="#e88fa4"/><stop offset="0.41" stop-color="#e792a5"/><stop offset="0.56" stop-color="#e49da7"/><stop offset="0.59" stop-color="#e3a0a8"/><stop offset="0.67" stop-color="#e0abab"/><stop offset="0.81" stop-color="#d7c7b2"/><stop offset="1" stop-color="#c9f6bd"/><stop offset="1" stop-color="#c9f6bd"/></linearGradient><linearGradient id="linear-gradient-21" x1="1773.41" y1="-2093" x2="1794.07" y2="-2106.36" xlink:href="#linear-gradient-3"/><linearGradient id="linear-gradient-22" x1="1754.2" y1="-2159.41" x2="1754.2" y2="-2180.51" xlink:href="#linear-gradient-5"/><linearGradient id="linear-gradient-23" x1="1778.66" y1="-2197.3" x2="1778.66" y2="-2163.29" xlink:href="#linear-gradient-13"/><linearGradient id="linear-gradient-24" x1="1749.13" y1="-2133.79" x2="1768.24" y2="-2146.36" xlink:href="#linear-gradient-3"/><linearGradient id="linear-gradient-25" x1="1705.28" y1="-2221.31" x2="1705.28" y2="-2172.2" gradientTransform="translate(-1570.76 2182.09)" gradientUnits="userSpaceOnUse"><stop offset="0.23" stop-color="#7d6ee6"/><stop offset="0.4" stop-color="#806fe4"/><stop offset="0.54" stop-color="#8673de"/><stop offset="0.67" stop-color="#9778d4"/><stop offset="0.8" stop-color="#af80c6"/><stop offset="0.92" stop-color="#ce86b3"/><stop offset="1" stop-color="#e88fa4"/></linearGradient><linearGradient id="linear-gradient-26" x1="1729.74" y1="-2154.96" x2="1729.74" y2="-2180.3" xlink:href="#linear-gradient-11"/><linearGradient id="linear-gradient-27" x1="1699.25" y1="-2149.26" x2="1723.21" y2="-2164.67" xlink:href="#linear-gradient-3"/></defs><g id="Layer_2" data-name="Layer 2"><g id="Layer_1-2" data-name="Layer 1"><polygon class="cls-1" points="0 0.26 24.46 0.26 24.46 68.94 0 81.77 0 0.26"/><polygon class="cls-2" points="48.92 0.26 24.46 0.26 24.46 68.94 48.92 81.77 48.92 0.26"/><polygon class="cls-3" points="24.46 68.94 48.92 81.77 24.46 95.42 0 81.77 24.46 68.94"/><polygon class="cls-4" points="146.75 0 171.2 0 171.2 52.73 146.75 65.57 146.75 0"/><polygon class="cls-5" points="195.67 0 171.2 0 171.2 52.73 195.67 65.57 195.67 0"/><polygon class="cls-6" points="171.2 52.73 195.67 65.57 171.2 79.22 146.75 65.57 171.2 52.73"/><polygon class="cls-7" points="48.92 15.04 73.38 15.04 73.38 84.5 48.92 97.34 48.92 15.04"/><polygon class="cls-8" points="97.83 15.04 73.38 15.04 73.38 84.5 97.83 97.34 97.83 15.04"/><polygon class="cls-9" points="73.38 84.5 97.83 97.34 73.38 110.98 48.92 97.34 73.38 84.5"/><polygon class="cls-10" points="97.83 0.43 122.29 0.43 122.29 69.89 97.83 82.72 97.83 0.43"/><polygon class="cls-11" points="146.75 0.43 122.29 0.43 122.29 69.89 146.75 82.72 146.75 0.43"/><polygon class="cls-12" points="122.29 69.89 146.75 82.72 122.29 96.38 97.83 82.72 122.29 69.89"/><polygon class="cls-13" points="24.46 0 48.92 0 48.92 35.66 24.46 48.51 24.46 0"/><polygon class="cls-14" points="73.38 0 48.92 0 48.92 35.66 73.38 48.51 73.38 0"/><polygon class="cls-15" points="48.92 35.66 73.38 48.51 48.92 62.16 24.46 48.51 48.92 35.66"/><polygon class="cls-16" points="73.38 0.26 97.83 0.26 97.83 17.27 73.38 30.1 73.38 0.26"/><polygon class="cls-17" points="122.29 0.26 97.83 0.26 97.83 17.27 122.29 30.1 122.29 0.26"/><polygon class="cls-18" points="97.83 17.27 122.29 30.1 97.83 43.76 73.38 30.1 97.83 17.27"/><polygon class="cls-19" points="195.67 0.26 220.13 0.26 220.13 64.96 195.67 77.8 195.67 0.26"/><polygon class="cls-20" points="244.59 0.26 220.13 0.26 220.13 64.96 244.59 77.8 244.59 0.26"/><polygon class="cls-21" points="220.13 64.96 244.59 77.8 220.13 91.46 195.67 77.8 220.13 64.96"/><polygon class="cls-22" points="171.2 0.26 195.67 0.26 195.67 24.09 171.2 36.93 171.2 0.26"/><polygon class="cls-23" points="220.13 0.26 195.67 0.26 195.67 24.09 220.13 36.93 220.13 0.26"/><polygon class="cls-24" points="195.67 24.09 220.13 36.93 195.79 49.41 171.2 36.93 195.67 24.09"/><polygon class="cls-25" points="122.29 0 146.75 0 146.75 8.26 122.29 21.09 122.29 0"/><polygon class="cls-26" points="171.2 0 146.75 0 146.75 8.26 171.2 21.09 171.2 0"/><polygon class="cls-27" points="146.75 8.26 171.2 21.09 146.75 33.52 122.29 21.09 146.75 8.26"/></g></g></svg>