<svg xmlns="http://www.w3.org/2000/svg" viewBox="0 0 149.89 37.7"><defs><style>.cls-1{fill:#434343;}</style></defs><g id="Layer_2" data-name="Layer 2"><g id="Layer_1-2" data-name="Layer 1"><path class="cls-1" d="M59.82,29.33v-.08c0-.13,0-.25-.05-.39v-.07l0-.23c0-.15-.06-.29-.09-.44l0-.06q0-.09,0-.15a7.88,7.88,0,0,0-3.09-4.38A5.69,5.69,0,0,0,56,23.2l-.12-.07-.43-.22-.23-.11-.35-.14-.32-.12-.28-.09-.43-.11-.05,0a1.12,1.12,0,0,1-.91-1.09V16.48a1.13,1.13,0,0,1,.91-1.1c.19,0,.39-.1.62-.17l.09,0A5.1,5.1,0,0,0,55,15l.1,0a5.44,5.44,0,0,0,.54-.26l.08,0a5.91,5.91,0,0,0,.56-.33c.17-.11.33-.23.52-.38l0,0,.46-.4.08-.07.4-.42.08-.09c.13-.15.26-.3.38-.46l0,0,.34-.51,0,0,.29-.52,0-.11q.14-.27.24-.54l0-.11c.07-.2.14-.39.19-.58l0-.08c.06-.2.11-.4.15-.59V9.27c0-.19.07-.4.1-.67V8.53a6.26,6.26,0,0,0,0-.63V7.79c0-.2,0-.39,0-.6V7.1a1.23,1.23,0,0,0,0-.19l0-.22a2.17,2.17,0,0,0,0-.25c0-.09,0-.17,0-.27l-.06-.24a.85.85,0,0,0,0-.17c0-.1,0-.19-.08-.28l-.05-.15c0-.08,0-.16-.08-.23s-.07-.17-.11-.28l-.07-.15-.09-.21L59,4.22l-.08-.15a1.59,1.59,0,0,0-.13-.22,2.06,2.06,0,0,0-.13-.21l-.09-.14-.15-.23-.09-.12L58.17,3,58,2.73l-.12-.14-.06-.06-.29-.31-.17-.15c-.11-.1-.22-.21-.34-.3l-.16-.13c-.13-.1-.25-.19-.39-.28l-.16-.1A4.78,4.78,0,0,0,55.85,1a.27.27,0,0,0-.11-.06l-.05,0L55.24.68,55.12.63l-.07,0A4.22,4.22,0,0,0,54.6.43l-.15,0-.08,0L53.94.23l-.19,0-.13,0L53.26.09,53,.06l-.18,0-.2,0h-.79l-.65.05h0c-.22,0-.44.06-.67.1l-.64.17-.06,0-.59.2-.08,0a4.66,4.66,0,0,0-.6.28,5.24,5.24,0,0,0-.57.32c-.18.11-.35.23-.55.38l0,0c-.17.13-.33.27-.49.41l0,0a7.69,7.69,0,0,0-1.3,1.54,6.14,6.14,0,0,0-.35.59,7.71,7.71,0,0,0-.71,1.93,1.13,1.13,0,0,1-1.09.9H38.61a1.13,1.13,0,0,1-1.09-.9.5.5,0,0,0,0-.13l0-.07c0-.1,0-.2-.07-.3s-.09-.27-.14-.41l0,0a.75.75,0,0,0,0-.16c-.07-.17-.14-.33-.22-.5l0-.09a7.87,7.87,0,0,0-4.5-4h-.05L31.8.23l-.18,0-.1,0L31.14.1l-.27,0h-.11l-.34,0h-.63L29.2,0h-.06l-.59.08-.11,0c-.19,0-.39.08-.59.14h0a5.05,5.05,0,0,0-.55.18l-.06,0c-.18.07-.36.14-.54.23l-.08,0L26,1l-.49.32,0,0L25,1.75l0,0a7.5,7.5,0,0,0-.9.88c-.14.15-.27.32-.41.5a7.81,7.81,0,0,0-1.34,2.93,1.13,1.13,0,0,1-1.09.9H16.48a1.13,1.13,0,0,1-1.1-.9l0-.13,0-.07c0-.11-.06-.21-.08-.31s-.09-.27-.14-.42L15,5c-.06-.16-.13-.31-.21-.48l-.05-.12c-.09-.18-.19-.35-.29-.52l0,0A7.85,7.85,0,0,0,11.53,1c-.17-.1-.36-.19-.54-.28l-.12,0a4.68,4.68,0,0,0-.48-.18L10.17.38,9.77.26,9.46.19,9.11.12,8.73.06,8.42,0H7.79L7.14,0H7.07L6.44.12l-.1,0L5.7.28A7.79,7.79,0,0,0,.22,6,7.08,7.08,0,0,0,0,7.33v0c0,.08,0,.15,0,.22V8l0,.51v.12c0,.19,0,.37.08.56l0,.14a4.9,4.9,0,0,0,.13.55l0,.1c0,.16.1.33.16.49l0,.09c.07.18.14.35.22.52l.05.11q.12.25.27.51l0,0a5.6,5.6,0,0,0,.31.49l0,0a5.55,5.55,0,0,0,.35.46l.05.07a7.69,7.69,0,0,0,.84.87l0,0,.47.38,0,0a7.48,7.48,0,0,0,1.08.67,7.92,7.92,0,0,0,1.84.66A1.13,1.13,0,0,1,7,16.47v4.76a1.13,1.13,0,0,1-.9,1.09l-.12,0-.08,0-.3.08-.4.13.06.16-.11-.15L5,22.67a5.16,5.16,0,0,0-.49.21l-.1.05a7.82,7.82,0,0,0-4,4.51c-.07.2-.13.41-.18.61l0,.14v.07a3.58,3.58,0,0,0-.09.45l0,.2V29c0,.14,0,.28,0,.45v0c0,.16,0,.31,0,.47v.13l0,.51v.11c0,.19,0,.38.08.57l0,.14A5.47,5.47,0,0,0,.28,32l0,.09c0,.17.1.34.17.52l0,.07c.07.18.14.35.23.54l0,.08a5.6,5.6,0,0,0,.28.54c.1.17.21.34.32.5l0,0a4.29,4.29,0,0,0,.36.48l0,.05a8.17,8.17,0,0,0,.87.9l.5.4a7.74,7.74,0,0,0,2.93,1.34,8.11,8.11,0,0,0,1.7.18h.07a7.45,7.45,0,0,0,1.56-.17h.06l.11,0,.06,0,.35-.09.29-.09.33-.12.29-.12.31-.15.28-.14.29-.17.27-.17.27-.18.26-.2.24-.2.26-.23.2-.2c.09-.08.17-.17.26-.26l.18-.21c.08-.1.16-.19.23-.29l.16-.21.22-.33.13-.21c.07-.11.13-.23.2-.35l.07-.14,0-.07L15,33l.08-.2.15-.41s0-.08,0-.12l0-.08.13-.47v-.05a1.13,1.13,0,0,1,1.09-.9h4.76a1.12,1.12,0,0,1,1.09.9.93.93,0,0,0,0,.13v.06l.09.31c0,.11.07.22.1.33s.07.2.11.29.09.22.14.33l.12.27.18.34.13.23c.06.1.12.2.19.3l.16.24.22.29L24,35l.25.29.18.18.29.28.18.15.31.25.2.15.33.23.2.12.36.21.17.08,0,0,.38.18.21.08.41.15.21.06.46.12.1,0a7.79,7.79,0,0,0,1.65.18H30a7.6,7.6,0,0,0,1.56-.17h.06l.11,0,.06,0,.35-.09.29-.09.33-.12.3-.13.3-.14.27-.14.3-.17.27-.17.26-.18.26-.2.25-.2.25-.22.22-.22.24-.25.18-.21.24-.29.15-.22a3.46,3.46,0,0,0,.22-.31l.13-.22c.07-.12.14-.23.2-.35l.09-.17,0,0,.17-.38.09-.21c0-.14.1-.27.15-.42l.06-.2c0-.14.08-.28.12-.45l0-.06a1.12,1.12,0,0,1,1.09-.9h4.76a1.12,1.12,0,0,1,1.09.9l0,.12,0,.07c0,.1.05.21.08.31s.07.22.11.33l.11.3a2.33,2.33,0,0,0,.13.31c0,.1.09.19.13.28a3,3,0,0,0,.16.31l.15.26.17.28,0,0,.15.23.22.29.17.21c.08.1.17.19.25.28l.19.19.27.27.2.17.31.24.19.15.34.23.21.12.35.2.21.11.38.17.21.09.4.14.22.07.44.12.11,0a8,8,0,0,0,1.66.18h.07a7.6,7.6,0,0,0,2.25-.35l.06,0a5.14,5.14,0,0,0,.55-.2l.08,0a7.65,7.65,0,0,0,1.07-.54l.08,0,.48-.33.07-.06c.16-.12.31-.24.47-.38s.28-.27.42-.4l.07-.08c.12-.13.25-.27.37-.42l.07-.09c.12-.15.23-.31.34-.47l0,0c.1-.16.2-.31.29-.47l0-.1c.09-.16.18-.33.26-.5l0-.11c.08-.18.15-.35.22-.54v-.06c.06-.17.12-.34.17-.52l0-.11a4.61,4.61,0,0,0,.12-.56l0-.12c0-.2.06-.39.08-.59v-.08c0-.19,0-.37,0-.59v-.08C59.84,29.65,59.83,29.49,59.82,29.33Zm-7.56-2.61a3.17,3.17,0,1,1-3.17,3.17A3.18,3.18,0,0,1,52.26,26.72Zm-7.59.75-.05.17,0,.05c0,.15-.08.29-.12.46a.64.64,0,0,1,0,.07,1.13,1.13,0,0,1-1.09.91H38.61a1.13,1.13,0,0,1-1.09-.91L37.47,28c0-.1,0-.21-.09-.31s-.06-.22-.11-.36-.07-.18-.1-.26L37,26.77l-.13-.27c0-.11-.11-.21-.16-.31l-.15-.26c-.06-.1-.12-.2-.19-.3l-.16-.24L36,25.1l-.18-.21a3.33,3.33,0,0,0-.25-.28l-.18-.19-.28-.27L35,24l-.31-.24-.2-.15a3.78,3.78,0,0,0-.33-.22l-.2-.13-.36-.2-.21-.11L33,22.75l-.21-.08-.41-.15-.21-.06-.46-.12-.05,0a1.13,1.13,0,0,1-.91-1.09V16.48a1.14,1.14,0,0,1,.9-1.1.35.35,0,0,0,.12,0l.07,0a3.37,3.37,0,0,0,.34-.09l.32-.1.33-.12.3-.13.31-.15.29-.15.29-.17.28-.18.24-.17.07-.05.23-.18.19-.15.09-.09.22-.19.14-.15.12-.12a2.09,2.09,0,0,0,.2-.22l.09-.1,0-.06a7.41,7.41,0,0,0,.93-1.4l0,0,.2-.45,0,0a.54.54,0,0,0,.05-.11c.06-.14.11-.29.16-.43l.07-.2c0-.14.08-.29.11-.44v0l0-.12a1.12,1.12,0,0,1,1.09-.9h4.76a1.13,1.13,0,0,1,1.09.9l0,.19c0,.11.05.22.08.32l.11.32c0,.1.07.2.11.3a2.88,2.88,0,0,0,.13.31,2.59,2.59,0,0,0,.14.29c0,.1.09.2.14.3s.11.18.16.27l.18.29,0,.06a1.27,1.27,0,0,0,.13.19,2.69,2.69,0,0,0,.2.27l.19.24.24.26.2.21.26.24.21.19.29.23.22.16.31.21a1.64,1.64,0,0,0,.22.14l.34.19.22.11L49,15l.21.08.41.15.21.06.44.12.07,0a1.13,1.13,0,0,1,.9,1.09v4.76a1.13,1.13,0,0,1-.9,1.09l-.19.06-.23.06-.19,0-.28.09-.22.08-.14.05-.39.18-.13.06L48.5,23a7.67,7.67,0,0,0-1.14.71l-.1.08-.41.34-.08.08,0,0-.36.35-.08.1,0,0c-.11.12-.21.24-.31.37l-.12.16c-.09.13-.19.25-.27.38l-.07.12,0,.06-.24.4-.06.14,0,.05-.2.42-.08.2C44.77,27.18,44.72,27.33,44.67,27.47ZM29.92,10.81a3.17,3.17,0,1,1,3.17-3.17A3.17,3.17,0,0,1,29.92,10.81Zm0,15.91a3.17,3.17,0,1,1-3.17,3.17A3.18,3.18,0,0,1,29.92,26.72Zm19-19.08a3.17,3.17,0,1,1,3.16,3.17A3.17,3.17,0,0,1,48.92,7.64ZM15,10.72c.07-.16.12-.32.17-.47l.06-.17c0-.15.09-.3.12-.46l0-.07s0-.05,0-.07a1.13,1.13,0,0,1,1.09-.9h4.76a1.13,1.13,0,0,1,1.09.9l.05.19.09.32c0,.11.07.21.1.32s.07.2.11.31l.13.3a2.59,2.59,0,0,0,.14.29l.15.3c.05.09.1.18.16.27a2.29,2.29,0,0,0,.18.29l.17.25.21.28.19.23.23.26c.07.07.13.14.2.2l.26.25.17.15,0,0,.29.23.22.16.31.21a1.27,1.27,0,0,0,.22.13,4.05,4.05,0,0,0,.35.21l.21.1.38.18.21.08.41.15.21.06.46.12,0,0a1.13,1.13,0,0,1,.91,1.09v4.76a1.13,1.13,0,0,1-.9,1.09l-.12,0-.06,0-.35.09-.29.1-.32.11a2.08,2.08,0,0,0-.3.13l-.3.14a2.64,2.64,0,0,0-.29.15l-.28.15-.28.19a2.2,2.2,0,0,0-.25.17l-.28.21-.23.18-.27.25a1.7,1.7,0,0,0-.19.19,2.23,2.23,0,0,0-.26.27l-.17.19a3.76,3.76,0,0,0-.25.31l-.15.2-.23.33a2.12,2.12,0,0,1-.12.2c-.07.12-.14.24-.2.36l-.11.21-.17.38-.09.21c-.05.14-.1.27-.15.42l-.06.2q-.06.21-.12.45l0,.06a1.12,1.12,0,0,1-1.09.91H16.48a1.13,1.13,0,0,1-1.1-.91l0-.11,0-.07a3.37,3.37,0,0,0-.09-.34,2.26,2.26,0,0,0-.1-.31L15,27.05l-.13-.3a2.89,2.89,0,0,0-.15-.31l-.15-.29-.16-.27,0-.05c-.05-.09-.11-.17-.16-.25a1.18,1.18,0,0,0-.13-.18L14,25.2h0a1.09,1.09,0,0,0-.13-.17l-.14-.18-.12-.12a1.71,1.71,0,0,0-.18-.2.8.8,0,0,0-.13-.13l-.15-.15-.2-.18L12.79,24A7.89,7.89,0,0,0,11.36,23l0,0-.45-.2-.07,0-.09,0-.43-.16-.11,0-.09,0-.43-.11-.06,0-.11,0a1.12,1.12,0,0,1-.9-1.09V16.48a1.13,1.13,0,0,1,.9-1.1.35.35,0,0,0,.11,0h.07l.35-.1.31-.1.34-.13.29-.12.32-.15.28-.15.32-.19.25-.15.23-.17.08-.06a2,2,0,0,0,.23-.18l.15-.12.17-.15.19-.17.23-.24a2.61,2.61,0,0,0,.23-.24l.11-.13a7.7,7.7,0,0,0,1.2-2Zm-7.15.09A3.17,3.17,0,1,1,11,7.64,3.18,3.18,0,0,1,7.84,10.81ZM11,29.89a3.17,3.17,0,1,1-3.17-3.17A3.17,3.17,0,0,1,11,29.89Zm3.24-4Z"/><path class="cls-1" d="M82.28,3,80.45,4.72a5,5,0,0,0-3.55-1.4,4.41,4.41,0,0,0-4.44,4.62,4.4,4.4,0,0,0,4.44,4.63,4.92,4.92,0,0,0,3.55-1.41l1.83,1.69A7.27,7.27,0,1,1,76.9.67,7.32,7.32,0,0,1,82.28,3Z"/><path class="cls-1" d="M76.9,15.42a7.48,7.48,0,0,1,0-15,7.59,7.59,0,0,1,5.53,2.43l.15.15L80.45,5l-.14-.14A4.83,4.83,0,0,0,76.9,3.52a4.19,4.19,0,0,0-4.23,4.42,4.19,4.19,0,0,0,4.23,4.42A4.68,4.68,0,0,0,80.3,11l.14-.14,2.14,2-.15.15A7.55,7.55,0,0,1,76.9,15.42ZM76.9.87A7.07,7.07,0,0,0,76.9,15,7.17,7.17,0,0,0,82,12.86l-1.54-1.41a5.1,5.1,0,0,1-3.55,1.32,4.59,4.59,0,0,1-4.65-4.83A4.64,4.64,0,0,1,76.9,3.11a5.24,5.24,0,0,1,3.55,1.33L82,3A7.21,7.21,0,0,0,76.9.87Z"/><path class="cls-1" d="M89.62.81c4,0,6.2,2.36,6.2,5.38a4.59,4.59,0,0,1-3.08,4.48,7.91,7.91,0,0,1,2.12,2.51l1.22,1.9H92.92L92,13.65c-1.1-1.69-1.45-2-2.86-2.06H87.58v3.49H84.77V.81Zm-2,8.13h2.31c1.83,0,3.26-.83,3.26-2.75s-1.43-2.73-3.26-2.73H87.58Z"/><path class="cls-1" d="M96.46,15.28H92.81l-1-1.52c-1.06-1.63-1.35-1.92-2.68-2H87.79v3.48H84.57V.6h5.05C93.45.6,96,2.85,96,6.19a4.78,4.78,0,0,1-2.86,4.53A9.8,9.8,0,0,1,95,13.07ZM93,14.87H95.7l-1-1.58a7.79,7.79,0,0,0-2.06-2.44l-.35-.22.39-.15a4.41,4.41,0,0,0,2.94-4.29c0-3.14-2.35-5.17-6-5.17H85V14.87h2.4V11.38h1.77c1.51,0,1.92.45,3,2.16ZM89.89,9.15H87.38V3.25h2.51c2.1,0,3.46,1.16,3.46,2.94S92.06,9.15,89.89,9.15Zm-2.1-.42h2.1c.92,0,3-.24,3-2.54,0-1.86-1.58-2.52-3-2.52h-2.1Z"/><path class="cls-1" d="M101.42,15.08V10.31L96.35.81h3.2l3.3,6,3.28-6h3.2l-5.09,9.5v4.77Z"/><path class="cls-1" d="M104.44,15.28h-3.22V10.36L96,.6h3.67l3.18,5.81L106,.6h3.67l-5.24,9.76Zm-2.81-.41H104l0-4.66L109,1h-2.74l-3.4,6.25L99.43,1H96.69l4.94,9.29Z"/><path class="cls-1" d="M115.83.81c4,0,6.36,2.36,6.36,5.48s-2.36,5.5-6.36,5.5H114v3.29h-2.81V.81Zm.23,8.34c1.81,0,3.46-.84,3.46-2.86s-1.65-2.83-3.46-2.83H114V9.15Z"/><path class="cls-1" d="M114.17,15.28h-3.23V.6h4.89c3.93,0,6.57,2.29,6.57,5.69S119.76,12,115.83,12h-1.66Zm-2.82-.41h2.4V11.59h2.08c3.74,0,6.16-2.08,6.16-5.3S119.51,1,115.83,1h-4.48Zm4.71-5.52h-2.31V3.25h2.31c1.83,0,3.67.94,3.67,3C119.73,8.55,117.83,9.35,116.06,9.35Zm-1.89-.41h1.89c.76,0,3.26-.19,3.26-2.65,0-1.94-1.76-2.62-3.26-2.62h-1.89Z"/><path class="cls-1" d="M130.08,15.08h-2.81V3.46h-3.91V.81H134V3.46h-3.92Z"/><path class="cls-1" d="M130.29,15.28h-3.23V3.67h-3.91V.6h11V3.67h-3.91Zm-2.81-.41h2.4V3.25h3.91V1H123.56V3.25h3.92Z"/><path class="cls-1" d="M149.69,7.94A7.27,7.27,0,1,1,142.41.67,7.27,7.27,0,0,1,149.69,7.94ZM138,7.94a4.45,4.45,0,1,0,8.9,0,4.45,4.45,0,1,0-8.9,0Z"/><path class="cls-1" d="M142.41,15.42a7.48,7.48,0,1,1,7.48-7.48A7.48,7.48,0,0,1,142.41,15.42Zm0-14.55a7.07,7.07,0,1,0,7.07,7.07A7.07,7.07,0,0,0,142.41.87Zm0,11.9a4.59,4.59,0,0,1-4.65-4.83,4.64,4.64,0,0,1,4.65-4.83,4.59,4.59,0,0,1,4.67,4.83A4.59,4.59,0,0,1,142.41,12.77Zm0-9.25a4.19,4.19,0,0,0-4.23,4.42,4.25,4.25,0,1,0,8.49,0A4.2,4.2,0,0,0,142.41,3.52Z"/><path class="cls-1" d="M70.61,35.66V21.39h2.81V33h6.42v2.65Z"/><path class="cls-1" d="M80,35.87H70.4V21.19h3.23V32.8H80Zm-9.23-.42h8.82V33.22H73.21V21.6h-2.4Z"/><path class="cls-1" d="M88.36,33v2.65H82.12V33h1.71V24H82.12V21.39h6.24V24H86.65v9Z"/><path class="cls-1" d="M88.57,35.87H81.92V32.8h1.71V24.25H81.92V21.19h6.65v3.06H86.85V32.8h1.72Zm-6.24-.42h5.82V33.22H86.44V23.84h1.71V21.6H82.33v2.24H84v9.38H82.33Z"/><path class="cls-1" d="M101.28,35.66l-6.74-9v9H91.72V21.39h1.65l6.77,9v-9H103V35.66Z"/><path class="cls-1" d="M103.16,35.87h-2l-6.44-8.58v8.58H91.52V21.19h2l6.45,8.58V21.19h3.23Zm-1.78-.42h1.37V21.6h-2.4V31l-7.08-9.4H91.93V35.45h2.4v-9.4Z"/><path class="cls-1" d="M115.28,27.16v2.65h-6.17V33h6.68v2.65H106.3V21.39h9.49V24h-6.68v3.12Z"/><path class="cls-1" d="M116,35.87h-9.91V21.19H116v3.06h-6.68V27h6.17V30h-6.17V32.8H116Zm-9.5-.42h9.09V33.22H108.9V29.61h6.18V27.37H108.9V23.84h6.69V21.6H106.5Z"/></g></g></svg>