<svg xmlns="http://www.w3.org/2000/svg" viewBox="0 0 85.2 57.15"><defs><style>.cls-1{fill:#828c95;}</style></defs><g id="Layer_2" data-name="Layer 2"><g id="Layer_1-2" data-name="Layer 1"><path class="cls-1" d="M0,7.49a7.51,7.51,0,0,1,.51-2.7A7.3,7.3,0,0,1,2,2.38,7.58,7.58,0,0,1,4.37.66,7.38,7.38,0,0,1,7.55,0a7.16,7.16,0,0,1,3.69.91,5.89,5.89,0,0,1,2.32,2.38L10.88,5.16a2.92,2.92,0,0,0-.64-1,3.5,3.5,0,0,0-1.82-1,5.17,5.17,0,0,0-1-.09,3.55,3.55,0,0,0-1.74.4,3.79,3.79,0,0,0-1.23,1A4.15,4.15,0,0,0,3.78,6a5.76,5.76,0,0,0-.24,1.64,5.26,5.26,0,0,0,.28,1.72,4.41,4.41,0,0,0,.8,1.46,3.72,3.72,0,0,0,1.25,1,3.53,3.53,0,0,0,1.64.37,4.22,4.22,0,0,0,1-.12,3.32,3.32,0,0,0,.95-.36,3.19,3.19,0,0,0,.84-.63,2.91,2.91,0,0,0,.61-1l2.85,1.68a4.44,4.44,0,0,1-1,1.48,6.18,6.18,0,0,1-1.54,1.11A8.25,8.25,0,0,1,9.34,15a8,8,0,0,1-1.91.24,6.74,6.74,0,0,1-3-.67,7.62,7.62,0,0,1-2.35-1.77A8.06,8.06,0,0,1,.54,10.33,7.82,7.82,0,0,1,0,7.49Z"/><path class="cls-1" d="M15.89,15.15V.08h6.79a4.35,4.35,0,0,1,2,.45A5.33,5.33,0,0,1,26.21,1.7a5.63,5.63,0,0,1,1,1.63,5,5,0,0,1,.37,1.85,5.55,5.55,0,0,1-.17,1.35A5.87,5.87,0,0,1,27,7.75a4.67,4.67,0,0,1-1.8,1.8l3.31,5.6H24.53l-2.89-4.86H19.37v4.86Zm3.48-7.89h3.19a1.31,1.31,0,0,0,1.06-.59,2.36,2.36,0,0,0,.44-1.49,2.11,2.11,0,0,0-.51-1.49,1.47,1.47,0,0,0-1.1-.55H19.37Z"/><path class="cls-1" d="M32.38.08,35.63,7,38.92.08h3.8L37.35,10v5.13H33.89V10L28.61.08Z"/><path class="cls-1" d="M44.54,15.15V.08H51a4.41,4.41,0,0,1,2,.45A5.28,5.28,0,0,1,54.51,1.7a5.37,5.37,0,0,1,1,1.63,4.81,4.81,0,0,1,.37,1.85,5.17,5.17,0,0,1-.35,1.91,5.26,5.26,0,0,1-1,1.63,4.7,4.7,0,0,1-1.52,1.15,4.55,4.55,0,0,1-2,.42H48v4.86ZM48,7.26h2.85a1.36,1.36,0,0,0,1.06-.53,2.41,2.41,0,0,0,.44-1.55,2.54,2.54,0,0,0-.14-.92,1.78,1.78,0,0,0-.37-.63,1.28,1.28,0,0,0-.53-.37,1.56,1.56,0,0,0-.59-.12H48Z"/><path class="cls-1" d="M69.67,3.14H65.08v12H61.6v-12H57V.08H69.67Z"/><path class="cls-1" d="M77.69,15.28a7,7,0,0,1-3.06-.66,7.43,7.43,0,0,1-2.35-1.73,7.83,7.83,0,0,1-1.52-2.45,7.74,7.74,0,0,1-.54-2.84,7.64,7.64,0,0,1,.56-2.87A7.75,7.75,0,0,1,72.35,2.3,7.51,7.51,0,0,1,74.74.63a7.15,7.15,0,0,1,3-.63,7,7,0,0,1,3.06.66A7.46,7.46,0,0,1,83.16,2.4a7.93,7.93,0,0,1,2,5.26,7.64,7.64,0,0,1-.56,2.87A8,8,0,0,1,83.08,13a7.65,7.65,0,0,1-2.38,1.68A7,7,0,0,1,77.69,15.28ZM73.76,7.64A5.68,5.68,0,0,0,74,9.33a4.54,4.54,0,0,0,.75,1.45,3.86,3.86,0,0,0,1.24,1,3.73,3.73,0,0,0,1.7.38,3.55,3.55,0,0,0,1.74-.4,3.7,3.7,0,0,0,1.23-1,4.5,4.5,0,0,0,.73-1.47,5.52,5.52,0,0,0,.25-1.66,5.63,5.63,0,0,0-.26-1.69,4.23,4.23,0,0,0-.76-1.44,3.88,3.88,0,0,0-1.24-1,4,4,0,0,0-3.42,0,3.72,3.72,0,0,0-1.23,1A4.33,4.33,0,0,0,74,6,5.59,5.59,0,0,0,73.76,7.64Z"/><path class="cls-1" d="M16.23,35.29a3.42,3.42,0,0,1-.4,1.7,3.61,3.61,0,0,1-1.1,1.2,5.44,5.44,0,0,1-1.64.72,7.88,7.88,0,0,1-2,.24H3.78V24.08h8.38a3,3,0,0,1,1.42.34,3.45,3.45,0,0,1,1.08.88A4.31,4.31,0,0,1,15.6,28a3.94,3.94,0,0,1-.55,2,3.39,3.39,0,0,1-1.62,1.45,3.83,3.83,0,0,1,2.05,1.36A4,4,0,0,1,16.23,35.29Zm-9-8.23v3.11h3.41a1.51,1.51,0,0,0,1-.38,1.47,1.47,0,0,0,.45-1.19,1.54,1.54,0,0,0-.4-1.14,1.25,1.25,0,0,0-.94-.4Zm5.43,7.53a1.86,1.86,0,0,0-.4-1.19,1.29,1.29,0,0,0-1-.49h-4V36.2h3.86a1.53,1.53,0,0,0,1.12-.44A1.58,1.58,0,0,0,12.69,34.59Z"/><path class="cls-1" d="M22.49,24.08h3.14l5.5,15.07H27.56L26.4,35.78H21.71l-1.15,3.37H17Zm3.33,9.3-1.76-5.33-1.8,5.33Z"/><path class="cls-1" d="M43,27.14H38.45v12H35v-12h-4.6V24.08H43Z"/><path class="cls-1" d="M56.64,27.14H52.05v12H48.57v-12H44V24.08H56.64Z"/><path class="cls-1" d="M58.76,39.15V24.08h3.48v12h7.3v3Z"/><path class="cls-1" d="M82.19,36.1v3H71.6V24.08H82v3.06H75.08v2.93H81v2.82H75.08V36.1Z"/><path class="cls-1" d="M21.52,57.15V47.76h1.19v8.33H28v1.06Z"/><path class="cls-1" d="M34.27,57.15V47.76h1.19v9.39Z"/><path class="cls-1" d="M43.92,50v7.16H42.73V47.76h.92l5.82,7.32v-7.3h1.19v9.37h-1Z"/><path class="cls-1" d="M64.3,56.09v1.06H57.93V47.76h6.25v1.06H59.12v3h4.4v1h-4.4v3.24Z"/></g></g></svg>