<svg xmlns="http://www.w3.org/2000/svg" viewBox="0 0 111.16 90.96"><defs><style>.cls-1{fill:#434343;}</style></defs><g id="Layer_2" data-name="Layer 2"><g id="Layer_1-2" data-name="Layer 1"><path class="cls-1" d="M2.89,83.07a4.76,4.76,0,0,0,5,5,6.79,6.79,0,0,0,1.94-.29V84.57H7V82h5.64v7.6A8.75,8.75,0,0,1,8.05,91c-4.73,0-8-3.16-8-7.89A7.62,7.62,0,0,1,7.81,75.2a8.43,8.43,0,0,1,4.81,1.4v3.48A5.91,5.91,0,0,0,8.11,78C5.1,78,2.89,79.9,2.89,83.07Z"/><path class="cls-1" d="M14.46,85.52a5.15,5.15,0,0,1,5.28-5.26,5.26,5.26,0,1,1,0,10.52A5.16,5.16,0,0,1,14.46,85.52Zm7.65,0a2.39,2.39,0,1,0-4.74,0,2.39,2.39,0,1,0,4.74,0Z"/><path class="cls-1" d="M26.13,87V75.4h2.95V87.05c0,.83.43,1.24,1.06,1.24a1.13,1.13,0,0,0,.91-.37L32.46,90a3.44,3.44,0,0,1-2.3.75C27.41,90.78,26.13,89.28,26.13,87Z"/><path class="cls-1" d="M43.08,75.4V90.58l-2.61,0-.16-1.06a3.9,3.9,0,0,1-2.89,1.24c-2.77,0-4.69-2.31-4.69-5.26s1.92-5.26,4.69-5.26a3.84,3.84,0,0,1,2.75,1.09V75.4ZM40.17,86.59V84.45A2.39,2.39,0,0,0,38,82.83a2.7,2.7,0,0,0,0,5.36A2.37,2.37,0,0,0,40.17,86.59Z"/><path class="cls-1" d="M54.71,86.37H47.85a2.09,2.09,0,0,0,2.23,2.14,2.53,2.53,0,0,0,2.34-1.39l2.09,1a4.62,4.62,0,0,1-4.37,2.63c-3.54,0-5.22-2.25-5.22-5.26S46.8,80.24,50,80.24c2.93,0,4.73,2.06,4.73,5.26A6.7,6.7,0,0,1,54.71,86.37Zm-6.8-2H52c-.2-1.18-.81-1.85-2-1.85A2,2,0,0,0,47.91,84.39Z"/><path class="cls-1" d="M66.44,84.18v6.4H63.49v-6a1.72,1.72,0,0,0-1.88-1.72,2,2,0,0,0-2.07,1.88v5.87H56.59V80.46h2.65l.16,1.17a4.13,4.13,0,0,1,3.08-1.37A3.72,3.72,0,0,1,66.44,84.18Z"/><path class="cls-1" d="M73.78,75.4h3.06V87.91H82v2.67H73.78Z"/><path class="cls-1" d="M83.85,77.06a1.67,1.67,0,1,1,1.66,1.66A1.68,1.68,0,0,1,83.85,77.06Zm.19,3.4H87V90.58H84Z"/><path class="cls-1" d="M99.51,84.18v6.4h-3v-6a1.71,1.71,0,0,0-1.88-1.72,2,2,0,0,0-2.06,1.88v5.87h-3V80.46h2.65l.16,1.17a4.12,4.12,0,0,1,3.07-1.37A3.72,3.72,0,0,1,99.51,84.18Z"/><path class="cls-1" d="M111.1,86.37h-6.86a2.09,2.09,0,0,0,2.23,2.14,2.54,2.54,0,0,0,2.34-1.39l2.08,1a4.6,4.6,0,0,1-4.36,2.63c-3.54,0-5.22-2.25-5.22-5.26s1.88-5.28,5.12-5.28c2.93,0,4.73,2.06,4.73,5.26A6.7,6.7,0,0,1,111.1,86.37Zm-6.8-2h4.07c-.2-1.18-.81-1.85-2-1.85A2,2,0,0,0,104.3,84.39Z"/><path class="cls-1" d="M81.06,7.15c-6-6.54-17.47-7.57-25.28-7C48-.42,36.49.61,30.5,7.15c-6.53,6-7.57,17.46-7,25.27-.56,7.81.48,19.29,7,25.28,6,6.53,17.47,7.56,25.28,7,7.81.55,19.29-.48,25.28-7,6.52-6,7.56-17.47,7-25.28C88.62,24.61,87.58,13.13,81.06,7.15ZM78.65,55.29c-5.48,5.9-15.58,7.16-22.87,6.73-7.3.43-17.4-.83-22.87-6.73-5.9-5.47-7.17-15.58-6.73-22.87C25.74,25.13,27,15,32.91,9.55c5.47-5.9,15.57-7.16,22.87-6.73,7.29-.43,17.39.83,22.87,6.73,5.9,5.47,7.16,15.58,6.72,22.87C85.81,39.71,84.55,49.82,78.65,55.29Z"/><path class="cls-1" d="M64.17,29.78a3.52,3.52,0,0,0-5,0l-.44.45c-.25.62-1.68,1.15-3.18,1.18s-2.94-.43-3.2-1L52,30a3.51,3.51,0,1,0,0,5l.45-.45c.25-.63,1.67-1.16,3.18-1.19s2.94.44,3.19,1l.44.43a3.51,3.51,0,1,0,4.91-5Z"/><path class="cls-1" d="M76.36,18a3.51,3.51,0,0,0-5,0l-.44.45c-.25.62-1.68,1.15-3.18,1.18s-2.94-.43-3.2-1l-.44-.43a3.51,3.51,0,1,0,0,5l.45-.46c.25-.62,1.67-1.15,3.18-1.18s2.93.43,3.19,1l.44.44a3.51,3.51,0,0,0,4.91-5Z"/><path class="cls-1" d="M76.59,41a3.52,3.52,0,0,0-5,0l-.45.46c-.24.61-1.67,1.14-3.17,1.17s-2.94-.43-3.2-1l-.44-.43a3.51,3.51,0,1,0,0,5l.45-.45c.24-.63,1.67-1.16,3.17-1.19s2.94.44,3.2,1l.44.43a3.51,3.51,0,0,0,4.91-5Z"/><path class="cls-1" d="M51.58,18.27a3.52,3.52,0,0,0-5,.05l-.44.46C45.93,19.4,44.5,19.92,43,20s-2.94-.43-3.2-1l-.43-.43a3.51,3.51,0,1,0,.05,5l.44-.46c.25-.62,1.68-1.16,3.18-1.18s2.94.43,3.19,1l.44.43a3.51,3.51,0,0,0,4.91-5Z"/><path class="cls-1" d="M51.81,41.2a3.51,3.51,0,0,0-5,0l-.45.45c-.24.62-1.67,1.15-3.17,1.18s-2.94-.43-3.2-1l-.44-.43a3.51,3.51,0,1,0,0,5l.45-.46c.25-.62,1.67-1.15,3.17-1.18s2.94.43,3.2,1l.44.43a3.51,3.51,0,1,0,4.91-5Z"/><path class="cls-1" d="M58.11,29.17a3.51,3.51,0,0,0,0-5,6.47,6.47,0,0,1-1.63-3.63A6.28,6.28,0,0,1,57.88,17a3.51,3.51,0,1,0-5,.05,6.41,6.41,0,0,1,1.64,3.62,6.15,6.15,0,0,1-1.46,3.63,3.51,3.51,0,1,0,5,4.92Z"/><path class="cls-1" d="M58.34,52.6a3.51,3.51,0,0,0,0-5A6.41,6.41,0,0,1,56.67,44a6.22,6.22,0,0,1,1.44-3.63,3.51,3.51,0,1,0-5,0,6.34,6.34,0,0,1,1.64,3.62,6.25,6.25,0,0,1-1.45,3.64,3.5,3.5,0,1,0,5,4.91Z"/><path class="cls-1" d="M45.58,40.75a3.51,3.51,0,0,0,0-5,6.31,6.31,0,0,1-1.63-3.62,6.22,6.22,0,0,1,1.44-3.63,3.51,3.51,0,1,0-5,.05A6.41,6.41,0,0,1,42,32.21a6.22,6.22,0,0,1-1.45,3.63,3.5,3.5,0,1,0,5,4.91Z"/><path class="cls-1" d="M70.53,40.51a3.53,3.53,0,0,0,0-5,6.4,6.4,0,0,1-1.63-3.62,6.22,6.22,0,0,1,1.45-3.63,3.51,3.51,0,1,0-5,.05A6.41,6.41,0,0,1,67,32a6.15,6.15,0,0,1-1.46,3.63,3.51,3.51,0,1,0,5,4.92Z"/></g></g></svg>