<svg width="63" height="14" viewBox="0 0 63 14" fill="none" xmlns="http://www.w3.org/2000/svg">
<path d="M13.1142 8.69847C12.2402 12.2042 8.68966 14.3371 5.18409 13.4634C1.67975 12.5893 -0.45377 9.03872 0.420782 5.53356C1.29411 2.02758 4.84466 -0.105741 8.34921 0.768198C11.855 1.64214 13.9879 5.1931 13.1142 8.69847Z" fill="#F7931A"/>
<path d="M8.23408 6.17088C8.03165 6.98184 6.78209 6.56982 6.37702 6.46881L6.73444 5.03542C7.13951 5.13643 8.4449 5.32496 8.23408 6.17088ZM8.01202 8.48373C7.79016 9.37505 6.28909 8.8935 5.80223 8.77245L6.19667 7.19204C6.68332 7.3135 8.2439 7.55417 8.01202 8.48373ZM9.65234 6.18376C9.7826 5.3131 9.11968 4.84505 8.21302 4.53281L8.50727 3.35338L7.78934 3.17446L7.50308 4.32281C7.31434 4.27578 7.1205 4.23141 6.92808 4.18745L7.21619 3.03153L6.49888 2.85261L6.20464 4.03163C6.04842 3.99605 5.89506 3.96088 5.7462 3.92387L5.74702 3.92019L4.75694 3.67298L4.56595 4.43977C4.56595 4.43977 5.09862 4.56184 5.08717 4.56941C5.37814 4.642 5.43069 4.83441 5.4219 4.98695L5.08676 6.33058C5.107 6.33569 5.13297 6.34326 5.1616 6.3545C5.13747 6.34857 5.11191 6.34203 5.08574 6.33569L4.61626 8.21791C4.58068 8.30624 4.4903 8.43854 4.28725 8.38844C4.2942 8.39887 3.76542 8.25819 3.76542 8.25819L3.40881 9.08019L4.34328 9.3133C4.51688 9.35685 4.68721 9.40225 4.85509 9.44519L4.55777 10.6381L5.27488 10.817L5.56912 9.63658C5.76501 9.68974 5.95497 9.73882 6.14125 9.78523L5.84803 10.9598L6.56595 11.1387L6.86306 9.9482C8.08706 10.1799 9.00783 10.0864 9.39531 8.97938C9.70755 8.08786 9.37977 7.5736 8.73567 7.23805C9.20474 7.12968 9.55808 6.82112 9.65234 6.18376Z" fill="white"/>
<path d="M17.2473 11.621C17.6337 11.621 17.9979 11.5259 18.34 11.3394C18.6829 11.1525 18.9792 10.9002 19.2272 10.5859C19.4753 10.27 19.6714 9.91438 19.8147 9.51688C19.9578 9.11978 20.03 8.70531 20.03 8.27427C20.03 7.74405 19.9417 7.33121 19.765 7.03227C19.5885 6.73475 19.2622 6.58507 18.788 6.58507C18.6324 6.58507 18.4324 6.61472 18.1842 6.66768C17.9349 6.72391 17.712 6.84067 17.5125 7.01632L16.4202 11.5533C16.4858 11.5651 16.5443 11.576 16.594 11.5864C16.6426 11.5979 16.6964 11.6058 16.7498 11.6111C16.8066 11.6175 16.8714 11.6208 16.9498 11.6208C17.0281 11.6208 17.1258 11.621 17.2473 11.621ZM19.3996 4.53171C19.9304 4.53171 20.3887 4.62679 20.7741 4.81348C21.1612 5.00201 21.4806 5.25597 21.7368 5.57536C21.9893 5.89639 22.1774 6.27161 22.2991 6.70163C22.4197 7.13287 22.4803 7.59642 22.4803 8.09248C22.4803 8.85498 22.3406 9.57495 22.0584 10.2538C21.7765 10.9337 21.3939 11.5234 20.9072 12.0266C20.421 12.529 19.847 12.9249 19.1849 13.2177C18.5238 13.5103 17.8051 13.6567 17.0334 13.6567C16.9336 13.6567 16.758 13.6539 16.5103 13.6488C16.2625 13.6439 15.9777 13.6183 15.6585 13.5752C15.3376 13.5304 14.9982 13.4641 14.6398 13.3752C14.2815 13.2881 13.9413 13.1662 13.6208 13.0112L16.4858 0.972155L19.052 0.574446L18.0263 4.8466C18.2459 4.74763 18.4672 4.67096 18.688 4.61513C18.9091 4.56033 19.1463 4.53171 19.3996 4.53171Z" fill="#4D4D4D"/>
<path d="M26.3341 3.65537C25.9921 3.65537 25.6821 3.55354 25.4066 3.34947C25.1292 3.14663 24.992 2.83439 24.992 2.41358C24.992 2.18211 25.0388 1.96495 25.132 1.76007C25.2267 1.55559 25.3504 1.37953 25.5054 1.22986C25.6602 1.0814 25.8395 0.962808 26.0432 0.873655C26.2481 0.785525 26.4662 0.741358 26.6983 0.741358C27.0402 0.741358 27.3488 0.843187 27.625 1.04726C27.9002 1.25235 28.0387 1.56459 28.0387 1.98315C28.0387 2.21544 27.9918 2.43341 27.8978 2.63789C27.8043 2.84237 27.6806 3.01842 27.5256 3.1681C27.3721 3.31676 27.1911 3.43495 26.9879 3.52348C26.7828 3.61305 26.5656 3.65537 26.3341 3.65537ZM25.1414 13.4268H22.6906L24.7605 4.71661H27.2281L25.1414 13.4268Z" fill="#4D4D4D"/>
<path d="M29.3761 2.54615L31.9436 2.14844L31.3131 4.71586H34.0624L33.5659 6.7357H30.833L30.1051 9.78262C30.038 10.0362 30.0002 10.2734 29.9894 10.4938C29.9773 10.7154 30.0053 10.9056 30.0716 11.0657C30.1376 11.2262 30.256 11.3501 30.4278 11.4371C30.5987 11.5262 30.8435 11.571 31.1643 11.571C31.4287 11.571 31.6865 11.5458 31.9356 11.4959C32.1832 11.4471 32.4339 11.3788 32.6879 11.2892L32.8709 13.1778C32.54 13.2992 32.1814 13.4037 31.7945 13.4916C31.4076 13.5808 30.9492 13.6235 30.4198 13.6235C29.6581 13.6235 29.0678 13.5105 28.6474 13.2855C28.2272 13.059 27.9305 12.749 27.7528 12.3568C27.5773 11.9662 27.499 11.5158 27.5211 11.0081C27.5436 10.4995 27.6203 9.9644 27.7528 9.40147L29.3761 2.54615Z" fill="#4D4D4D"/>
<path d="M33.9547 9.94808C33.9547 9.19764 34.0762 8.49035 34.3187 7.82785C34.561 7.16493 34.91 6.58523 35.3627 6.08794C35.814 5.5929 36.3637 5.20071 37.011 4.91281C37.6549 4.62654 38.3763 4.48218 39.1709 4.48218C39.6684 4.48218 40.113 4.52921 40.5039 4.62347C40.8967 4.71855 41.2517 4.84145 41.5729 4.99562L40.7278 6.91771C40.507 6.82815 40.2778 6.74922 40.0406 6.67766C39.8036 6.60466 39.5139 6.56949 39.1716 6.56949C38.3532 6.56949 37.7067 6.85146 37.2253 7.41337C36.7454 7.97609 36.5041 8.73348 36.5041 9.68307C36.5041 10.2462 36.6258 10.7012 36.8695 11.0494C37.1119 11.3976 37.5601 11.571 38.2103 11.571C38.5313 11.571 38.8411 11.5373 39.138 11.4721C39.437 11.4058 39.701 11.3224 39.9334 11.2238L40.1167 13.1942C39.8067 13.3144 39.4646 13.423 39.0898 13.5181C38.7137 13.6099 38.2665 13.6577 37.7478 13.6577C37.0632 13.6577 36.4833 13.5573 36.0093 13.3602C35.5349 13.1598 35.1429 12.8936 34.834 12.5568C34.5234 12.219 34.3007 11.8244 34.1631 11.3719C34.0253 10.9193 33.9547 10.4435 33.9547 9.94808Z" fill="#4D4D4D"/>
<path d="M46.0679 6.56982C45.7047 6.56982 45.3833 6.67533 45.1085 6.88369C44.8322 7.09451 44.6005 7.35971 44.4136 7.67891C44.2247 8.00014 44.085 8.35041 43.9904 8.73074C43.8965 9.11209 43.8501 9.47279 43.8501 9.81529C43.8501 10.3678 43.9397 10.7984 44.1145 11.1082C44.292 11.4161 44.6118 11.5711 45.0753 11.5711C45.4399 11.5711 45.7595 11.4664 46.0362 11.256C46.3106 11.0469 46.5427 10.7817 46.7308 10.4612C46.9185 10.142 47.06 9.79075 47.1545 9.40961C47.2473 9.02948 47.2943 8.66694 47.2943 8.32506C47.2943 7.77378 47.2056 7.34233 47.0287 7.03296C46.8524 6.72481 46.5316 6.56982 46.0679 6.56982ZM44.8432 13.6572C44.258 13.6572 43.7497 13.5681 43.3189 13.3916C42.8888 13.2153 42.5333 12.9675 42.2517 12.6463C41.9693 12.3271 41.7585 11.9486 41.6139 11.5125C41.4694 11.0765 41.3998 10.5935 41.3998 10.0648C41.3998 9.40143 41.5062 8.7381 41.7215 8.07621C41.9362 7.41329 42.2542 6.81785 42.6746 6.28846C43.0921 5.75824 43.6076 5.32475 44.2137 4.98675C44.8195 4.651 45.5164 4.4821 46.2991 4.4821C46.8733 4.4821 47.3788 4.57145 47.8159 4.74792C48.2509 4.92397 48.6091 5.17364 48.8923 5.49304C49.1727 5.81407 49.3855 6.19092 49.5285 6.62768C49.6726 7.06281 49.7438 7.54681 49.7438 8.07621C49.7438 8.73749 49.6387 9.40102 49.4301 10.0643C49.2215 10.7248 48.9115 11.3219 48.5026 11.8523C48.0944 12.3819 47.5843 12.8152 46.9713 13.1518C46.3592 13.4885 45.6489 13.6572 44.8432 13.6572Z" fill="#4D4D4D"/>
<path d="M53.6056 3.65537C53.2637 3.65537 52.9538 3.55354 52.6791 3.34947C52.4027 3.14663 52.2643 2.83439 52.2643 2.41358C52.2643 2.18211 52.3119 1.96495 52.4053 1.76007C52.4988 1.55559 52.6231 1.37953 52.7781 1.22986C52.9323 1.0814 53.1132 0.962808 53.3165 0.873655C53.5202 0.785525 53.7381 0.741358 53.9694 0.741358C54.3123 0.741358 54.6219 0.843187 54.8975 1.04726C55.1734 1.25235 55.3124 1.56459 55.3124 1.98315C55.3124 2.21544 55.2629 2.43341 55.1703 2.63789C55.0777 2.84237 54.9531 3.01842 54.799 3.1681C54.6436 3.31676 54.4646 3.43495 54.2612 3.52348C54.0557 3.61305 53.8385 3.65537 53.6056 3.65537ZM52.4147 13.4268H49.962L52.0318 4.71661H54.5006L52.4147 13.4268Z" fill="#4D4D4D"/>
<path d="M56.2672 5.11204C56.4531 5.05765 56.661 4.99221 56.8868 4.92106C57.1138 4.8499 57.3671 4.78385 57.6501 4.72414C57.93 4.66239 58.2459 4.6125 58.5934 4.57385C58.9404 4.53439 59.3366 4.51517 59.7761 4.51517C61.0688 4.51517 61.9601 4.89161 62.4519 5.64225C62.9434 6.39289 63.0285 7.41998 62.7097 8.7223L61.582 13.4253H59.115L60.2077 8.82106C60.2744 8.53377 60.3267 8.25568 60.3656 7.98434C60.4044 7.71504 60.4024 7.47764 60.3566 7.27255C60.313 7.06971 60.2104 6.90367 60.0513 6.77506C59.8895 6.64849 59.6452 6.58489 59.3137 6.58489C58.9943 6.58489 58.669 6.61925 58.3371 6.6855L56.7308 13.4247H54.2625L56.2672 5.11204Z" fill="#4D4D4D"/>
</svg>
