<svg width="75" height="16" viewBox="0 0 75 16" fill="none" xmlns="http://www.w3.org/2000/svg">
<path fill-rule="evenodd" clip-rule="evenodd" d="M20.2602 9.71492C20.2602 9.8426 20.151 9.94648 20.0204 9.94648H15.4004C15.5155 11.0627 16.3748 12.0809 17.583 12.0809C18.4087 12.0809 19.0217 11.7722 19.4831 11.128C19.5499 11.0389 19.6502 10.9827 19.7778 11.036C19.8475 11.0656 19.8958 11.128 19.908 11.1991C19.9205 11.2734 19.8991 11.3152 19.8777 11.3567C19.4134 12.1494 18.4873 12.5382 17.5797 12.5382C16.0255 12.5382 14.9176 11.1785 14.9176 9.72393C14.9176 8.26935 16.0255 6.90964 17.5797 6.90964C19.1342 6.90675 20.2572 8.26324 20.2602 9.71492ZM19.7653 9.49528C19.6653 8.37902 18.7912 7.36084 17.583 7.36084C16.3748 7.36084 15.5155 8.37902 15.4004 9.49528H19.7653ZM25.8668 7.01964C26.0007 7.01964 26.0977 7.13219 26.0977 7.24507C26.0977 7.37564 25.9974 7.47083 25.8668 7.47083H24.6284V12.2234C24.6284 12.3363 24.5284 12.4491 24.3978 12.4491C24.264 12.4491 24.167 12.3363 24.167 12.2234V7.47083H22.9772C22.8437 7.47083 22.7463 7.37275 22.7463 7.24507C22.7463 7.13219 22.8466 7.01964 22.9772 7.01964H24.167V5.2798C24.167 5.17013 24.2429 5.06915 24.3521 5.05146C24.507 5.02766 24.6284 5.13155 24.6284 5.27401V7.01964H25.8668ZM33.4226 9.31711V12.1967C33.4226 12.3273 33.3072 12.4224 33.1918 12.4224C33.0582 12.4224 32.9612 12.3244 32.9612 12.1967V9.31711C32.9612 8.34654 32.3995 7.37564 31.2916 7.37564C29.871 7.37564 29.2577 8.58999 29.3395 9.83392C29.3395 9.8664 29.355 10.0118 29.355 10.0266V12.188C29.355 12.2977 29.279 12.3986 29.1699 12.4163C29.015 12.4401 28.8933 12.3363 28.8933 12.1938V2.73597C28.8933 2.62309 28.9936 2.51021 29.1241 2.51021C29.2577 2.51021 29.355 2.62309 29.355 2.73597V8.0883C29.7526 7.39365 30.4629 6.92444 31.2887 6.92444C32.6452 6.92444 33.4226 8.0883 33.4226 9.31711ZM41.7065 9.71492C41.7065 9.8426 41.5973 9.94648 41.4667 9.94648H36.8437C36.9591 11.0627 37.8181 12.0809 39.0263 12.0809C39.8517 12.0809 40.465 11.7722 40.9264 11.128C40.9935 11.0389 41.0935 10.9827 41.2211 11.036C41.2908 11.0656 41.3395 11.128 41.3516 11.1991C41.3635 11.2734 41.3424 11.3152 41.3211 11.3567C40.8567 12.1494 39.9307 12.5382 39.0233 12.5382C37.4688 12.5382 36.3609 11.1785 36.3609 9.72393C36.3609 8.26935 37.4688 6.90964 39.0233 6.90964C40.5805 6.90675 41.7035 8.26324 41.7065 9.71492ZM41.2089 9.49528C41.1086 8.37902 40.2345 7.36084 39.0263 7.36084C37.8181 7.36084 36.9591 8.37902 36.8437 9.49528H41.2089ZM47.3773 7.23027C47.3773 7.37564 47.295 7.45604 47.1615 7.47372C45.8047 7.66668 45.1946 8.75014 45.1946 10.0118V12.1729C45.1946 12.2829 45.1187 12.3838 45.0095 12.4015C44.8546 12.4253 44.7333 12.3215 44.7333 12.179V7.25407C44.7333 7.14409 44.8089 7.04311 44.9184 7.02542C45.073 7.00162 45.1946 7.1055 45.1946 7.24796V8.25134C45.5738 7.62198 46.3358 7.02252 47.1283 7.02252C47.2434 7.01963 47.3773 7.1026 47.3773 7.23027ZM54.9662 9.71492C54.9662 9.8426 54.8567 9.94648 54.7262 9.94648H50.1061C50.2215 11.0627 51.0805 12.0809 52.2887 12.0809C53.1145 12.0809 53.7274 11.7722 54.1888 11.128C54.2556 11.0389 54.3559 10.9827 54.4835 11.036C54.5532 11.0656 54.6019 11.128 54.614 11.1991C54.6262 11.2734 54.6048 11.3152 54.5835 11.3567C54.1191 12.1494 53.1934 12.5382 52.2857 12.5382C50.7316 12.5382 49.6233 11.1785 49.6233 9.72393C49.6233 8.26935 50.7316 6.90964 52.2857 6.90964C53.8399 6.90675 54.963 8.26324 54.9662 9.71492ZM54.4713 9.49528C54.371 8.37902 53.4969 7.36084 52.2887 7.36084C51.0805 7.36084 50.2215 8.37902 50.1061 9.49528H54.4713ZM62.4244 7.28655V12.2234C62.4244 12.3539 62.3093 12.4491 62.1938 12.4491C62.0603 12.4491 61.963 12.351 61.963 12.2234V11.2853C61.5838 12.0304 60.9037 12.562 60.0448 12.562C58.6724 12.562 57.9105 11.3982 57.9105 10.169V7.27466C57.9105 7.1621 58.0108 7.04922 58.1413 7.04922C58.2749 7.04922 58.3719 7.1621 58.3719 7.27466V10.169C58.3719 11.1399 58.9335 12.1105 60.0415 12.1105C61.5956 12.1105 61.96 10.6887 61.96 9.11837V7.27466C61.96 7.14409 62.0935 7.01063 62.2576 7.0579C62.3579 7.09071 62.4244 7.18557 62.4244 7.28655ZM74.1115 9.29942V12.1938C74.1115 12.3244 73.9961 12.4195 73.8807 12.4195C73.7472 12.4195 73.6502 12.3215 73.6502 12.1938V9.29942C73.6502 8.32885 73.0885 7.37564 71.9806 7.37564C70.5905 7.37564 70.062 8.83022 70.062 9.96159V12.1938C70.062 12.3244 69.9469 12.4195 69.8315 12.4195C69.698 12.4195 69.6006 12.3215 69.6006 12.1938V9.29942C69.6006 8.32885 69.0389 7.37564 67.931 7.37564C66.5255 7.37564 65.9461 8.45909 65.9974 9.89888C65.9974 9.93168 66.0125 9.99696 65.9974 10.0118V12.188C65.9974 12.2977 65.9214 12.3986 65.8093 12.4163C65.6544 12.4401 65.533 12.3363 65.533 12.1938V7.25407C65.533 7.14409 65.609 7.04311 65.7182 7.02542C65.8731 7.00162 65.9944 7.1055 65.9944 7.24796V8.07318C66.392 7.37886 67.1023 6.92444 67.9281 6.92444C68.8693 6.92444 69.5977 7.50653 69.8953 8.36422C70.2745 7.52421 71.0183 6.92444 71.9776 6.92444C73.3345 6.92444 74.1115 8.07028 74.1115 9.29942Z" fill="#3C3C3B"/>
<path fill-rule="evenodd" clip-rule="evenodd" d="M0.398315 8.26221L5.21121 6.07331V0.276653L0.398315 8.26221Z" fill="#8C8C8C"/>
<path fill-rule="evenodd" clip-rule="evenodd" d="M5.21121 6.07336L0.398315 8.26225L5.21121 11.106V6.07336Z" fill="#383838"/>
<path fill-rule="evenodd" clip-rule="evenodd" d="M5.21124 6.07331L10.0223 8.26221L5.21124 0.276653V6.07331Z" fill="#5D5D5D"/>
<path fill-rule="evenodd" clip-rule="evenodd" d="M5.21121 12.017L0.398315 9.17368L5.21121 15.9541V12.017Z" fill="#8C8C8C"/>
<path fill-rule="evenodd" clip-rule="evenodd" d="M5.21124 12.0175V15.9546L10.0262 9.17416L5.21124 12.0175Z" fill="#343434"/>
<path fill-rule="evenodd" clip-rule="evenodd" d="M5.21124 6.07336V11.106L10.0223 8.26225L5.21124 6.07336Z" fill="#252525"/>
</svg>
