<svg width="30" height="23" viewBox="0 0 30 23" fill="none" xmlns="http://www.w3.org/2000/svg">
<path d="M19.1823 15.812H11.4371V1.89285H19.1823V15.812Z" fill="#7469AD"/>
<path d="M11.9293 8.85263C11.9293 6.02952 13.2508 3.51398 15.311 1.89312C13.8047 0.707506 11.9032 -3.43323e-05 9.83972 -3.43323e-05C4.95079 -3.43323e-05 0.987061 3.96363 0.987061 8.85263C0.987061 13.7427 4.95079 17.7065 9.83972 17.7065C11.9032 17.7065 13.8047 16.9989 15.311 15.8134C13.2508 14.1924 11.9293 11.6769 11.9293 8.85263Z" fill="#CF1D17"/>
<path d="M29.6348 8.85263C29.6348 13.7427 25.6711 17.7065 20.782 17.7065C18.7162 17.7065 16.8159 16.9989 15.311 15.8134C17.3697 14.1924 18.6925 11.6769 18.6925 8.85263C18.6925 6.02952 17.3697 3.51398 15.311 1.89312C16.8159 0.707506 18.7162 -3.43323e-05 20.782 -3.43323e-05C25.6711 -3.43323e-05 29.6348 3.96363 29.6348 8.85263Z" fill="#2D97D4"/>
<path d="M9.40311 22.1564V20.681C9.40311 20.1249 9.04931 19.7522 8.47903 19.7463C8.17845 19.7415 7.86852 19.835 7.65323 20.1639C7.48991 19.9037 7.23432 19.7463 6.87577 19.7463C6.625 19.7463 6.3789 19.8208 6.18597 20.0953V19.8055H5.67493V22.1564H6.19317V20.8537C6.19317 20.4456 6.41788 20.2278 6.76582 20.2278C7.10663 20.2278 7.27931 20.4491 7.27931 20.8479V22.1564H7.7951V20.8537C7.7951 20.4456 8.03183 20.2278 8.37013 20.2278C8.72051 20.2278 8.88606 20.4491 8.88606 20.8479V22.1564H9.40311ZM12.2843 20.9815V19.8055H11.7731V20.0906C11.6098 19.8799 11.3649 19.7463 11.0301 19.7463C10.3709 19.7463 9.85625 20.2633 9.85625 20.9815C9.85625 21.6985 10.3709 22.2156 11.0301 22.2156C11.3649 22.2156 11.6098 22.0807 11.7731 21.8713V22.1564H12.2843V20.9815ZM10.3816 20.9815C10.3816 20.5662 10.6515 20.2278 11.094 20.2278C11.5176 20.2278 11.8014 20.5532 11.8014 20.9815C11.8014 21.4087 11.5176 21.7329 11.094 21.7329C10.6515 21.7329 10.3816 21.3945 10.3816 20.9815ZM23.6736 19.7463C23.8559 19.7463 24.024 19.7782 24.18 19.8421C24.3364 19.9049 24.4711 19.9924 24.5825 20.1024C24.6972 20.2124 24.7858 20.3449 24.8497 20.4953C24.9137 20.6467 24.9457 20.8111 24.9457 20.9886C24.9457 21.1661 24.9137 21.3306 24.8497 21.4821C24.7858 21.6322 24.6972 21.7648 24.5825 21.8748C24.4711 21.9861 24.3364 22.0725 24.18 22.1363C24.024 22.199 23.8559 22.231 23.6736 22.231C23.4915 22.231 23.321 22.199 23.1673 22.1363C23.0111 22.0725 22.8786 21.9861 22.765 21.8748C22.6538 21.7648 22.5639 21.6322 22.5 21.4821C22.4361 21.3306 22.4053 21.1661 22.4053 20.9886C22.4053 20.8111 22.4361 20.6467 22.5 20.4953C22.5639 20.3449 22.6538 20.2124 22.765 20.1024C22.8786 19.9924 23.0111 19.9049 23.1673 19.8421C23.321 19.7782 23.4915 19.7463 23.6736 19.7463ZM23.6736 20.2325C23.5672 20.2325 23.4701 20.2515 23.3802 20.287C23.2903 20.3249 23.2122 20.3769 23.146 20.4431C23.0808 20.5094 23.0289 20.5887 22.991 20.6822C22.9543 20.7745 22.9342 20.8775 22.9342 20.9886C22.9342 21.1011 22.9543 21.2029 22.991 21.2951C23.0289 21.3886 23.0808 21.4679 23.146 21.5352C23.2122 21.6015 23.2903 21.6536 23.3802 21.6902C23.4701 21.7269 23.5672 21.7459 23.6736 21.7459C23.7779 21.7459 23.8772 21.7269 23.9672 21.6902C24.0571 21.6536 24.1363 21.6015 24.2015 21.5352C24.2701 21.4679 24.3221 21.3886 24.3588 21.2951C24.3966 21.2029 24.4167 21.1011 24.4167 20.9886C24.4167 20.8775 24.3966 20.7745 24.3588 20.6822C24.3221 20.5887 24.2701 20.5094 24.2015 20.4431C24.1363 20.3769 24.0571 20.3249 23.9672 20.287C23.8772 20.2515 23.7779 20.2325 23.6736 20.2325ZM17.3672 20.4054C17.2253 20.3155 16.9342 20.2042 16.6348 20.2042C16.3544 20.2042 16.1865 20.307 16.1865 20.4799C16.1865 20.6359 16.3639 20.681 16.5851 20.7105L16.8253 20.7448C17.3377 20.8182 17.6465 21.0348 17.6465 21.4477C17.6465 21.8961 17.2537 22.2156 16.5757 22.2156C16.1911 22.2156 15.8385 22.1162 15.5581 21.9104L15.7983 21.5116C15.9699 21.6441 16.2267 21.7577 16.5804 21.7577C16.9295 21.7577 17.1165 21.6548 17.1165 21.4726C17.1165 21.3401 16.9827 21.2656 16.7023 21.2265L16.4621 21.1922C15.9356 21.1188 15.6492 20.8822 15.6492 20.4988C15.6492 20.0314 16.035 19.7463 16.6289 19.7463C17.0028 19.7463 17.3424 19.8303 17.5874 19.9924L17.3672 20.4054ZM15.1191 20.9815C15.1144 20.248 14.6625 19.7463 14.0034 19.7463C13.316 19.7463 12.8332 20.248 12.8332 20.9815C12.8332 21.7269 13.3349 22.2143 14.0389 22.2143C14.3927 22.2143 14.7157 22.1269 15.002 21.8854L14.7512 21.5069C14.5535 21.6642 14.3028 21.753 14.0686 21.753C13.7384 21.753 13.4378 21.6003 13.3657 21.1779H15.1097C15.1144 21.1128 15.1191 21.0502 15.1191 20.9815ZM13.368 20.7745C13.4224 20.4349 13.6284 20.2042 13.9941 20.2042C14.324 20.2042 14.5347 20.41 14.5891 20.7745H13.368ZM19.9135 20.2728H19.0781V21.3353C19.0781 21.5708 19.1611 21.7269 19.4189 21.7269C19.5503 21.7269 19.717 21.6844 19.871 21.5956L20.0177 22.0333C19.8555 22.1457 19.5999 22.2156 19.3787 22.2156C18.7728 22.2156 18.5623 21.8902 18.5623 21.3448V20.2728H18.0854V19.8055H18.5623V19.0931H19.0781V19.8055H19.9135V20.2728ZM21.8042 19.7463C21.9061 19.7463 22.0551 19.7663 22.1687 19.8113L22.0101 20.2929C21.9037 20.248 21.7947 20.2338 21.6907 20.2338C21.357 20.2338 21.189 20.4491 21.189 20.8384V22.1564H20.6779V19.8055H21.1843V20.0906C21.3167 19.8847 21.5096 19.7463 21.8042 19.7463Z" fill="#1E1B17"/>
</svg>
