<svg width="29" height="23" viewBox="0 0 29 23" fill="none" xmlns="http://www.w3.org/2000/svg">
<path d="M5.31732 22.1043V20.6391C5.31732 20.0864 4.96567 19.7137 4.39703 19.7089C4.09838 19.703 3.79034 19.7971 3.57574 20.124C3.41464 19.8653 3.15939 19.7089 2.80312 19.7089C2.55371 19.7089 2.30914 19.783 2.11866 20.0558V19.7677H1.60938V22.1043H2.12386V20.8085C2.12386 20.4039 2.34914 20.1875 2.69545 20.1875C3.03302 20.1875 3.20401 20.4086 3.20401 20.8037V22.1043H3.71799V20.8085C3.71799 20.4039 3.95317 20.1875 4.29009 20.1875C4.63705 20.1875 4.80284 20.4086 4.80284 20.8037V22.1043H5.31732ZM12.9183 19.7677H12.0862V19.0586H11.5717V19.7677H11.0973V20.2322H11.5717V21.2976C11.5717 21.841 11.7829 22.1631 12.385 22.1631C12.6037 22.1631 12.8589 22.0949 13.0195 21.9821L12.8736 21.5469C12.7219 21.6352 12.5556 21.6798 12.4231 21.6798C12.1691 21.6798 12.0862 21.5234 12.0862 21.2882V20.2322H12.9183V19.7677ZM17.2559 19.7089C16.962 19.7089 16.7714 19.8464 16.6385 20.051V19.7677H16.1353V22.1043H16.6433V20.7942C16.6433 20.4086 16.8102 20.1923 17.1419 20.1923C17.2453 20.1923 17.3535 20.2063 17.4605 20.251L17.617 19.7724C17.5052 19.7277 17.3583 19.7089 17.2559 19.7089ZM10.6963 19.9523C10.4523 19.7923 10.1147 19.7089 9.74258 19.7089C9.15163 19.7089 8.77001 19.9923 8.77001 20.4557C8.77001 20.839 9.05408 21.073 9.57664 21.1471L9.81601 21.18C10.0955 21.22 10.2282 21.293 10.2282 21.4258C10.2282 21.6058 10.0413 21.7092 9.69434 21.7092C9.34161 21.7092 9.08758 21.5964 8.91645 21.4646L8.67715 21.8597C8.95522 22.0667 9.3081 22.1631 9.68965 22.1631C10.3641 22.1631 10.7557 21.8456 10.7557 21.4011C10.7557 20.9896 10.447 20.7755 9.93898 20.7003L9.69969 20.6673C9.47909 20.6391 9.30341 20.5944 9.30341 20.4367C9.30341 20.2663 9.4692 20.1639 9.749 20.1639C10.0459 20.1639 10.3353 20.2757 10.4776 20.3639L10.6963 19.9523ZM24.3236 19.7089C24.0296 19.7089 23.838 19.8464 23.7063 20.051V19.7677H23.2028V22.1043H23.7109V20.7942C23.7109 20.4086 23.8779 20.1923 24.2096 20.1923C24.313 20.1923 24.4213 20.2063 24.5283 20.251L24.6847 19.7724C24.5717 19.7277 24.4258 19.7089 24.3236 19.7089ZM17.7687 20.9355C17.7687 21.6457 18.2626 22.1631 19.0164 22.1631C19.368 22.1631 19.602 22.0855 19.8583 21.8844L19.6138 21.474C19.422 21.6104 19.221 21.6845 19.0022 21.6845C18.5954 21.6798 18.2967 21.387 18.2967 20.9355C18.2967 20.4862 18.5954 20.1923 19.0022 20.1875C19.221 20.1875 19.422 20.2616 19.6138 20.3993L19.8583 19.9876C19.602 19.7877 19.368 19.7089 19.0164 19.7089C18.2626 19.7089 17.7687 20.2263 17.7687 20.9355ZM22.5326 20.9355V19.7677H22.0246V20.051C21.8623 19.8417 21.619 19.7089 21.2849 19.7089C20.6299 19.7089 20.1172 20.2228 20.1172 20.9355C20.1172 21.6504 20.6299 22.1631 21.2849 22.1631C21.619 22.1631 21.8623 22.0315 22.0246 21.8221V22.1043H22.5326V20.9355ZM20.6392 20.9355C20.6392 20.5251 20.9097 20.1875 21.3495 20.1875C21.7705 20.1875 22.0528 20.5109 22.0528 20.9355C22.0528 21.3623 21.7705 21.6845 21.3495 21.6845C20.9097 21.6845 20.6392 21.3471 20.6392 20.9355ZM14.5017 19.7089C13.818 19.7089 13.3387 20.2063 13.3387 20.9355C13.3387 21.6798 13.8373 22.1631 14.5365 22.1631C14.8881 22.1631 15.2109 22.0761 15.4955 21.8362L15.2462 21.4599C15.0497 21.6163 14.8005 21.7046 14.5659 21.7046C14.2383 21.7046 13.9397 21.5517 13.8661 21.1318H15.6025C15.6072 21.0683 15.6119 21.0037 15.6119 20.9355C15.6072 20.2063 15.1569 19.7089 14.5017 19.7089ZM14.4923 20.1639C14.8199 20.1639 15.0304 20.3686 15.0839 20.7308H13.872C13.9249 20.3944 14.1296 20.1639 14.4923 20.1639ZM27.2518 20.9355V18.8281H26.7438V20.051C26.5827 19.8417 26.338 19.7089 26.0065 19.7089C25.3503 19.7089 24.8363 20.2228 24.8363 20.9355C24.8363 21.6504 25.3503 22.1631 26.0065 22.1631C26.338 22.1631 26.5827 22.0315 26.7438 21.8221V22.1043H27.2518V20.9355ZM25.3596 20.9355C25.3596 20.5251 25.6289 20.1875 26.0675 20.1875C26.4898 20.1875 26.7732 20.5109 26.7732 20.9355C26.7732 21.3623 26.4898 21.6845 26.0675 21.6845C25.6289 21.6845 25.3596 21.3471 25.3596 20.9355ZM8.18325 20.9355V19.7677H7.67512V20.051C7.51229 19.8417 7.2683 19.7089 6.9355 19.7089C6.28036 19.7089 5.76775 20.2228 5.76775 20.9355C5.76775 21.6504 6.28036 22.1631 6.9355 22.1631C7.2683 22.1631 7.51229 22.0315 7.67512 21.8221V22.1043H8.18325V20.9355ZM6.29046 20.9355C6.29046 20.5251 6.55857 20.1875 6.99955 20.1875C7.42008 20.1875 7.70408 20.5109 7.70408 20.9355C7.70408 21.3623 7.42008 21.6845 6.99955 21.6845C6.55857 21.6845 6.29046 21.3471 6.29046 20.9355Z" fill="black"/>
<path d="M18.232 15.7964H10.5281V1.95089H18.232V15.7964Z" fill="#EB611E"/>
<path d="M11.0173 8.87305C11.0173 6.06475 12.3321 3.56231 14.3795 1.95121C12.8824 0.771046 10.992 0.0678864 8.93878 0.0678864C4.07601 0.0678864 0.134766 4.01029 0.134766 8.87305C0.134766 13.7363 4.07601 17.6782 8.93878 17.6782C10.992 17.6782 12.8824 16.975 14.3795 15.7967C12.3321 14.1831 11.0173 11.6831 11.0173 8.87305Z" fill="#E41222"/>
<path d="M28.6255 8.87305C28.6255 13.7363 24.6847 17.6782 19.8207 17.6782C17.7676 17.6782 15.8778 16.975 14.3795 15.7967C16.4281 14.1831 17.7428 11.6831 17.7428 8.87305C17.7428 6.06475 16.4281 3.56231 14.3795 1.95121C15.8778 0.771046 17.7676 0.0678864 19.8207 0.0678864C24.6847 0.0678864 28.6255 4.01029 28.6255 8.87305Z" fill="#F69F21"/>
</svg>
