<svg width="60" height="16" viewBox="0 0 60 16" fill="none" xmlns="http://www.w3.org/2000/svg">
<path d="M45.8101 4.50391H42.6206C42.433 4.50391 42.2454 4.69152 42.1516 4.87914L40.8383 13.1343C40.8383 13.3219 40.9321 13.4157 41.1197 13.4157H42.8082C42.9959 13.4157 43.0897 13.3219 43.0897 13.1343L43.4649 10.7891C43.4649 10.6015 43.6525 10.4138 43.9339 10.4138H44.9658C47.1234 10.4138 48.3429 9.38195 48.6244 7.31816C48.812 6.47389 48.6244 5.72342 48.2491 5.25438C47.6863 4.78533 46.842 4.50391 45.8101 4.50391ZM46.1853 7.59959C45.9977 8.72529 45.1534 8.72529 44.3092 8.72529H43.7463L44.1216 6.5677C44.1216 6.47389 44.2154 6.38008 44.403 6.38008H44.5906C45.1535 6.38008 45.7163 6.38008 45.9977 6.75531C46.1853 6.84912 46.1853 7.13055 46.1853 7.59959Z" fill="#139AD6"/>
<path d="M22.8271 4.50391H19.6376C19.45 4.50391 19.2624 4.69152 19.1685 4.87914L17.8552 13.1343C17.8552 13.3219 17.949 13.4157 18.1367 13.4157H19.6376C19.8252 13.4157 20.0128 13.2281 20.1066 13.0405L20.4819 10.7891C20.4819 10.6015 20.6695 10.4138 20.9509 10.4138H21.9828C24.1404 10.4138 25.3599 9.38195 25.6413 7.31816C25.829 6.47389 25.6413 5.72342 25.2661 5.25438C24.7032 4.78533 23.9528 4.50391 22.8271 4.50391ZM23.2023 7.59959C23.0147 8.72529 22.1704 8.72529 21.3261 8.72529H20.8571L21.2323 6.5677C21.2323 6.47389 21.3261 6.38008 21.5138 6.38008H21.7014C22.2642 6.38008 22.8271 6.38008 23.1085 6.75531C23.2023 6.84912 23.2961 7.13055 23.2023 7.59959Z" fill="#263B80"/>
<path d="M32.4894 7.50598H30.9885C30.8947 7.50598 30.7071 7.59978 30.7071 7.69359L30.6133 8.16264L30.5194 7.97502C30.1442 7.50598 29.4876 7.31836 28.7371 7.31836C27.0485 7.31836 25.5476 8.63168 25.2662 10.414C25.0785 11.3521 25.36 12.1964 25.829 12.7593C26.2981 13.3221 26.9547 13.5097 27.799 13.5097C29.2061 13.5097 29.9566 12.6654 29.9566 12.6654L29.8628 13.1345C29.8628 13.3221 29.9566 13.4159 30.1442 13.4159H31.5513C31.739 13.4159 31.9266 13.2283 32.0204 13.0407L32.8647 7.7874C32.7709 7.69359 32.5832 7.50598 32.4894 7.50598ZM30.3318 10.5078C30.1442 11.3521 29.4876 12.0088 28.5495 12.0088C28.0804 12.0088 27.7052 11.8212 27.5176 11.6336C27.33 11.3521 27.2361 10.9769 27.2361 10.5078C27.33 9.66357 28.0804 9.00691 28.9247 9.00691C29.3937 9.00691 29.6752 9.19453 29.9566 9.38215C30.238 9.66357 30.3318 10.1326 30.3318 10.5078Z" fill="#263B80"/>
<path d="M55.3786 7.50598H53.8776C53.7838 7.50598 53.5962 7.59978 53.5962 7.69359L53.5024 8.16264L53.4086 7.97502C53.0334 7.50598 52.3767 7.31836 51.6262 7.31836C49.9377 7.31836 48.4368 8.63168 48.1553 10.414C47.9677 11.3521 48.2491 12.1964 48.7182 12.7593C49.1872 13.3221 49.8439 13.5097 50.6882 13.5097C52.0953 13.5097 52.8458 12.6654 52.8458 12.6654L52.7519 13.1345C52.7519 13.3221 52.8458 13.4159 53.0334 13.4159H54.4405C54.6281 13.4159 54.8157 13.2283 54.9095 13.0407L55.7538 7.7874C55.66 7.69359 55.5662 7.50598 55.3786 7.50598ZM53.221 10.5078C53.0334 11.3521 52.3767 12.0088 51.4386 12.0088C50.9696 12.0088 50.5943 11.8212 50.4067 11.6336C50.2191 11.3521 50.1253 10.9769 50.1253 10.5078C50.2191 9.66357 50.9696 9.00691 51.8139 9.00691C52.2829 9.00691 52.5643 9.19453 52.8458 9.38215C53.221 9.66357 53.3148 10.1326 53.221 10.5078Z" fill="#139AD6"/>
<path d="M40.6506 7.50586H39.0559C38.8683 7.50586 38.7745 7.59967 38.6806 7.69348L36.6169 10.883L35.6788 7.88109C35.585 7.69348 35.4912 7.59967 35.2097 7.59967H33.7088C33.5212 7.59967 33.4274 7.78729 33.4274 7.9749L35.1159 12.9468L33.5212 15.1982C33.4274 15.3858 33.5212 15.6672 33.7088 15.6672H35.2097C35.3973 15.6672 35.4912 15.5734 35.585 15.4796L40.7444 8.06871C41.0259 7.78729 40.8382 7.50586 40.6506 7.50586Z" fill="#263B80"/>
<path d="M57.161 4.78545L55.8477 13.2282C55.8477 13.4158 55.9415 13.5096 56.1291 13.5096H57.4424C57.63 13.5096 57.8176 13.322 57.9114 13.1344L59.2248 4.87926C59.2248 4.69164 59.131 4.59784 58.9433 4.59784H57.4424C57.3486 4.50403 57.2548 4.59784 57.161 4.78545Z" fill="#139AD6"/>
<path d="M10.9134 1.68967C10.2567 0.939198 9.03718 0.563965 7.34863 0.563965H2.6582C2.37677 0.563965 2.09535 0.845389 2.00154 1.12681L0.125366 13.4157C0.125366 13.6972 0.312983 13.8848 0.5006 13.8848H3.40867L4.15913 9.28816V9.47578C4.25294 9.19435 4.53437 8.91292 4.81579 8.91292H6.22292C8.94337 8.91292 11.0072 7.78722 11.6638 4.69154C11.6638 4.59773 11.6638 4.50392 11.6638 4.41011C11.57 4.41011 11.57 4.41011 11.6638 4.41011C11.7576 3.1906 11.57 2.44014 10.9134 1.68967Z" fill="#263B80"/>
<path d="M11.57 4.41016C11.57 4.50396 11.57 4.59777 11.57 4.69158C10.9133 7.88107 8.84952 8.91297 6.12907 8.91297H4.72194C4.44052 8.91297 4.15909 9.19439 4.06528 9.47582L3.1272 15.1981C3.1272 15.3858 3.22101 15.5734 3.50243 15.5734H5.94145C6.22288 15.5734 6.50431 15.3858 6.50431 15.1043V15.0105L6.97335 12.1025V11.9148C6.97335 11.6334 7.25477 11.4458 7.5362 11.4458H7.91143C10.2566 11.4458 12.1328 10.5077 12.6019 7.69346C12.7895 6.56775 12.6957 5.53586 12.1328 4.8792C12.039 4.69158 11.8514 4.50396 11.57 4.41016Z" fill="#139AD6"/>
<path d="M10.9134 4.12859C10.8196 4.12859 10.7258 4.03478 10.632 4.03478C10.5382 4.03478 10.4444 4.03478 10.3505 3.94098C9.97531 3.84717 9.60008 3.84717 9.13103 3.84717H5.4725C5.37869 3.84717 5.28488 3.84717 5.19107 3.94098C5.00346 4.03478 4.90965 4.2224 4.90965 4.41002L4.15918 9.28806V9.47568C4.25299 9.19426 4.53441 8.91283 4.81584 8.91283H6.22297C8.94342 8.91283 11.0072 7.78713 11.6639 4.69144C11.6639 4.59764 11.6639 4.50383 11.7577 4.41002C11.5701 4.31621 11.4762 4.2224 11.2886 4.2224C11.0072 4.12859 11.0072 4.12859 10.9134 4.12859Z" fill="#232C65"/>
</svg>
