<svg width="64" height="16" viewBox="0 0 64 16" fill="none" xmlns="http://www.w3.org/2000/svg">
<g clip-path="url(#clip0)">
<path fill-rule="evenodd" clip-rule="evenodd" d="M7.73278 9.41113C7.64306 9.68932 7.49819 9.89272 7.29828 10.0214C7.11869 10.1418 6.86156 10.2229 6.52704 10.2642C6.1761 10.3144 5.62527 10.3392 4.87448 10.3392C4.31958 10.3392 3.86462 10.3162 3.50961 10.2704C3.17506 10.225 2.9241 10.1565 2.75681 10.0651C2.63838 9.99455 2.54046 9.91147 2.46296 9.81596C2.38137 9.71631 2.31606 9.59592 2.26712 9.45458C2.16104 9.15989 2.10799 8.69894 2.10799 8.07212C2.10799 7.54464 2.15701 7.13985 2.25486 6.85764C2.34876 6.5876 2.49152 6.38405 2.68334 6.24701C2.85473 6.13079 3.11788 6.0499 3.47293 6.00411C3.87282 5.95439 4.46039 5.92943 5.23562 5.92943C5.72929 5.92943 6.15777 5.95439 6.52099 6.00411C6.85148 6.05392 7.09017 6.12244 7.237 6.20968C7.35527 6.28024 7.45339 6.36124 7.53081 6.45269C7.6165 6.5564 7.68174 6.6748 7.72669 6.80752C7.83281 7.10245 7.88585 7.55498 7.88585 8.16549C7.88585 8.70526 7.83476 9.12046 7.73278 9.41113ZM9.10994 6.25949C9.02019 6.01043 8.89168 5.78831 8.72438 5.59309C8.55698 5.39385 8.35711 5.22549 8.12447 5.08858C7.81852 4.90601 7.43495 4.78145 6.97385 4.7149C6.51275 4.65258 5.85577 4.62151 5.00301 4.62151C4.5052 4.62151 4.0748 4.63601 3.71159 4.66502C3.33611 4.69824 3.05054 4.74597 2.85473 4.8083C2.63033 4.87896 2.43032 4.98068 2.25486 5.11367C2.21401 5.1467 2.17322 5.18413 2.13252 5.22549V4.91414C2.13252 4.85612 2.11206 4.80624 2.07127 4.76479C2.03042 4.72323 1.98355 4.70236 1.93046 4.70236H0.932841C0.87566 4.70236 0.824761 4.72323 0.779844 4.76479C0.74309 4.80222 0.724731 4.85191 0.724731 4.91414V13.6836C0.724731 13.746 0.74309 13.7959 0.779844 13.8332C0.824761 13.8747 0.87566 13.8955 0.932841 13.8955H1.93046C1.98355 13.8955 2.03042 13.8747 2.07127 13.8332C2.11206 13.7915 2.13252 13.7418 2.13252 13.6836V11.0741C2.34461 11.2568 2.59362 11.3895 2.87919 11.4726C3.0791 11.5349 3.3545 11.5805 3.70549 11.6096C4.03996 11.6387 4.43587 11.6534 4.89287 11.6534C5.52533 11.6534 6.06399 11.6346 6.50869 11.5971C6.96983 11.5599 7.32675 11.5017 7.57979 11.4228C7.85313 11.3398 8.10002 11.2131 8.32039 11.0429C8.54475 10.8685 8.73447 10.6568 8.88958 10.4076C9.04874 10.1627 9.16705 9.84295 9.24463 9.44846C9.32212 9.07893 9.3609 8.6429 9.3609 8.14041C9.3609 7.33911 9.27724 6.71217 9.10994 6.25949Z" fill="#387DC9"/>
<path fill-rule="evenodd" clip-rule="evenodd" d="M17.0913 9.91545C17.03 10.0151 16.9322 10.092 16.7974 10.146C16.6506 10.2125 16.4078 10.2623 16.0692 10.2954C15.7427 10.3246 15.3062 10.3391 14.7593 10.3391C13.7923 10.3391 13.1047 10.3143 12.6968 10.2642C12.5538 10.2519 12.4458 10.2331 12.3723 10.2082L12.2867 10.1834C12.1682 10.1252 12.0806 10.0443 12.0234 9.94053C11.9663 9.82825 11.9378 9.68507 11.9378 9.51063C11.9378 9.32803 11.9622 9.17643 12.0112 9.05592C12.0642 8.94816 12.1356 8.867 12.2254 8.81321C12.2907 8.77991 12.3641 8.75495 12.4458 8.7383C12.5518 8.71345 12.6845 8.69274 12.8436 8.67609C13.1579 8.64703 13.7291 8.63264 14.5574 8.63264C15.1449 8.63264 15.6081 8.65109 15.9467 8.68857C16.3058 8.72173 16.5729 8.7716 16.7485 8.83802C16.8954 8.89621 17.0057 8.97717 17.079 9.08092C17.1485 9.18053 17.1831 9.31558 17.1831 9.48574C17.1831 9.65599 17.1525 9.79916 17.0913 9.91545ZM18.6398 6.96326C18.6275 6.71404 18.601 6.49193 18.5602 6.29704C18.4868 5.95209 18.3256 5.64901 18.0767 5.38754C17.7829 5.08021 17.3749 4.87059 16.8526 4.75838C16.6077 4.70879 16.2874 4.67116 15.8916 4.64646C15.4713 4.61726 15.0041 4.60266 14.4901 4.60266C13.7882 4.60266 13.2007 4.63382 12.7273 4.69615C12.2459 4.76269 11.8664 4.86226 11.5889 4.99505C11.2991 5.14048 11.083 5.34609 10.9401 5.61187C10.7972 5.87334 10.7259 6.19092 10.7259 6.56459L10.7381 6.86978C10.7464 6.91974 10.7687 6.96326 10.8054 7.00059C10.8463 7.03806 10.8933 7.05678 10.9462 7.05678H11.9868C12.048 7.05678 12.097 7.03806 12.1337 7.00059C12.1744 6.95908 12.1948 6.90721 12.1948 6.84489V6.75788C12.1948 6.57102 12.2254 6.42349 12.2867 6.31549C12.3397 6.22006 12.4254 6.1474 12.5436 6.09752C12.6009 6.0726 12.6906 6.04783 12.813 6.02272L13.2476 5.96044C13.5903 5.9315 14.0289 5.91694 14.5634 5.91694C14.9756 5.91694 15.3265 5.92732 15.6163 5.94803C15.8978 5.96886 16.1282 5.99584 16.3079 6.02908C16.4832 6.07069 16.6221 6.1224 16.7241 6.18476C16.8424 6.25122 16.9343 6.32809 16.9995 6.41522C17.0812 6.51483 17.1423 6.65184 17.1831 6.82632C17.228 7.01738 17.2505 7.24762 17.2505 7.51761V7.77908C17.1975 7.73363 17.1423 7.69214 17.0852 7.6547C16.9056 7.54671 16.7058 7.46987 16.4853 7.42421C16.2812 7.39094 15.959 7.36189 15.5183 7.33697C15.0858 7.31633 14.5451 7.30584 13.8963 7.30584C13.4027 7.30584 12.9945 7.31633 12.6722 7.33697C12.3417 7.35775 12.0581 7.39094 11.8214 7.43661C11.6786 7.46146 11.5501 7.49893 11.4358 7.5487V7.55494C11.2563 7.62989 11.1054 7.72116 10.983 7.82908C10.8566 7.94537 10.7525 8.08433 10.6708 8.24627C10.5239 8.54945 10.4504 8.96473 10.4504 9.49194C10.4504 9.91975 10.4995 10.2623 10.5973 10.5196C10.6952 10.7813 10.8727 11.0034 11.1299 11.1862C11.2523 11.2857 11.4093 11.3688 11.6012 11.4353C11.7766 11.4976 11.9786 11.5431 12.2071 11.5723H12.2132C12.4212 11.597 12.7273 11.618 13.1313 11.6346C13.6455 11.6472 14.1167 11.6533 14.5451 11.6533C15.0103 11.6533 15.4244 11.6408 15.7876 11.616C16.1507 11.5827 16.4159 11.5431 16.5834 11.4976C16.8363 11.4227 17.0627 11.2962 17.2627 11.1176L17.2505 11.3542C17.2505 11.4082 17.2709 11.4602 17.3116 11.5098C17.3566 11.5515 17.4074 11.5723 17.4646 11.5723H18.4623C18.5153 11.5723 18.5621 11.5515 18.6031 11.5098C18.648 11.4684 18.6703 11.4187 18.6703 11.3605V7.9598C18.6703 7.57377 18.6602 7.24152 18.6398 6.96326Z" fill="#387DC9"/>
<path fill-rule="evenodd" clip-rule="evenodd" d="M20.7759 4.80779L23.7261 10.2077L26.4497 4.81406C26.4904 4.73938 26.5516 4.70185 26.6333 4.70185H27.8084C27.886 4.70185 27.9452 4.73507 27.9859 4.80171C28.0267 4.87629 28.0288 4.9448 27.992 5.00712L24.9073 11.005V11.0111C24.5278 11.7379 24.234 12.2528 24.0259 12.556C23.8015 12.8756 23.5506 13.135 23.273 13.3344C23.0119 13.5172 22.7263 13.6438 22.4162 13.7142C22.1265 13.7766 21.7103 13.8098 21.1676 13.814C20.9432 13.814 20.7494 13.8098 20.5861 13.8016C20.5331 13.7973 20.4883 13.7766 20.4516 13.7393C20.4107 13.6977 20.3903 13.6479 20.3903 13.5897V12.6555C20.3903 12.5932 20.4128 12.5412 20.4576 12.4998C20.5025 12.4625 20.5575 12.4458 20.6228 12.45C20.7903 12.4666 20.9371 12.4748 21.0636 12.4748C21.3819 12.4748 21.6512 12.4542 21.8715 12.4126C22.0877 12.3752 22.2531 12.3233 22.3673 12.2568V12.2507C22.4734 12.1926 22.5938 12.0804 22.7283 11.9142C22.8059 11.8146 22.8874 11.6963 22.9732 11.5594C22.9079 11.551 22.8528 11.5157 22.8079 11.4534L19.2458 5.01976C19.205 4.94911 19.205 4.87629 19.2458 4.80171C19.2865 4.73507 19.3458 4.70185 19.4232 4.70185H20.5984C20.6759 4.70185 20.7351 4.73713 20.7759 4.80779Z" fill="#387DC9"/>
<path d="M24.5555 15.6157C24.5567 15.6157 24.702 15.6157 24.7783 15.6157C24.7785 15.6157 24.7787 15.6157 24.7788 15.6157C24.7792 15.6157 24.7796 15.6157 24.78 15.6157C24.7802 15.6157 24.7805 15.6157 24.7808 15.6157C24.7815 15.6157 24.782 15.6157 24.7827 15.6157C24.7828 15.6157 24.783 15.6157 24.7832 15.6157C24.7835 15.6157 24.7838 15.6157 24.7842 15.6157C27.5384 15.6157 29.8765 15.3583 31.7982 14.8433C31.9369 14.8017 32.0737 14.7625 32.2085 14.7251C34.8361 13.9401 36.2907 12.6841 36.5723 10.9569C36.6662 10.3962 36.454 9.79631 35.9359 9.15693C35.6904 8.85383 35.3381 8.50603 34.8839 8.11575H34.8842C34.6644 7.94126 34.4221 7.75629 34.1565 7.56032C33.1609 6.82544 32.5305 6.33348 32.2654 6.08434C31.7105 5.56124 31.4634 5.11063 31.5247 4.73274C31.7574 3.30869 33.3914 2.23323 36.4274 1.50645C36.7538 1.42756 37.0963 1.35289 37.4555 1.28223C37.5093 1.27174 37.5627 1.26341 37.6166 1.25322C37.8912 1.20118 38.1657 1.1514 38.4394 1.10641C38.6531 1.07153 38.8661 1.04075 39.0791 1.01028C39.1809 0.995184 39.2827 0.980091 39.3841 0.966175C39.6527 0.930209 39.9207 0.897673 40.1881 0.868371C40.221 0.864647 40.2539 0.861021 40.2866 0.857394C40.582 0.825936 40.8768 0.798005 41.171 0.774191V0.771644C41.1718 0.771546 41.1702 0.774289 41.171 0.774191C41.2133 0.774191 41.2497 0.736559 41.2497 0.693635C41.2497 0.650612 41.2154 0.615823 41.1732 0.615823C41.172 0.615823 41.1742 0.615528 41.1732 0.615823C41.0999 0.615431 41.0267 0.615823 40.9503 0.615823C40.9498 0.615823 40.9493 0.615823 40.9488 0.615823C40.9479 0.615823 40.947 0.615823 40.946 0.615823C40.944 0.615823 40.9421 0.615823 40.9401 0.615823C40.8973 0.615823 40.8569 0.617291 40.8144 0.61739C40.5151 0.618272 40.2185 0.620918 39.9291 0.628073C39.7621 0.632091 39.6016 0.640126 39.438 0.6463C39.2778 0.652181 39.1141 0.656199 38.957 0.664136C37.0473 0.760667 35.3717 1.00204 33.9305 1.38817C33.7917 1.42972 33.6549 1.46902 33.5202 1.50645C30.8926 2.29134 29.4379 3.54742 29.1563 5.27458C29.0625 5.83529 29.2747 6.4352 29.7928 7.07453C30.0382 7.37769 30.3906 7.72544 30.8448 8.11575H30.8445C31.0643 8.29024 31.3065 8.47518 31.5722 8.67114C32.5677 9.40603 33.1981 9.89806 33.4632 10.1472C34.0182 10.6703 34.2653 11.1208 34.2039 11.4987C33.9713 12.9228 32.3373 13.9983 29.3013 14.7251C28.9748 14.804 28.6324 14.8786 28.2732 14.9493C28.2194 14.9597 28.166 14.968 28.1121 14.9783C27.8374 15.0304 27.563 15.08 27.2893 15.1251C27.0757 15.1599 26.8628 15.1907 26.6498 15.2212C26.548 15.2363 26.4462 15.2514 26.3445 15.2654C26.076 15.3013 25.8081 15.3339 25.5407 15.3632C25.5077 15.3668 25.4748 15.3705 25.4419 15.3741C25.1466 15.4055 24.5577 15.4574 24.5555 15.4575C24.5132 15.4575 24.479 15.4948 24.479 15.5379C24.479 15.5808 24.5133 15.6157 24.5555 15.6157Z" fill="#F36318"/>
<path d="M39.2357 7.28092C39.264 7.07745 39.3112 6.89684 39.3763 6.73896C39.4498 6.55223 39.552 6.40699 39.6824 6.3031L39.6887 6.29704C39.8558 6.16405 40.0904 6.0726 40.3923 6.02272C40.7271 5.96044 41.2107 5.92939 41.843 5.92939C42.5774 5.92939 43.1302 5.96044 43.5017 6.02272C43.8606 6.08508 44.13 6.18894 44.3096 6.33421C44.4402 6.43815 44.5401 6.57925 44.6094 6.75788C44.6667 6.91139 44.7034 7.08576 44.7197 7.28092H39.2357ZM46.1825 8.51404C46.2274 8.47266 46.2497 8.42282 46.2497 8.36459C46.2376 7.58824 46.1866 7.00475 46.0968 6.61447C46.003 6.22006 45.8214 5.86511 45.5521 5.54944C45.2297 5.17586 44.8053 4.92674 44.279 4.80218C44.0342 4.73986 43.7076 4.69419 43.2998 4.66498C42.8957 4.63597 42.4204 4.62137 41.8737 4.62137C41.2819 4.62137 40.7862 4.64215 40.3864 4.6837C39.9701 4.72104 39.6293 4.78327 39.3642 4.87059C39.0867 4.96193 38.8502 5.09276 38.6541 5.26289C38.4503 5.42909 38.2766 5.63872 38.134 5.89218C37.987 6.14943 37.8769 6.47127 37.8034 6.8576C37.734 7.2228 37.6993 7.6547 37.6993 8.15286C37.6993 8.85467 37.7811 9.44842 37.9441 9.93429C38.1238 10.4325 38.3912 10.8104 38.7459 11.0678C39.0559 11.2879 39.5009 11.4414 40.0803 11.5289C40.6598 11.6117 41.4759 11.6533 42.5285 11.6533C43.1773 11.6533 43.7321 11.616 44.1934 11.5411C44.6749 11.4539 45.0541 11.3292 45.3316 11.1673C45.6255 10.9889 45.8457 10.7481 45.9928 10.4449C46.1439 10.1501 46.2234 9.79303 46.2314 9.37377C46.2314 9.31144 46.211 9.26149 46.1702 9.22428C46.1293 9.18263 46.0826 9.16195 46.0295 9.16195H44.9768C44.9197 9.16195 44.8728 9.17842 44.8359 9.21165C44.7991 9.25326 44.7769 9.29881 44.7687 9.34877C44.7523 9.5024 44.7279 9.62689 44.6954 9.72259C44.6667 9.81803 44.632 9.88854 44.5911 9.93429C44.5911 9.93842 44.5891 9.94053 44.585 9.94053C44.5159 10.011 44.434 10.0692 44.3402 10.1148C44.2301 10.173 44.1015 10.2165 43.9546 10.2456C43.6364 10.308 43.1242 10.3391 42.4183 10.3391C41.9818 10.3391 41.5758 10.3327 41.2004 10.3203C40.8781 10.2995 40.6088 10.2704 40.3923 10.2331H40.3985C40.2189 10.204 40.0538 10.1564 39.9026 10.09C39.7599 10.0193 39.6559 9.94666 39.5907 9.87201C39.4681 9.7474 39.3744 9.56468 39.3091 9.32381C39.2521 9.12042 39.2132 8.87132 39.1929 8.5764H46.0356C46.0968 8.5764 46.1458 8.55557 46.1825 8.51404Z" fill="#F36318"/>
<path d="M53.9985 5.15666C53.7659 4.95321 53.4742 4.80993 53.1233 4.72683C52.7969 4.65636 52.3173 4.62098 51.685 4.62098C51.4648 4.62098 51.2649 4.62314 51.0851 4.62726C50.7465 4.63559 50.469 4.65215 50.2528 4.67724C49.9142 4.71448 49.6366 4.79131 49.4203 4.90754C49.2368 5.00309 49.0779 5.11726 48.9429 5.25005V4.91381C48.9429 4.8557 48.9225 4.80581 48.8817 4.76436C48.837 4.72281 48.7859 4.70193 48.7289 4.70193H47.7312C47.678 4.70193 47.6312 4.72281 47.5902 4.76436C47.5495 4.80581 47.5292 4.8557 47.5292 4.91381V11.3601C47.5292 11.4183 47.5495 11.468 47.5902 11.5095C47.6312 11.5511 47.678 11.5718 47.7312 11.5718H48.7289C48.7859 11.5718 48.837 11.5511 48.8817 11.5095C48.9225 11.468 48.9429 11.4183 48.9429 11.3601V8.38304C48.9429 7.97607 48.9655 7.61894 49.0104 7.31169C49.0552 7.017 49.1205 6.78229 49.2061 6.60796C49.2593 6.49986 49.3182 6.41694 49.3838 6.3589C49.4531 6.29665 49.5471 6.23835 49.6651 6.18437C49.7959 6.13036 49.9489 6.08469 50.1242 6.04744C50.3978 5.98929 50.718 5.9517 51.0851 5.93527C51.2362 5.93111 51.3974 5.929 51.5687 5.929C51.9442 5.929 52.2643 5.9581 52.5295 6.01628C52.7582 6.06597 52.9214 6.13866 53.0193 6.23433C53.1089 6.32142 53.1724 6.43776 53.2091 6.58288V6.5892C53.2539 6.77195 53.2763 7.02508 53.2763 7.34913V7.81C53.2763 7.86398 53.2966 7.91374 53.3375 7.95941C53.3783 8.00103 53.4274 8.02174 53.4846 8.02174H54.5065C54.5637 8.02174 54.6126 8.00103 54.6534 7.95941C54.6984 7.91374 54.7208 7.86398 54.7208 7.81V7.14349C54.7128 6.68261 54.6534 6.29665 54.5433 5.98512C54.4249 5.64862 54.2433 5.37265 53.9985 5.15666Z" fill="#F36318"/>
<path d="M62.139 9.91545C62.0819 10.0151 61.9859 10.0919 61.8512 10.146C61.7004 10.2125 61.4596 10.2623 61.129 10.2954C60.7987 10.3246 60.3619 10.3391 59.8193 10.3391C58.8482 10.3391 58.1585 10.3142 57.7504 10.2642C57.6158 10.2519 57.5079 10.2331 57.4261 10.2082L57.3343 10.1834C57.216 10.1211 57.1304 10.0401 57.0773 9.94053C57.016 9.82002 56.9856 9.67666 56.9856 9.51063C56.9856 9.33626 57.0121 9.18474 57.0649 9.05592C57.118 8.94816 57.1917 8.867 57.2856 8.81321C57.3343 8.78397 57.408 8.75908 57.5056 8.7383C57.6076 8.7094 57.7383 8.68857 57.8976 8.67609C58.2197 8.64703 58.7911 8.63264 59.6113 8.63264C60.2028 8.63264 60.666 8.65109 61.0005 8.68857C61.3639 8.72176 61.6311 8.7716 61.8024 8.83802C61.9534 8.89621 62.0655 8.97717 62.139 9.08092C62.2081 9.18045 62.2431 9.31558 62.2431 9.48574C62.2431 9.66019 62.2081 9.80337 62.139 9.91545ZM63.6935 6.96326C63.6816 6.71404 63.6568 6.49193 63.6203 6.29704C63.5427 5.94803 63.3775 5.64489 63.1244 5.38754H63.1308C62.8326 5.08021 62.4268 4.87059 61.9125 4.75838C61.6637 4.70458 61.3414 4.66714 60.9455 4.64646C60.5295 4.61736 60.062 4.60266 59.5438 4.60266C58.8419 4.60266 58.2564 4.63382 57.7872 4.69615C57.3058 4.76269 56.9263 4.86226 56.6488 4.99505C56.3591 5.14048 56.1409 5.34609 55.994 5.61187C55.8512 5.8733 55.7797 6.19092 55.7797 6.56459L55.798 6.86978C55.8021 6.92386 55.8245 6.96743 55.8654 7.00059C55.9022 7.03806 55.9471 7.05678 56.0002 7.05678H57.0466C57.1039 7.05678 57.1529 7.03806 57.1936 7.00059C57.2304 6.95908 57.2487 6.90721 57.2487 6.84489V6.75788C57.2487 6.57102 57.2793 6.42349 57.3406 6.31549C57.3976 6.21581 57.4834 6.14323 57.5975 6.09752C57.6465 6.07677 57.7364 6.05197 57.867 6.02272L58.3013 5.96044C58.6441 5.9315 59.0848 5.91698 59.6236 5.91698C60.0315 5.91698 60.3825 5.92732 60.6761 5.94803C60.9579 5.96886 61.1843 5.99584 61.3557 6.02908H61.3616C61.533 6.07069 61.6719 6.1224 61.7778 6.18476C61.8964 6.25129 61.9881 6.32809 62.0533 6.41518C62.131 6.51065 62.1941 6.64763 62.2431 6.82632C62.288 7.01738 62.3103 7.24762 62.3103 7.51761V7.77908C62.2533 7.73363 62.1962 7.6921 62.139 7.6547C61.9594 7.54671 61.7594 7.46991 61.5392 7.42421C61.3271 7.39094 61.0047 7.36189 60.5722 7.33697C60.1436 7.31633 59.6009 7.30588 58.9441 7.30588C58.4544 7.30588 58.0486 7.31633 57.7261 7.33697C57.3955 7.35771 57.112 7.39094 56.8752 7.43661C56.7365 7.46149 56.6103 7.49893 56.4958 7.5487V7.55494C56.3164 7.62565 56.1653 7.71687 56.0428 7.82908C55.9163 7.94537 55.8105 8.08433 55.7248 8.24627C55.582 8.54945 55.5106 8.96473 55.5106 9.49194C55.5106 9.91975 55.5573 10.2623 55.6513 10.5196C55.7492 10.7814 55.9287 11.0054 56.1899 11.1922C56.3122 11.2879 56.4672 11.3688 56.655 11.4353C56.8266 11.4976 57.0282 11.5431 57.2608 11.5722C57.4771 11.597 57.7854 11.618 58.1851 11.6346C58.7034 11.6472 59.1766 11.6533 59.6052 11.6533C60.0704 11.6533 60.4824 11.6407 60.8415 11.616C61.2087 11.5827 61.4738 11.5431 61.6372 11.4976C61.8862 11.4227 62.1124 11.2961 62.3165 11.1176L62.3103 11.3542C62.3103 11.4164 62.3287 11.4684 62.3656 11.5098C62.4145 11.5515 62.4634 11.5722 62.5122 11.5722H63.5162C63.5732 11.5722 63.6224 11.5515 63.663 11.5098C63.7037 11.4684 63.7243 11.4187 63.7243 11.3605V7.9598C63.7243 7.57377 63.7141 7.24149 63.6935 6.96326Z" fill="#F36318"/>
</g>
<defs>
<clipPath id="clip0">
<rect width="63" height="15" fill="white" transform="translate(0.724731 0.615723)"/>
</clipPath>
</defs>
</svg>
