<svg width="19" height="19" viewBox="0 0 19 19" fill="none" xmlns="http://www.w3.org/2000/svg">
<path fill-rule="evenodd" clip-rule="evenodd" d="M4.41662 2.75016L1.60336 8.41084C1.59266 8.4319 1.58927 8.45568 1.59368 8.47872C1.5981 8.50175 1.61009 8.52283 1.62791 8.53886L9.22585 15.5133C9.24743 15.5331 9.27618 15.5442 9.30608 15.5442C9.33598 15.5442 9.36473 15.5331 9.38631 15.5133L16.9843 8.5393C17.0021 8.52326 17.0141 8.50218 17.0185 8.47915C17.0229 8.45612 17.0195 8.43233 17.0088 8.41128L14.1955 2.75059C14.1865 2.73158 14.1719 2.71548 14.1535 2.7042C14.1351 2.69293 14.1137 2.68697 14.0919 2.68702H4.52117C4.49924 2.68676 4.47771 2.69258 4.45916 2.70378C4.4406 2.71499 4.42583 2.73109 4.41662 2.75016Z" fill="#50AF95"/>
<path fill-rule="evenodd" clip-rule="evenodd" d="M10.3533 9.40513C10.2949 9.4087 9.99291 9.42337 9.31934 9.42337C8.7836 9.42337 8.40322 9.41029 8.26978 9.40513C6.19939 9.33097 4.65402 9.03752 4.65402 8.68617C4.65402 8.33482 6.19939 8.04176 8.26978 7.96641V9.11287C8.40517 9.1208 8.79285 9.13944 9.32859 9.13944C9.97148 9.13944 10.2934 9.11762 10.3514 9.11326V7.9672C12.4174 8.04215 13.9593 8.33561 13.9593 8.68617C13.9593 9.03673 12.4179 9.33018 10.3514 9.40473L10.3533 9.40513ZM10.3533 7.84863V6.82273H13.2366V5.2583H5.38652V6.82273H8.26929V7.84824C5.92616 7.93588 4.16406 8.3138 4.16406 8.76667C4.16406 9.21954 5.92616 9.59707 8.26929 9.6851V12.9726H10.3528V9.68391C12.6906 9.59627 14.4498 9.21875 14.4498 8.76627C14.4498 8.3138 12.6921 7.93627 10.3528 7.84824L10.3533 7.84863Z" fill="white"/>
</svg>
