<svg width="15" height="15" viewBox="0 0 15 15" fill="none" xmlns="http://www.w3.org/2000/svg">
<path fill-rule="evenodd" clip-rule="evenodd" d="M5.91311 0.140115L7.75778 5.76853L9.61061 0.115234C12.6023 0.924489 14.8066 3.69842 14.8066 6.99597C14.8066 10.9279 11.6726 14.1154 7.80664 14.1154C3.94065 14.1154 0.806641 10.9279 0.806641 6.99597C0.806641 3.73141 2.96706 0.980052 5.91311 0.140115ZM12.3928 6.94687C12.3928 9.55009 10.3179 11.6604 7.75836 11.6604C5.19881 11.6604 3.12388 9.55009 3.12388 6.94687C3.12388 5.43734 3.82159 4.09354 4.90691 3.23085L7.75874 10.482L10.6104 3.2313C11.6954 4.09401 12.3928 5.4376 12.3928 6.94687Z" fill="url(#paint0_linear_2236_28604)"/>
<defs>
<linearGradient id="paint0_linear_2236_28604" x1="7.80664" y1="0.115234" x2="7.80664" y2="14.1154" gradientUnits="userSpaceOnUse">
<stop stop-color="#E30E00"/>
<stop offset="1" stop-color="#FF8A00"/>
</linearGradient>
</defs>
</svg>
