<svg width="39" height="12" viewBox="0 0 39 12" fill="none" xmlns="http://www.w3.org/2000/svg">
<path d="M14.1119 11.675L16.0668 0.678711H19.1214L17.2276 11.675H14.1119Z" fill="#08447E"/>
<path d="M28.285 0.800736C27.6741 0.556374 26.6966 0.312012 25.4748 0.312012C22.4203 0.312012 20.221 1.83928 20.221 4.03854C20.221 5.68798 21.7483 6.54325 22.9701 7.09306C24.1919 7.64288 24.5584 8.00942 24.5584 8.49815C24.5584 9.23123 23.581 9.59778 22.7257 9.59778C21.5039 9.59778 20.8319 9.41451 19.7934 8.98687L19.3657 8.8036L18.9381 11.3083C19.6712 11.6138 21.0152 11.9192 22.4203 11.9192C25.6581 11.9192 27.7962 10.392 27.7962 8.07052C27.7962 6.78761 27.0021 5.81016 25.1693 5.01599C24.0697 4.46617 23.3977 4.16072 23.3977 3.6109C23.3977 3.12218 23.9475 2.63345 25.1693 2.63345C26.2079 2.63345 26.941 2.81673 27.4908 3.06109L27.7962 3.18327L28.285 0.800736Z" fill="#08447E"/>
<path d="M33.5387 0.678711C32.8056 0.678711 32.2558 0.739802 31.9503 1.47289L27.3685 11.675H30.6674L31.2783 9.8423H35.1881L35.5547 11.675H38.487L35.9212 0.678711H33.5387ZM32.1336 8.00958C32.3169 7.45977 33.3554 4.77178 33.3554 4.77178C33.3554 4.77178 33.5998 4.09978 33.783 3.67215L33.9663 4.71069C33.9663 4.71069 34.5772 7.45977 34.6994 8.07067H32.1336V8.00958Z" fill="#08447E"/>
<path d="M8.49158 8.37607L8.18613 6.78771C7.63632 4.955 5.86469 2.93901 3.90979 1.96156L6.65887 11.7361H9.95776L14.9061 0.739746H11.6072L8.49158 8.37607Z" fill="#08447E"/>
<path d="M0 0.678711L0.549815 0.800893C4.45961 1.71725 7.1476 4.03869 8.18614 6.78777L7.08651 1.59507C6.90324 0.861983 6.35342 0.678711 5.68142 0.678711H0Z" fill="#FFBC00"/>
</svg>
