<svg xmlns="http://www.w3.org/2000/svg" xmlns:xlink="http://www.w3.org/1999/xlink" viewBox="0 0 41.3 22.62"><defs><style>.cls-1{fill:url(#linear-gradient);}.cls-2{fill:url(#linear-gradient-2);}.cls-3{fill:url(#linear-gradient-3);}.cls-4{fill:url(#linear-gradient-4);}.cls-5{fill:url(#linear-gradient-5);}.cls-6{fill:url(#linear-gradient-6);}.cls-7{fill:url(#linear-gradient-7);}.cls-8{fill:url(#linear-gradient-8);}.cls-9{fill:url(#linear-gradient-9);}.cls-10{fill:url(#linear-gradient-10);}</style><linearGradient id="linear-gradient" x1="18.93" y1="50.72" x2="60.93" y2="-34.28" gradientUnits="userSpaceOnUse"><stop offset="0.32" stop-color="#49c7c9"/><stop offset="0.38" stop-color="#45c3cc"/><stop offset="0.45" stop-color="#3ab7d4"/><stop offset="0.52" stop-color="#27a3e2"/><stop offset="0.58" stop-color="#0d87f5"/><stop offset="0.61" stop-color="#0079ff"/><stop offset="0.69" stop-color="#006fea"/><stop offset="0.84" stop-color="#0053b5"/><stop offset="1" stop-color="#003579"/></linearGradient><linearGradient id="linear-gradient-2" x1="15.59" y1="49.07" x2="57.59" y2="-35.93" xlink:href="#linear-gradient"/><linearGradient id="linear-gradient-3" x1="12.82" y1="47.7" x2="54.81" y2="-37.3" xlink:href="#linear-gradient"/><linearGradient id="linear-gradient-4" x1="9.47" y1="46.05" x2="51.47" y2="-38.95" xlink:href="#linear-gradient"/><linearGradient id="linear-gradient-5" x1="8.16" y1="45.4" x2="50.16" y2="-39.6" xlink:href="#linear-gradient"/><linearGradient id="linear-gradient-6" x1="4.81" y1="43.75" x2="46.81" y2="-41.25" xlink:href="#linear-gradient"/><linearGradient id="linear-gradient-7" x1="-9.63" y1="36.61" x2="32.37" y2="-48.39" xlink:href="#linear-gradient"/><linearGradient id="linear-gradient-8" x1="-12.98" y1="34.96" x2="29.03" y2="-50.04" xlink:href="#linear-gradient"/><linearGradient id="linear-gradient-9" x1="-0.54" y1="41.1" x2="41.46" y2="-43.9" xlink:href="#linear-gradient"/><linearGradient id="linear-gradient-10" x1="-3.88" y1="39.45" x2="38.12" y2="-45.55" xlink:href="#linear-gradient"/></defs><g id="Layer_2" data-name="Layer 2"><g id="Layer_1-2" data-name="Layer 1"><path class="cls-1" d="M35.58,11.25a2.86,2.86,0,1,1,2.87,2.85,2.87,2.87,0,0,1-2.87-2.85"/><path class="cls-2" d="M35.57,2.87a2.86,2.86,0,1,1,2.87,2.85,2.85,2.85,0,0,1-2.87-2.85"/><path class="cls-3" d="M25.93,15.38a2.86,2.86,0,1,1,2.87,2.85,2.86,2.86,0,0,1-2.87-2.85"/><path class="cls-4" d="M25.91,7a2.86,2.86,0,1,1,2.87,2.86A2.86,2.86,0,0,1,25.91,7"/><path class="cls-5" d="M18,19.76a2.86,2.86,0,1,1,2.86,2.86A2.85,2.85,0,0,1,18,19.76"/><path class="cls-6" d="M18,11.38a2.86,2.86,0,1,1,2.86,2.86A2.86,2.86,0,0,1,18,11.38"/><path class="cls-7" d="M5.74,11.29a2.86,2.86,0,1,0-2.85,2.87,2.86,2.86,0,0,0,2.85-2.87"/><path class="cls-8" d="M5.72,2.91A2.86,2.86,0,1,0,2.87,5.77,2.87,2.87,0,0,0,5.72,2.91"/><path class="cls-9" d="M15,15.4a2.86,2.86,0,1,0-2.85,2.86A2.87,2.87,0,0,0,15,15.4"/><path class="cls-10" d="M15,7a2.86,2.86,0,1,0-2.85,2.87A2.85,2.85,0,0,0,15,7"/></g></g></svg>