<svg width="30" height="20" viewBox="0 0 30 20" fill="none" xmlns="http://www.w3.org/2000/svg">
<path opacity="0.5" fill-rule="evenodd" clip-rule="evenodd" d="M29.2156 6.66886e-05C29.7242 1.5071 30 3.12138 30 4.80005C30 13.0843 23.2843 19.8 15 19.8C6.71573 19.8 6.30915e-06 13.0843 7.03339e-06 4.80005C7.18014e-06 3.12137 0.27576 1.5071 0.784437 6.42031e-05L7.38546 6.47802e-05C6.50789 1.3893 6 3.03536 6 4.80005C6 9.77061 10.0294 13.8 15 13.8C19.9706 13.8 24 9.77061 24 4.80005C24 3.03537 23.4921 1.3893 22.6145 6.61115e-05L29.2156 6.66886e-05Z" fill="#F4F4F4"/>
</svg>
