<svg width="63" height="14" viewBox="0 0 63 14" fill="none" xmlns="http://www.w3.org/2000/svg">
<path d="M12.8894 8.12608C12.0155 11.6319 8.46493 13.7648 4.95936 12.891C1.45502 12.0169 -0.678501 8.46633 0.196051 4.96117C1.06938 1.45519 4.61993 -0.678128 8.12448 0.19581C11.6303 1.06975 13.7632 4.62071 12.8894 8.12608Z" fill="#F7931A"/>
<path d="M8.00935 5.59855C7.80692 6.40951 6.55735 5.99749 6.15228 5.89648L6.50971 4.46309C6.91478 4.5641 8.22017 4.75263 8.00935 5.59855ZM7.78729 7.9114C7.56543 8.80272 6.06436 8.32118 5.5775 8.20013L5.97193 6.61972C6.45859 6.74118 8.01917 6.98185 7.78729 7.9114ZM9.42761 5.61144C9.55786 4.74077 8.89495 4.27272 7.98829 3.96048L8.28254 2.78105L7.56461 2.60213L7.27834 3.75048C7.08961 3.70345 6.89577 3.65908 6.70335 3.61512L6.99146 2.4592L6.27415 2.28029L5.97991 3.45931C5.82369 3.42373 5.67033 3.38856 5.52147 3.35155L5.52229 3.34787L4.53221 3.10065L4.34122 3.86744C4.34122 3.86744 4.87389 3.98952 4.86244 3.99708C5.15341 4.06967 5.20596 4.26209 5.19717 4.41463L4.86203 5.75825C4.88227 5.76336 4.90824 5.77093 4.93687 5.78218C4.91274 5.77625 4.88718 5.7697 4.86101 5.76336L4.39152 7.64558C4.35594 7.73392 4.26557 7.86621 4.06252 7.81612C4.06947 7.82655 3.54069 7.68586 3.54069 7.68586L3.18408 8.50787L4.11855 8.74097C4.29215 8.78452 4.46248 8.82992 4.63035 8.87286L4.33304 10.0658L5.05015 10.2447L5.34439 9.06425C5.54028 9.11741 5.73024 9.16649 5.91652 9.21291L5.6233 10.3874L6.34122 10.5663L6.63833 9.37587C7.86233 9.60755 8.7831 9.5141 9.17058 8.40706C9.48282 7.51553 9.15504 7.00127 8.51094 6.66572C8.98001 6.55735 9.33335 6.24879 9.42761 5.61144Z" fill="white"/>
<path d="M17.0224 11.0486C17.4089 11.0486 17.7731 10.9535 18.1151 10.7671C18.4581 10.5802 18.7543 10.3278 19.0024 10.0136C19.2504 9.69764 19.4465 9.34206 19.5898 8.94455C19.733 8.54746 19.8052 8.13298 19.8052 7.70194C19.8052 7.17173 19.7168 6.75889 19.5401 6.45994C19.3637 6.16243 19.0373 6.01275 18.5632 6.01275C18.4075 6.01275 18.2076 6.0424 17.9593 6.09536C17.7101 6.15159 17.4872 6.26834 17.2876 6.44399L16.1953 10.9809C16.2609 10.9928 16.3194 11.0036 16.3691 11.0141C16.4178 11.0255 16.4715 11.0335 16.5249 11.0388C16.5818 11.0452 16.6466 11.0484 16.7249 11.0484C16.8032 11.0484 16.901 11.0486 17.0224 11.0486ZM19.1747 3.95938C19.7056 3.95938 20.1638 4.05446 20.5492 4.24115C20.9363 4.42968 21.2557 4.68364 21.5119 5.00304C21.7645 5.32407 21.9526 5.69928 22.0742 6.1293C22.1949 6.56054 22.2554 7.02409 22.2554 7.52016C22.2554 8.28266 22.1158 9.00262 21.8336 9.68149C21.5516 10.3614 21.169 10.9511 20.6824 11.4543C20.1961 11.9567 19.6221 12.3526 18.96 12.6454C18.299 12.938 17.5802 13.0844 16.8085 13.0844C16.7087 13.0844 16.5331 13.0815 16.2855 13.0764C16.0376 13.0715 15.7528 13.046 15.4336 13.0028C15.1128 12.958 14.7734 12.8918 14.4149 12.8028C14.0567 12.7157 13.7164 12.5939 13.396 12.4389L16.2609 0.399828L18.8271 0.00211906L17.8015 4.27428C18.0211 4.17531 18.2423 4.09863 18.4632 4.04281C18.6842 3.98801 18.9214 3.95938 19.1747 3.95938Z" fill="#4D4D4D"/>
<path d="M26.1094 3.0828C25.7673 3.0828 25.4573 2.98097 25.1819 2.7769C24.9044 2.57406 24.7672 2.26182 24.7672 1.84101C24.7672 1.60954 24.814 1.39238 24.9073 1.1875C25.002 0.983018 25.1257 0.806963 25.2807 0.657285C25.4355 0.508834 25.6148 0.390237 25.8184 0.301085C26.0233 0.212955 26.2415 0.168787 26.4736 0.168787C26.8155 0.168787 27.124 0.270617 27.4003 0.474686C27.6755 0.679777 27.8139 0.992015 27.8139 1.41058C27.8139 1.64287 27.7671 1.86084 27.6731 2.06532C27.5796 2.2698 27.4559 2.44585 27.3009 2.59553C27.1473 2.74419 26.9664 2.86237 26.7631 2.95091C26.558 3.04047 26.3409 3.0828 26.1094 3.0828ZM24.9167 12.8542H22.4658L24.5358 4.14404H27.0034L24.9167 12.8542Z" fill="#4D4D4D"/>
<path d="M29.1516 1.97358L31.7191 1.57587L31.0887 4.14329H33.8379L33.3414 6.16313H30.6085L29.8806 9.21005C29.8135 9.4636 29.7757 9.7008 29.7649 9.92122C29.7528 10.1429 29.7808 10.333 29.8471 10.4931C29.9131 10.6537 30.0315 10.7776 30.2033 10.8645C30.3742 10.9536 30.619 10.9984 30.9398 10.9984C31.2042 10.9984 31.462 10.9733 31.7111 10.9234C31.9587 10.8745 32.2094 10.8062 32.4634 10.7166L32.6464 12.6052C32.3155 12.7267 31.9569 12.8312 31.57 12.9191C31.1831 13.0082 30.7247 13.051 30.1953 13.051C29.4336 13.051 28.8433 12.9379 28.4229 12.713C28.0027 12.4864 27.706 12.1764 27.5283 11.7842C27.3528 11.3937 27.2745 10.9432 27.2966 10.4355C27.3191 9.92695 27.3958 9.39183 27.5283 8.8289L29.1516 1.97358Z" fill="#4D4D4D"/>
<path d="M33.73 9.37593C33.73 8.6255 33.8514 7.91821 34.094 7.2557C34.3363 6.59278 34.6853 6.01309 35.138 5.5158C35.5893 5.02076 36.1389 4.62857 36.7863 4.34066C37.4302 4.0544 38.1516 3.91003 38.9462 3.91003C39.4437 3.91003 39.8882 3.95706 40.2792 4.05133C40.672 4.14641 41.027 4.2693 41.3482 4.42348L40.5031 6.34557C40.2823 6.25601 40.0531 6.17708 39.8159 6.10551C39.5789 6.03251 39.2891 5.99734 38.9468 5.99734C38.1285 5.99734 37.4819 6.27932 37.0006 6.84123C36.5207 7.40395 36.2794 8.16133 36.2794 9.11093C36.2794 9.67406 36.4011 10.129 36.6448 10.4773C36.8871 10.8255 37.3353 10.9989 37.9856 10.9989C38.3066 10.9989 38.6164 10.9651 38.9133 10.8999C39.2122 10.8337 39.4762 10.7502 39.7087 10.6517L39.8919 12.622C39.5819 12.7423 39.2398 12.8508 38.865 12.9459C38.489 13.0377 38.0418 13.0856 37.523 13.0856C36.8385 13.0856 36.2586 12.9852 35.7846 12.7881C35.3102 12.5877 34.9182 12.3214 34.6092 11.9847C34.2986 11.6469 34.076 11.2522 33.9383 10.7997C33.8005 10.3472 33.73 9.87138 33.73 9.37593Z" fill="#4D4D4D"/>
<path d="M45.8433 5.99755C45.4802 5.99755 45.1587 6.10306 44.8839 6.31142C44.6077 6.52224 44.376 6.78745 44.1891 7.10664C44.0002 7.42787 43.8605 7.77815 43.7658 8.15847C43.672 8.53983 43.6256 8.90052 43.6256 9.24303C43.6256 9.79552 43.7151 10.2262 43.8899 10.5359C44.0674 10.8439 44.3872 10.9989 44.8508 10.9989C45.2154 10.9989 45.535 10.8942 45.8116 10.6838C46.086 10.4746 46.3181 10.2094 46.5062 9.88897C46.6939 9.56978 46.8354 9.21849 46.9299 8.83734C47.0227 8.45722 47.0698 8.09468 47.0698 7.75279C47.0698 7.20152 46.981 6.77007 46.8042 6.46069C46.6279 6.15255 46.3071 5.99755 45.8433 5.99755ZM44.6187 13.085C44.0335 13.085 43.5252 12.9958 43.0943 12.8193C42.6643 12.6431 42.3087 12.3953 42.0271 12.074C41.7448 11.7548 41.5339 11.3763 41.3894 10.9402C41.2448 10.5042 41.1753 10.0213 41.1753 9.49249C41.1753 8.82916 41.2816 8.16584 41.4969 7.50394C41.7116 6.84102 42.0296 6.24558 42.45 5.71619C42.8676 5.18598 43.383 4.75249 43.9891 4.41448C44.595 4.07873 45.2918 3.90983 46.0746 3.90983C46.6488 3.90983 47.1542 3.99919 47.5914 4.17565C48.0263 4.35171 48.3846 4.60138 48.6678 4.92077C48.9481 5.2418 49.161 5.61865 49.3039 6.05542C49.4481 6.49055 49.5192 6.97455 49.5192 7.50394C49.5192 8.16522 49.4141 8.82875 49.2056 9.49208C48.997 10.1525 48.687 10.7496 48.278 11.28C47.8699 11.8096 47.3597 12.2429 46.7467 12.5795C46.1347 12.9163 45.4243 13.085 44.6187 13.085Z" fill="#4D4D4D"/>
<path d="M53.3809 3.0828C53.039 3.0828 52.729 2.98097 52.4544 2.7769C52.178 2.57406 52.0395 2.26182 52.0395 1.84101C52.0395 1.60954 52.0872 1.39238 52.1806 1.1875C52.2741 0.983018 52.3984 0.806963 52.5534 0.657285C52.7076 0.508834 52.8885 0.390237 53.0918 0.301085C53.2954 0.212955 53.5134 0.168787 53.7447 0.168787C54.0876 0.168787 54.3972 0.270617 54.6728 0.474686C54.9486 0.679777 55.0877 0.992015 55.0877 1.41058C55.0877 1.64287 55.0382 1.86084 54.9456 2.06532C54.8529 2.2698 54.7284 2.44585 54.5742 2.59553C54.4188 2.74419 54.2399 2.86237 54.0365 2.95091C53.831 3.04047 53.6138 3.0828 53.3809 3.0828ZM52.19 12.8542H49.7373L51.807 4.14404H54.2759L52.19 12.8542Z" fill="#4D4D4D"/>
<path d="M56.0423 4.53977C56.2282 4.48538 56.4361 4.41995 56.6619 4.34879C56.8888 4.27763 57.1422 4.21159 57.4252 4.15188C57.7051 4.09013 58.021 4.04023 58.3684 4.00159C58.7154 3.96212 59.1117 3.9429 59.5511 3.9429C60.8438 3.9429 61.7352 4.31935 62.2269 5.06998C62.7185 5.82062 62.8036 6.84772 62.4848 8.15004L61.3571 12.853H58.8901L59.9828 8.2488C60.0495 7.96151 60.1018 7.68342 60.1407 7.41207C60.1795 7.14278 60.1775 6.90538 60.1317 6.70029C60.0881 6.49744 59.9855 6.33141 59.8264 6.20279C59.6646 6.07622 59.4203 6.01263 59.0888 6.01263C58.7694 6.01263 58.4441 6.04698 58.1122 6.11323L56.5059 12.8524H54.0376L56.0423 4.53977Z" fill="#4D4D4D"/>
</svg>
