<svg width="42" height="42" viewBox="0 0 42 42" fill="none" xmlns="http://www.w3.org/2000/svg">
<path d="M16.8968 23.8446V23.8229C16.8968 23.7875 16.8968 23.7549 16.8832 23.7168V23.6977V23.6352C16.8832 23.5944 16.8668 23.5563 16.8587 23.5155V23.4991C16.8587 23.4828 16.8587 23.4692 16.8587 23.4583C16.7263 22.9751 16.4289 22.5535 16.0181 22.2668C15.9664 22.2337 15.9128 22.2037 15.8575 22.177L15.8249 22.158L15.7079 22.0981L15.6454 22.0682L15.5501 22.0301L15.4631 21.9975L15.3869 21.973L15.2699 21.9431H15.2563C15.1872 21.9298 15.1247 21.8931 15.0796 21.839C15.0344 21.785 15.0094 21.7169 15.0088 21.6465V20.3489C15.0093 20.2781 15.0342 20.2097 15.0793 20.1552C15.1244 20.1007 15.1869 20.0634 15.2563 20.0496C15.308 20.0496 15.3624 20.0224 15.425 20.0034H15.4495C15.4958 19.9868 15.5412 19.9677 15.5855 19.9462H15.6127C15.6629 19.9254 15.712 19.9018 15.7596 19.8755H15.7814C15.8338 19.8484 15.8846 19.8184 15.9337 19.7857C15.98 19.7558 16.0235 19.7232 16.0752 19.6824L16.2003 19.5735L16.2221 19.5545L16.3309 19.4402L16.3527 19.4158C16.388 19.3749 16.4234 19.3341 16.456 19.2906L16.5485 19.1519L16.6274 19.0104V18.9805C16.6528 18.9315 16.6746 18.8825 16.6927 18.8336V18.8037C16.7118 18.7492 16.7308 18.6976 16.7444 18.6459V18.6241C16.7607 18.5697 16.7743 18.5153 16.7852 18.4636V18.3874C16.7852 18.3357 16.8043 18.2786 16.8124 18.2052V18.1861C16.8153 18.129 16.8153 18.0718 16.8124 18.0147V17.9848C16.8124 17.9304 16.8124 17.8787 16.8124 17.8216V17.7971C16.8138 17.7799 16.8138 17.7626 16.8124 17.7454V17.6855C16.8137 17.6629 16.8137 17.6402 16.8124 17.6175C16.8124 17.5931 16.8124 17.5713 16.8124 17.5441L16.7961 17.4788C16.7976 17.4634 16.7976 17.4479 16.7961 17.4325C16.7961 17.4053 16.7961 17.3809 16.7743 17.3564L16.7607 17.3156C16.7607 17.2938 16.7607 17.272 16.739 17.253C16.7172 17.234 16.7199 17.2068 16.709 17.1768L16.69 17.136L16.6655 17.0789L16.6737 17.0136L16.6519 16.9728C16.6418 16.9519 16.6299 16.9319 16.6166 16.9129C16.6059 16.8932 16.5941 16.8741 16.5812 16.8558L16.5567 16.8177L16.5159 16.7552L16.4914 16.7225L16.4479 16.6817L16.4016 16.6083L16.369 16.5702L16.3527 16.5538L16.2738 16.4695L16.2275 16.4287C16.1976 16.4015 16.1677 16.3716 16.135 16.3471L16.0915 16.3117C16.0561 16.2845 16.0235 16.26 15.9854 16.2356L15.9419 16.2083C15.9015 16.1825 15.8597 16.1589 15.8167 16.1376C15.8082 16.1299 15.7979 16.1243 15.7868 16.1213H15.7732L15.6508 16.0506L15.6181 16.037H15.5991C15.5594 16.0165 15.5185 15.9983 15.4767 15.9825H15.4359H15.4141L15.2971 15.9281H15.2454H15.2101L15.1121 15.8901L15.0414 15.8819H14.9924H14.938H14.7231L14.5463 15.8955C14.4864 15.8955 14.4266 15.9118 14.364 15.9227L14.1899 15.9689H14.1736L14.0131 16.0234H13.9913C13.9352 16.0448 13.8806 16.0703 13.8281 16.0995C13.7746 16.1253 13.7229 16.1544 13.673 16.1866C13.6241 16.2165 13.5778 16.2492 13.5234 16.29C13.4772 16.3253 13.4336 16.3634 13.3901 16.4015C13.2543 16.525 13.1354 16.6659 13.0364 16.8204C13.0017 16.8721 12.97 16.9257 12.9412 16.981C12.8537 17.1466 12.7887 17.3231 12.7481 17.506C12.7339 17.5744 12.6967 17.636 12.6428 17.6805C12.5889 17.725 12.5215 17.7498 12.4515 17.7508H11.1267C11.0568 17.7498 10.9893 17.725 10.9354 17.6805C10.8815 17.636 10.8444 17.5744 10.8302 17.506C10.8317 17.4943 10.8317 17.4824 10.8302 17.4706V17.4516C10.8302 17.4244 10.8302 17.3972 10.8111 17.37C10.7921 17.3428 10.7866 17.2965 10.773 17.2584C10.7746 17.244 10.7746 17.2294 10.773 17.2149C10.754 17.1687 10.7349 17.1251 10.7132 17.0789V17.0544C10.4655 16.5438 10.0252 16.1524 9.48898 15.9662H9.47538L9.27407 15.9281H9.2251H9.1979L9.09452 15.8928H9.02107H8.99114H8.89865H8.72726L8.56675 15.8656H8.55043L8.38992 15.8873H8.36C8.30831 15.8873 8.2539 15.9091 8.19949 15.9254C8.14872 15.9389 8.09876 15.9552 8.04987 15.9744H8.03354C7.98458 15.9934 7.93561 16.0125 7.88664 16.037H7.86488L7.69621 16.1376L7.56291 16.2247L7.42416 16.3416C7.33599 16.4144 7.25409 16.4945 7.17932 16.581C7.14124 16.6219 7.10587 16.6681 7.06779 16.7171C6.89219 16.9545 6.76804 17.226 6.70325 17.5142C6.68902 17.5826 6.6519 17.6442 6.59799 17.6887C6.54408 17.7332 6.47662 17.758 6.40672 17.759H5.10634C5.03597 17.7586 4.96787 17.7341 4.91341 17.6895C4.85894 17.645 4.82142 17.5831 4.80709 17.5142V17.4788V17.4598C4.80709 17.4298 4.79077 17.4026 4.78533 17.3754C4.77989 17.3482 4.76085 17.302 4.74724 17.2612L4.70372 17.2258C4.68739 17.1823 4.66835 17.1415 4.64659 17.0952L4.63299 17.0626C4.6085 17.0136 4.5813 16.9674 4.55409 16.9211C4.36341 16.5942 4.08926 16.3238 3.75972 16.1376C3.71347 16.1104 3.66179 16.0859 3.61282 16.0614H3.58017C3.53757 16.0427 3.49398 16.0264 3.44959 16.0125L3.38974 15.9689L3.28092 15.9363L3.19659 15.9173L3.10137 15.8982L2.998 15.8819L2.91366 15.8656H2.74227H2.56545H2.5464L2.37501 15.8982H2.34781L2.1737 15.9417C1.80876 16.0441 1.47795 16.2425 1.21574 16.5162C0.953537 16.7898 0.76953 17.1288 0.682897 17.4978C0.651484 17.6163 0.631443 17.7374 0.623047 17.8597V17.8597C0.623047 17.8814 0.623047 17.9005 0.623047 17.9195V18.0419V18.1807V18.2133C0.623047 18.265 0.623047 18.314 0.64481 18.3657V18.4037C0.653711 18.4543 0.665519 18.5042 0.680176 18.5534V18.5806C0.680176 18.6241 0.707381 18.6704 0.723703 18.7139V18.7384C0.742747 18.7873 0.76179 18.8336 0.783553 18.8798L0.797155 18.9098C0.818919 18.9551 0.843403 19.0013 0.870608 19.0485C0.896398 19.0944 0.924547 19.1388 0.954941 19.1818C0.984485 19.2251 1.01627 19.2669 1.05016 19.3069L1.06376 19.326C1.1336 19.4107 1.21001 19.4899 1.29228 19.5627L1.42014 19.666C1.51273 19.735 1.61102 19.796 1.71395 19.8483C1.87275 19.9286 2.04088 19.9889 2.21451 20.0279C2.25627 20.0271 2.29774 20.0348 2.3364 20.0506C2.37507 20.0664 2.41011 20.0899 2.43938 20.1197C2.46866 20.1495 2.49156 20.1849 2.50668 20.2239C2.52181 20.2628 2.52885 20.3044 2.52736 20.3461V21.6411C2.52635 21.711 2.50154 21.7784 2.45703 21.8324C2.41252 21.8863 2.35097 21.9234 2.28252 21.9376H2.24987H2.22811L2.1465 21.9594L2.03768 21.9947L2.054 22.0383L2.02408 21.9975L1.98327 22.0328C1.93788 22.0496 1.89339 22.0686 1.84997 22.09L1.82276 22.1036C1.56923 22.2259 1.34249 22.3973 1.1557 22.6079C0.968904 22.8186 0.825768 23.0641 0.734585 23.3305C0.715542 23.3849 0.699219 23.442 0.685617 23.4964V23.5345V23.5536C0.674846 23.5938 0.666668 23.6347 0.661133 23.676V23.7304V23.7549C0.661133 23.793 0.661133 23.831 0.661133 23.8773C0.661133 23.9208 0.661133 23.9616 0.661133 24.0051V24.0405V24.1793V24.2092C0.661133 24.2609 0.661133 24.3126 0.682897 24.3642V24.4023C0.685129 24.4588 0.690579 24.5151 0.699219 24.571V24.5955C0.699219 24.6417 0.726424 24.688 0.745467 24.737V24.756C0.76451 24.805 0.783553 24.8512 0.808037 24.9029V24.9247C0.830748 24.975 0.856176 25.024 0.88421 25.0716C0.911414 25.1178 0.941339 25.1641 0.971264 25.2076C1.00082 25.2533 1.03355 25.297 1.0692 25.3382V25.3518C1.14172 25.4393 1.22084 25.5212 1.30588 25.5966L1.4419 25.7054C1.67909 25.8815 1.95067 26.0057 2.23899 26.07C2.391 26.1025 2.54602 26.119 2.70147 26.1189H2.72051C2.86321 26.1185 3.00546 26.103 3.1449 26.0727H3.16122H3.19115H3.20747L3.30269 26.0482L3.38158 26.0237L3.47135 25.9911L3.55025 25.9584L3.63458 25.9176L3.71075 25.8795L3.78965 25.8333L3.8631 25.787L3.93655 25.7381L4.00728 25.6837L4.07257 25.6293L4.14331 25.5667L4.19771 25.5123C4.2222 25.4905 4.24396 25.466 4.26845 25.4415L4.31741 25.3844C4.33918 25.3572 4.36094 25.3327 4.37998 25.3055L4.42351 25.2484L4.48336 25.1586L4.51873 25.1015C4.53777 25.0716 4.55409 25.0389 4.57314 25.0063L4.59218 24.9682V24.9491L4.70372 24.843L4.72548 24.7886L4.76629 24.6771C4.76629 24.6771 4.76629 24.6553 4.76629 24.6445V24.6227L4.80165 24.4948V24.4812C4.81588 24.4128 4.853 24.3512 4.90691 24.3067C4.96081 24.2622 5.02828 24.2374 5.09818 24.2364H6.39311C6.46315 24.2369 6.53088 24.2615 6.58488 24.3061C6.63889 24.3507 6.67589 24.4126 6.68964 24.4812C6.68882 24.493 6.68882 24.5048 6.68964 24.5166V24.5329L6.71413 24.6173C6.71413 24.6472 6.73317 24.6771 6.74133 24.707C6.74949 24.7369 6.76038 24.7614 6.77126 24.7859C6.78214 24.8104 6.79574 24.8458 6.80934 24.8757L6.84199 24.9491L6.89096 25.0416L6.92632 25.1042C6.94265 25.1314 6.95897 25.1586 6.97801 25.1858L7.02154 25.2511L7.08139 25.33L7.15212 25.3871L7.22013 25.466L7.2691 25.515L7.34799 25.5912L7.39696 25.632L7.48129 25.7L7.5357 25.7408L7.62548 25.8034L7.67989 25.836L7.77782 25.8931L7.82407 25.9149L7.92745 25.9639L7.98458 25.9856L8.09611 26.0264L8.15324 26.0428L8.27838 26.0754H8.30559C8.45304 26.1077 8.60352 26.1241 8.75446 26.1244H8.78439C8.92707 26.1236 9.06929 26.1081 9.20878 26.0781H9.2251H9.25502H9.27135L9.36656 26.0536L9.44546 26.0292L9.53523 25.9965L9.61684 25.9612L9.69846 25.9231L9.77191 25.885L9.85352 25.8387L9.92698 25.7925L9.99771 25.7435L10.0684 25.6891L10.1364 25.6347L10.2045 25.5748L10.2643 25.515L10.3296 25.447L10.3786 25.3899L10.4439 25.311L10.4847 25.2511C10.5061 25.2241 10.5261 25.196 10.5445 25.1668L10.5799 25.1069C10.5989 25.0743 10.618 25.0444 10.6343 25.0117L10.6588 24.9655L10.705 24.8621L10.7295 24.805C10.7295 24.7669 10.7567 24.7315 10.7703 24.6907L10.7866 24.6363C10.7866 24.5982 10.8084 24.5601 10.8193 24.5139V24.4976C10.833 24.4289 10.87 24.367 10.924 24.3224C10.9781 24.2778 11.0458 24.2532 11.1158 24.2527H12.4107C12.4808 24.2532 12.5485 24.2778 12.6025 24.3224C12.6565 24.367 12.6935 24.4289 12.7073 24.4976V24.5302V24.5492C12.7073 24.5764 12.7209 24.6064 12.729 24.6336C12.7372 24.6608 12.7481 24.6934 12.759 24.7233L12.7889 24.805C12.7986 24.8339 12.8104 24.8621 12.8243 24.8893C12.8243 24.9165 12.8487 24.941 12.8596 24.9655C12.8725 24.9944 12.887 25.0226 12.9031 25.0498L12.944 25.1205L12.9902 25.1967L13.031 25.2593L13.0909 25.3382L13.1371 25.3953C13.1589 25.4225 13.1834 25.447 13.2051 25.4715L13.2568 25.5232L13.3303 25.5966L13.3847 25.6429L13.469 25.7081L13.5207 25.749L13.6132 25.8115L13.6703 25.8442L13.7655 25.8986L13.8227 25.9285L13.926 25.9748L13.9832 25.9992L14.092 26.0373L14.1518 26.0564L14.2715 26.089H14.3015C14.4499 26.121 14.6012 26.1375 14.753 26.138H14.7721C14.9797 26.1372 15.1861 26.1051 15.3842 26.0428H15.4005C15.4514 26.0275 15.5013 26.0093 15.5501 25.9884H15.5719C15.6726 25.9471 15.77 25.898 15.863 25.8415H15.8848L16.0153 25.7517L16.0344 25.7354C16.0779 25.7027 16.1187 25.6701 16.1622 25.632C16.2058 25.5939 16.2384 25.5585 16.2765 25.5232L16.2955 25.5014C16.3282 25.466 16.3636 25.4279 16.3962 25.3871L16.4152 25.3627C16.4479 25.3218 16.4778 25.2783 16.5077 25.2348C16.5349 25.1913 16.5621 25.1505 16.5866 25.1069V25.0797C16.6111 25.0362 16.6356 24.99 16.6574 24.9437V24.9138C16.6791 24.8648 16.6982 24.8186 16.7172 24.7669V24.7506C16.7335 24.7043 16.7499 24.6581 16.7635 24.6091V24.5792C16.7775 24.5291 16.7884 24.4782 16.7961 24.4268V24.3942C16.7961 24.3398 16.8124 24.2881 16.8179 24.2337V24.2119C16.8179 24.1602 16.8179 24.1112 16.8179 24.0514V24.0296C16.9022 23.9317 16.8995 23.8882 16.8968 23.8446ZM14.8401 23.1346C15.0107 23.1346 15.1774 23.1852 15.3192 23.2799C15.461 23.3747 15.5716 23.5094 15.6368 23.667C15.7021 23.8245 15.7192 23.9979 15.6859 24.1652C15.6526 24.3325 15.5705 24.4862 15.4499 24.6068C15.3293 24.7274 15.1756 24.8095 15.0083 24.8428C14.8411 24.8761 14.6677 24.859 14.5101 24.7937C14.3525 24.7285 14.2178 24.6179 14.1231 24.4761C14.0283 24.3343 13.9777 24.1676 13.9777 23.997C13.9784 23.7685 14.0695 23.5496 14.2311 23.388C14.3927 23.2264 14.6116 23.1353 14.8401 23.1346ZM12.7753 23.3386L12.7617 23.3849V23.3985C12.7617 23.4393 12.7399 23.4774 12.729 23.5236C12.7294 23.53 12.7294 23.5363 12.729 23.5427C12.7154 23.6116 12.6785 23.6738 12.6245 23.7188C12.5706 23.7639 12.5028 23.7891 12.4325 23.7902H11.1267C11.0564 23.7891 10.9886 23.7639 10.9347 23.7188C10.8807 23.6738 10.8438 23.6116 10.8302 23.5427L10.8166 23.4828C10.8166 23.4556 10.8166 23.4257 10.7921 23.3985C10.7676 23.3713 10.7758 23.3386 10.7622 23.3006C10.7486 23.2625 10.7431 23.2516 10.7349 23.2298L10.6887 23.1482L10.6533 23.0748C10.6533 23.0448 10.6234 23.0176 10.6098 22.9904L10.569 22.9197C10.5527 22.8925 10.5364 22.8653 10.5173 22.8381L10.4738 22.7728L10.4167 22.6939L10.3677 22.6368C10.3465 22.6101 10.3238 22.5847 10.2997 22.5606L10.2507 22.5089L10.1745 22.4355L10.1446 22.3946L10.0603 22.3294L10.0059 22.2885C9.97701 22.267 9.94705 22.2471 9.91609 22.2287L9.86168 22.1933L9.76375 22.1389L9.70662 22.109L9.60052 22.0546L9.54339 22.0328L9.43185 21.992L9.37472 21.9757L9.24958 21.9431H9.23598C9.16703 21.9294 9.10486 21.8925 9.05981 21.8385C9.01476 21.7846 8.98957 21.7168 8.98842 21.6465V20.3489C8.98931 20.2786 9.01402 20.2108 9.0585 20.1564C9.10298 20.1021 9.16459 20.0644 9.23326 20.0496C9.24406 20.0515 9.25511 20.0515 9.26591 20.0496H9.28495C9.31619 20.0431 9.34706 20.0349 9.37745 20.0251L9.4645 19.9979L9.55427 19.9653L9.63589 19.9299L9.72022 19.8891L9.79911 19.8483L9.87801 19.8021L9.95418 19.7531L10.0195 19.7068L10.0385 19.6932L10.1011 19.6443L10.1528 19.6035L10.1773 19.579L10.2371 19.5273L10.2752 19.4865L10.3078 19.4538C10.3274 19.4352 10.3456 19.4152 10.3622 19.394L10.3867 19.3668V19.3505C10.4852 19.2335 10.5701 19.1057 10.6397 18.9696L10.6941 18.8472C10.6998 18.8377 10.7043 18.8277 10.7077 18.8173C10.7241 18.7792 10.7377 18.7384 10.7513 18.7003L10.7703 18.6459C10.7703 18.6078 10.7921 18.567 10.8002 18.5262V18.4935C10.814 18.4248 10.851 18.363 10.905 18.3184C10.959 18.2738 11.0267 18.2492 11.0968 18.2487H12.3917C12.4616 18.2497 12.5291 18.2745 12.583 18.319C12.6369 18.3635 12.674 18.4251 12.6882 18.4935V18.5452C12.6882 18.5751 12.7018 18.6051 12.71 18.6323L12.7399 18.7193C12.7399 18.7465 12.759 18.7737 12.7698 18.8009C12.78 18.8297 12.7918 18.8579 12.8052 18.8853C12.8163 18.9123 12.829 18.9387 12.8433 18.9642C12.8433 18.9914 12.8678 19.0186 12.8814 19.0458C12.895 19.073 12.9113 19.0947 12.9249 19.1192L12.9739 19.1981V19.2144C12.9841 19.2327 12.9959 19.25 13.0092 19.2661C13.0258 19.2917 13.044 19.3163 13.0637 19.3396L13.1153 19.4049L13.1806 19.4756L13.235 19.5327L13.3058 19.598L13.3629 19.6497L13.4418 19.7123L13.5016 19.7558L13.586 19.8129C13.6049 19.8272 13.6249 19.8399 13.6458 19.851L13.7383 19.9027L13.7982 19.9326L13.9532 19.9462L14.0104 19.968L14.1219 20.0088L14.179 20.0251L14.2987 20.0578H14.3178C14.3862 20.072 14.4478 20.1091 14.4923 20.163C14.5368 20.2169 14.5616 20.2844 14.5626 20.3543V21.6492C14.5616 21.7191 14.5368 21.7866 14.4923 21.8405C14.4478 21.8944 14.3862 21.9315 14.3178 21.9458L14.2661 21.9621L14.2035 21.9784H14.1518L14.0757 22.0029L14.0158 22.0247L13.9777 22.0383L13.8716 22.0872L13.8363 22.1036L13.8172 22.1226C13.7084 22.1778 13.6046 22.2424 13.5071 22.3158L13.4799 22.3375L13.3683 22.43L13.3466 22.4518L13.2486 22.547L13.2269 22.5742C13.197 22.6068 13.1697 22.6395 13.1425 22.6749L13.1099 22.7184C13.0854 22.7537 13.0582 22.7864 13.0364 22.8218L13.0174 22.8544V22.8707L12.9521 22.9795L12.9358 23.0176V23.0312L12.8814 23.1455L12.8596 23.1999C12.8025 23.2597 12.7889 23.3006 12.7753 23.3386ZM8.76262 18.8064C8.59206 18.8064 8.42533 18.7558 8.28351 18.661C8.14169 18.5663 8.03116 18.4316 7.96589 18.274C7.90062 18.1164 7.88354 17.943 7.91681 17.7757C7.95009 17.6085 8.03222 17.4548 8.15283 17.3342C8.27343 17.2136 8.4271 17.1315 8.59438 17.0982C8.76167 17.0649 8.93506 17.082 9.09264 17.1473C9.25022 17.2125 9.38491 17.3231 9.47967 17.4649C9.57443 17.6067 9.62501 17.7734 9.62501 17.944C9.62501 18.1727 9.53415 18.3921 9.37242 18.5538C9.21069 18.7155 8.99134 18.8064 8.76262 18.8064ZM8.76262 23.1346C8.93319 23.1346 9.09992 23.1852 9.24174 23.2799C9.38356 23.3747 9.49409 23.5094 9.55936 23.667C9.62463 23.8245 9.64171 23.9979 9.60844 24.1652C9.57516 24.3325 9.49303 24.4862 9.37242 24.6068C9.25181 24.7274 9.09815 24.8095 8.93087 24.8428C8.76358 24.8761 8.59018 24.859 8.4326 24.7937C8.27503 24.7285 8.14034 24.6179 8.04558 24.4761C7.95082 24.3343 7.90024 24.1676 7.90024 23.997C7.90096 23.7685 7.99205 23.5496 8.15362 23.388C8.31519 23.2264 8.53413 23.1353 8.76262 23.1346ZM13.9315 17.944C13.9315 17.7733 13.9821 17.6065 14.077 17.4646C14.1719 17.3227 14.3067 17.2122 14.4645 17.147C14.6222 17.0818 14.7957 17.0649 14.9631 17.0984C15.1305 17.1319 15.2841 17.2143 15.4046 17.3352C15.5251 17.456 15.607 17.61 15.64 17.7774C15.673 17.9449 15.6555 18.1184 15.5898 18.2759C15.5241 18.4334 15.4132 18.5679 15.271 18.6624C15.1288 18.7568 14.9618 18.8069 14.7911 18.8064C14.5629 18.8057 14.3442 18.7145 14.1831 18.5528C14.022 18.3912 13.9315 18.1722 13.9315 17.944ZM4.70372 18.7819C4.72276 18.7384 4.73636 18.6948 4.74996 18.654L4.76629 18.6078C4.76629 18.567 4.79077 18.5262 4.79893 18.4826V18.4636C4.79893 18.4636 4.79893 18.45 4.79893 18.4446C4.81315 18.3761 4.85028 18.3146 4.90419 18.27C4.95809 18.2255 5.02556 18.2007 5.09546 18.1997H6.39039C6.46029 18.2007 6.52776 18.2255 6.58167 18.27C6.63558 18.3146 6.6727 18.3761 6.68692 18.4446L6.70053 18.4962L6.72501 18.5833C6.72501 18.6132 6.74405 18.6404 6.75221 18.6704C6.76038 18.7003 6.77126 18.7248 6.78214 18.7547L6.8175 18.8363C6.82855 18.8634 6.84127 18.8897 6.85559 18.9152L6.8964 18.9968C6.91 19.0213 6.9236 19.0458 6.93992 19.0703C6.95426 19.0977 6.97063 19.1241 6.98889 19.1492L7.03514 19.2172L7.09227 19.2933L7.14396 19.3559L7.20653 19.4266C7.22557 19.4457 7.24189 19.4647 7.26094 19.481L7.33167 19.5491L7.37792 19.5899L7.45681 19.6524L7.51666 19.696L7.60099 19.7531C7.6197 19.7669 7.63975 19.7787 7.66084 19.7885C7.6916 19.8091 7.72338 19.8282 7.75606 19.8456L7.81319 19.8728L7.91656 19.9218L7.97369 19.9435L8.08523 19.9843L8.14236 20.0007L8.2675 20.0333C8.33645 20.047 8.39863 20.0839 8.44368 20.1378C8.48872 20.1918 8.51392 20.2595 8.51506 20.3298V21.6248C8.51405 21.6947 8.48924 21.7621 8.44473 21.816C8.40022 21.8699 8.33867 21.9071 8.27022 21.9213H8.23758H8.22126L8.12604 21.9458L8.04715 21.973L7.96009 22.0029C7.932 22.0125 7.90471 22.0244 7.87848 22.0383L7.79687 22.0764C7.76975 22.0883 7.7434 22.1019 7.71797 22.1172L7.6418 22.158L7.56563 22.2097C7.54192 22.2235 7.5192 22.2389 7.49762 22.2559L7.42144 22.313L7.35887 22.362L7.28542 22.43C7.26685 22.4458 7.24957 22.4631 7.23373 22.4817C7.20814 22.5042 7.18448 22.5287 7.163 22.5552L7.11675 22.6068C7.09261 22.6337 7.06991 22.6619 7.04874 22.6912L7.00794 22.7456L6.94537 22.8354C6.93549 22.8541 6.92459 22.8722 6.91272 22.8898C6.89368 22.9224 6.87463 22.9551 6.85831 22.9877L6.82839 23.0448L6.78214 23.1482L6.75765 23.2053C6.74405 23.2434 6.73045 23.2788 6.71685 23.3196L6.70053 23.374C6.68964 23.4121 6.67876 23.4529 6.66788 23.4964V23.5127C6.65468 23.5819 6.61792 23.6444 6.56386 23.6895C6.5098 23.7347 6.44177 23.7597 6.37135 23.7603H5.10634C5.03559 23.7598 4.96719 23.7349 4.91267 23.6898C4.85816 23.6447 4.82087 23.5821 4.80709 23.5127V23.4828V23.4638C4.80055 23.4325 4.79238 23.4017 4.78261 23.3713C4.77558 23.3426 4.76649 23.3144 4.75541 23.287L4.70372 23.2244L4.66835 23.1428C4.65644 23.1139 4.64281 23.0857 4.62754 23.0584L4.58674 22.9795L4.54321 22.9061V22.8925C4.52961 22.868 4.51329 22.8462 4.49968 22.8245C4.48946 22.8071 4.47762 22.7907 4.46432 22.7755L4.43167 22.7211C4.42143 22.7046 4.40958 22.6891 4.39631 22.6749L4.35822 22.6259L4.32557 22.5932C4.31071 22.5738 4.29433 22.5557 4.27661 22.5388C4.26622 22.5257 4.25435 22.5139 4.24124 22.5035L4.20043 22.4627L4.14603 22.4137L4.1025 22.3946C3.98328 22.2899 3.85281 22.1986 3.71347 22.1226L3.59105 22.0682H3.57201H3.54753L3.43055 22.0247H3.40062H3.37614L3.25916 21.9947H3.24284H3.21291C3.14424 21.981 3.0824 21.944 3.0378 21.89C2.99321 21.836 2.96858 21.7682 2.96807 21.6982V20.3489C2.96847 20.2785 2.99299 20.2104 3.03755 20.1559C3.08212 20.1015 3.14401 20.0639 3.21291 20.0496C3.22283 20.0512 3.23292 20.0512 3.24284 20.0496H3.26188L3.3571 20.0224L3.44143 19.9952L3.53393 19.9598L3.61282 19.9272L3.69987 19.8864L3.77604 19.8456L3.8631 19.7939L3.93111 19.7531L3.99368 19.7068L4.01544 19.6905C4.03747 19.6757 4.05838 19.6594 4.07801 19.6416L4.11882 19.6089L4.16507 19.5681L4.21676 19.5219L4.27933 19.4566C4.30155 19.4361 4.32245 19.4143 4.3419 19.3913L4.37182 19.3559C4.50764 19.1922 4.61772 19.0087 4.69828 18.8118L4.70372 18.7819ZM2.7586 18.8064C2.58781 18.8075 2.42054 18.7578 2.27801 18.6637C2.13548 18.5696 2.0241 18.4353 1.95799 18.2778C1.89189 18.1203 1.87403 17.9468 1.90669 17.7791C1.93935 17.6115 2.02105 17.4573 2.14143 17.3361C2.26182 17.215 2.41547 17.1323 2.5829 17.0986C2.75034 17.0649 2.92401 17.0816 3.08191 17.1467C3.2398 17.2119 3.37481 17.3224 3.46981 17.4643C3.56482 17.6063 3.61554 17.7732 3.61554 17.944C3.61483 18.172 3.52411 18.3905 3.36313 18.552C3.20214 18.7135 2.9839 18.8049 2.75588 18.8064H2.7586ZM3.61554 23.997C3.61554 24.1676 3.56496 24.3343 3.4702 24.4761C3.37544 24.6179 3.24076 24.7285 3.08318 24.7937C2.9256 24.859 2.7522 24.8761 2.58491 24.8428C2.41763 24.8095 2.26397 24.7274 2.14336 24.6068C2.02275 24.4862 1.94062 24.3325 1.90735 24.1652C1.87407 23.9979 1.89115 23.8245 1.95642 23.667C2.02169 23.5094 2.13223 23.3747 2.27404 23.2799C2.41586 23.1852 2.58259 23.1346 2.75316 23.1346C2.98187 23.1346 3.20122 23.2255 3.36295 23.3872C3.52468 23.5489 3.61554 23.7683 3.61554 23.997Z" fill="#131313"/>
<path d="M23.0071 16.6817L22.5093 17.1496C22.2504 16.9 21.9031 16.7631 21.5435 16.7688C21.3803 16.7675 21.2186 16.7995 21.0683 16.8628C20.9179 16.9262 20.782 17.0195 20.669 17.1372C20.5559 17.2548 20.468 17.3943 20.4107 17.547C20.3534 17.6998 20.3278 17.8626 20.3356 18.0256C20.3271 18.1889 20.3521 18.3522 20.4091 18.5055C20.4661 18.6588 20.5539 18.7987 20.667 18.9168C20.7802 19.0348 20.9164 19.1284 21.0671 19.1917C21.2179 19.2551 21.38 19.2869 21.5435 19.2852C21.7219 19.2889 21.8993 19.2568 22.0651 19.191C22.231 19.1251 22.382 19.0267 22.5093 18.9016L23.0071 19.3614C22.7851 19.6038 22.5062 19.787 22.1956 19.8946C21.8849 20.0021 21.5524 20.0305 21.2281 19.9772C20.9037 19.924 20.5977 19.7907 20.3378 19.5895C20.0779 19.3882 19.8722 19.1254 19.7394 18.8247C19.6066 18.5241 19.5508 18.195 19.5771 17.8674C19.6034 17.5397 19.711 17.2238 19.8901 16.9481C20.0692 16.6725 20.3141 16.4458 20.6028 16.2886C20.8915 16.1315 21.2148 16.0487 21.5435 16.0479C21.818 16.0469 22.0897 16.1028 22.3415 16.2119C22.5934 16.3209 22.82 16.4809 23.0071 16.6817Z" fill="#131313"/>
<path d="M21.5433 20.0605C21.0021 20.0605 20.4832 19.8455 20.1005 19.4629C19.7179 19.0803 19.5029 18.5613 19.5029 18.0202C19.5029 17.479 19.7179 16.9601 20.1005 16.5774C20.4832 16.1948 21.0021 15.9798 21.5433 15.9798C21.8259 15.9812 22.1053 16.0405 22.3641 16.1543C22.6228 16.268 22.8555 16.4336 23.0477 16.6409L23.0885 16.6817L22.509 17.2258L22.4709 17.1877C22.2216 16.9491 21.8884 16.8181 21.5433 16.8232C21.3872 16.8214 21.2325 16.8518 21.0887 16.9123C20.9449 16.9728 20.815 17.0621 20.7071 17.1749C20.5993 17.2876 20.5157 17.4212 20.4616 17.5676C20.4074 17.7139 20.3839 17.8698 20.3925 18.0256C20.3839 18.1814 20.4074 18.3373 20.4616 18.4836C20.5157 18.63 20.5993 18.7636 20.7071 18.8764C20.815 18.9891 20.9449 19.0785 21.0887 19.139C21.2325 19.1994 21.3872 19.2298 21.5433 19.228C21.7144 19.2317 21.8845 19.2008 22.0434 19.1373C22.2024 19.0737 22.3468 18.9787 22.4682 18.8581L22.5063 18.82L23.0885 19.3641L23.0477 19.4049C22.8554 19.6117 22.6226 19.7767 22.3638 19.8895C22.1049 20.0023 21.8256 20.0605 21.5433 20.0605ZM21.5433 16.1022C21.046 16.121 20.5754 16.3316 20.2302 16.69C19.8851 17.0484 19.6922 17.5267 19.6922 18.0242C19.6922 18.5218 19.8851 19 20.2302 19.3584C20.5754 19.7168 21.046 19.9275 21.5433 19.9462C21.8016 19.9459 22.0572 19.8943 22.2954 19.7943C22.5335 19.6944 22.7495 19.5481 22.9307 19.3641L22.5117 18.9805C22.2479 19.2197 21.9021 19.3483 21.546 19.3396C21.375 19.3421 21.2053 19.3094 21.0475 19.2436C20.8896 19.1778 20.747 19.0803 20.6284 18.9571C20.5098 18.8339 20.4178 18.6876 20.358 18.5274C20.2982 18.3672 20.272 18.1964 20.281 18.0256C20.274 17.8555 20.3015 17.6858 20.3618 17.5267C20.4221 17.3675 20.514 17.2222 20.6319 17.0994C20.7498 16.9767 20.8913 16.8791 21.048 16.8124C21.2046 16.7458 21.3731 16.7115 21.5433 16.7116C21.8991 16.7075 22.2435 16.8365 22.509 17.0734L22.9307 16.6817C22.7489 16.4986 22.5328 16.3532 22.2947 16.2538C22.0566 16.1543 21.8013 16.1028 21.5433 16.1022Z" fill="#131313"/>
<path d="M25.004 16.0859C26.0922 16.0859 26.6907 16.7279 26.6907 17.5495C26.699 17.8154 26.6223 18.0771 26.4716 18.2963C26.3208 18.5155 26.104 18.6809 25.8528 18.7683C26.0907 18.953 26.2872 19.1856 26.4295 19.4511L26.7614 19.968H25.9017L25.6515 19.579C25.3522 19.1192 25.257 19.0349 24.8734 19.0185H24.449V19.968H23.6846V16.0859H25.004ZM24.4599 18.2976H25.0883C25.5862 18.2976 25.9752 18.0718 25.9752 17.5495C25.9752 17.0272 25.5862 16.8068 25.0883 16.8068H24.449L24.4599 18.2976Z" fill="#131313"/>
<path d="M26.8645 20.0224H25.8715L25.5995 19.6089C25.3111 19.1655 25.2322 19.0866 24.8704 19.0648H24.5059V20.0115H23.6299V16.0288H25.0037C26.0456 16.0288 26.7393 16.6409 26.7393 17.5495C26.7476 17.8091 26.6779 18.0653 26.5392 18.2849C26.4005 18.5046 26.1992 18.6777 25.9613 18.7819C26.1617 18.9678 26.3324 19.1834 26.4673 19.4212L26.8645 20.0224ZM25.9232 19.9109H26.6577L26.3857 19.481C26.2467 19.2234 26.0559 18.9974 25.8253 18.8172L25.7301 18.7574L25.8362 18.7166C26.076 18.6319 26.2827 18.4733 26.4264 18.2635C26.5702 18.0537 26.6436 17.8037 26.636 17.5495C26.636 16.6953 25.9967 16.143 25.0037 16.143H23.7469V19.9109H24.3998V18.9614H24.8813C25.2921 18.9614 25.4036 19.0838 25.6974 19.549L25.9232 19.9109ZM25.0772 18.3548H24.3943V16.7497H25.0772C25.6485 16.7497 26.0184 17.0653 26.0184 17.5495C26.0184 18.0337 25.6675 18.3548 25.0772 18.3548ZM24.5059 18.2405H25.0772C25.3274 18.2405 25.8933 18.1752 25.8933 17.5495C25.8933 17.0435 25.4635 16.864 25.0772 16.864H24.5059V18.2405Z" fill="#131313"/>
<path d="M28.2137 19.968V18.6703L26.8345 16.0859H27.705L28.6028 17.7182L29.4951 16.0859H30.3656L28.9809 18.6703V19.968H28.2137Z" fill="#131313"/>
<path d="M29.0353 20.0224H28.1593V18.6839L26.7393 16.0288H27.7377L28.6028 17.6094L29.4597 16.0288H30.4581L29.0326 18.6839L29.0353 20.0224ZM28.2709 19.9109H28.9156V18.6431L30.2758 16.1376H29.5304L28.6055 17.8379L27.6724 16.1376H26.927L28.2709 18.6649V19.9109Z" fill="#131313"/>
<path d="M32.1339 16.0859C33.222 16.0859 33.8641 16.7279 33.8641 17.5767C33.8641 18.4255 33.222 19.073 32.1339 19.073H31.636V19.968H30.8716V16.0859H32.1339ZM32.1964 18.3548C32.6888 18.3548 33.1377 18.1262 33.1377 17.5767C33.1377 17.0272 32.6888 16.8068 32.1964 16.8068H31.636V18.3548H32.1964Z" fill="#131313"/>
<path d="M31.6824 20.0224H30.8037V16.0288H32.134C33.2031 16.0288 33.9213 16.6518 33.9213 17.5767C33.9213 18.5017 33.2031 19.1301 32.134 19.1301H31.6824V20.0224ZM30.9152 19.9109H31.5682V19.0186H32.134C33.1515 19.0186 33.8098 18.4527 33.8098 17.5767C33.8098 16.7007 33.1351 16.1376 32.134 16.1376H30.9152V19.9109ZM32.1966 18.4092H31.5682V16.7497H32.1966C32.6944 16.7497 33.195 17.0054 33.195 17.5658C33.195 18.1915 32.6781 18.4092 32.1966 18.4092ZM31.6824 18.2976H32.1966C32.4033 18.2976 33.0834 18.2459 33.0834 17.5767C33.0834 17.0489 32.6046 16.864 32.1966 16.864H31.6824V18.2976Z" fill="#131313"/>
<path d="M36.0108 19.968H35.2463V16.8068H34.1826V16.0859H37.0772V16.8068H36.0108V19.968Z" fill="#131313"/>
<path d="M36.0679 20.0224H35.1892V16.864H34.1255V16.0288H37.118V16.864H36.0543L36.0679 20.0224ZM35.3034 19.9109H35.9563V16.7497H37.02V16.1376H34.237V16.7497H35.3034V19.9109Z" fill="#131313"/>
<path d="M41.3452 18.0256C41.3452 18.4167 41.2293 18.7989 41.0121 19.1241C40.7949 19.4493 40.4861 19.7028 40.1249 19.8526C39.7637 20.0023 39.3661 20.0417 38.9826 19.9656C38.599 19.8895 38.2466 19.7014 37.9699 19.4251C37.6932 19.1487 37.5046 18.7966 37.428 18.4131C37.3514 18.0297 37.3901 17.6321 37.5394 17.2706C37.6887 16.9092 37.9418 16.6001 38.2667 16.3825C38.5915 16.1648 38.9736 16.0484 39.3647 16.0479C39.6247 16.0475 39.8821 16.0984 40.1224 16.1976C40.3627 16.2969 40.581 16.4425 40.7649 16.6262C40.9489 16.8099 41.0948 17.028 41.1944 17.2681C41.2939 17.5083 41.3452 17.7657 41.3452 18.0256ZM38.165 18.0256C38.165 18.1846 38.1963 18.342 38.2571 18.4889C38.318 18.6358 38.4071 18.7692 38.5196 18.8816C38.632 18.9941 38.7654 19.0832 38.9123 19.1441C39.0592 19.2049 39.2166 19.2362 39.3756 19.2362C39.5346 19.2362 39.692 19.2049 39.8389 19.1441C39.9857 19.0832 40.1192 18.9941 40.2316 18.8816C40.344 18.7692 40.4332 18.6358 40.494 18.4889C40.5549 18.342 40.5862 18.1846 40.5862 18.0256C40.5862 17.8666 40.5549 17.7092 40.494 17.5623C40.4332 17.4155 40.344 17.282 40.2316 17.1696C40.1192 17.0572 39.9857 16.968 39.8389 16.9072C39.692 16.8463 39.5346 16.815 39.3756 16.815C39.2166 16.815 39.0592 16.8463 38.9123 16.9072C38.7654 16.968 38.632 17.0572 38.5196 17.1696C38.4071 17.282 38.318 17.4155 38.2571 17.5623C38.1963 17.7092 38.165 17.8666 38.165 18.0256Z" fill="#131313"/>
<path d="M39.365 20.0605C38.9625 20.0605 38.5691 19.9412 38.2344 19.7176C37.8998 19.494 37.639 19.1762 37.485 18.8043C37.331 18.4325 37.2907 18.0234 37.3692 17.6286C37.4477 17.2339 37.6415 16.8713 37.9261 16.5867C38.2107 16.3021 38.5733 16.1083 38.968 16.0298C39.3627 15.9513 39.7719 15.9916 40.1437 16.1456C40.5155 16.2996 40.8333 16.5605 41.0569 16.8951C41.2805 17.2297 41.3999 17.6232 41.3999 18.0256C41.3999 18.5653 41.1855 19.0829 40.8039 19.4645C40.4222 19.8461 39.9047 20.0605 39.365 20.0605ZM39.365 16.1023C38.9846 16.1023 38.6127 16.2151 38.2964 16.4264C37.9801 16.6377 37.7336 16.9381 37.588 17.2896C37.4425 17.641 37.4044 18.0277 37.4786 18.4008C37.5528 18.7739 37.736 19.1166 38.005 19.3856C38.2739 19.6546 38.6167 19.8378 38.9897 19.912C39.3628 19.9862 39.7496 19.9481 40.101 19.8026C40.4525 19.657 40.7528 19.4105 40.9642 19.0942C41.1755 18.7779 41.2883 18.406 41.2883 18.0256C41.2883 17.5155 41.0857 17.0263 40.725 16.6656C40.3643 16.3049 39.8751 16.1023 39.365 16.1023ZM39.365 19.3396C39.194 19.3421 39.0243 19.3094 38.8665 19.2436C38.7086 19.1778 38.566 19.0803 38.4474 18.9571C38.3288 18.8339 38.2367 18.6876 38.177 18.5274C38.1172 18.3672 38.091 18.1964 38.1 18.0256C38.093 17.8553 38.1206 17.6854 38.181 17.526C38.2415 17.3667 38.3336 17.2212 38.4518 17.0985C38.57 16.9757 38.7119 16.8781 38.8688 16.8116C39.0258 16.7451 39.1945 16.7111 39.365 16.7116C39.5364 16.7084 39.7067 16.7405 39.8652 16.806C40.0237 16.8715 40.167 16.9689 40.2862 17.0921C40.4053 17.2154 40.4979 17.3619 40.558 17.5225C40.618 17.6831 40.6444 17.8544 40.6354 18.0256C40.6444 18.1969 40.618 18.3681 40.558 18.5287C40.4979 18.6893 40.4053 18.8358 40.2862 18.9591C40.167 19.0824 40.0237 19.1798 39.8652 19.2452C39.7067 19.3107 39.5364 19.3428 39.365 19.3396ZM39.365 16.8232C39.209 16.8215 39.0542 16.8518 38.9104 16.9123C38.7666 16.9728 38.6367 17.0621 38.5289 17.1749C38.421 17.2876 38.3374 17.4213 38.2833 17.5676C38.2292 17.7139 38.2056 17.8698 38.2142 18.0256C38.2066 18.182 38.2309 18.3383 38.2855 18.485C38.3401 18.6317 38.4239 18.7658 38.5319 18.8792C38.6399 18.9925 38.7698 19.0828 38.9137 19.1444C39.0576 19.2061 39.2125 19.2379 39.3691 19.2379C39.5256 19.2379 39.6805 19.2061 39.8244 19.1444C39.9683 19.0828 40.0982 18.9925 40.2062 18.8792C40.3142 18.7658 40.398 18.6317 40.4526 18.485C40.5072 18.3383 40.5315 18.182 40.5239 18.0256C40.5321 17.8692 40.5081 17.7128 40.4533 17.5661C40.3986 17.4194 40.3142 17.2855 40.2056 17.1727C40.0969 17.06 39.9662 16.9707 39.8216 16.9106C39.677 16.8505 39.5216 16.8207 39.365 16.8232Z" fill="#131313"/>
<path d="M19.832 25.5667V21.6846H20.5965V24.843H22.343V25.564L19.832 25.5667Z" fill="#131313"/>
<path d="M22.3865 25.6238H19.7749V21.6302H20.6536V24.7887H22.3865V25.6238ZM19.8756 25.5096H22.275V24.9029H20.5393V21.7418H19.8864L19.8756 25.5096Z" fill="#131313"/>
<path d="M24.6609 24.843V25.564H22.9634V24.843H23.4286V22.3946H22.9634V21.6846H24.6609V22.3946H24.1957V24.843H24.6609Z" fill="#131313"/>
<path d="M24.7183 25.6238H22.9092V24.7887H23.3744V22.4627H22.9092V21.6302H24.7183V22.4627H24.2504V24.7887H24.7183V25.6238ZM23.0207 25.5096H24.604V24.9029H24.1388V22.3511H24.604V21.7418H23.0207V22.3511H23.475V24.9029H23.0207V25.5096Z" fill="#131313"/>
<path d="M28.1755 25.5667L26.3419 23.1183V25.5667H25.5747V21.6846H26.0236L27.8653 24.133V21.6846H28.6434V25.5667H28.1755Z" fill="#131313"/>
<path d="M28.6871 25.6238H28.143L26.3911 23.2897V25.6238H25.5205V21.6302H26.0646L27.8193 23.9644V21.6302H28.698L28.6871 25.6238ZM28.2029 25.5096H28.5756V21.7418H27.9227V24.299L25.9966 21.7418H25.632V25.5096H26.285V22.9524L28.2029 25.5096Z" fill="#131313"/>
<path d="M31.9845 23.2543V23.9752H30.306V24.843H32.1232V25.564H29.5415V21.6846H32.1232V22.3946H30.306V23.2434L31.9845 23.2543Z" fill="#131313"/>
<path d="M32.1803 25.6238H29.4844V21.6302H32.1803V22.4627H30.3631V23.2108H32.0416V24.0269H30.3631V24.7887H32.1803V25.6238ZM29.5959 25.5096H32.0688V24.9029H30.2488V23.9208H31.9301V23.3115H30.2488V22.3511H32.0688V21.7418H29.5959V25.5096Z" fill="#131313"/>
</svg>
