<svg xmlns="http://www.w3.org/2000/svg" viewBox="0 0 42 12" width="42" height="12">
	<style>
		tspan { white-space:pre }
		.shp0 { fill: #131313 } 
	</style>
	<path id="Layer" fill-rule="evenodd" class="shp0" d="M16.82 9.03C16.82 9.09 16.82 9.18 16.82 9.23C16.81 9.29 16.8 9.34 16.8 9.39L16.8 9.43C16.79 9.48 16.78 9.53 16.76 9.58L16.76 9.61C16.75 9.66 16.73 9.7 16.72 9.75L16.72 9.77C16.7 9.82 16.68 9.86 16.66 9.91L16.66 9.94C16.64 9.99 16.61 10.04 16.59 10.08L16.59 10.11C16.56 10.15 16.53 10.19 16.51 10.23C16.48 10.28 16.45 10.32 16.42 10.36L16.4 10.39C16.36 10.43 16.33 10.47 16.3 10.5L16.28 10.52C16.24 10.56 16.21 10.59 16.16 10.63C16.12 10.67 16.08 10.7 16.03 10.74L16.02 10.75L15.88 10.84L15.86 10.84C15.77 10.9 15.67 10.95 15.57 10.99L15.55 10.99C15.5 11.01 15.45 11.03 15.4 11.04L15.38 11.04C15.19 11.11 14.98 11.14 14.77 11.14L14.75 11.14C14.6 11.14 14.45 11.12 14.3 11.09L14.27 11.09L14.15 11.06L14.09 11.04L13.98 11L13.93 10.97L13.82 10.93L13.77 10.9L13.67 10.84L13.61 10.81L13.52 10.75L13.47 10.71L13.38 10.64L13.33 10.6L13.26 10.52L13.21 10.47C13.18 10.45 13.16 10.42 13.14 10.4L13.09 10.34L13.03 10.26L12.99 10.2L12.94 10.12L12.9 10.05C12.89 10.02 12.87 9.99 12.86 9.97C12.85 9.94 12.82 9.92 12.82 9.89C12.81 9.86 12.8 9.83 12.79 9.8L12.76 9.72C12.75 9.69 12.74 9.66 12.73 9.63C12.72 9.61 12.71 9.58 12.71 9.55L12.71 9.5C12.69 9.43 12.66 9.37 12.6 9.32C12.55 9.28 12.48 9.25 12.41 9.25L11.12 9.25C11.05 9.25 10.98 9.28 10.92 9.32C10.87 9.37 10.83 9.43 10.82 9.5L10.82 9.51C10.81 9.56 10.79 9.6 10.79 9.64L10.77 9.69C10.76 9.73 10.73 9.77 10.73 9.8L10.71 9.86L10.66 9.97L10.63 10.01C10.62 10.04 10.6 10.07 10.58 10.11L10.54 10.17C10.53 10.2 10.51 10.22 10.48 10.25L10.44 10.31L10.38 10.39L10.33 10.45L10.26 10.52L10.2 10.57L10.14 10.63L10.07 10.69L10 10.74L9.93 10.79L9.85 10.84L9.77 10.89L9.7 10.92L9.62 10.96L9.54 11L9.45 11.03L9.37 11.05L9.27 11.08L9.21 11.08C9.07 11.11 8.93 11.12 8.78 11.12L8.75 11.12C8.6 11.12 8.45 11.11 8.31 11.08L8.28 11.08L8.15 11.04L8.1 11.03L7.98 10.99L7.93 10.96L7.82 10.91L7.78 10.89L7.68 10.84L7.63 10.8L7.54 10.74L7.48 10.7L7.4 10.63L7.35 10.59L7.27 10.52L7.22 10.47L7.15 10.39L7.08 10.33L7.02 10.25L6.98 10.19C6.96 10.16 6.94 10.13 6.93 10.1L6.89 10.04L6.84 9.95L6.81 9.88C6.8 9.85 6.78 9.81 6.77 9.79C6.76 9.76 6.75 9.74 6.74 9.71C6.73 9.68 6.71 9.65 6.71 9.62L6.69 9.53L6.69 9.52C6.69 9.5 6.69 9.49 6.69 9.48C6.68 9.41 6.64 9.35 6.58 9.31C6.53 9.26 6.46 9.24 6.39 9.24L5.1 9.24C5.03 9.24 4.96 9.26 4.91 9.31C4.85 9.35 4.82 9.41 4.8 9.48L4.8 9.49L4.77 9.62C4.77 9.63 4.77 9.68 4.77 9.68L4.73 9.79L4.7 9.84L4.59 9.95L4.59 9.97L4.57 10.01C4.55 10.04 4.54 10.07 4.52 10.1L4.48 10.16L4.42 10.25L4.38 10.31C4.36 10.33 4.34 10.36 4.32 10.38L4.27 10.44C4.24 10.47 4.22 10.49 4.2 10.51L4.14 10.57L4.07 10.63L4.01 10.68L3.94 10.74L3.86 10.79L3.79 10.83L3.71 10.88L3.63 10.92L3.55 10.96L3.47 10.99L3.38 11.02L3.3 11.05L3.21 11.07L3.14 11.07C3.01 11.1 2.86 11.12 2.72 11.12L2.7 11.12C2.55 11.12 2.39 11.1 2.24 11.07C1.95 11.01 1.68 10.88 1.44 10.71L1.31 10.6C1.22 10.52 1.14 10.44 1.07 10.35L1.07 10.34C1.03 10.3 1 10.25 0.97 10.21C0.94 10.16 0.91 10.12 0.88 10.07C0.86 10.02 0.83 9.98 0.81 9.92L0.81 9.9C0.78 9.85 0.76 9.8 0.75 9.76L0.75 9.74C0.73 9.69 0.7 9.64 0.7 9.6L0.7 9.57C0.69 9.52 0.69 9.46 0.68 9.4L0.68 9.36C0.66 9.31 0.66 9.26 0.66 9.21C0.66 9.17 0.66 8.92 0.66 8.88C0.66 8.83 0.66 8.71 0.66 8.68C0.67 8.63 0.67 8.59 0.69 8.55L0.69 8.5C0.7 8.44 0.72 8.38 0.73 8.33C0.83 8.06 0.97 7.82 1.16 7.61C1.34 7.4 1.57 7.23 1.82 7.1L1.85 7.09C1.89 7.07 1.94 7.05 1.98 7.03L2.02 7L2.05 7.04L2.04 6.99L2.15 6.96L2.23 6.94L2.28 6.94C2.35 6.92 2.41 6.89 2.46 6.83C2.5 6.78 2.53 6.71 2.53 6.64L2.53 5.35C2.53 5.3 2.52 5.26 2.51 5.22C2.49 5.18 2.47 5.15 2.44 5.12C2.41 5.09 2.38 5.07 2.34 5.05C2.3 5.03 2.26 5.03 2.21 5.03C2.04 4.99 1.87 4.93 1.71 4.85C1.61 4.8 1.51 4.73 1.42 4.67L1.29 4.56C1.21 4.49 1.13 4.41 1.06 4.33L1.05 4.31C1.02 4.27 0.98 4.23 0.95 4.18C0.92 4.14 0.9 4.09 0.87 4.05C0.84 4 0.82 3.96 0.8 3.91L0.78 3.88C0.76 3.83 0.74 3.79 0.72 3.74L0.72 3.71C0.71 3.67 0.68 3.62 0.68 3.58L0.68 3.55C0.67 3.5 0.65 3.45 0.64 3.4L0.64 3.37C0.62 3.31 0.62 3.27 0.62 3.21C0.62 3.19 0.62 2.88 0.62 2.86C0.63 2.74 0.65 2.62 0.68 2.5C0.77 2.13 0.95 1.79 1.22 1.52C1.48 1.24 1.81 1.04 2.17 0.94L2.35 0.9L2.38 0.9L2.55 0.87L2.91 0.87L3 0.88L3.1 0.9L3.2 0.92L3.28 0.94L3.39 0.97L3.45 1.01C3.49 1.03 3.54 1.04 3.58 1.06L3.61 1.06C3.66 1.09 3.71 1.11 3.76 1.14C4.09 1.32 4.36 1.59 4.55 1.92C4.58 1.97 4.61 2.01 4.63 2.06L4.65 2.1C4.67 2.14 4.69 2.18 4.7 2.23L4.75 2.26C4.76 2.3 4.78 2.35 4.79 2.38C4.79 2.4 4.81 2.43 4.81 2.46L4.81 2.51C4.82 2.58 4.86 2.64 4.91 2.69C4.97 2.73 5.04 2.76 5.11 2.76L6.41 2.76C6.48 2.76 6.54 2.73 6.6 2.69C6.65 2.64 6.69 2.58 6.7 2.51C6.77 2.23 6.89 1.95 7.07 1.72C7.11 1.67 7.14 1.62 7.18 1.58C7.25 1.49 7.34 1.41 7.42 1.34L7.56 1.22L7.7 1.14L7.86 1.04L7.89 1.04C7.94 1.01 7.98 0.99 8.03 0.97L8.05 0.97C8.1 0.96 8.15 0.94 8.2 0.93C8.25 0.91 8.31 0.89 8.36 0.89L8.39 0.89L8.55 0.87L8.57 0.87L8.73 0.89L9.09 0.89L9.2 0.93L9.27 0.93L9.48 0.97L9.49 0.97C10.03 1.15 10.47 1.54 10.71 2.05L10.71 2.08C10.73 2.13 10.75 2.17 10.77 2.21C10.77 2.23 10.77 2.24 10.77 2.26C10.79 2.3 10.79 2.34 10.81 2.37C10.83 2.4 10.83 2.42 10.83 2.45L10.83 2.47C10.83 2.48 10.83 2.49 10.83 2.51C10.84 2.57 10.88 2.64 10.94 2.68C10.99 2.73 11.06 2.75 11.13 2.75L12.45 2.75C12.52 2.75 12.59 2.73 12.64 2.68C12.7 2.64 12.73 2.57 12.75 2.51C12.79 2.32 12.85 2.15 12.94 1.98C12.97 1.93 13 1.87 13.04 1.82C13.14 1.67 13.25 1.52 13.39 1.4C13.43 1.36 13.48 1.33 13.52 1.29C13.58 1.25 13.62 1.22 13.67 1.19C13.72 1.15 13.77 1.13 13.83 1.1C13.88 1.07 13.94 1.04 13.99 1.02L14.01 1.02L14.17 0.97L14.19 0.97L14.36 0.92C14.43 0.91 14.49 0.9 14.55 0.9L14.72 0.88L15.04 0.88L15.11 0.89L15.21 0.93L15.3 0.93L15.41 0.98L15.48 0.98C15.52 1 15.56 1.02 15.6 1.04L15.62 1.04L15.65 1.05L15.77 1.12L15.79 1.12C15.8 1.12 15.81 1.13 15.82 1.14C15.86 1.16 15.9 1.18 15.94 1.21L15.99 1.24C16.02 1.26 16.06 1.28 16.09 1.31L16.14 1.35C16.17 1.37 16.2 1.4 16.23 1.43L16.27 1.47L16.35 1.55L16.37 1.57L16.4 1.61L16.45 1.68L16.49 1.72L16.52 1.76L16.56 1.82L16.58 1.86C16.59 1.87 16.61 1.89 16.62 1.91C16.63 1.93 16.64 1.95 16.65 1.97L16.67 2.01L16.67 2.08L16.69 2.14L16.71 2.18C16.72 2.21 16.72 2.23 16.74 2.25C16.76 2.27 16.76 2.29 16.76 2.32L16.77 2.36C16.8 2.38 16.8 2.41 16.8 2.43C16.8 2.45 16.8 2.46 16.8 2.48L16.81 2.54C16.81 2.57 16.81 2.59 16.81 2.62C16.81 2.64 16.81 2.66 16.81 2.69L16.81 2.75C16.81 2.76 16.81 2.78 16.81 2.8C16.81 2.85 16.81 2.96 16.81 3.01C16.82 3.07 16.82 3.13 16.81 3.19L16.81 3.21C16.8 3.28 16.79 3.34 16.79 3.39L16.79 3.46C16.77 3.52 16.76 3.57 16.74 3.62L16.74 3.65C16.73 3.7 16.71 3.75 16.69 3.8L16.69 3.83C16.67 3.88 16.65 3.93 16.63 3.98L16.63 4.01L16.55 4.15L16.46 4.29C16.42 4.33 16.39 4.37 16.35 4.42L16.33 4.44L16.22 4.55L16.2 4.57L16.08 4.68C16.02 4.72 15.98 4.76 15.93 4.79C15.88 4.82 15.83 4.85 15.78 4.88L15.76 4.88C15.71 4.9 15.66 4.93 15.61 4.95L15.59 4.95C15.54 4.97 15.5 4.99 15.45 5L15.43 5C15.36 5.02 15.31 5.05 15.26 5.05C15.19 5.06 15.12 5.1 15.08 5.16C15.03 5.21 15.01 5.28 15.01 5.35L15.01 6.65C15.01 6.72 15.03 6.79 15.08 6.84C15.12 6.89 15.19 6.93 15.26 6.94L15.27 6.94L15.39 6.97L15.46 7L15.55 7.03L15.65 7.07L15.71 7.1L15.82 7.16L15.86 7.18C15.91 7.2 15.97 7.23 16.02 7.27C16.43 7.55 16.73 7.98 16.86 8.46C16.86 8.47 16.86 8.5 16.86 8.52C16.87 8.56 16.88 8.59 16.88 8.64L16.88 8.72C16.9 8.75 16.9 8.79 16.9 8.82L16.9 8.84C16.9 8.89 16.9 8.93 16.82 9.03ZM14.23 8.39C14.07 8.55 13.98 8.77 13.98 9C13.98 9.17 14.03 9.33 14.12 9.48C14.22 9.62 14.35 9.73 14.51 9.79C14.67 9.86 14.84 9.88 15.01 9.84C15.18 9.81 15.33 9.73 15.45 9.61C15.57 9.49 15.65 9.33 15.69 9.17C15.72 9 15.7 8.82 15.64 8.67C15.57 8.51 15.46 8.37 15.32 8.28C15.18 8.19 15.01 8.13 14.84 8.13C14.61 8.14 14.39 8.23 14.23 8.39ZM12.86 8.2L12.88 8.15L12.94 8.03L12.94 8.02L12.95 7.98L13.02 7.87L13.02 7.85L13.04 7.82C13.06 7.79 13.09 7.75 13.11 7.72L13.14 7.67C13.17 7.64 13.2 7.61 13.23 7.57L13.25 7.55L13.35 7.45L13.37 7.43L13.48 7.34L13.51 7.32C13.6 7.24 13.71 7.18 13.82 7.12L13.84 7.1L13.87 7.09L13.98 7.04L14.02 7.02L14.08 7L14.15 6.98L14.2 6.98L14.27 6.96L14.32 6.95C14.39 6.93 14.45 6.89 14.49 6.84C14.54 6.79 14.56 6.72 14.56 6.65L14.56 5.35C14.56 5.28 14.54 5.22 14.49 5.16C14.45 5.11 14.39 5.07 14.32 5.06L14.3 5.06L14.18 5.03L14.12 5.01L14.01 4.97L13.95 4.95L13.8 4.93L13.74 4.9L13.65 4.85C13.62 4.84 13.6 4.83 13.59 4.81L13.5 4.76L13.44 4.71L13.36 4.65L13.31 4.6L13.23 4.53L13.18 4.48L13.12 4.4L13.06 4.34C13.04 4.32 13.03 4.29 13.01 4.27C13 4.25 12.98 4.23 12.97 4.21L12.97 4.2L12.92 4.12C12.91 4.09 12.89 4.07 12.88 4.05C12.87 4.02 12.84 3.99 12.84 3.96C12.83 3.94 12.82 3.91 12.81 3.89C12.79 3.86 12.78 3.83 12.77 3.8C12.76 3.77 12.74 3.75 12.74 3.72L12.71 3.63C12.7 3.61 12.69 3.58 12.69 3.55L12.69 3.49C12.67 3.43 12.64 3.36 12.58 3.32C12.53 3.27 12.46 3.25 12.39 3.25L11.1 3.25C11.03 3.25 10.96 3.27 10.9 3.32C10.85 3.36 10.81 3.42 10.8 3.49L10.8 3.53C10.79 3.57 10.77 3.61 10.77 3.65L10.75 3.7C10.74 3.74 10.72 3.78 10.71 3.82C10.7 3.83 10.7 3.84 10.69 3.85L10.64 3.97C10.57 4.11 10.49 4.23 10.39 4.35L10.39 4.37L10.36 4.39C10.35 4.42 10.33 4.44 10.31 4.45L10.28 4.49L10.24 4.53L10.18 4.58L10.15 4.6L10.1 4.64L10.04 4.69L10.02 4.71L9.95 4.75L9.88 4.8L9.8 4.85L9.72 4.89L9.64 4.93L9.55 4.97L9.46 5L9.38 5.03C9.35 5.03 9.32 5.04 9.28 5.05L9.27 5.05C9.26 5.05 9.24 5.05 9.23 5.05C9.16 5.06 9.1 5.1 9.06 5.16C9.01 5.21 8.99 5.28 8.99 5.35L8.99 6.65C8.99 6.72 9.01 6.78 9.06 6.84C9.1 6.89 9.17 6.93 9.24 6.94L9.25 6.94L9.37 6.98L9.43 6.99L9.54 7.03L9.6 7.05L9.71 7.11L9.76 7.14L9.86 7.19L9.92 7.23C9.95 7.25 9.98 7.27 10.01 7.29L10.06 7.33L10.14 7.39L10.17 7.44L10.25 7.51L10.3 7.56C10.32 7.58 10.35 7.61 10.37 7.64L10.42 7.69L10.47 7.77L10.52 7.84C10.54 7.87 10.55 7.89 10.57 7.92L10.61 7.99C10.62 8.02 10.65 8.04 10.65 8.07L10.69 8.15L10.73 8.23C10.74 8.25 10.75 8.26 10.76 8.3C10.78 8.34 10.77 8.37 10.79 8.4C10.82 8.43 10.82 8.46 10.82 8.48L10.83 8.54C10.84 8.61 10.88 8.67 10.93 8.72C10.99 8.76 11.06 8.79 11.13 8.79L12.43 8.79C12.5 8.79 12.57 8.76 12.62 8.72C12.68 8.67 12.72 8.61 12.73 8.54C12.73 8.54 12.73 8.53 12.73 8.52C12.74 8.48 12.76 8.44 12.76 8.4L12.76 8.38L12.78 8.34C12.79 8.3 12.8 8.26 12.86 8.2ZM9.37 3.55C9.53 3.39 9.63 3.17 9.63 2.94C9.63 2.77 9.57 2.61 9.48 2.46C9.38 2.32 9.25 2.21 9.09 2.15C8.94 2.08 8.76 2.06 8.59 2.1C8.43 2.13 8.27 2.21 8.15 2.33C8.03 2.45 7.95 2.61 7.92 2.78C7.88 2.94 7.9 3.12 7.97 3.27C8.03 3.43 8.14 3.57 8.28 3.66C8.43 3.76 8.59 3.81 8.76 3.81C8.99 3.81 9.21 3.72 9.37 3.55ZM8.15 8.39C7.99 8.55 7.9 8.77 7.9 9C7.9 9.17 7.95 9.33 8.05 9.48C8.14 9.62 8.28 9.73 8.43 9.79C8.59 9.86 8.76 9.88 8.93 9.84C9.1 9.81 9.25 9.73 9.37 9.61C9.49 9.49 9.58 9.33 9.61 9.17C9.64 9 9.62 8.82 9.56 8.67C9.49 8.51 9.38 8.37 9.24 8.28C9.1 8.19 8.93 8.13 8.76 8.13C8.53 8.14 8.32 8.23 8.15 8.39ZM14.18 3.55C14.34 3.71 14.56 3.81 14.79 3.81C14.96 3.81 15.13 3.76 15.27 3.66C15.41 3.57 15.52 3.43 15.59 3.28C15.66 3.12 15.67 2.94 15.64 2.78C15.61 2.61 15.53 2.46 15.4 2.34C15.28 2.21 15.13 2.13 14.96 2.1C14.8 2.06 14.62 2.08 14.46 2.15C14.31 2.21 14.17 2.32 14.08 2.46C13.98 2.61 13.93 2.77 13.93 2.94C13.93 3.17 14.02 3.39 14.18 3.55ZM4.7 3.81C4.62 4.01 4.51 4.19 4.37 4.36L4.34 4.39C4.32 4.41 4.3 4.44 4.28 4.46L4.22 4.52L4.17 4.57L4.12 4.61L4.08 4.64C4.06 4.66 4.04 4.68 4.02 4.69L3.99 4.71L3.93 4.75L3.86 4.79L3.78 4.85L3.7 4.89L3.61 4.93L3.53 4.96L3.44 5L3.36 5.02L3.26 5.05L3.24 5.05C3.23 5.05 3.22 5.05 3.21 5.05C3.14 5.06 3.08 5.1 3.04 5.16C2.99 5.21 2.97 5.28 2.97 5.35L2.97 6.7C2.97 6.77 2.99 6.84 3.04 6.89C3.08 6.94 3.14 6.98 3.21 6.99L3.26 6.99L3.38 7.02L3.43 7.02L3.55 7.07L3.59 7.07L3.71 7.12C3.85 7.2 3.98 7.29 4.1 7.39L4.15 7.41L4.2 7.46L4.24 7.5C4.25 7.51 4.27 7.53 4.28 7.54C4.29 7.56 4.31 7.57 4.33 7.59L4.36 7.63L4.4 7.67C4.41 7.69 4.42 7.7 4.43 7.72L4.46 7.78C4.48 7.79 4.49 7.81 4.5 7.82C4.51 7.85 4.53 7.87 4.54 7.89L4.54 7.91L4.59 7.98L4.63 8.06C4.64 8.09 4.66 8.11 4.67 8.14L4.7 8.22L4.76 8.29C4.77 8.31 4.78 8.34 4.78 8.37C4.79 8.4 4.8 8.43 4.81 8.46L4.81 8.51C4.82 8.58 4.86 8.64 4.91 8.69C4.97 8.73 5.04 8.76 5.11 8.76L6.37 8.76C6.44 8.76 6.51 8.73 6.56 8.69C6.62 8.64 6.65 8.58 6.67 8.51L6.67 8.5C6.68 8.45 6.69 8.41 6.7 8.37L6.72 8.32C6.73 8.28 6.74 8.24 6.76 8.21L6.78 8.15L6.83 8.04L6.86 7.99C6.87 7.96 6.89 7.92 6.91 7.89C6.92 7.87 6.94 7.85 6.95 7.84L7.01 7.75L7.05 7.69C7.07 7.66 7.09 7.63 7.12 7.61L7.16 7.56C7.18 7.53 7.21 7.5 7.23 7.48C7.25 7.46 7.27 7.45 7.29 7.43L7.36 7.36L7.42 7.31L7.5 7.26C7.52 7.24 7.54 7.22 7.57 7.21L7.64 7.16L7.72 7.12C7.74 7.1 7.77 7.09 7.8 7.08L7.88 7.04C7.9 7.02 7.93 7.01 7.96 7L8.05 6.97L8.13 6.95L8.22 6.92L8.27 6.92C8.34 6.91 8.4 6.87 8.44 6.82C8.49 6.76 8.51 6.69 8.52 6.62L8.52 5.33C8.51 5.26 8.49 5.19 8.44 5.14C8.4 5.08 8.34 5.05 8.27 5.03L8.14 5L8.09 4.98L7.97 4.94L7.92 4.92L7.81 4.87L7.76 4.85C7.72 4.83 7.69 4.81 7.66 4.79C7.64 4.78 7.62 4.77 7.6 4.75L7.52 4.7L7.46 4.65L7.38 4.59L7.33 4.55L7.26 4.48C7.24 4.46 7.23 4.45 7.21 4.43L7.14 4.36L7.09 4.29L7.04 4.22L6.99 4.15C6.97 4.12 6.95 4.1 6.94 4.07C6.92 4.05 6.91 4.02 6.9 4L6.86 3.92C6.84 3.89 6.83 3.86 6.82 3.84L6.78 3.75C6.77 3.72 6.76 3.7 6.75 3.67C6.74 3.64 6.73 3.61 6.73 3.58L6.7 3.5L6.69 3.44C6.67 3.38 6.64 3.31 6.58 3.27C6.53 3.23 6.46 3.2 6.39 3.2L5.1 3.2C5.03 3.2 4.96 3.23 4.9 3.27C4.85 3.31 4.81 3.38 4.8 3.44C4.8 3.45 4.8 3.48 4.8 3.48C4.79 3.53 4.77 3.57 4.77 3.61L4.75 3.65C4.74 3.69 4.72 3.74 4.7 3.78L4.7 3.81ZM2.76 3.81C2.98 3.8 3.2 3.71 3.36 3.55C3.52 3.39 3.61 3.17 3.62 2.94C3.62 2.77 3.56 2.61 3.47 2.46C3.37 2.32 3.24 2.21 3.08 2.15C2.92 2.08 2.75 2.06 2.58 2.1C2.42 2.13 2.26 2.21 2.14 2.34C2.02 2.46 1.94 2.61 1.91 2.78C1.87 2.95 1.89 3.12 1.96 3.28C2.02 3.44 2.14 3.57 2.28 3.66C2.42 3.76 2.59 3.81 2.76 3.81L2.76 3.81ZM3.36 8.39C3.2 8.23 2.98 8.13 2.75 8.13C2.58 8.13 2.42 8.19 2.27 8.28C2.13 8.37 2.02 8.51 1.96 8.67C1.89 8.82 1.87 9 1.91 9.17C1.94 9.33 2.02 9.49 2.14 9.61C2.26 9.73 2.42 9.81 2.58 9.84C2.75 9.88 2.93 9.86 3.08 9.79C3.24 9.73 3.38 9.62 3.47 9.48C3.56 9.33 3.62 9.17 3.62 9C3.62 8.77 3.52 8.55 3.36 8.39Z" />
	<path id="Layer" class="shp0" d="M23.01 1.68L22.51 2.15C22.25 1.9 21.9 1.76 21.54 1.77C21.38 1.77 21.22 1.8 21.07 1.86C20.92 1.93 20.78 2.02 20.67 2.14C20.56 2.25 20.47 2.39 20.41 2.55C20.35 2.7 20.33 2.86 20.34 3.03C20.33 3.19 20.35 3.35 20.41 3.51C20.47 3.66 20.55 3.8 20.67 3.92C20.78 4.03 20.92 4.13 21.07 4.19C21.22 4.26 21.38 4.29 21.54 4.29C21.72 4.29 21.9 4.26 22.07 4.19C22.23 4.13 22.38 4.03 22.51 3.9L23.01 4.36C22.79 4.6 22.51 4.79 22.2 4.89C21.88 5 21.55 5.03 21.23 4.98C20.9 4.92 20.6 4.79 20.34 4.59C20.08 4.39 19.87 4.13 19.74 3.82C19.61 3.52 19.55 3.2 19.58 2.87C19.6 2.54 19.71 2.22 19.89 1.95C20.07 1.67 20.31 1.45 20.6 1.29C20.89 1.13 21.21 1.05 21.54 1.05C21.82 1.05 22.09 1.1 22.34 1.21C22.59 1.32 22.82 1.48 23.01 1.68Z" />
	<path id="Layer" fill-rule="evenodd" class="shp0" d="M21.54 5.06C21 5.06 20.48 4.85 20.1 4.46C19.72 4.08 19.5 3.56 19.5 3.02C19.5 2.48 19.72 1.96 20.1 1.58C20.48 1.19 21 0.98 21.54 0.98C21.83 0.98 22.11 1.04 22.36 1.15C22.62 1.27 22.86 1.43 23.05 1.64L23.09 1.68L22.51 2.23L22.47 2.19C22.22 1.95 21.89 1.82 21.54 1.82C21.39 1.82 21.23 1.85 21.09 1.91C20.94 1.97 20.82 2.06 20.71 2.17C20.6 2.29 20.52 2.42 20.46 2.57C20.41 2.71 20.38 2.87 20.39 3.03C20.38 3.18 20.41 3.34 20.46 3.48C20.52 3.63 20.6 3.76 20.71 3.88C20.82 3.99 20.94 4.08 21.09 4.14C21.23 4.2 21.39 4.23 21.54 4.23C21.71 4.23 21.88 4.2 22.04 4.14C22.2 4.07 22.35 3.98 22.47 3.86L22.51 3.82L23.09 4.36L23.05 4.4C22.86 4.61 22.62 4.78 22.36 4.89C22.1 5 21.83 5.06 21.54 5.06ZM21.54 1.1C21.05 1.12 20.58 1.33 20.23 1.69C19.89 2.05 19.69 2.53 19.69 3.02C19.69 3.52 19.89 4 20.23 4.36C20.58 4.72 21.05 4.93 21.54 4.95C21.8 4.95 22.06 4.89 22.3 4.79C22.53 4.69 22.75 4.55 22.93 4.36L22.51 3.98C22.25 4.22 21.9 4.35 21.55 4.34C21.38 4.34 21.21 4.31 21.05 4.24C20.89 4.18 20.75 4.08 20.63 3.96C20.51 3.83 20.42 3.69 20.36 3.53C20.3 3.37 20.27 3.2 20.28 3.03C20.27 2.86 20.3 2.69 20.36 2.53C20.42 2.37 20.51 2.22 20.63 2.1C20.75 1.98 20.89 1.88 21.05 1.81C21.2 1.75 21.37 1.71 21.54 1.71C21.9 1.71 22.24 1.84 22.51 2.07L22.93 1.68C22.75 1.5 22.53 1.35 22.29 1.25C22.06 1.15 21.8 1.1 21.54 1.1Z" />
	<path id="Layer" fill-rule="evenodd" class="shp0" d="M25 1.09C26.09 1.09 26.69 1.73 26.69 2.55C26.7 2.82 26.62 3.08 26.47 3.3C26.32 3.52 26.1 3.68 25.85 3.77C26.09 3.95 26.29 4.19 26.43 4.45L26.76 4.97L25.9 4.97L25.65 4.58C25.35 4.12 25.26 4.03 24.87 4.02L24.45 4.02L24.45 4.97L23.68 4.97L23.68 1.09L25 1.09ZM24.46 3.3L25.09 3.3C25.59 3.3 25.98 3.07 25.98 2.55C25.98 2.03 25.59 1.81 25.09 1.81L24.45 1.81L24.46 3.3Z" />
	<path id="Layer" fill-rule="evenodd" class="shp0" d="M26.86 5.02L25.87 5.02L25.6 4.61C25.31 4.17 25.23 4.09 24.87 4.06L24.51 4.06L24.51 5.01L23.63 5.01L23.63 1.03L25 1.03C26.05 1.03 26.74 1.64 26.74 2.55C26.75 2.81 26.68 3.07 26.54 3.28C26.4 3.5 26.2 3.68 25.96 3.78C26.16 3.97 26.33 4.18 26.47 4.42L26.86 5.02ZM25.92 4.91L26.66 4.91L26.39 4.48C26.25 4.22 26.06 4 25.83 3.82L25.73 3.76L25.84 3.72C26.08 3.63 26.28 3.47 26.43 3.26C26.57 3.05 26.64 2.8 26.64 2.55C26.64 1.7 26 1.14 25 1.14L23.75 1.14L23.75 4.91L24.4 4.91L24.4 3.96L24.88 3.96C25.29 3.96 25.4 4.08 25.7 4.55L25.92 4.91ZM25.08 3.35L24.39 3.35L24.39 1.75L25.08 1.75C25.65 1.75 26.02 2.07 26.02 2.55C26.02 3.03 25.67 3.35 25.08 3.35ZM24.51 3.24L25.08 3.24C25.33 3.24 25.89 3.18 25.89 2.55C25.89 2.04 25.46 1.86 25.08 1.86L24.51 1.86L24.51 3.24Z" />
	<path id="Layer" class="shp0" d="M28.21 4.97L28.21 3.67L26.83 1.09L27.7 1.09L28.6 2.72L29.5 1.09L30.37 1.09L28.98 3.67L28.98 4.97L28.21 4.97Z" />
	<path id="Layer" fill-rule="evenodd" class="shp0" d="M29.04 5.02L28.16 5.02L28.16 3.68L26.74 1.03L27.74 1.03L28.6 2.61L29.46 1.03L30.46 1.03L29.03 3.68L29.04 5.02ZM28.27 4.91L28.92 4.91L28.92 3.64L30.28 1.14L29.53 1.14L28.61 2.84L27.67 1.14L26.93 1.14L28.27 3.66L28.27 4.91Z" />
	<path id="Layer" fill-rule="evenodd" class="shp0" d="M32.13 1.09C33.22 1.09 33.86 1.73 33.86 2.58C33.86 3.43 33.22 4.07 32.13 4.07L31.64 4.07L31.64 4.97L30.87 4.97L30.87 1.09L32.13 1.09ZM32.2 3.35C32.69 3.35 33.14 3.13 33.14 2.58C33.14 2.03 32.69 1.81 32.2 1.81L31.64 1.81L31.64 3.35L32.2 3.35Z" />
	<path id="Layer" fill-rule="evenodd" class="shp0" d="M31.68 5.02L30.8 5.02L30.8 1.03L32.13 1.03C33.2 1.03 33.92 1.65 33.92 2.58C33.92 3.5 33.2 4.13 32.13 4.13L31.68 4.13L31.68 5.02ZM30.92 4.91L31.57 4.91L31.57 4.02L32.13 4.02C33.15 4.02 33.81 3.45 33.81 2.58C33.81 1.7 33.14 1.14 32.13 1.14L30.92 1.14L30.92 4.91ZM32.2 3.41L31.57 3.41L31.57 1.75L32.2 1.75C32.69 1.75 33.2 2.01 33.2 2.57C33.2 3.19 32.68 3.41 32.2 3.41ZM31.68 3.3L32.2 3.3C32.4 3.3 33.08 3.25 33.08 2.58C33.08 2.05 32.6 1.86 32.2 1.86L31.68 1.86L31.68 3.3Z" />
	<path id="Layer" class="shp0" d="M36.01 4.97L35.25 4.97L35.25 1.81L34.18 1.81L34.18 1.09L37.08 1.09L37.08 1.81L36.01 1.81L36.01 4.97Z" />
	<path id="Layer" fill-rule="evenodd" class="shp0" d="M36.07 5.02L35.19 5.02L35.19 1.86L34.13 1.86L34.13 1.03L37.12 1.03L37.12 1.86L36.05 1.86L36.07 5.02ZM35.3 4.91L35.96 4.91L35.96 1.75L37.02 1.75L37.02 1.14L34.24 1.14L34.24 1.75L35.3 1.75L35.3 4.91Z" />
	<path id="Layer" fill-rule="evenodd" class="shp0" d="M41.35 3.03C41.35 3.42 41.23 3.8 41.01 4.12C40.79 4.45 40.49 4.7 40.12 4.85C39.76 5 39.37 5.04 38.98 4.97C38.6 4.89 38.25 4.7 37.97 4.43C37.69 4.15 37.5 3.8 37.43 3.41C37.35 3.03 37.39 2.63 37.54 2.27C37.69 1.91 37.94 1.6 38.27 1.38C38.59 1.16 38.97 1.05 39.36 1.05C39.62 1.05 39.88 1.1 40.12 1.2C40.36 1.3 40.58 1.44 40.76 1.63C40.95 1.81 41.09 2.03 41.19 2.27C41.29 2.51 41.35 2.77 41.35 3.03ZM38.16 3.03C38.16 3.18 38.2 3.34 38.26 3.49C38.32 3.64 38.41 3.77 38.52 3.88C38.63 3.99 38.77 4.08 38.91 4.14C39.06 4.2 39.22 4.24 39.38 4.24C39.53 4.24 39.69 4.2 39.84 4.14C39.99 4.08 40.12 3.99 40.23 3.88C40.34 3.77 40.43 3.64 40.49 3.49C40.55 3.34 40.59 3.18 40.59 3.03C40.59 2.87 40.55 2.71 40.49 2.56C40.43 2.42 40.34 2.28 40.23 2.17C40.12 2.06 39.99 1.97 39.84 1.91C39.69 1.85 39.53 1.82 39.38 1.82C39.22 1.82 39.06 1.85 38.91 1.91C38.77 1.97 38.63 2.06 38.52 2.17C38.41 2.28 38.32 2.42 38.26 2.56C38.2 2.71 38.16 2.87 38.16 3.03Z" />
	<path id="Layer" fill-rule="evenodd" class="shp0" d="M39.37 5.06C38.96 5.06 38.57 4.94 38.23 4.72C37.9 4.49 37.64 4.18 37.48 3.8C37.33 3.43 37.29 3.02 37.37 2.63C37.45 2.23 37.64 1.87 37.93 1.59C38.21 1.3 38.57 1.11 38.97 1.03C39.36 0.95 39.77 0.99 40.14 1.15C40.52 1.3 40.83 1.56 41.06 1.9C41.28 2.23 41.4 2.62 41.4 3.03C41.4 3.57 41.19 4.08 40.8 4.46C40.42 4.85 39.9 5.06 39.37 5.06ZM39.37 1.1C38.98 1.1 38.61 1.22 38.3 1.43C37.98 1.64 37.73 1.94 37.59 2.29C37.44 2.64 37.4 3.03 37.48 3.4C37.55 3.77 37.74 4.12 38.01 4.39C38.27 4.65 38.62 4.84 38.99 4.91C39.36 4.99 39.75 4.95 40.1 4.8C40.45 4.66 40.75 4.41 40.96 4.09C41.18 3.78 41.29 3.41 41.29 3.03C41.29 2.52 41.09 2.03 40.73 1.67C40.36 1.3 39.88 1.1 39.37 1.1ZM39.37 4.34C39.19 4.34 39.02 4.31 38.87 4.24C38.71 4.18 38.57 4.08 38.45 3.96C38.33 3.83 38.24 3.69 38.18 3.53C38.12 3.37 38.09 3.2 38.1 3.03C38.09 2.86 38.12 2.69 38.18 2.53C38.24 2.37 38.33 2.22 38.45 2.1C38.57 1.98 38.71 1.88 38.87 1.81C39.03 1.75 39.19 1.71 39.37 1.71C39.54 1.71 39.71 1.74 39.87 1.81C40.02 1.87 40.17 1.97 40.29 2.09C40.41 2.22 40.5 2.36 40.56 2.52C40.62 2.68 40.64 2.85 40.64 3.03C40.64 3.2 40.62 3.37 40.56 3.53C40.5 3.69 40.41 3.84 40.29 3.96C40.17 4.08 40.02 4.18 39.87 4.25C39.71 4.31 39.54 4.34 39.37 4.34ZM39.37 1.82C39.21 1.82 39.05 1.85 38.91 1.91C38.77 1.97 38.64 2.06 38.53 2.17C38.42 2.29 38.34 2.42 38.28 2.57C38.23 2.71 38.21 2.87 38.21 3.03C38.21 3.18 38.23 3.34 38.29 3.48C38.34 3.63 38.42 3.77 38.53 3.88C38.64 3.99 38.77 4.08 38.91 4.14C39.06 4.21 39.21 4.24 39.37 4.24C39.53 4.24 39.68 4.21 39.82 4.14C39.97 4.08 40.1 3.99 40.21 3.88C40.31 3.77 40.4 3.63 40.45 3.48C40.51 3.34 40.53 3.18 40.52 3.03C40.53 2.87 40.51 2.71 40.45 2.57C40.4 2.42 40.31 2.29 40.21 2.17C40.1 2.06 39.97 1.97 39.82 1.91C39.68 1.85 39.52 1.82 39.37 1.82Z" />
	<path id="Layer" class="shp0" d="M19.83 10.57L19.83 6.68L20.6 6.68L20.6 9.84L22.34 9.84L22.34 10.56L19.83 10.57Z" />
	<path id="Layer" fill-rule="evenodd" class="shp0" d="M22.39 10.62L19.77 10.62L19.77 6.63L20.65 6.63L20.65 9.79L22.39 9.79L22.39 10.62ZM19.88 10.51L22.27 10.51L22.27 9.9L20.54 9.9L20.54 6.74L19.89 6.74L19.88 10.51Z" />
	<path id="Layer" class="shp0" d="M24.66 9.84L24.66 10.56L22.96 10.56L22.96 9.84L23.43 9.84L23.43 7.39L22.96 7.39L22.96 6.68L24.66 6.68L24.66 7.39L24.2 7.39L24.2 9.84L24.66 9.84Z" />
	<path id="Layer" fill-rule="evenodd" class="shp0" d="M24.72 10.62L22.91 10.62L22.91 9.79L23.37 9.79L23.37 7.46L22.91 7.46L22.91 6.63L24.72 6.63L24.72 7.46L24.25 7.46L24.25 9.79L24.72 9.79L24.72 10.62ZM23.02 10.51L24.6 10.51L24.6 9.9L24.14 9.9L24.14 7.35L24.6 7.35L24.6 6.74L23.02 6.74L23.02 7.35L23.48 7.35L23.48 9.9L23.02 9.9L23.02 10.51Z" />
	<path id="Layer" class="shp0" d="M28.18 10.57L26.34 8.12L26.34 10.57L25.57 10.57L25.57 6.68L26.02 6.68L27.87 9.13L27.87 6.68L28.64 6.68L28.64 10.57L28.18 10.57Z" />
	<path id="Layer" fill-rule="evenodd" class="shp0" d="M28.69 10.62L28.14 10.62L26.39 8.29L26.39 10.62L25.52 10.62L25.52 6.63L26.06 6.63L27.82 8.96L27.82 6.63L28.7 6.63L28.69 10.62ZM28.2 10.51L28.58 10.51L28.58 6.74L27.92 6.74L27.92 9.3L26 6.74L25.63 6.74L25.63 10.51L26.29 10.51L26.29 7.95L28.2 10.51Z" />
	<path id="Layer" class="shp0" d="M31.98 8.25L31.98 8.98L30.31 8.98L30.31 9.84L32.12 9.84L32.12 10.56L29.54 10.56L29.54 6.68L32.12 6.68L32.12 7.39L30.31 7.39L30.31 8.24L31.98 8.25Z" />
	<path id="Layer" fill-rule="evenodd" class="shp0" d="M32.18 10.62L29.48 10.62L29.48 6.63L32.18 6.63L32.18 7.46L30.36 7.46L30.36 8.21L32.04 8.21L32.04 9.03L30.36 9.03L30.36 9.79L32.18 9.79L32.18 10.62ZM29.6 10.51L32.07 10.51L32.07 9.9L30.25 9.9L30.25 8.92L31.93 8.92L31.93 8.31L30.25 8.31L30.25 7.35L32.07 7.35L32.07 6.74L29.6 6.74L29.6 10.51Z" />
</svg>