<svg width="74" height="16" viewBox="0 0 74 16" fill="none" xmlns="http://www.w3.org/2000/svg">
<path fill-rule="evenodd" clip-rule="evenodd" d="M19.8616 9.43831C19.8616 9.56599 19.7524 9.66987 19.6219 9.66987H15.0018C15.1169 10.7861 15.9762 11.8043 17.1844 11.8043C18.0102 11.8043 18.6232 11.4956 19.0845 10.8514C19.1513 10.7623 19.2516 10.706 19.3792 10.7594C19.4489 10.789 19.4973 10.8514 19.5094 10.9225C19.5219 10.9968 19.5005 11.0386 19.4792 11.0801C19.0148 11.8728 18.0888 12.2616 17.1811 12.2616C15.627 12.2616 14.519 10.9019 14.519 9.44732C14.519 7.99274 15.627 6.63303 17.1811 6.63303C18.7356 6.63014 19.8587 7.98663 19.8616 9.43831ZM19.3667 9.21867C19.2667 8.10241 18.3926 7.08423 17.1844 7.08423C15.9762 7.08423 15.1169 8.10241 15.0018 9.21867H19.3667ZM25.4683 6.74302C25.6021 6.74302 25.6991 6.85558 25.6991 6.96846C25.6991 7.09903 25.5988 7.19422 25.4683 7.19422H24.2298V11.9468C24.2298 12.0596 24.1298 12.1725 23.9993 12.1725C23.8654 12.1725 23.7684 12.0596 23.7684 11.9468V7.19422H22.5786C22.4451 7.19422 22.3478 7.09614 22.3478 6.96846C22.3478 6.85558 22.4481 6.74302 22.5786 6.74302H23.7684V5.00319C23.7684 4.89352 23.8444 4.79254 23.9536 4.77485C24.1085 4.75105 24.2298 4.85493 24.2298 4.9974V6.74302H25.4683ZM33.0241 9.0405V11.9201C33.0241 12.0506 32.9086 12.1458 32.7932 12.1458C32.6597 12.1458 32.5627 12.0477 32.5627 11.9201V9.0405C32.5627 8.06993 32.001 7.09902 30.8931 7.09902C29.4724 7.09902 28.8591 8.31338 28.941 9.55731C28.941 9.58979 28.9564 9.73515 28.9564 9.74994V11.9114C28.9564 12.0211 28.8805 12.122 28.7713 12.1397C28.6164 12.1635 28.4947 12.0596 28.4947 11.9172V2.45936C28.4947 2.34648 28.595 2.2336 28.7256 2.2336C28.8591 2.2336 28.9564 2.34648 28.9564 2.45936V7.81169C29.354 7.11704 30.0644 6.64782 30.8901 6.64782C32.2466 6.64782 33.0241 7.81168 33.0241 9.0405ZM41.3079 9.43831C41.3079 9.56599 41.1987 9.66987 41.0682 9.66987H36.4451C36.5606 10.7861 37.4195 11.8043 38.6277 11.8043C39.4532 11.8043 40.0665 11.4956 40.5279 10.8514C40.595 10.7623 40.6949 10.706 40.8225 10.7594C40.8922 10.789 40.9409 10.8514 40.9531 10.9225C40.9649 10.9968 40.9439 11.0386 40.9225 11.0801C40.4581 11.8728 39.5321 12.2616 38.6248 12.2616C37.0703 12.2616 35.9624 10.9019 35.9624 9.44732C35.9624 7.99274 37.0703 6.63303 38.6248 6.63303C40.1819 6.63014 41.305 7.98663 41.3079 9.43831ZM40.8104 9.21867C40.7101 8.10241 39.836 7.08423 38.6277 7.08423C37.4195 7.08423 36.5606 8.10241 36.4451 9.21867H40.8104ZM46.9787 6.95366C46.9787 7.09902 46.8965 7.17943 46.763 7.19711C45.4061 7.39007 44.7961 8.47352 44.7961 9.73514V11.8963C44.7961 12.0063 44.7201 12.1072 44.6109 12.1249C44.456 12.1487 44.3347 12.0448 44.3347 11.9024V6.97746C44.3347 6.86747 44.4103 6.7665 44.5198 6.74881C44.6744 6.72501 44.7961 6.82889 44.7961 6.97135V7.97473C45.1752 7.34537 45.9372 6.74591 46.7297 6.74591C46.8448 6.74302 46.9787 6.82599 46.9787 6.95366ZM54.5677 9.43831C54.5677 9.56599 54.4582 9.66987 54.3276 9.66987H49.7075C49.823 10.7861 50.6819 11.8043 51.8901 11.8043C52.7159 11.8043 53.3289 11.4956 53.7903 10.8514C53.857 10.7623 53.9573 10.706 54.0849 10.7594C54.1546 10.789 54.2033 10.8514 54.2155 10.9225C54.2277 10.9968 54.2063 11.0386 54.1849 11.0801C53.7206 11.8728 52.7948 12.2616 51.8872 12.2616C50.333 12.2616 49.2248 10.9019 49.2248 9.44732C49.2248 7.99274 50.333 6.63303 51.8872 6.63303C53.4414 6.63014 54.5644 7.98663 54.5677 9.43831ZM54.0728 9.21867C53.9725 8.10241 53.0984 7.08423 51.8901 7.08423C50.6819 7.08423 49.823 8.10241 49.7075 9.21867H54.0728ZM62.0258 7.00994V11.9468C62.0258 12.0773 61.9107 12.1725 61.7953 12.1725C61.6618 12.1725 61.5644 12.0744 61.5644 11.9468V11.0087C61.1852 11.7538 60.5052 12.2854 59.6462 12.2854C58.2739 12.2854 57.5119 11.1215 57.5119 9.89241V6.99805C57.5119 6.88549 57.6122 6.77261 57.7428 6.77261C57.8763 6.77261 57.9733 6.88549 57.9733 6.99805V9.89241C57.9733 10.8633 58.535 11.8339 59.6429 11.8339C61.1971 11.8339 61.5614 10.4121 61.5614 8.84176V6.99805C61.5614 6.86748 61.695 6.73402 61.8591 6.78129C61.9594 6.81409 62.0258 6.90896 62.0258 7.00994ZM73.713 9.02281V11.9172C73.713 12.0477 73.5975 12.1429 73.4821 12.1429C73.3486 12.1429 73.2516 12.0448 73.2516 11.9172V9.02281C73.2516 8.05224 72.6899 7.09902 71.582 7.09902C70.1919 7.09902 69.6635 8.55361 69.6635 9.68498V11.9172C69.6635 12.0477 69.5484 12.1429 69.4329 12.1429C69.2994 12.1429 69.2021 12.0448 69.2021 11.9172V9.02281C69.2021 8.05224 68.6404 7.09902 67.5325 7.09902C66.1269 7.09902 65.5475 8.18248 65.5988 9.62226C65.5988 9.65507 65.6139 9.72035 65.5988 9.73514V11.9114C65.5988 12.0211 65.5228 12.122 65.4107 12.1397C65.2558 12.1635 65.1345 12.0596 65.1345 11.9172V6.97746C65.1345 6.86747 65.2104 6.7665 65.3196 6.74881C65.4745 6.72501 65.5958 6.82889 65.5958 6.97135V7.79657C65.9934 7.10225 66.7038 6.64782 67.5295 6.64782C68.4707 6.64782 69.1991 7.22991 69.4967 8.08761C69.8759 7.2476 70.6198 6.64782 71.579 6.64782C72.9359 6.64782 73.713 7.79367 73.713 9.02281Z" fill="#3C3C3B"/>
<path fill-rule="evenodd" clip-rule="evenodd" d="M0 7.98541L4.81289 5.79652V-0.000141621L0 7.98541Z" fill="#8C8C8C"/>
<path fill-rule="evenodd" clip-rule="evenodd" d="M4.81289 5.7965L0 7.9854L4.81289 10.8291V5.7965Z" fill="#383838"/>
<path fill-rule="evenodd" clip-rule="evenodd" d="M4.81299 5.79652L9.62403 7.98541L4.81299 -0.000141621V5.79652Z" fill="#5D5D5D"/>
<path fill-rule="evenodd" clip-rule="evenodd" d="M4.81289 11.7402L0 8.89694L4.81289 15.6774V11.7402Z" fill="#8C8C8C"/>
<path fill-rule="evenodd" clip-rule="evenodd" d="M4.81299 11.7407V15.6779L9.62792 8.89743L4.81299 11.7407Z" fill="#343434"/>
<path fill-rule="evenodd" clip-rule="evenodd" d="M4.81299 5.7965V10.8291L9.62403 7.9854L4.81299 5.7965Z" fill="#252525"/>
</svg>
