<svg xmlns="http://www.w3.org/2000/svg" viewBox="0 0 32 28" width="32" height="28">
	<style>
		tspan { white-space:pre }
		.shp0 { fill: #ff5c00 } 
		.shp1 { fill: #131313 } 
		.shp2 { fill: #ffffff } 
	</style>
	<path id="Layer" class="shp0" d="M6.1 8.52C6.1 4.09 9.69 0.5 14.12 0.5L17.88 0.5C22.31 0.5 25.9 4.09 25.9 8.52L25.9 12.28C25.9 16.71 22.31 20.3 17.88 20.3L14.12 20.3C9.69 20.3 6.1 16.71 6.1 12.28L6.1 8.52Z" />
	<path id="Layer" class="shp1" d="M0.91 25.03C0.9 25.22 0.93 25.41 1 25.59C1.07 25.77 1.18 25.93 1.31 26.06C1.45 26.2 1.61 26.3 1.79 26.37C1.96 26.44 2.15 26.47 2.35 26.46C2.53 26.46 2.72 26.43 2.9 26.38L2.9 25.46L2.09 25.46L2.09 24.72L3.7 24.72L3.7 26.9C3.31 27.15 2.86 27.29 2.39 27.3C1.04 27.3 0.1 26.4 0.1 25.04C0.09 24.75 0.14 24.45 0.25 24.17C0.35 23.9 0.52 23.64 0.72 23.43C0.93 23.22 1.18 23.05 1.46 22.94C1.73 22.83 2.03 22.77 2.32 22.78C2.81 22.77 3.29 22.91 3.7 23.18L3.7 24.17C3.54 23.99 3.34 23.84 3.12 23.74C2.9 23.63 2.65 23.58 2.41 23.58C1.55 23.58 0.91 24.12 0.91 25.03Z" />
	<path id="Layer" fill-rule="evenodd" class="shp1" d="M4.23 25.73C4.22 25.53 4.26 25.33 4.33 25.15C4.41 24.96 4.52 24.8 4.66 24.66C4.8 24.51 4.97 24.4 5.15 24.33C5.34 24.26 5.54 24.22 5.74 24.23C5.93 24.23 6.13 24.27 6.31 24.34C6.5 24.42 6.66 24.53 6.8 24.67C6.94 24.81 7.05 24.97 7.13 25.16C7.2 25.34 7.24 25.53 7.24 25.73C7.24 25.93 7.2 26.13 7.13 26.31C7.05 26.49 6.94 26.66 6.8 26.8C6.66 26.94 6.5 27.05 6.31 27.12C6.13 27.2 5.93 27.24 5.74 27.24C5.54 27.24 5.34 27.21 5.15 27.13C4.97 27.06 4.8 26.95 4.66 26.81C4.52 26.67 4.41 26.5 4.33 26.31C4.26 26.13 4.22 25.93 4.23 25.73ZM6.41 25.73C6.43 25.64 6.42 25.54 6.39 25.44C6.36 25.35 6.31 25.27 6.25 25.19C6.19 25.12 6.11 25.06 6.02 25.02C5.93 24.98 5.83 24.96 5.74 24.96C5.64 24.96 5.54 24.98 5.45 25.02C5.37 25.06 5.29 25.12 5.22 25.19C5.16 25.27 5.11 25.35 5.08 25.44C5.05 25.54 5.05 25.64 5.06 25.73C5.05 25.83 5.05 25.93 5.08 26.02C5.11 26.11 5.16 26.2 5.22 26.27C5.29 26.34 5.37 26.4 5.45 26.44C5.54 26.48 5.64 26.5 5.74 26.5C5.83 26.5 5.93 26.48 6.02 26.44C6.11 26.4 6.19 26.34 6.25 26.27C6.31 26.2 6.36 26.11 6.39 26.02C6.42 25.93 6.43 25.83 6.41 25.73Z" />
	<path id="Layer" class="shp1" d="M7.57 26.16L7.57 22.84L8.41 22.84L8.41 26.17C8.41 26.41 8.53 26.52 8.71 26.52C8.76 26.53 8.81 26.52 8.86 26.5C8.9 26.48 8.94 26.45 8.97 26.42L9.38 27.01C9.19 27.16 8.96 27.24 8.72 27.23C7.93 27.24 7.57 26.81 7.57 26.16Z" />
	<path id="Layer" fill-rule="evenodd" class="shp1" d="M12.42 22.84L12.42 27.18L11.67 27.18L11.62 26.88C11.52 26.99 11.39 27.08 11.25 27.14C11.1 27.2 10.95 27.23 10.8 27.23C10 27.23 9.45 26.57 9.45 25.73C9.45 24.88 10 24.22 10.8 24.22C10.94 24.22 11.09 24.24 11.22 24.3C11.36 24.35 11.48 24.43 11.58 24.53L11.58 22.84L12.42 22.84ZM11.58 26.04L11.58 25.43C11.54 25.29 11.46 25.18 11.34 25.1C11.23 25.01 11.1 24.97 10.96 24.96C10.78 24.98 10.6 25.08 10.48 25.22C10.35 25.36 10.28 25.54 10.28 25.73C10.28 25.92 10.35 26.1 10.48 26.24C10.6 26.38 10.78 26.47 10.96 26.5C11.1 26.49 11.23 26.45 11.34 26.36C11.46 26.28 11.54 26.17 11.58 26.04Z" />
	<path id="Layer" fill-rule="evenodd" class="shp1" d="M15.74 25.98L13.78 25.98C13.78 26.06 13.79 26.14 13.83 26.22C13.86 26.3 13.91 26.36 13.97 26.42C14.03 26.48 14.1 26.52 14.18 26.55C14.25 26.58 14.34 26.59 14.42 26.59C14.56 26.59 14.69 26.56 14.81 26.49C14.93 26.42 15.03 26.31 15.09 26.19L15.69 26.48C15.58 26.71 15.4 26.91 15.18 27.04C14.95 27.17 14.7 27.24 14.44 27.23C13.42 27.23 12.94 26.58 12.94 25.72C12.94 24.86 13.48 24.22 14.4 24.22C15.24 24.22 15.75 24.81 15.75 25.73C15.75 25.81 15.75 25.89 15.74 25.98ZM13.8 25.41C13.8 25.41 13.8 25.4 13.8 25.4L13.8 25.4L13.8 25.41ZM14.97 25.4C14.91 25.06 14.74 24.87 14.4 24.87C14.25 24.87 14.1 24.92 13.99 25.02C13.88 25.12 13.81 25.26 13.8 25.4L14.97 25.4Z" />
	<path id="Layer" class="shp1" d="M19.1 25.35L19.1 27.18L18.26 27.18L18.26 25.46C18.26 25.39 18.24 25.33 18.22 25.26C18.19 25.2 18.15 25.14 18.1 25.1C18.05 25.05 17.99 25.02 17.92 24.99C17.86 24.97 17.79 24.96 17.72 24.97C17.57 24.96 17.42 25.02 17.31 25.12C17.2 25.22 17.14 25.36 17.13 25.51L17.13 27.19L16.28 27.19L16.28 24.28L17.04 24.28L17.09 24.62C17.2 24.49 17.33 24.4 17.49 24.33C17.64 24.26 17.8 24.23 17.97 24.23C18.12 24.22 18.27 24.24 18.41 24.29C18.55 24.34 18.68 24.43 18.79 24.53C18.89 24.64 18.98 24.77 19.03 24.91C19.09 25.05 19.11 25.2 19.1 25.35Z" />
	<path id="Layer" class="shp1" d="M21.2 22.84L22.08 22.84L22.08 26.42L23.56 26.42L23.56 27.18L21.2 27.18L21.2 22.84Z" />
	<path id="Layer" class="shp1" d="M24.08 23.31C24.08 23.22 24.11 23.12 24.16 23.04C24.22 22.96 24.29 22.9 24.38 22.87C24.47 22.83 24.56 22.82 24.65 22.84C24.75 22.86 24.83 22.9 24.9 22.97C24.97 23.04 25.01 23.12 25.03 23.22C25.05 23.31 25.04 23.4 25 23.49C24.97 23.58 24.91 23.65 24.83 23.71C24.75 23.76 24.65 23.79 24.56 23.79C24.43 23.78 24.31 23.73 24.23 23.64C24.14 23.56 24.09 23.44 24.08 23.31ZM24.14 24.28L24.99 24.28L24.99 27.18L24.13 27.18L24.14 24.28Z" />
	<path id="Layer" class="shp1" d="M28.57 25.35L28.57 27.18L27.71 27.18L27.71 25.46C27.71 25.39 27.69 25.33 27.67 25.26C27.64 25.2 27.6 25.14 27.55 25.1C27.5 25.05 27.44 25.01 27.37 24.99C27.31 24.97 27.24 24.96 27.17 24.97C27.02 24.97 26.88 25.02 26.77 25.12C26.66 25.22 26.59 25.36 26.58 25.51L26.58 27.19L25.72 27.19L25.72 24.28L26.48 24.28L26.53 24.62C26.64 24.5 26.77 24.4 26.92 24.33C27.07 24.26 27.24 24.23 27.4 24.23C27.56 24.21 27.71 24.23 27.86 24.28C28 24.33 28.13 24.41 28.24 24.52C28.35 24.63 28.44 24.76 28.49 24.9C28.55 25.04 28.57 25.2 28.57 25.35Z" />
	<path id="Layer" fill-rule="evenodd" class="shp1" d="M31.88 25.98L29.92 25.98C29.92 26.06 29.93 26.14 29.96 26.22C30 26.3 30.04 26.36 30.1 26.42C30.16 26.48 30.23 26.52 30.31 26.55C30.39 26.58 30.47 26.59 30.56 26.59C30.7 26.59 30.83 26.56 30.95 26.49C31.07 26.42 31.17 26.31 31.23 26.19L31.82 26.48C31.71 26.71 31.53 26.91 31.31 27.04C31.09 27.17 30.83 27.24 30.58 27.23C29.56 27.23 29.08 26.58 29.08 25.72C29.08 24.86 29.62 24.21 30.55 24.21C31.38 24.21 31.9 24.8 31.9 25.72C31.9 25.8 31.89 25.89 31.88 25.98ZM29.94 25.41C29.94 25.41 29.94 25.4 29.94 25.4L29.94 25.4L29.94 25.41ZM31.1 25.4C31.04 25.06 30.87 24.87 30.53 24.87C30.38 24.87 30.23 24.92 30.12 25.02C30.02 25.12 29.95 25.26 29.94 25.4L31.1 25.4Z" />
	<path id="Layer" class="shp2" d="M18.56 9.78C18.47 9.69 18.36 9.61 18.23 9.56C18.11 9.51 17.98 9.48 17.85 9.48C17.71 9.48 17.58 9.51 17.46 9.56C17.34 9.61 17.22 9.69 17.13 9.78L17 9.91C16.93 10.09 16.52 10.24 16.09 10.25C15.66 10.25 15.25 10.12 15.18 9.96L15.08 9.84C14.94 9.7 14.76 9.61 14.56 9.57C14.37 9.53 14.17 9.55 13.99 9.63C13.8 9.71 13.65 9.84 13.54 10C13.43 10.17 13.37 10.36 13.37 10.56C13.37 10.76 13.43 10.95 13.54 11.11C13.65 11.28 13.8 11.41 13.99 11.48C14.17 11.56 14.37 11.58 14.56 11.54C14.76 11.51 14.94 11.41 15.08 11.27L15.21 11.14C15.28 10.96 15.68 10.81 16.12 10.8C16.55 10.8 16.96 10.93 17.03 11.09L17.16 11.21C17.25 11.31 17.36 11.4 17.48 11.45C17.61 11.51 17.74 11.54 17.88 11.54C18.02 11.55 18.15 11.52 18.28 11.47C18.41 11.42 18.52 11.34 18.62 11.24C18.71 11.15 18.79 11.03 18.84 10.9C18.89 10.77 18.91 10.64 18.9 10.5C18.9 10.36 18.87 10.23 18.81 10.11C18.75 9.98 18.66 9.87 18.56 9.78L18.56 9.78Z" />
	<path id="Layer" class="shp2" d="M22.05 6.41C21.96 6.31 21.84 6.24 21.72 6.19C21.6 6.14 21.47 6.11 21.33 6.11C21.2 6.11 21.07 6.14 20.95 6.19C20.82 6.24 20.71 6.31 20.62 6.41L20.49 6.54C20.42 6.71 20.01 6.87 19.58 6.87C19.15 6.88 18.74 6.75 18.67 6.59L18.54 6.47C18.4 6.33 18.22 6.23 18.03 6.19C17.83 6.16 17.63 6.18 17.45 6.25C17.27 6.33 17.11 6.46 17 6.62C16.89 6.79 16.83 6.98 16.83 7.18C16.83 7.38 16.89 7.57 17 7.74C17.11 7.9 17.27 8.03 17.45 8.11C17.63 8.18 17.83 8.2 18.03 8.17C18.22 8.13 18.4 8.04 18.54 7.9L18.67 7.76C18.74 7.59 19.15 7.44 19.58 7.43C20.01 7.42 20.42 7.55 20.49 7.71L20.62 7.84C20.81 8.01 21.06 8.1 21.32 8.09C21.57 8.08 21.82 7.97 22 7.79C22.18 7.6 22.28 7.36 22.28 7.1C22.29 6.85 22.2 6.6 22.02 6.41L22.05 6.41Z" />
	<path id="Layer" class="shp2" d="M22.12 12.99C22.02 12.9 21.91 12.82 21.79 12.77C21.67 12.72 21.53 12.69 21.4 12.69C21.27 12.69 21.14 12.72 21.01 12.77C20.89 12.82 20.78 12.9 20.68 12.99L20.56 13.12C20.49 13.3 20.08 13.45 19.65 13.46C19.22 13.47 18.81 13.33 18.73 13.17L18.61 13.05C18.47 12.91 18.29 12.81 18.09 12.78C17.9 12.74 17.7 12.76 17.51 12.84C17.33 12.91 17.18 13.04 17.07 13.21C16.96 13.37 16.9 13.57 16.9 13.76C16.9 13.96 16.96 14.16 17.07 14.32C17.18 14.48 17.33 14.61 17.51 14.69C17.7 14.77 17.9 14.79 18.09 14.75C18.29 14.71 18.47 14.62 18.61 14.48L18.74 14.35C18.8 14.17 19.21 14.02 19.64 14.01C20.07 14 20.48 14.14 20.56 14.3L20.68 14.42C20.88 14.59 21.13 14.68 21.38 14.67C21.64 14.66 21.88 14.55 22.06 14.37C22.24 14.18 22.34 13.94 22.35 13.68C22.35 13.43 22.26 13.18 22.09 12.99L22.12 12.99Z" />
	<path id="Layer" class="shp2" d="M14.96 6.49C14.86 6.39 14.75 6.32 14.63 6.27C14.5 6.22 14.37 6.19 14.24 6.19C14.11 6.2 13.98 6.22 13.85 6.28C13.73 6.33 13.62 6.4 13.53 6.5L13.4 6.63C13.34 6.81 12.93 6.96 12.5 6.98C12.07 7 11.66 6.86 11.59 6.69L11.46 6.57C11.32 6.43 11.14 6.34 10.95 6.31C10.75 6.27 10.55 6.29 10.37 6.37C10.19 6.45 10.03 6.58 9.92 6.75C9.82 6.91 9.76 7.11 9.76 7.3C9.76 7.5 9.82 7.7 9.94 7.86C10.05 8.02 10.2 8.15 10.39 8.22C10.57 8.3 10.77 8.32 10.97 8.28C11.16 8.24 11.34 8.14 11.48 8L11.6 7.87C11.68 7.69 12.08 7.54 12.51 7.53C12.94 7.53 13.36 7.66 13.43 7.82L13.55 7.94C13.75 8.11 14 8.2 14.25 8.19C14.51 8.18 14.75 8.07 14.93 7.89C15.11 7.71 15.21 7.46 15.22 7.21C15.22 6.95 15.13 6.7 14.96 6.51L14.96 6.49Z" />
	<path id="Layer" class="shp2" d="M15.02 13.05C14.93 12.95 14.82 12.88 14.7 12.83C14.57 12.77 14.44 12.75 14.31 12.75C14.18 12.75 14.04 12.77 13.92 12.83C13.8 12.88 13.69 12.95 13.59 13.05L13.46 13.18C13.4 13.35 12.99 13.51 12.56 13.51C12.13 13.52 11.72 13.39 11.64 13.23L11.52 13.11C11.37 12.97 11.2 12.87 11 12.83C10.81 12.8 10.61 12.82 10.42 12.89C10.24 12.97 10.08 13.1 9.97 13.26C9.86 13.43 9.81 13.62 9.81 13.82C9.81 14.02 9.86 14.21 9.97 14.38C10.08 14.54 10.24 14.67 10.42 14.75C10.61 14.82 10.81 14.84 11 14.81C11.2 14.77 11.37 14.68 11.52 14.54L11.64 14.4C11.72 14.23 12.12 14.08 12.55 14.07C12.98 14.06 13.39 14.19 13.47 14.35L13.59 14.48C13.68 14.58 13.8 14.66 13.92 14.72C14.05 14.77 14.18 14.8 14.32 14.81C14.45 14.81 14.59 14.78 14.72 14.73C14.84 14.68 14.96 14.6 15.05 14.51C15.15 14.41 15.23 14.29 15.27 14.16C15.32 14.04 15.35 13.9 15.34 13.76C15.34 13.63 15.3 13.49 15.24 13.37C15.19 13.25 15.1 13.14 15 13.05L15.02 13.05Z" />
	<path id="Layer" class="shp2" d="M16.83 9.61C16.92 9.51 17 9.4 17.05 9.28C17.1 9.15 17.13 9.02 17.13 8.89C17.13 8.76 17.1 8.62 17.05 8.5C17 8.38 16.92 8.27 16.83 8.17C16.57 7.89 16.4 7.52 16.36 7.14C16.39 6.76 16.53 6.41 16.76 6.12C16.9 5.98 16.99 5.8 17.03 5.6C17.06 5.41 17.04 5.21 16.96 5.03C16.88 4.85 16.75 4.69 16.59 4.58C16.42 4.47 16.23 4.42 16.03 4.42C15.83 4.42 15.64 4.48 15.47 4.59C15.31 4.71 15.18 4.86 15.11 5.05C15.03 5.23 15.01 5.43 15.05 5.62C15.09 5.82 15.19 6 15.33 6.14C15.59 6.42 15.76 6.79 15.8 7.17C15.78 7.55 15.63 7.92 15.38 8.21C15.28 8.3 15.2 8.42 15.15 8.54C15.1 8.66 15.07 8.8 15.07 8.93C15.06 9.07 15.09 9.2 15.14 9.33C15.19 9.45 15.27 9.56 15.36 9.66C15.46 9.75 15.58 9.83 15.7 9.88C15.83 9.93 15.96 9.95 16.1 9.95C16.23 9.94 16.37 9.91 16.49 9.86C16.61 9.8 16.72 9.72 16.81 9.62L16.83 9.61Z" />
	<path id="Layer" class="shp2" d="M16.89 16.31C16.99 16.22 17.06 16.11 17.11 15.98C17.17 15.86 17.19 15.73 17.19 15.59C17.19 15.46 17.17 15.33 17.11 15.21C17.06 15.08 16.99 14.97 16.89 14.88C16.63 14.6 16.46 14.23 16.41 13.85C16.44 13.47 16.58 13.1 16.83 12.81C16.97 12.67 17.06 12.49 17.1 12.3C17.14 12.1 17.11 11.9 17.04 11.72C16.96 11.53 16.83 11.38 16.67 11.27C16.5 11.16 16.31 11.1 16.11 11.1C15.91 11.1 15.72 11.16 15.55 11.27C15.39 11.38 15.26 11.53 15.18 11.72C15.11 11.9 15.09 12.1 15.13 12.3C15.16 12.49 15.26 12.67 15.4 12.81C15.66 13.1 15.82 13.46 15.87 13.85C15.84 14.23 15.7 14.59 15.45 14.89C15.26 15.08 15.16 15.33 15.16 15.6C15.17 15.87 15.27 16.12 15.46 16.31C15.65 16.49 15.91 16.6 16.17 16.59C16.44 16.59 16.7 16.48 16.88 16.29L16.89 16.31Z" />
	<path id="Layer" class="shp2" d="M13.24 12.92C13.34 12.83 13.41 12.71 13.46 12.59C13.51 12.47 13.54 12.34 13.54 12.2C13.54 12.07 13.51 11.94 13.46 11.82C13.41 11.69 13.34 11.58 13.24 11.49C12.98 11.2 12.81 10.84 12.77 10.45C12.8 10.07 12.94 9.71 13.19 9.41C13.32 9.27 13.42 9.09 13.45 8.9C13.49 8.7 13.46 8.5 13.39 8.32C13.31 8.14 13.18 7.98 13.01 7.87C12.85 7.77 12.65 7.71 12.45 7.71C12.26 7.71 12.06 7.77 11.9 7.88C11.74 8 11.61 8.15 11.53 8.34C11.46 8.52 11.44 8.72 11.48 8.92C11.52 9.11 11.62 9.29 11.76 9.43C12.02 9.72 12.18 10.09 12.22 10.48C12.19 10.86 12.05 11.22 11.8 11.51C11.71 11.61 11.64 11.72 11.59 11.84C11.54 11.96 11.51 12.09 11.51 12.23C11.52 12.49 11.62 12.75 11.81 12.93C12 13.12 12.26 13.22 12.53 13.22C12.66 13.22 12.79 13.19 12.91 13.14C13.03 13.09 13.14 13.01 13.23 12.92L13.24 12.92Z" />
	<path id="Layer" class="shp2" d="M20.38 12.85C20.48 12.76 20.55 12.65 20.6 12.52C20.65 12.4 20.68 12.27 20.68 12.13C20.68 12 20.65 11.87 20.6 11.75C20.55 11.62 20.48 11.51 20.38 11.42C20.12 11.13 19.96 10.77 19.91 10.38C19.94 10 20.08 9.64 20.33 9.34C20.47 9.2 20.56 9.02 20.6 8.83C20.63 8.63 20.61 8.43 20.53 8.25C20.45 8.07 20.32 7.91 20.16 7.8C19.99 7.7 19.8 7.64 19.6 7.64C19.4 7.64 19.21 7.7 19.04 7.82C18.88 7.93 18.75 8.08 18.68 8.27C18.6 8.45 18.58 8.65 18.62 8.85C18.66 9.04 18.76 9.22 18.9 9.36C19.17 9.65 19.33 10.02 19.37 10.41C19.35 10.8 19.2 11.16 18.95 11.45C18.85 11.55 18.78 11.66 18.72 11.78C18.67 11.91 18.64 12.04 18.64 12.17C18.64 12.31 18.66 12.44 18.71 12.57C18.76 12.69 18.84 12.81 18.94 12.9C19.03 13 19.15 13.07 19.27 13.12C19.4 13.17 19.53 13.19 19.67 13.19C19.8 13.19 19.94 13.16 20.06 13.1C20.18 13.04 20.29 12.96 20.38 12.86L20.38 12.85Z" />
</svg>