<svg width="42" height="42" viewBox="0 0 42 42" fill="none" xmlns="http://www.w3.org/2000/svg">
<path d="M11.1001 15.5235C11.1001 11.0923 14.6924 7.5 19.1236 7.5H22.8766C27.3078 7.5 30.9001 11.0923 30.9001 15.5235V19.2765C30.9001 23.7077 27.3078 27.3 22.8766 27.3H19.1236C14.6924 27.3 11.1001 23.7077 11.1001 19.2765V15.5235Z" fill="#FF5C00"/>
<path d="M5.91447 32.0306C5.90459 32.2211 5.93484 32.4116 6.00326 32.5897C6.07168 32.7678 6.17674 32.9295 6.31164 33.0644C6.44653 33.1993 6.60826 33.3043 6.78634 33.3728C6.96443 33.4412 7.15489 33.4714 7.34541 33.4615C7.53352 33.4609 7.72054 33.4329 7.90062 33.3786V32.4599H7.0907V31.7244H8.7048V33.8994C8.31283 34.1528 7.85785 34.2916 7.3912 34.3001C6.03753 34.3001 5.10169 33.3957 5.10169 32.0421C5.09034 31.7454 5.13969 31.4495 5.24672 31.1725C5.35375 30.8956 5.51621 30.6434 5.72414 30.4315C5.93206 30.2195 6.18108 30.0523 6.45593 29.94C6.73077 29.8276 7.02566 29.7726 7.32251 29.7783C7.81137 29.7693 8.29143 29.909 8.69908 30.179V31.1749C8.54002 30.988 8.34218 30.8379 8.11929 30.7351C7.89641 30.6323 7.65382 30.5793 7.40837 30.5796C6.54694 30.5796 5.91447 31.1234 5.91447 32.0306Z" fill="#131313"/>
<path d="M9.22544 32.7318C9.22112 32.5324 9.25729 32.3343 9.33178 32.1493C9.40626 31.9643 9.5175 31.7964 9.65876 31.6557C9.80003 31.5149 9.96838 31.4043 10.1536 31.3306C10.3389 31.2568 10.5372 31.2214 10.7365 31.2264C10.9342 31.2264 11.13 31.2654 11.3126 31.341C11.4952 31.4167 11.6612 31.5276 11.801 31.6673C11.9407 31.8071 12.0516 31.9731 12.1273 32.1557C12.2029 32.3383 12.2419 32.5341 12.2419 32.7318C12.2419 32.9295 12.2029 33.1252 12.1273 33.3078C12.0516 33.4905 11.9407 33.6564 11.801 33.7962C11.6612 33.936 11.4952 34.0469 11.3126 34.1225C11.13 34.1982 10.9342 34.2371 10.7365 34.2371C10.5373 34.2418 10.3392 34.2061 10.1541 34.1322C9.96904 34.0583 9.80085 33.9476 9.65967 33.807C9.51848 33.6663 9.40723 33.4986 9.3326 33.3138C9.25798 33.129 9.22153 32.931 9.22544 32.7318ZM11.4148 32.7318C11.4273 32.6353 11.4192 32.5373 11.3908 32.4442C11.3625 32.3512 11.3146 32.2652 11.2504 32.1921C11.1863 32.119 11.1072 32.0605 11.0186 32.0204C10.93 31.9802 10.8338 31.9595 10.7365 31.9595C10.6392 31.9595 10.5431 31.9802 10.4545 32.0204C10.3658 32.0605 10.2868 32.119 10.2226 32.1921C10.1584 32.2652 10.1105 32.3512 10.0822 32.4442C10.0539 32.5373 10.0457 32.6353 10.0583 32.7318C10.0457 32.8282 10.0539 32.9263 10.0822 33.0193C10.1105 33.1124 10.1584 33.1983 10.2226 33.2714C10.2868 33.3445 10.3658 33.4031 10.4545 33.4432C10.5431 33.4833 10.6392 33.5041 10.7365 33.5041C10.8338 33.5041 10.93 33.4833 11.0186 33.4432C11.1072 33.4031 11.1863 33.3445 11.2504 33.2714C11.3146 33.1983 11.3625 33.1124 11.3908 33.0193C11.4192 32.9263 11.4273 32.8282 11.4148 32.7318Z" fill="#131313"/>
<path d="M12.5654 33.1554V29.8356H13.4097V33.1697C13.4097 33.4072 13.5327 33.5245 13.713 33.5245C13.7616 33.5276 13.8103 33.5197 13.8554 33.5014C13.9005 33.483 13.9408 33.4548 13.9735 33.4186L14.377 34.0139C14.1908 34.1628 13.9569 34.2391 13.7188 34.2286C12.9318 34.2371 12.5654 33.8079 12.5654 33.1554Z" fill="#131313"/>
<path d="M17.4162 29.8356V34.1799H16.6692L16.6234 33.8765C16.5177 33.9899 16.3896 34.0799 16.2472 34.141C16.1048 34.2021 15.9513 34.2329 15.7963 34.2314C15.0036 34.2314 14.4541 33.5703 14.4541 32.7261C14.4541 31.8818 15.0036 31.2207 15.7963 31.2207C15.9416 31.2181 16.086 31.2443 16.2211 31.2979C16.3562 31.3514 16.4793 31.4312 16.5833 31.5327V29.8356H17.4162ZM16.5833 33.038V32.4256C16.5389 32.2945 16.4557 32.1801 16.3448 32.0973C16.234 32.0145 16.1006 31.9673 15.9623 31.9619C15.775 31.9849 15.6026 32.0755 15.4776 32.2168C15.3525 32.3581 15.2835 32.5403 15.2835 32.7289C15.2835 32.9176 15.3525 33.0998 15.4776 33.2411C15.6026 33.3823 15.775 33.473 15.9623 33.4959C16.1001 33.4917 16.2333 33.4457 16.3443 33.3639C16.4552 33.2821 16.5386 33.1684 16.5833 33.038Z" fill="#131313"/>
<path d="M20.7447 32.975H18.7814C18.7792 33.0583 18.7944 33.141 18.8261 33.2181C18.8577 33.2951 18.9051 33.3646 18.9652 33.4223C19.0253 33.4799 19.0967 33.5244 19.175 33.5528C19.2532 33.5813 19.3365 33.5931 19.4196 33.5875C19.5575 33.5919 19.6938 33.5568 19.8125 33.4863C19.9311 33.4158 20.0272 33.3129 20.0893 33.1897L20.6874 33.4759C20.5758 33.7102 20.3978 33.9066 20.1754 34.0404C19.953 34.1743 19.6961 34.2397 19.4368 34.2285C18.4237 34.2285 17.9429 33.5846 17.9429 32.7232C17.9429 31.8618 18.4809 31.2207 19.3967 31.2207C20.2352 31.2207 20.7504 31.8103 20.7504 32.7261C20.7539 32.8091 20.752 32.8923 20.7447 32.975ZM18.7986 32.4027H19.9691C19.9118 32.065 19.7373 31.8732 19.3967 31.8732C19.2467 31.8662 19.1 31.9183 18.9881 32.0184C18.8762 32.1185 18.8082 32.2586 18.7986 32.4084V32.4027Z" fill="#131313"/>
<path d="M24.1017 32.3483V34.1799H23.2574V32.4628C23.2577 32.3941 23.2436 32.3261 23.2161 32.2632C23.1885 32.2003 23.1481 32.1438 23.0974 32.0975C23.0468 32.0511 22.987 32.0159 22.9218 31.994C22.8567 31.9721 22.7878 31.9641 22.7194 31.9705C22.5699 31.965 22.4242 32.0183 22.3135 32.1188C22.2028 32.2194 22.1358 32.3593 22.127 32.5086V34.1885H21.2827V31.2837H22.0411L22.0869 31.6185C22.198 31.4949 22.3339 31.396 22.4858 31.3285C22.6377 31.2609 22.8021 31.2261 22.9684 31.2264C23.1188 31.2165 23.2696 31.2386 23.4109 31.2913C23.5521 31.344 23.6806 31.4261 23.7877 31.5321C23.8948 31.6382 23.9782 31.7658 24.0324 31.9065C24.0865 32.0472 24.1101 32.1978 24.1017 32.3483Z" fill="#131313"/>
<path d="M26.2026 29.8356H27.0784V33.4158H28.5551V34.1799H26.2026V29.8356Z" fill="#131313"/>
<path d="M29.0845 30.3106C29.0839 30.2159 29.1115 30.1231 29.1638 30.044C29.2161 29.965 29.2907 29.9033 29.3782 29.8668C29.4656 29.8302 29.562 29.8205 29.6549 29.8389C29.7479 29.8572 29.8333 29.9028 29.9004 29.9698C29.9674 30.0368 30.0129 30.1223 30.0313 30.2152C30.0496 30.3082 30.0399 30.4045 30.0034 30.492C29.9669 30.5794 29.9052 30.654 29.8262 30.7063C29.7471 30.7586 29.6543 30.7863 29.5596 30.7857C29.434 30.7842 29.314 30.7337 29.2253 30.6449C29.1365 30.5561 29.086 30.4362 29.0845 30.3106ZM29.1389 31.2837H29.986V34.1799H29.1274L29.1389 31.2837Z" fill="#131313"/>
<path d="M33.5659 32.3483V34.1799H32.7073V32.4628C32.7081 32.3939 32.6943 32.3257 32.6669 32.2626C32.6395 32.1995 32.5991 32.1429 32.5483 32.0964C32.4976 32.0499 32.4375 32.0147 32.3722 31.993C32.3069 31.9713 32.2378 31.9637 32.1693 31.9705C32.0203 31.9658 31.8754 32.0193 31.7653 32.1198C31.6552 32.2203 31.5886 32.3598 31.5798 32.5085V34.1885H30.7212V31.2837H31.4796L31.5254 31.6185C31.636 31.4951 31.7715 31.3963 31.9229 31.3288C32.0743 31.2612 32.2382 31.2263 32.404 31.2264C32.5567 31.2121 32.7107 31.231 32.8554 31.2818C33.0002 31.3326 33.1322 31.414 33.2426 31.5205C33.3529 31.6271 33.4389 31.7562 33.4947 31.8991C33.5505 32.0419 33.5748 32.1952 33.5659 32.3483Z" fill="#131313"/>
<path d="M36.8828 32.9751H34.9196C34.9174 33.0583 34.9326 33.1411 34.9643 33.2181C34.9959 33.2951 35.0433 33.3647 35.1034 33.4223C35.1634 33.48 35.2349 33.5244 35.3131 33.5529C35.3914 33.5813 35.4747 33.5931 35.5578 33.5875C35.6957 33.5916 35.8318 33.5563 35.9504 33.4859C36.069 33.4154 36.1651 33.3127 36.2275 33.1897L36.8227 33.4759C36.712 33.7103 36.5345 33.9067 36.3125 34.0406C36.0905 34.1745 35.8339 34.2399 35.575 34.2286C34.5619 34.2286 34.0811 33.5847 34.0811 32.7232C34.0811 31.8618 34.6191 31.2122 35.5463 31.2122C36.3849 31.2122 36.9 31.8017 36.9 32.7175C36.9001 32.8037 36.8943 32.8897 36.8828 32.9751ZM34.9368 32.4027H36.1015C36.0443 32.065 35.8697 31.8733 35.5292 31.8733C35.3802 31.8677 35.2349 31.9206 35.1243 32.0205C35.0136 32.1205 34.9463 32.2596 34.9368 32.4084V32.4027Z" fill="#131313"/>
<path d="M23.5612 16.7796C23.4675 16.6851 23.3561 16.6101 23.2333 16.5589C23.1105 16.5077 22.9788 16.4814 22.8457 16.4814C22.7127 16.4814 22.5809 16.5077 22.4581 16.5589C22.3353 16.6101 22.2239 16.6851 22.1302 16.7796L22.0043 16.9084C21.9328 17.0858 21.5235 17.2375 21.0942 17.2461C20.665 17.2547 20.2528 17.123 20.1784 16.9599L20.0783 16.8426C19.9372 16.7035 19.7582 16.6093 19.5637 16.5718C19.3693 16.5342 19.1681 16.5549 18.9854 16.6314C18.8027 16.7078 18.6467 16.8366 18.5369 17.0015C18.4272 17.1663 18.3687 17.36 18.3687 17.558C18.3687 17.7561 18.4272 17.9497 18.5369 18.1146C18.6467 18.2795 18.8027 18.4082 18.9854 18.4847C19.1681 18.5611 19.3693 18.5819 19.5637 18.5443C19.7582 18.5067 19.9372 18.4125 20.0783 18.2735L20.2071 18.1447C20.2786 17.9644 20.685 17.8127 21.1171 17.8042C21.5493 17.7956 21.9585 17.9301 22.0301 18.0903L22.156 18.2134C22.2478 18.3149 22.3595 18.3966 22.4841 18.4535C22.6086 18.5103 22.7435 18.5411 22.8804 18.5439C23.0173 18.5467 23.1533 18.5215 23.2801 18.4698C23.4069 18.4181 23.5218 18.3411 23.6177 18.2434C23.7136 18.1457 23.7886 18.0294 23.8379 17.9017C23.8873 17.774 23.91 17.6375 23.9047 17.5007C23.8994 17.3639 23.8662 17.2296 23.8072 17.1061C23.7481 16.9826 23.6644 16.8724 23.5612 16.7825V16.7796Z" fill="white"/>
<path d="M27.0498 13.4083C26.9564 13.3135 26.845 13.2382 26.7222 13.1868C26.5993 13.1354 26.4675 13.1089 26.3344 13.1089C26.2012 13.1089 26.0694 13.1354 25.9466 13.1868C25.8237 13.2382 25.7124 13.3135 25.6189 13.4083L25.493 13.5371C25.4214 13.7145 25.0122 13.8662 24.5829 13.8748C24.1536 13.8834 23.7415 13.7517 23.6671 13.5886L23.5412 13.4655C23.4001 13.3265 23.2211 13.2323 23.0266 13.1947C22.8322 13.1572 22.631 13.1779 22.4483 13.2544C22.2656 13.3308 22.1095 13.4596 21.9998 13.6245C21.8901 13.7893 21.8315 13.983 21.8315 14.181C21.8315 14.3791 21.8901 14.5727 21.9998 14.7376C22.1095 14.9024 22.2656 15.0312 22.4483 15.1077C22.631 15.1841 22.8322 15.2049 23.0266 15.1673C23.2211 15.1297 23.4001 15.0355 23.5412 14.8965L23.6699 14.7648C23.7415 14.5874 24.1479 14.4357 24.58 14.4271C25.0122 14.4186 25.4186 14.5502 25.493 14.7133L25.6189 14.8392C25.8119 15.0076 26.062 15.0958 26.3179 15.0859C26.5739 15.076 26.8164 14.9687 26.9958 14.786C27.1753 14.6032 27.2782 14.3588 27.2834 14.1028C27.2887 13.8467 27.1959 13.5983 27.0241 13.4083H27.0498Z" fill="white"/>
<path d="M27.1158 19.9907C27.0221 19.8962 26.9107 19.8212 26.7879 19.77C26.6651 19.7188 26.5333 19.6924 26.4003 19.6924C26.2672 19.6924 26.1355 19.7188 26.0127 19.77C25.8899 19.8212 25.7785 19.8962 25.6848 19.9907L25.556 20.1223C25.4873 20.2969 25.0781 20.4486 24.6488 20.4571C24.2195 20.4657 23.8074 20.3341 23.733 20.171L23.6071 20.0479C23.466 19.9089 23.287 19.8147 23.0926 19.7771C22.8981 19.7395 22.6969 19.7603 22.5142 19.8367C22.3315 19.9132 22.1755 20.0419 22.0657 20.2068C21.956 20.3717 21.8975 20.5653 21.8975 20.7634C21.8975 20.9614 21.956 21.155 22.0657 21.3199C22.1755 21.4848 22.3315 21.6136 22.5142 21.69C22.6969 21.7665 22.8981 21.7872 23.0926 21.7496C23.287 21.7121 23.466 21.6179 23.6071 21.4788L23.7359 21.35C23.8046 21.1698 24.2138 21.0181 24.6431 21.0095C25.0724 21.0009 25.4845 21.1354 25.5589 21.2957L25.6848 21.4187C25.8779 21.5871 26.1279 21.6753 26.3839 21.6654C26.6398 21.6555 26.8823 21.5482 27.0618 21.3655C27.2412 21.1827 27.3441 20.9383 27.3493 20.6822C27.3546 20.4262 27.2618 20.1777 27.09 19.9878L27.1158 19.9907Z" fill="white"/>
<path d="M19.958 13.4856C19.8634 13.392 19.7512 13.3181 19.6279 13.2682C19.5046 13.2182 19.3726 13.1932 19.2395 13.1945C19.1065 13.1958 18.975 13.2235 18.8527 13.2759C18.7304 13.3283 18.6198 13.4045 18.527 13.4999L18.4011 13.6315C18.341 13.809 17.9318 13.9578 17.5025 13.9807C17.0732 14.0036 16.6611 13.8576 16.5867 13.6945L16.4636 13.5714C16.3212 13.4339 16.1412 13.3414 15.9464 13.3058C15.7516 13.2702 15.5506 13.293 15.3687 13.3713C15.1868 13.4495 15.032 13.5798 14.924 13.7458C14.8159 13.9118 14.7593 14.106 14.7613 14.304C14.7633 14.502 14.8237 14.6951 14.9351 14.8588C15.0465 15.0226 15.2038 15.1498 15.3872 15.2244C15.5707 15.2991 15.7721 15.3178 15.9661 15.2783C16.1602 15.2388 16.3383 15.1428 16.4779 15.0024L16.6039 14.8707C16.6754 14.6933 17.0847 14.5388 17.5139 14.533C17.9432 14.5273 18.3553 14.6561 18.4269 14.8192L18.5528 14.9423C18.7458 15.1106 18.9959 15.1989 19.2518 15.189C19.5078 15.1791 19.7503 15.0718 19.9297 14.889C20.1092 14.7063 20.2121 14.4619 20.2173 14.2058C20.2226 13.9497 20.1298 13.7013 19.958 13.5113V13.4856Z" fill="white"/>
<path d="M20.024 20.0479C19.9305 19.9531 19.8191 19.8778 19.6963 19.8263C19.5735 19.7749 19.4416 19.7485 19.3085 19.7485C19.1753 19.7485 19.0435 19.7749 18.9207 19.8263C18.7979 19.8778 18.6865 19.9531 18.593 20.0479L18.4642 20.1767C18.3955 20.3541 17.9863 20.5058 17.557 20.5144C17.1277 20.523 16.7156 20.3913 16.6412 20.2282L16.5153 20.1051C16.3742 19.9661 16.1952 19.8719 16.0008 19.8343C15.8063 19.7968 15.6051 19.8175 15.4224 19.894C15.2397 19.9704 15.0837 20.0992 14.9739 20.264C14.8642 20.4289 14.8057 20.6226 14.8057 20.8206C14.8057 21.0187 14.8642 21.2123 14.9739 21.3772C15.0837 21.542 15.2397 21.6708 15.4224 21.7473C15.6051 21.8237 15.8063 21.8445 16.0008 21.8069C16.1952 21.7693 16.3742 21.6751 16.5153 21.5361L16.6441 21.4044C16.7156 21.227 17.122 21.0753 17.5513 21.0667C17.9806 21.0581 18.3927 21.1898 18.4671 21.3529L18.593 21.476C18.6849 21.5775 18.7965 21.6592 18.9211 21.716C19.0456 21.7729 19.1805 21.8036 19.3174 21.8064C19.4543 21.8092 19.5903 21.784 19.7171 21.7324C19.8439 21.6807 19.9588 21.6036 20.0547 21.5059C20.1506 21.4083 20.2256 21.292 20.275 21.1643C20.3243 21.0366 20.3471 20.9001 20.3418 20.7633C20.3365 20.6265 20.3033 20.4922 20.2442 20.3687C20.1851 20.2452 20.1014 20.135 19.9982 20.045L20.024 20.0479Z" fill="white"/>
<path d="M21.8266 16.605C21.9214 16.5116 21.9967 16.4002 22.0481 16.2774C22.0995 16.1545 22.126 16.0227 22.126 15.8896C22.126 15.7564 22.0995 15.6246 22.0481 15.5018C21.9967 15.3789 21.9214 15.2676 21.8266 15.1741C21.5658 14.8854 21.4026 14.5219 21.3601 14.1352C21.3856 13.7642 21.5256 13.4102 21.7607 13.1221C21.8983 12.9797 21.9907 12.7997 22.0263 12.6049C22.062 12.4101 22.0392 12.2091 21.9609 12.0272C21.8826 11.8453 21.7523 11.6906 21.5864 11.5825C21.4204 11.4744 21.2262 11.4178 21.0282 11.4198C20.8301 11.4218 20.6371 11.4822 20.4733 11.5936C20.3096 11.705 20.1824 11.8623 20.1077 12.0457C20.0331 12.2292 20.0144 12.4306 20.0539 12.6246C20.0934 12.8187 20.1894 12.9968 20.3298 13.1364C20.592 13.4233 20.7564 13.7861 20.7991 14.1724C20.7767 14.555 20.63 14.9197 20.3813 15.2113C20.2828 15.3039 20.204 15.4155 20.1497 15.5393C20.0953 15.663 20.0665 15.7965 20.065 15.9317C20.0635 16.0669 20.0893 16.201 20.1408 16.326C20.1923 16.451 20.2686 16.5643 20.3649 16.6591C20.4613 16.7539 20.5758 16.8283 20.7016 16.8778C20.8274 16.9273 20.9619 16.9509 21.097 16.9472C21.2322 16.9435 21.3652 16.9126 21.4881 16.8562C21.611 16.7999 21.7212 16.7193 21.8122 16.6194L21.8266 16.605Z" fill="white"/>
<path d="M21.8927 23.3104C21.9876 23.2169 22.0629 23.1056 22.1143 22.9827C22.1657 22.8599 22.1922 22.7281 22.1922 22.5949C22.1922 22.4618 22.1657 22.33 22.1143 22.2071C22.0629 22.0843 21.9876 21.9729 21.8927 21.8795C21.6285 21.5952 21.4611 21.2345 21.4148 20.8492C21.4371 20.4676 21.5816 20.1034 21.8269 19.8103C21.9659 19.6693 22.0602 19.4903 22.0977 19.2958C22.1353 19.1013 22.1146 18.9001 22.0381 18.7174C21.9616 18.5347 21.8329 18.3787 21.668 18.269C21.5031 18.1593 21.3095 18.1007 21.1115 18.1007C20.9134 18.1007 20.7198 18.1593 20.5549 18.269C20.39 18.3787 20.2613 18.5347 20.1848 18.7174C20.1083 18.9001 20.0876 19.1013 20.1252 19.2958C20.1628 19.4903 20.257 19.6693 20.396 19.8103C20.6594 20.0964 20.824 20.4596 20.8653 20.8463C20.8422 21.2291 20.6968 21.5943 20.4504 21.8881C20.264 22.0778 20.1607 22.3338 20.1631 22.5998C20.1655 22.8657 20.2735 23.1198 20.4632 23.3061C20.653 23.4925 20.909 23.5958 21.1749 23.5934C21.4409 23.591 21.695 23.483 21.8813 23.2932L21.8927 23.3104Z" fill="white"/>
<path d="M18.2409 19.9191C18.3357 19.8256 18.411 19.7142 18.4624 19.5914C18.5138 19.4686 18.5403 19.3368 18.5403 19.2036C18.5403 19.0705 18.5138 18.9386 18.4624 18.8158C18.411 18.693 18.3357 18.5816 18.2409 18.4881C17.978 18.202 17.8144 17.8387 17.7744 17.4521C17.7967 17.0706 17.9412 16.7063 18.1865 16.4133C18.3241 16.2708 18.4165 16.0909 18.4521 15.8961C18.4878 15.7012 18.465 15.5002 18.3867 15.3183C18.3084 15.1364 18.1781 14.9817 18.0121 14.8736C17.8462 14.7655 17.652 14.7089 17.4539 14.7109C17.2559 14.7129 17.0629 14.7734 16.8991 14.8848C16.7353 14.9961 16.6082 15.1534 16.5335 15.3369C16.4589 15.5203 16.4402 15.7217 16.4797 15.9158C16.5192 16.1099 16.6152 16.2879 16.7556 16.4276C17.0169 16.7187 17.1784 17.0857 17.2163 17.475C17.1932 17.8569 17.0477 18.2212 16.8014 18.5139C16.7091 18.6079 16.6362 18.7191 16.587 18.8412C16.5377 18.9633 16.5129 19.0939 16.5141 19.2256C16.5165 19.4915 16.6245 19.7456 16.8142 19.932C17.004 20.1183 17.26 20.2216 17.5259 20.2192C17.6576 20.218 17.7878 20.1909 17.909 20.1394C18.0302 20.0879 18.14 20.013 18.2323 19.9191H18.2409Z" fill="white"/>
<path d="M25.3811 19.8504C25.4752 19.7566 25.5499 19.6451 25.6009 19.5223C25.6519 19.3995 25.6781 19.2679 25.6781 19.1349C25.6781 19.002 25.6519 18.8704 25.6009 18.7476C25.5499 18.6248 25.4752 18.5133 25.3811 18.4195C25.1197 18.1323 24.9564 17.7695 24.9146 17.3835C24.9377 17.0016 25.0832 16.6373 25.3296 16.3446C25.4672 16.2022 25.5596 16.0222 25.5952 15.8274C25.6308 15.6326 25.6081 15.4316 25.5298 15.2497C25.4515 15.0677 25.3212 14.913 25.1552 14.805C24.9893 14.6969 24.7951 14.6403 24.597 14.6423C24.399 14.6442 24.2059 14.7047 24.0422 14.8161C23.8784 14.9275 23.7512 15.0847 23.6766 15.2682C23.602 15.4516 23.5832 15.6531 23.6227 15.8471C23.6622 16.0412 23.7582 16.2192 23.8986 16.3589C24.1658 16.6508 24.3315 17.0212 24.3708 17.415C24.3484 17.7975 24.2017 18.1622 23.953 18.4538C23.8545 18.5464 23.7758 18.658 23.7214 18.7818C23.6671 18.9055 23.6383 19.039 23.6367 19.1742C23.6352 19.3094 23.661 19.4435 23.7125 19.5685C23.764 19.6935 23.8403 19.8068 23.9366 19.9016C24.033 19.9964 24.1475 20.0708 24.2733 20.1203C24.3991 20.1698 24.5336 20.1934 24.6687 20.1897C24.8039 20.186 24.9369 20.1551 25.0598 20.0987C25.1827 20.0424 25.2929 19.9618 25.384 19.8619L25.3811 19.8504Z" fill="white"/>
</svg>
