<svg width="60" height="16" viewBox="0 0 60 16" fill="none" xmlns="http://www.w3.org/2000/svg">
<path d="M45.6847 3.94006H42.4953C42.3076 3.94006 42.12 4.12768 42.0262 4.3153L40.7129 12.5705C40.7129 12.7581 40.8067 12.8519 40.9943 12.8519H42.6829C42.8705 12.8519 42.9643 12.7581 42.9643 12.5705L43.3395 10.2252C43.3395 10.0376 43.5271 9.85 43.8086 9.85H44.8405C46.9981 9.85 48.2176 8.81811 48.499 6.75432C48.6866 5.91004 48.499 5.15958 48.1238 4.69053C47.5609 4.22149 46.7166 3.94006 45.6847 3.94006ZM46.06 7.03575C45.8724 8.16145 45.0281 8.16145 44.1838 8.16145H43.621L43.9962 6.00385C43.9962 5.91004 44.09 5.81623 44.2776 5.81623H44.4652C45.0281 5.81623 45.5909 5.81623 45.8724 6.19147C46.06 6.28528 46.06 6.5667 46.06 7.03575Z" fill="#139AD6"/>
<path d="M22.7018 3.94006H19.5123C19.3247 3.94006 19.1371 4.12768 19.0433 4.3153L17.73 12.5705C17.73 12.7581 17.8238 12.8519 18.0114 12.8519H19.5123C19.7 12.8519 19.8876 12.6643 19.9814 12.4766L20.3566 10.2252C20.3566 10.0376 20.5442 9.85 20.8257 9.85H21.8576C24.0152 9.85 25.2347 8.81811 25.5161 6.75432C25.7037 5.91004 25.5161 5.15958 25.1409 4.69053C24.578 4.22149 23.8275 3.94006 22.7018 3.94006ZM23.0771 7.03575C22.8895 8.16145 22.0452 8.16145 21.2009 8.16145H20.7319L21.1071 6.00385C21.1071 5.91004 21.2009 5.81623 21.3885 5.81623H21.5761C22.139 5.81623 22.7018 5.81623 22.9833 6.19147C23.0771 6.28528 23.1709 6.5667 23.0771 7.03575Z" fill="#263B80"/>
<path d="M32.3641 6.94189H30.8631C30.7693 6.94189 30.5817 7.0357 30.5817 7.12951L30.4879 7.59855L30.3941 7.41093C30.0188 6.94189 29.3622 6.75427 28.6117 6.75427C26.9232 6.75427 25.4222 8.06759 25.1408 9.84996C24.9532 10.788 25.2346 11.6323 25.7037 12.1952C26.1727 12.758 26.8294 12.9456 27.6736 12.9456C29.0808 12.9456 29.8312 12.1014 29.8312 12.1014L29.7374 12.5704C29.7374 12.758 29.8312 12.8518 30.0188 12.8518H31.426C31.6136 12.8518 31.8012 12.6642 31.895 12.4766L32.7393 7.22332C32.6455 7.12951 32.4579 6.94189 32.3641 6.94189ZM30.2065 9.94376C30.0188 10.788 29.3622 11.4447 28.4241 11.4447C27.9551 11.4447 27.5798 11.2571 27.3922 11.0695C27.2046 10.788 27.1108 10.4128 27.1108 9.94376C27.2046 9.09949 27.9551 8.44283 28.7993 8.44283C29.2684 8.44283 29.5498 8.63044 29.8312 8.81806C30.1127 9.09949 30.2065 9.56853 30.2065 9.94376Z" fill="#263B80"/>
<path d="M55.2532 6.94195H53.7523C53.6585 6.94195 53.4709 7.03576 53.4709 7.12957L53.377 7.59861L53.2832 7.41099C52.908 6.94195 52.2513 6.75433 51.5009 6.75433C49.8123 6.75433 48.3114 8.06765 48.03 9.85002C47.8423 10.7881 48.1238 11.6324 48.5928 12.1952C49.0619 12.7581 49.7185 12.9457 50.5628 12.9457C51.9699 12.9457 52.7204 12.1014 52.7204 12.1014L52.6266 12.5705C52.6266 12.7581 52.7204 12.8519 52.908 12.8519H54.3151C54.5028 12.8519 54.6904 12.6643 54.7842 12.4767L55.6285 7.22338C55.5346 7.12957 55.4408 6.94195 55.2532 6.94195ZM53.0956 9.94382C52.908 10.7881 52.2513 11.4448 51.3133 11.4448C50.8442 11.4448 50.469 11.2571 50.2814 11.0695C50.0937 10.7881 49.9999 10.4129 49.9999 9.94382C50.0937 9.09955 50.8442 8.44289 51.6885 8.44289C52.1575 8.44289 52.439 8.6305 52.7204 8.81812C53.0956 9.09955 53.1894 9.56859 53.0956 9.94382Z" fill="#139AD6"/>
<path d="M40.5255 6.94177H38.9308C38.7431 6.94177 38.6493 7.03558 38.5555 7.12939L36.4917 10.3189L35.5537 7.31701C35.4598 7.12939 35.366 7.03558 35.0846 7.03558H33.5837C33.3961 7.03558 33.3022 7.2232 33.3022 7.41082L34.9908 12.3827L33.3961 14.6341C33.3022 14.8217 33.3961 15.1031 33.5837 15.1031H35.0846C35.2722 15.1031 35.366 15.0093 35.4598 14.9155L40.6193 7.50462C40.9007 7.2232 40.7131 6.94177 40.5255 6.94177Z" fill="#263B80"/>
<path d="M57.0355 4.22131L55.7222 12.6641C55.7222 12.8517 55.816 12.9455 56.0036 12.9455H57.3169C57.5045 12.9455 57.6921 12.7579 57.786 12.5703L59.0993 4.31511C59.0993 4.1275 59.0055 4.03369 58.8178 4.03369H57.3169C57.2231 3.93988 57.1293 4.03369 57.0355 4.22131Z" fill="#139AD6"/>
<path d="M10.788 1.1257C10.1313 0.375233 8.91181 0 7.22326 0H2.53283C2.25141 0 1.96998 0.281424 1.87617 0.56285L0 12.8518C0 13.1332 0.187617 13.3208 0.375234 13.3208H3.2833L4.03377 8.7242V8.91181C4.12758 8.63039 4.409 8.34896 4.69043 8.34896H6.09756C8.818 8.34896 10.8818 7.22326 11.5385 4.12758C11.5385 4.03377 11.5385 3.93996 11.5385 3.84615C11.4446 3.84615 11.4446 3.84615 11.5385 3.84615C11.6323 2.62664 11.4446 1.87617 10.788 1.1257Z" fill="#263B80"/>
<path d="M11.4447 3.84607C11.4447 3.93988 11.4447 4.03369 11.4447 4.1275C10.7881 7.31699 8.72428 8.34888 6.00383 8.34888H4.5967C4.31527 8.34888 4.03385 8.63031 3.94004 8.91173L3.00195 14.6341C3.00195 14.8217 3.09576 15.0093 3.37719 15.0093H5.81621C6.09764 15.0093 6.37906 14.8217 6.37906 14.5402V14.4464L6.8481 11.5384V11.3508C6.8481 11.0693 7.12953 10.8817 7.41096 10.8817H7.78619C10.1314 10.8817 12.0076 9.94363 12.4766 7.12937C12.6642 6.00367 12.5704 4.97177 12.0076 4.31511C11.9138 4.1275 11.7261 3.93988 11.4447 3.84607Z" fill="#139AD6"/>
<path d="M10.7879 3.56475C10.6941 3.56475 10.6003 3.47094 10.5065 3.47094C10.4127 3.47094 10.3189 3.47094 10.2251 3.37713C9.84982 3.28332 9.47459 3.28333 9.00555 3.28333H5.34701C5.2532 3.28333 5.15939 3.28332 5.06559 3.37713C4.87797 3.47094 4.78416 3.65856 4.78416 3.84618L4.03369 8.72422V8.91184C4.1275 8.63041 4.40893 8.34899 4.69035 8.34899H6.09748C8.81793 8.34899 10.8817 7.22328 11.5384 4.1276C11.5384 4.03379 11.5384 3.93998 11.6322 3.84618C11.4446 3.75237 11.3508 3.65856 11.1631 3.65856C10.8817 3.56475 10.8817 3.56475 10.7879 3.56475Z" fill="#232C65"/>
</svg>
