<svg width="965" height="1028" viewBox="0 0 965 1028" fill="none" xmlns="http://www.w3.org/2000/svg">
<path d="M527.554 807.346C645.38 817.895 768.146 792.5 837.861 736.389C907.614 679.623 907.097 578.517 849.339 509.333C791.543 440.804 676.504 404.196 627.443 335.176C578.419 265.502 596.242 162.062 553.314 124.017C511.218 85.2734 408.446 110.616 328.669 149.023C248.134 186.819 190.669 236.371 102.872 262.83C15.0749 289.29 -102.979 291.348 -164.795 333.966C-226.572 375.93 -232.905 458.498 -196.022 519.067C-158.382 580.245 -102.819 702.948 -83.3238 790.591C-63.8284 878.235 -116.374 833.484 -72.803 874.103C-29.2315 914.721 99.7934 881.901 201.162 839.672C302.493 798.099 451.015 788.575 527.554 807.346Z" fill="white"/>
<path fill-rule="evenodd" clip-rule="evenodd" d="M710.84 764.734H-59.3228C-127.967 747.681 -192.441 727.708 -229.249 699.843C-291.871 651.922 -275.055 580.986 -204.487 539.081C-170.72 519.232 -124.621 506.043 -78.9831 492.986C-29.3345 478.781 19.7699 464.731 51.863 442.433C82.7856 420.739 97.779 391.139 111.387 364.275C124.913 337.571 137.07 313.571 162.142 302.726C211.693 280.386 313.348 310.058 389.242 346.246C418.589 359.949 444.19 374.469 469.43 388.783C510.215 411.914 550.055 434.509 603.222 452.254C635.13 462.903 671.857 471.678 708.335 480.394C770.252 495.188 831.453 509.811 867.154 533.137C923.955 569.743 917.171 628.453 869.468 666.721C851.393 681.086 827.775 692.574 803.481 704.391C769.478 720.931 734.149 738.115 710.84 764.734Z" fill="#F8007A"/>
<path opacity="0.3" fill-rule="evenodd" clip-rule="evenodd" d="M14.6418 719.17H595.762C642.422 710.645 685.399 700.659 710.7 687.156C756.889 662.238 744.64 625.507 692.767 603.892C667.944 593.655 634.032 586.885 600.458 580.184C563.934 572.893 527.81 565.682 504.225 554.173C481.501 542.975 470.517 527.659 460.549 513.758C450.641 499.941 441.735 487.522 423.298 481.938C386.86 470.432 311.969 485.948 256.031 504.805C234.401 511.946 215.527 519.505 196.92 526.957C166.852 539 137.481 550.763 98.3075 560.031C74.7978 565.594 47.7441 570.192 20.8737 574.759C-24.736 582.51 -69.8174 590.173 -96.1431 602.309C-138.026 621.356 -133.14 651.767 -98.093 671.528C-84.8132 678.946 -67.4473 684.866 -49.584 690.955C-26.3972 698.858 -2.37238 707.048 14.6418 719.17Z" fill="#131313"/>
<mask id="mask0" mask-type="alpha" maskUnits="userSpaceOnUse" x="-97" y="155" width="851" height="613">
<rect x="-96.0725" y="155.599" width="849.352" height="611.684" fill="#C4C4C4"/>
</mask>
<g mask="url(#mask0)">
<path d="M581.765 430.968C581.765 430.968 530.501 675.34 505.112 759.05C505.112 759.05 536.065 787.575 564.814 779.548C612.232 766.256 602.823 587.448 590.241 500.341C585.947 470.77 581.765 430.968 581.765 430.968Z" fill="white"/>
<path d="M516.276 389.076C517.359 388.367 518.068 387.172 518.18 385.865C518.852 378.136 520.682 351.03 515.118 345.578C509.145 339.716 502.461 367.719 508.547 387.657C509.369 390.383 512.617 391.503 514.969 389.935L516.276 389.076Z" fill="#AF7D61"/>
<path d="M521.914 391.13C515.94 388.628 510.302 386.239 504.403 382.916C467.476 539.731 578.741 583.043 611.747 435.15C616.788 412.524 609.582 421.111 597.111 421.41C597.111 418.012 597.148 418.012 597.111 421.41C584.64 421.709 582.96 421.746 581.019 438.884C568.063 550.933 503.283 502.17 521.914 391.13Z" fill="white"/>
<path d="M688.4 634.344C694.673 637.741 699.825 640.467 705.613 643.118C735.968 521.511 737.498 488.281 633.029 414.092C617.049 402.741 606.744 431.678 631.648 443.812C719.091 486.377 706.658 551.306 688.4 634.344Z" fill="white"/>
<path d="M568.062 998.941C575.119 1002.11 575.53 1007.86 582.923 1010.18C605.101 880.171 604.802 713.797 635.008 596.297C615.481 592.078 595.916 588.083 576.351 584.088C552.904 721.153 597.409 843.768 568.062 998.941Z" fill="white"/>
<path d="M576.314 584.088C595.879 588.083 615.443 592.078 634.971 596.297C606.93 705.359 607.154 856.201 589.345 981.318L570.751 983.521C594.497 835.554 553.688 716.597 576.314 584.088Z" fill="#2D334A"/>
<path d="M621.529 1000.62C628.773 1003.31 629.557 1009.06 637.062 1010.89C650.764 879.723 639.712 713.722 662.227 594.505C642.475 591.555 622.687 588.83 602.898 586.104C588.411 724.438 640.758 843.88 621.529 1000.62Z" fill="white"/>
<path d="M602.898 586.104C622.687 588.83 642.475 591.555 662.227 594.505C641.318 705.172 651.324 855.678 641.617 981.654L623.209 985.051C637.323 835.889 588.897 719.808 602.898 586.104Z" fill="#2D334A"/>
<path d="M712.333 797.134C710.616 791.533 708.898 785.82 707.218 780.033C685.152 703.604 668.425 612.875 660.584 566.801C649.196 499.743 652.594 470.247 641.729 437.652C637.174 423.986 636.352 415.922 625.338 409.126C624.068 408.342 622.687 407.595 621.156 406.849C618.99 405.803 616.862 405.056 614.846 404.646C593.19 400.053 580.197 428.952 576.613 448.592C575.903 452.437 575.194 455.35 574.559 457.814C574.559 457.814 574.559 457.814 574.559 457.851C571.647 469.09 570.415 469.724 580.197 497.69C584.454 509.787 574.97 580.429 570.714 604.25C569.332 611.979 568.436 625.644 565.374 639.72C547.154 723.99 535.467 814.01 525.722 900.893C525.386 903.918 525.05 906.98 524.714 910.004C533.6 910.228 542.561 908.884 551.074 906.494C571.46 900.707 590.166 890.925 611.075 886.743C625.002 883.98 638.854 884.839 652.818 887.49C661.405 889.132 669.172 892.866 678.095 893.463C691.014 894.285 702.476 893.202 714.163 885.697C721.817 880.769 733.354 880.097 740.336 869.978C730.404 850.526 720.996 825.174 712.333 797.134Z" fill="#299ED3"/>
<path d="M655.655 792.616C678.468 792.989 698.406 784.476 707.218 780.033C685.152 703.641 670.068 611.568 662.227 565.494C650.839 498.436 655.991 470.284 645.164 437.689C640.609 424.023 636.389 415.921 625.375 409.126C625.898 430.632 618.356 477.303 616.489 563.963C614.137 672.987 655.655 792.616 655.655 792.616Z" fill="white"/>
<path d="M573.813 457.776C573.813 457.813 573.813 457.813 573.813 457.776C573.813 457.813 594.273 416.481 607.416 409.126C610.328 407.483 612.531 405.99 614.099 404.608C592.444 400.016 579.451 428.915 575.866 448.554C575.194 452.4 574.447 455.349 573.813 457.776Z" fill="white"/>
<path d="M692.022 636.285C685.488 644.686 671.636 663.653 673.167 670.859C674.884 678.961 694.636 661.114 702.14 641.475C698.817 639.832 695.532 638.152 692.022 636.285Z" fill="#AF7D61"/>
<path d="M607.976 383.55C607.976 383.55 614.099 408.155 643.857 400.464C673.615 392.772 676.714 361.969 672.868 348.117C669.022 334.265 645.836 310.892 617.572 328.142C589.345 345.429 607.976 383.55 607.976 383.55Z" fill="#131313"/>
<path d="M632.805 378.398C619.364 395.535 596.551 400.053 586.059 391.839C575.605 383.625 581.467 365.778 594.908 348.677C608.349 331.54 623.658 329.486 634.149 337.7C644.641 345.914 646.247 361.297 632.805 378.398Z" fill="#AF7D61"/>
<path d="M629.669 373.395L607.117 369.736C606.595 372.835 602.338 402.294 602.786 413.532C603.384 417.004 608.947 418.946 615.219 417.863C620.82 416.892 625.039 413.756 625.412 410.62H625.45C625.151 403.862 627.914 384.185 629.669 373.395Z" fill="#AF7D61"/>
<path d="M648.823 338.036C648.823 338.036 645.574 316.754 668.686 309.212C691.798 301.707 718.27 310.22 715.395 334.414C712.52 358.609 688.923 387.246 661.704 378.285C634.485 369.362 648.823 338.036 648.823 338.036Z" fill="#131313"/>
<path d="M697.436 320.002C697.436 320.002 694.971 303.873 712.483 298.197C729.956 292.522 750.044 298.944 747.878 317.277C745.713 335.609 727.828 357.302 707.218 350.507C686.608 343.711 697.436 320.002 697.436 320.002Z" fill="#131313"/>
<path d="M608.424 335.796C608.424 335.796 634.56 351.813 623.769 383.774C618.692 398.783 661.816 358.497 661.816 358.497C661.816 358.497 634.261 318.77 608.424 335.796Z" fill="#131313"/>
<path d="M635.867 390.345C632.73 394.341 624.778 396.319 621.903 394.042C619.028 391.764 620.82 387.993 623.956 383.998C627.092 380.003 632.357 378.136 635.232 380.376C638.107 382.654 639.003 386.388 635.867 390.345Z" fill="#AF7D61"/>
<path opacity="0.6" d="M580.085 338.895L577.023 343.413C574.074 347.781 575.194 353.755 579.6 356.705L590.054 363.799C592.481 365.442 595.655 365.404 598.044 363.724L599.127 362.977C600.397 362.081 602.077 362.081 603.346 362.94C604.616 363.799 605.213 365.367 604.877 366.861L604.578 368.13C603.906 370.968 605.064 373.917 607.491 375.56L618.468 382.99C622.836 385.94 628.81 384.82 631.76 380.414L634.821 375.896C638.219 370.856 636.912 364.06 631.872 360.663L595.356 335.983C590.316 332.548 583.483 333.855 580.085 338.895Z" fill="#299ED3"/>
<path d="M443.618 632.44C442.946 637.107 440.108 641.139 436.001 643.417C425.435 649.241 405.161 659.584 398.216 656.97C388.658 653.423 419.498 629.789 443.991 629.789L443.618 632.44Z" fill="white"/>
<path d="M425.808 632.402C432.715 635.501 438.017 639.869 444.887 643.528C447.389 639.197 449.853 634.866 452.243 630.535L431.707 620.23C429.729 624.374 427.75 628.444 425.808 632.402Z" fill="#48C6C9"/>
<path d="M414.346 407.894C388.322 395.572 389.404 428.802 415.69 439.668C500.333 474.69 462.809 556.645 431.782 620.23L452.317 630.535C499.474 545.481 524.117 459.867 414.346 407.894Z" fill="white"/>
<path d="M227.1 260.076C230.609 256.94 232.439 252.347 232.028 247.643C231.058 235.62 228.444 213.031 222.433 208.663C214.181 202.652 211.53 241.408 225.084 261.868L227.1 260.076Z" fill="#D6D1BC"/>
<path d="M237.704 251.377C230.647 253.43 224.262 255.036 216.683 257.537C217.728 262.055 218.886 266.573 220.118 271.091L241.475 264.706C240.168 260.3 238.898 255.857 237.704 251.377Z" fill="#48C6C9"/>
<path d="M370.251 424.397C300.766 394.154 262.869 335.124 241.512 264.669L220.155 271.053C242.11 351.589 290.946 429.213 375.067 457.739C395.117 464.534 391.757 433.768 370.251 424.397Z" fill="white"/>
<path d="M409.492 622.433L385.969 732.951L362.335 843.469L359.273 857.47L359.236 857.694C359.236 857.694 359.199 857.806 359.236 857.769L359.273 857.582C359.311 857.47 359.311 857.321 359.311 857.209L359.348 856.948C359.385 856.612 359.348 856.574 359.348 856.5C359.348 856.5 359.348 856.574 359.348 856.612V856.686V856.798V856.985C359.348 857.582 359.348 858.478 359.423 859.412C359.535 861.279 359.721 863.444 359.945 865.572C360.431 869.904 361.028 874.421 361.7 878.976C362.372 883.494 363.082 888.087 363.828 892.679C366.853 911.012 370.213 929.494 373.648 947.938L384.028 1003.46C385.745 1012.72 387.463 1022.01 389.106 1031.39C389.927 1036.05 390.749 1040.76 391.495 1045.54C391.869 1047.93 392.242 1050.32 392.578 1052.78C392.765 1054.01 392.914 1055.28 393.063 1056.63C393.138 1057.3 393.213 1057.97 393.25 1058.75C393.288 1059.13 393.325 1059.54 393.325 1059.95L393.362 1060.62L393.4 1061.41L369.765 1062.12C369.765 1062.08 369.765 1062.04 369.765 1062L369.728 1061.78L369.653 1061.22C369.578 1060.81 369.504 1060.32 369.429 1059.84C369.242 1058.83 369.056 1057.78 368.832 1056.7C368.421 1054.54 367.936 1052.3 367.45 1050.06C366.479 1045.57 365.434 1041.02 364.351 1036.5C362.186 1027.43 359.983 1018.32 357.705 1009.17L344.115 954.323C339.597 935.99 335.154 917.658 330.972 899.026C329.926 894.359 328.918 889.692 327.948 884.95C326.977 880.209 326.043 875.467 325.185 870.464C324.774 867.962 324.363 865.423 324.027 862.623C323.878 861.204 323.728 859.748 323.616 857.993L323.579 857.321V856.985V856.612V855.827V854.969C323.616 854.334 323.616 853.699 323.728 852.766L323.766 852.467C323.766 852.355 323.803 852.243 323.803 852.094L323.915 851.272L324.064 850.488L326.267 836.748L343.554 725.185L360.73 613.547L409.492 622.433Z" fill="#383E56"/>
<path d="M370.213 621.35C355.166 657.306 340.194 693.336 325.334 729.404C317.904 747.438 310.511 765.472 303.156 783.505C299.497 792.541 295.838 801.539 292.216 810.575C288.594 819.573 285.01 828.609 281.537 837.57L278.999 844.253C278.177 846.456 277.356 848.696 276.572 850.787L276.012 852.355L275.75 853.102L275.526 853.774L275.153 854.857C275.153 854.819 275.153 854.857 275.153 854.782C275.19 854.67 275.19 854.558 275.227 854.446L275.265 854.147V853.998V853.849C275.265 853.811 275.265 853.774 275.265 853.737V853.774C275.265 853.774 275.265 853.849 275.265 853.886C275.265 853.923 275.265 853.998 275.265 854.073V854.297V854.558C275.265 854.745 275.265 854.931 275.265 855.155C275.265 856.014 275.302 857.022 275.339 858.068C275.451 860.159 275.601 862.436 275.825 864.714C276.012 866.991 276.273 869.343 276.497 871.696C276.982 876.4 277.58 881.142 278.177 885.921C279.372 895.479 280.716 905.075 282.06 914.671C283.442 924.266 284.86 933.899 286.279 943.532L295.091 1001.4C296.547 1011.08 298.003 1020.75 299.422 1030.45C300.131 1035.31 300.803 1040.2 301.438 1045.13C301.774 1047.59 302.073 1050.06 302.372 1052.63C302.521 1053.9 302.67 1055.21 302.782 1056.55C302.857 1057.22 302.894 1057.93 302.969 1058.68C303.006 1059.43 303.081 1060.17 303.081 1061.26L279.447 1061.97L279.297 1060.88C279.223 1060.43 279.148 1059.87 279.073 1059.35C278.924 1058.27 278.737 1057.15 278.513 1055.99C278.102 1053.71 277.692 1051.36 277.244 1049.01C276.348 1044.31 275.414 1039.56 274.443 1034.82C272.502 1025.3 270.486 1015.78 268.507 1006.26L256.372 948.946C254.356 939.351 252.377 929.792 250.436 920.159C248.494 910.526 246.59 900.893 244.798 891.148C243.902 886.257 243.043 881.366 242.221 876.4C241.811 873.899 241.4 871.397 241.027 868.858C240.653 866.282 240.317 863.706 240.019 860.943C239.869 859.561 239.757 858.142 239.645 856.537C239.608 856.126 239.608 855.753 239.571 855.305L239.533 854.67V853.998V853.251C239.533 852.99 239.533 852.766 239.533 852.467L239.571 851.608L239.645 850.6L239.683 850.302L239.72 850.003L239.795 849.368C239.795 849.256 239.832 849.144 239.832 849.032L239.907 848.621L240.056 847.8C240.168 847.165 240.317 846.568 240.467 845.97L240.803 844.701L240.952 844.104L241.101 843.581L241.4 842.498L241.699 841.49L242.259 839.548C243.006 837.009 243.752 834.62 244.536 832.23L246.814 825.099C249.876 815.69 253.012 806.393 256.186 797.096C259.359 787.799 262.533 778.54 265.707 769.317C272.091 750.835 278.55 732.354 285.01 713.909C297.966 677.02 310.996 640.206 324.139 603.354L370.213 621.35Z" fill="#383E56"/>
<path d="M415.951 620.491C417.37 615.526 418.789 610.56 420.058 605.669C420.88 602.458 421.626 599.209 422.299 596.11C423.829 589.053 425.061 581.959 426.294 575.015C426.891 571.729 427.264 568.518 427.675 565.419C428.72 557.69 429.579 550.074 430.251 542.457C430.55 539.171 430.923 536.072 430.998 532.861C431.259 512.064 431.147 489.998 429.206 469.649C428.086 457.776 428.384 446.015 425.584 435.262C417.221 403.189 403.966 392.1 371.781 404.832C359.871 411.067 349.528 434.59 350.275 457.291C351.097 482.232 351.395 512.624 345.757 538.574C345.421 540.179 344.824 542.793 344.227 544.809C343.405 547.684 342.584 550.671 341.613 553.882C340.269 558.362 338.775 563.142 337.132 567.883C336.124 570.758 335.042 573.857 333.847 576.956C331.719 582.445 329.105 588.269 326.342 593.646C325.595 595.139 324.587 596.969 323.766 598.35C322.944 599.732 322.272 600.889 321.488 602.159C319.621 605.146 317.568 608.207 315.738 611.12C313.909 614.032 312.154 616.534 310.324 619.371C309.54 620.603 308.756 621.836 307.972 623.105C313.349 625.532 318.501 627.772 324.326 628.892C339.485 631.805 355.876 631.692 370.773 635.165C383.953 638.226 394.744 644.723 407.028 649.689C408.969 643.118 411.097 636.36 413.114 629.788C414.084 626.652 415.055 623.553 415.951 620.491Z" fill="#48C6C9"/>
<path d="M384.588 324.632C384.588 324.632 365.994 325.678 366.554 337.439C367.114 349.163 388.06 336.02 388.06 336.02C388.06 336.02 393.325 322.84 384.588 324.632Z" fill="#2D334A"/>
<path d="M400.307 375.298C383.58 390.98 359.124 392.063 349.528 381.832C339.933 371.602 348.894 353.979 365.583 338.297C382.31 322.616 398.552 322.914 408.148 333.107C417.743 343.375 417.034 359.617 400.307 375.298Z" fill="#D6D1BC"/>
<path d="M401.95 367.682L378.129 364.284C377.643 367.532 373.76 398.634 374.47 410.433C375.179 414.092 381.078 416.033 387.612 414.727C393.512 413.569 397.88 410.209 398.179 406.886H398.216C397.805 399.829 400.344 379.107 401.95 367.682Z" fill="#D6D1BC"/>
<path d="M413.225 367.756C413.225 367.756 420.618 354.166 416.623 342.18C412.628 330.195 396.834 314.663 378.726 325.08C378.726 325.08 366.554 333.667 378.129 347.445C389.703 361.222 393.773 352.187 394.221 364.583C394.669 376.979 404.862 377.501 404.713 380.077L413.225 367.756Z" fill="#2D334A"/>
<path d="M401.95 397.328C401.95 397.328 407.924 492.836 404.19 524.685C398.627 572.551 378.091 693.075 378.091 693.075L407.774 697.556C407.774 697.556 431.035 578.786 431.035 530.36C431.073 485.369 436.972 402.182 401.95 397.328Z" fill="white"/>
<path d="M371.744 404.832C371.744 404.832 362.671 410.956 358.601 464.796C354.531 518.636 344.861 620.23 307.972 676.759L269.216 674.929C269.216 674.929 319.136 607.76 329.964 545.145C340.829 482.568 345.235 406.774 371.744 404.832Z" fill="white"/>
<path d="M401.352 377.987C401.352 377.987 410.836 343.375 374.955 326.798C374.955 326.798 382.012 318.359 393.362 318.621C404.713 318.882 433.649 337.177 436.225 351.44C436.225 351.44 439.025 361.297 430.811 359.916C422.597 358.534 422.634 360.028 421.066 363.239C419.535 366.45 411.657 387.022 401.352 377.987Z" fill="#48C6C9"/>
<path d="M404.862 385.193C400.979 388.852 392.391 389.636 389.74 386.836C387.089 384.036 389.591 380.339 393.474 376.718C397.357 373.059 403.144 371.938 405.795 374.739C408.446 377.539 408.745 381.534 404.862 385.193Z" fill="#D6D1BC"/>
<path opacity="0.56" d="M347.027 325.155L343.293 329.15C339.671 333.033 339.895 339.081 343.778 342.703L353.001 351.328C355.129 353.307 358.265 353.792 360.879 352.486L362.074 351.888C363.455 351.216 365.098 351.44 366.218 352.523C367.338 353.568 367.711 355.211 367.114 356.63L366.629 357.862C365.546 360.55 366.218 363.649 368.346 365.666L378.016 374.701C381.9 378.323 387.948 378.099 391.57 374.216L395.304 370.221C399.448 365.778 399.187 358.833 394.781 354.688L362.559 324.632C358.116 320.488 351.171 320.712 347.027 325.155Z" fill="#48C6C9"/>
<path d="M12.7473 653.423C17.8998 649.129 23.7991 645.06 29.5863 640.467C-44.8639 554.965 -36.6124 485.518 77.4525 449.861C97.0545 443.738 99.9295 440.825 89.8111 425.667C93.0968 422.866 93.1341 422.866 89.8111 425.667C79.6928 410.47 74.6896 413.98 56.6931 422.941C-61.0309 481.299 -83.2092 555.6 12.7473 653.423Z" fill="white"/>
<path d="M243.379 437.092C243.379 437.092 238.002 395.834 229.041 390.383C220.08 384.969 220.753 424.808 236.36 444.522L243.379 437.092Z" fill="#D1A58C"/>
<path d="M95.1131 423.016C106.165 426.6 103.514 425.293 114.528 428.318C114.304 428.28 125.431 430.894 125.431 431.043C137.453 527.149 234.082 579.645 228.108 436.793C235.687 437.204 240.691 437.764 248.233 437.913C256.858 598.127 116.507 575.762 95.9719 444.783C94.4037 434.553 95.1878 432.611 95.1131 423.016Z" fill="white"/>
<path d="M83.912 402.928C83.912 402.928 57.7387 391.69 51.6527 365.068C45.5668 338.447 71.2547 320.376 93.8437 323.4C116.433 326.462 118.299 344.72 116.619 348.901C114.902 353.083 83.912 402.928 83.912 402.928Z" fill="#2D334A"/>
<path d="M105.605 331.614C105.605 331.614 123.676 337.14 120.278 348.603C116.881 360.028 99.4441 341.994 99.4441 341.994C99.4441 341.994 97.4278 327.731 105.605 331.614Z" fill="#2D334A"/>
<path d="M228.145 1054.39C221.014 1058.64 213.658 1062.45 206.116 1065.96C157.205 920.309 132.936 763.754 84.8453 625.793C105.679 619.035 126.663 612.651 147.721 606.527C188.568 754.457 168.369 886.294 228.145 1054.39Z" fill="#383E56"/>
<path d="M-11.2604 1054.39C-4.12898 1058.64 3.22643 1062.45 10.7685 1065.96C59.6802 920.309 83.9493 763.754 132.04 625.793C111.205 619.035 90.222 612.651 69.1638 606.527C28.317 754.457 48.5164 886.294 -11.2604 1054.39Z" fill="#383E56"/>
<path d="M129.949 673.398C142.345 674.257 158.25 673.286 164.112 671.345C153.77 614.48 135.997 512.737 133.122 458C132.002 436.083 124.796 424.472 117.03 418.498C115.126 417.041 113.184 415.921 111.355 415.1C98.2121 408.379 85.2188 407.931 75.1004 413.532C66.8116 418.012 60.427 426.45 57.3653 438.734C55.0877 447.845 55.6851 455.088 56.6186 467.223C60.9123 525.02 59.3442 613.099 51.6527 680.306C70.4333 679.185 100.9 668.32 119.942 672.166C121.398 672.502 123.004 672.726 124.684 672.95" fill="#1264AD"/>
<path d="M77.8634 377.763C90.558 397.253 114.416 404.235 126.327 396.469C138.237 388.703 133.682 369.176 121.025 349.686C108.33 330.196 92.2381 326.537 80.3276 334.303C68.4171 342.069 65.2061 358.273 77.8634 377.763Z" fill="#D1A58C"/>
<path d="M80.7009 374.552L105.007 372.162C105.343 375.485 107.882 407.185 106.65 419.132C105.754 422.829 99.7055 424.509 93.0968 422.903C87.1602 421.485 82.9038 417.863 82.7171 414.465H82.6798C83.4638 407.334 81.821 386.164 80.7009 374.552Z" fill="#D1A58C"/>
<path d="M89.7365 384.447C93.3209 380.563 96.6812 384.073 105.306 388.89C113.931 393.743 129.351 392.474 130.434 372.312C130.882 363.762 134.242 370.184 136.445 375.448C138.051 379.331 144.771 388.666 144.771 397.851C144.771 405.915 143.166 409.649 136.557 413.196C124.273 419.805 108.442 411.964 99.2201 405.393C93.8436 401.584 88.0937 394.901 88.4297 388.33C88.5417 386.687 88.9524 385.343 89.7365 384.447Z" fill="#2D334A"/>
<path d="M131.106 371.565C131.106 371.565 130.807 371.714 130.285 372.013C126.028 374.328 106.762 385.118 104.821 393.071C102.618 402.032 115.163 389.599 118.971 383.849C122.78 378.099 127.372 378.883 131.479 377.688C135.624 376.493 137.491 371.341 131.106 371.565Z" fill="#2D334A"/>
<path d="M66.9608 367.197C66.9608 367.197 62.9657 352.038 69.7984 341.173C76.6311 330.308 95.9717 318.845 111.28 333.481C111.28 333.481 121.212 344.869 106.463 355.66C91.7153 366.45 89.9231 356.556 86.4881 368.653C83.0531 380.75 72.86 378.809 72.412 381.422L66.9608 367.197Z" fill="#2D334A"/>
<path d="M72.076 388.852C75.0257 393.407 83.3145 396.245 86.6001 394.117C89.8858 391.988 88.3177 387.769 85.368 383.214C82.4184 378.659 77.0045 376.158 73.7188 378.286C70.3958 380.451 69.1264 384.297 72.076 388.852Z" fill="#D1A58C"/>
<path d="M55.0876 339.567C55.0876 339.567 46.9481 339.567 48.3296 326.686C49.7111 313.804 57.0665 309.436 62.5924 310.407C68.1556 311.415 77.2659 315.149 74.8763 327.545C72.5614 339.978 55.0876 339.567 55.0876 339.567Z" fill="#2D334A"/>
<path d="M111.355 415.063C111.355 415.063 118.747 471.442 132.04 579.272C145.332 687.101 148.804 704.762 148.804 704.762H176.135C176.135 704.762 147.609 540.516 143.726 514.678C139.843 488.841 139.806 421.298 111.355 415.063Z" fill="white"/>
<path d="M79.2822 411.591C79.2822 411.591 75.3991 438.212 75.5485 540.814C75.7351 643.38 69.7239 697.556 69.7239 697.556H44.932C44.932 697.556 55.9465 518.188 54.4156 481.411C52.8848 444.597 54.3783 414.54 79.2822 411.591Z" fill="white"/>
<path d="M26.1514 643.118C22.567 645.881 18.9827 648.457 15.6223 651.108C17.7132 653.498 20.4388 655.253 23.5751 656.186C35.635 659.771 57.2906 665.371 63.5632 661.339C70.7693 656.746 48.1056 644.612 26.1514 643.118Z" fill="#D1A58C"/>
<path opacity="0.56" d="M80.9249 374.515L83.4639 379.369C85.9281 384.036 91.7154 385.865 96.3825 383.401L107.584 377.502C110.16 376.158 111.653 373.32 111.28 370.445L111.131 369.138C110.944 367.607 111.728 366.114 113.072 365.404C114.416 364.695 116.097 364.882 117.254 365.89L118.225 366.749C120.428 368.69 123.564 369.063 126.14 367.682L137.864 361.521C142.531 359.057 144.361 353.27 141.896 348.603L139.358 343.749C136.52 338.372 129.911 336.319 124.535 339.156L85.5174 359.692C80.1782 362.492 78.1246 369.138 80.9249 374.515Z" fill="#1264AD"/>
<path d="M538.977 716.374C526.992 716.374 516.873 724.401 513.737 735.415H564.217C561.081 724.401 550.962 716.374 538.977 716.374Z" fill="#ADB1CC"/>
<path d="M607.864 716.374C595.879 716.374 585.76 724.401 582.624 735.415H633.104C629.968 724.401 619.849 716.374 607.864 716.374Z" fill="#ADB1CC"/>
<path d="M575.045 708.196C557.907 708.196 543.457 719.696 538.977 735.378H611.112C606.632 719.696 592.182 708.196 575.045 708.196Z" fill="#ADB1CC"/>
<path d="M737.835 642.957C742.946 659.041 753.765 676.368 753.765 694.446C753.765 722.789 737.171 749.335 725.285 772.022H-54.3037C-84.3051 737.402 -73.78 692.779 -81.8186 642.957H737.835Z" fill="white"/>
<path d="M669.209 720.667H43.3637C31.7892 720.667 22.4176 711.296 22.4176 699.721C22.4176 688.147 31.7892 678.775 43.3637 678.775H669.209C680.783 678.775 690.155 688.147 690.155 699.721C690.155 711.296 680.783 720.667 669.209 720.667Z" fill="#DEDEDE"/>
<path d="M443.618 632.44C442.946 637.107 440.108 641.139 436.001 643.417C425.435 649.241 405.161 659.584 398.216 656.97C388.658 653.423 419.498 629.789 443.991 629.789L443.618 632.44Z" fill="#D6D1BC"/>
<path d="M425.808 632.402C432.716 635.501 438.018 639.87 444.888 643.529C447.389 639.198 449.853 634.867 452.243 630.535L431.708 620.23C429.729 624.375 427.75 628.445 425.808 632.402Z" fill="#48C6C9"/>
<path d="M26.1513 643.118C22.5669 645.881 18.9825 648.457 15.6222 651.108C17.7131 653.498 20.4387 655.252 23.575 656.186C35.6349 659.77 57.2904 665.371 63.5631 661.338C70.7691 656.746 48.1055 644.611 26.1513 643.118Z" fill="#D1A58C"/>
<path d="M12.7473 653.423C17.8998 649.129 23.7991 645.059 29.5863 640.467C23.2017 633.149 17.4144 625.943 12.2619 618.849L-10.103 627.884C-3.38235 636.211 4.1971 644.723 12.7473 653.423Z" fill="white"/>
<path opacity="0.2" d="M216.011 355.1V320.04C217.131 319.629 217.952 318.584 217.952 317.314C217.952 315.709 216.645 314.402 215.04 314.402H200.478C198.873 314.402 197.566 315.709 197.566 317.314C197.566 318.584 198.387 319.667 199.508 320.04V355.1C192.376 356.406 186.104 359.356 181.362 363.426C185.917 365.815 189.837 369.437 192.526 373.843C194.43 376.979 195.736 380.526 198.014 383.401C200.292 386.276 204.063 388.479 207.61 387.471C210.522 386.649 212.576 383.924 215.413 382.841C219.707 381.198 224.486 383.737 227.772 386.911C231.057 390.084 233.708 394.08 237.666 396.394C237.703 396.432 237.778 396.469 237.853 396.469C241.325 392.213 243.341 387.21 243.341 381.796C243.304 368.84 231.655 357.975 216.011 355.1Z" fill="#48C6C9"/>
<path d="M219.894 397.066C214.741 397.291 209.103 399.941 204.772 397.179C202.233 395.573 200.74 392.325 197.865 391.466C193.571 390.159 189.128 394.938 184.834 393.594C181.138 392.399 180.242 387.62 177.665 384.708C176.247 383.102 174.342 382.132 172.251 381.609C172.251 381.684 172.251 381.758 172.251 381.796C172.251 393.333 181.436 403.19 194.467 407.26H221.126C225.457 405.915 229.34 403.899 232.626 401.435C228.78 398.747 224.561 396.88 219.894 397.066Z" fill="#1264AD"/>
<path d="M237.815 396.469C237.778 396.432 237.703 396.394 237.629 396.394C233.671 394.079 231.02 390.122 227.734 386.911C224.449 383.737 219.67 381.198 215.376 382.841C212.538 383.924 210.522 386.649 207.572 387.471C204.025 388.479 200.292 386.276 197.977 383.401C195.699 380.526 194.392 376.979 192.488 373.843C189.837 369.437 185.879 365.815 181.324 363.426C175.686 368.242 172.214 374.627 172.177 381.646C174.268 382.132 176.172 383.14 177.591 384.745C180.167 387.657 181.063 392.437 184.759 393.631C189.053 394.976 193.459 390.234 197.79 391.503C200.665 392.362 202.158 395.61 204.697 397.216C209.066 399.979 214.666 397.328 219.819 397.104C224.486 396.917 228.705 398.747 232.551 401.472C234.604 399.979 236.322 398.299 237.815 396.469Z" fill="#299ED3"/>
<path d="M513.14 355.585C521.677 355.585 528.597 334.372 528.597 308.204C528.597 282.036 521.677 260.823 513.14 260.823C504.603 260.823 497.682 282.036 497.682 308.204C497.682 334.372 504.603 355.585 513.14 355.585Z" stroke="#131313" stroke-width="4" stroke-miterlimit="10"/>
<path d="M555.658 329.165C559.433 321.508 543.468 305.921 519.998 294.349C496.528 282.778 474.442 279.605 470.667 287.261C466.892 294.918 482.857 310.506 506.327 322.077C529.797 333.648 551.883 336.822 555.658 329.165Z" stroke="#131313" stroke-width="4" stroke-miterlimit="10"/>
<path d="M519.964 322.037C543.434 310.466 559.4 294.878 555.625 287.221C551.849 279.565 529.763 282.738 506.293 294.309C482.824 305.881 466.858 321.468 470.633 329.125C474.408 336.782 496.494 333.609 519.964 322.037Z" stroke="#131313" stroke-width="4" stroke-miterlimit="10"/>
<path d="M482.785 288.826C486.228 288.826 489.02 286.034 489.02 282.591C489.02 279.147 486.228 276.355 482.785 276.355C479.341 276.355 476.549 279.147 476.549 282.591C476.549 286.034 479.341 288.826 482.785 288.826Z" fill="#1264AD"/>
<path d="M508.42 346.125C508.971 342.725 506.663 339.523 503.264 338.971C499.865 338.419 496.662 340.728 496.11 344.127C495.558 347.526 497.867 350.729 501.266 351.281C504.665 351.832 507.868 349.524 508.42 346.125Z" fill="#48C6C9"/>
<path d="M551.112 304.993C554.555 304.993 557.347 302.201 557.347 298.757C557.347 295.314 554.555 292.522 551.112 292.522C547.668 292.522 544.876 295.314 544.876 298.757C544.876 302.201 547.668 304.993 551.112 304.993Z" fill="#299ED3"/>
<path d="M230.647 582.183L230.647 511.654C230.647 501.536 238.861 493.359 248.942 493.359C259.061 493.359 267.237 501.573 267.237 511.654V537.977C267.237 544.473 272.502 549.775 279.036 549.775C285.533 549.775 290.835 544.511 290.835 537.977V504.298C290.835 498.25 295.726 493.321 301.812 493.321C307.86 493.321 312.789 498.213 312.789 504.298V538.91C312.789 544.884 317.643 549.738 323.617 549.738C329.59 549.738 334.444 544.884 334.444 538.91V504.224C334.444 498.213 339.335 493.321 345.347 493.321C351.358 493.321 356.249 498.213 356.249 504.224V557.093C356.249 583.603 377.755 605.071 404.227 605.071C430.737 605.071 452.206 583.565 452.206 557.093V533.646C452.206 528.157 456.649 523.714 462.137 523.714C467.626 523.714 472.069 528.157 472.069 533.646V596.26C472.069 601.151 476.027 605.109 480.918 605.109C485.809 605.109 489.767 601.151 489.767 596.26V533.235C489.767 527.97 494.023 523.714 499.288 523.714C504.552 523.714 508.809 527.97 508.809 533.235V682.512" stroke="#131313" stroke-width="2" stroke-miterlimit="10"/>
<path opacity="0.71" d="M284.823 694.718L246.291 625.905C245.955 625.308 245.433 624.822 244.835 624.524V567.883H245.993C248.27 567.883 250.137 566.017 250.137 563.739V561.909C250.137 559.632 248.27 557.765 245.993 557.765H215.526C213.248 557.765 211.381 559.632 211.381 561.909V563.739C211.381 566.017 213.248 567.883 215.526 567.883H216.683V624.524C216.086 624.822 215.563 625.308 215.227 625.905L176.695 694.718C174.156 699.235 177.442 704.761 182.594 704.761H278.961C284.077 704.761 287.325 699.198 284.823 694.718Z" fill="#DDDDDD"/>
<path opacity="0.76" d="M524.901 613.211H492.119C488.759 613.211 485.996 615.936 485.996 619.334C485.996 622.582 488.572 625.271 491.783 625.42V697.107C491.783 701.326 495.181 704.724 499.4 704.724H517.583C521.802 704.724 525.2 701.326 525.2 697.107V625.42C528.411 625.233 530.987 622.582 530.987 619.334C531.024 615.974 528.261 613.211 524.901 613.211Z" fill="#E0E0E0"/>
<path opacity="0.63" d="M108.405 712.117C119.793 705.994 120.428 687.736 132.189 682.397C136.109 680.604 140.59 680.679 144.809 679.783C147.721 679.186 150.484 678.065 153.023 676.572C144.883 668.507 133.122 662.757 119.643 660.778V609.962C121.1 609.44 122.145 608.058 122.145 606.453C122.145 604.399 120.465 602.719 118.411 602.719H99.7055C97.6519 602.719 95.9718 604.399 95.9718 606.453C95.9718 608.096 97.0172 609.477 98.4733 609.962V660.778C72.7481 664.587 53.2954 682.098 53.2954 703.081C53.2954 705.807 53.6314 708.495 54.2662 711.109C58.3359 708.607 62.8164 707.076 67.7075 707.002C81.7463 706.778 96.0837 718.763 108.405 712.117Z" fill="#CACACA"/>
<path d="M153.06 676.572C150.521 678.066 147.721 679.148 144.846 679.783C140.627 680.679 136.146 680.605 132.226 682.397C120.465 687.736 119.83 705.994 108.442 712.117C96.1211 718.763 81.7463 706.778 67.7822 707.002C62.891 707.077 58.4106 708.607 54.3408 711.109C57.8878 725.67 70.8812 737.618 88.2429 743.032H130.023C150.447 736.648 164.896 721.153 164.896 703.082C164.859 693.075 160.453 683.89 153.06 676.572Z" fill="#299ED3"/>
<path d="M158.847 693.299C154.89 693.672 150.783 694.12 147.348 696.174C139.021 701.14 138.125 713.125 131.255 719.995C122.444 728.769 108.032 726.081 95.5984 725.26C85.0693 724.587 74.4282 725.782 64.3098 728.769C70.3584 735.079 78.6099 740.045 88.1683 743.032H129.949C150.372 736.647 164.821 721.152 164.821 703.081C164.821 699.572 164.261 696.137 163.253 692.888C161.797 693 160.304 693.15 158.847 693.299Z" fill="#48C6C9"/>
<path d="M204.511 672.539C200.366 670.747 195.923 669.142 191.48 668.283L176.657 694.718C174.118 699.235 177.404 704.761 182.557 704.761H278.924C284.076 704.761 287.325 699.198 284.823 694.718L266.528 662.048C256.409 669.44 247.113 679.26 234.717 680.716C224.225 681.948 214.219 676.721 204.511 672.539Z" fill="url(#paint0_linear)"/>
<path d="M225.793 611.755C225.793 609.029 230.722 601.711 230.722 601.711C230.722 601.711 235.65 609.029 235.65 611.755C235.65 614.48 233.447 616.683 230.722 616.683C227.996 616.683 225.793 614.48 225.793 611.755Z" fill="url(#paint1_linear)"/>
<path d="M225.793 636.92C225.793 634.194 230.722 626.876 230.722 626.876C230.722 626.876 235.65 634.194 235.65 636.92C235.65 639.645 233.447 641.848 230.722 641.848C227.996 641.848 225.793 639.645 225.793 636.92Z" fill="url(#paint2_linear)"/>
<path d="M225.793 662.085C225.793 659.36 230.722 652.042 230.722 652.042C230.722 652.042 235.65 659.36 235.65 662.085C235.65 664.811 233.447 667.014 230.722 667.014C227.996 667.014 225.793 664.811 225.793 662.085Z" fill="url(#paint3_linear)"/>
<path d="M513.775 665.445C510.489 664.549 507.465 662.869 504.254 661.674C500.296 660.218 496.002 659.695 491.82 659.994V697.145C491.82 701.364 495.218 704.761 499.437 704.761H517.62C521.839 704.761 525.237 701.364 525.237 697.145V665.371C521.429 666.267 517.546 666.454 513.775 665.445Z" fill="#299ED3"/>
<path d="M371.035 308.652C374.478 308.652 377.27 305.86 377.27 302.416C377.27 298.973 374.478 296.181 371.035 296.181C367.591 296.181 364.799 298.973 364.799 302.416C364.799 305.86 367.591 308.652 371.035 308.652Z" fill="url(#paint4_linear)"/>
<path d="M549.058 445.492C552.502 445.492 555.293 442.701 555.293 439.257C555.293 435.813 552.502 433.022 549.058 433.022C545.614 433.022 542.823 435.813 542.823 439.257C542.823 442.701 545.614 445.492 549.058 445.492Z" fill="url(#paint5_linear)"/>
<path d="M87.9443 699.086C91.388 699.086 94.1796 696.294 94.1796 692.851C94.1796 689.407 91.388 686.615 87.9443 686.615C84.5007 686.615 81.709 689.407 81.709 692.851C81.709 696.294 84.5007 699.086 87.9443 699.086Z" fill="url(#paint6_linear)"/>
<path d="M333.287 285.428C339.452 285.428 344.451 280.43 344.451 274.264C344.451 268.099 339.452 263.1 333.287 263.1C327.121 263.1 322.123 268.099 322.123 274.264C322.123 280.43 327.121 285.428 333.287 285.428Z" fill="url(#paint7_linear)"/>
<path fill-rule="evenodd" clip-rule="evenodd" d="M334.692 234.212C349.367 234.212 361.263 222.316 361.263 207.641C361.263 192.967 349.367 181.071 334.692 181.071C320.018 181.071 308.122 192.967 308.122 207.641C308.122 222.316 320.018 234.212 334.692 234.212ZM334.692 223.584C343.497 223.584 350.635 216.446 350.635 207.641C350.635 198.837 343.497 191.699 334.692 191.699C325.888 191.699 318.75 198.837 318.75 207.641C318.75 216.446 325.888 223.584 334.692 223.584Z" fill="url(#paint8_linear)"/>
<path d="M474.051 227.163C474.051 234.051 468.467 239.634 461.579 239.634C454.691 239.634 449.107 234.051 449.107 227.163C449.107 220.275 454.691 214.691 461.579 214.691C468.467 214.691 474.051 220.275 474.051 227.163Z" fill="url(#paint9_linear)"/>
<path fill-rule="evenodd" clip-rule="evenodd" d="M126.468 464.126C128.565 464.126 130.264 462.426 130.264 460.33C130.264 458.233 128.565 456.534 126.468 456.534C124.372 456.534 122.673 458.233 122.673 460.33C122.673 462.426 124.372 464.126 126.468 464.126ZM126.468 462.607C127.726 462.607 128.746 461.588 128.746 460.33C128.746 459.072 127.726 458.052 126.468 458.052C125.211 458.052 124.191 459.072 124.191 460.33C124.191 461.588 125.211 462.607 126.468 462.607Z" fill="url(#paint10_linear)"/>
<path fill-rule="evenodd" clip-rule="evenodd" d="M411.692 451.112C413.788 451.112 415.488 449.412 415.488 447.316C415.488 445.219 413.788 443.52 411.692 443.52C409.596 443.52 407.896 445.219 407.896 447.316C407.896 449.412 409.596 451.112 411.692 451.112ZM411.692 449.593C412.95 449.593 413.969 448.574 413.969 447.316C413.969 446.058 412.95 445.038 411.692 445.038C410.434 445.038 409.414 446.058 409.414 447.316C409.414 448.574 410.434 449.593 411.692 449.593Z" fill="url(#paint11_linear)"/>
<path fill-rule="evenodd" clip-rule="evenodd" d="M631.845 465.21C633.941 465.21 635.641 463.511 635.641 461.414C635.641 459.318 633.941 457.619 631.845 457.619C629.749 457.619 628.049 459.318 628.049 461.414C628.049 463.511 629.749 465.21 631.845 465.21ZM631.845 463.692C633.103 463.692 634.123 462.672 634.123 461.414C634.123 460.157 633.103 459.137 631.845 459.137C630.587 459.137 629.568 460.157 629.568 461.414C629.568 462.672 630.587 463.692 631.845 463.692Z" fill="url(#paint12_linear)"/>
<path d="M215.397 304.704C212.702 304.704 210.517 302.519 210.517 299.824C210.517 297.129 212.702 294.944 215.397 294.944C218.093 294.944 220.278 297.129 220.278 299.824C220.278 302.519 218.093 304.704 215.397 304.704Z" fill="url(#paint13_linear)"/>
<path d="M181.399 453.333C187.565 453.333 192.563 448.335 192.563 442.169C192.563 436.004 187.565 431.005 181.399 431.005C175.233 431.005 170.235 436.004 170.235 442.169C170.235 448.335 175.233 453.333 181.399 453.333Z" fill="url(#paint14_linear)"/>
<path d="M270.323 224.88L269.348 218.646L195.976 230.112L196.95 236.346L270.323 224.88Z" fill="#3B3E54"/>
<path d="M194.617 233.529C194.169 230.766 196.073 228.19 198.836 227.742L247.075 220.2L248.643 230.169L200.404 237.711C197.604 238.159 195.027 236.292 194.617 233.529Z" fill="#1264AD"/>
<path d="M346.28 209.82C342.882 188.127 322.534 173.267 300.841 176.665C279.148 180.063 264.288 200.411 267.685 222.104C271.083 243.797 291.432 258.657 313.125 255.259C334.817 251.862 349.678 231.55 346.28 209.82ZM271.232 221.544C268.133 201.793 281.649 183.274 301.401 180.212C321.152 177.113 339.671 190.629 342.733 210.38C345.832 230.132 332.316 248.651 312.565 251.712C292.813 254.774 274.331 241.295 271.232 221.544Z" fill="#3B3E54"/>
<path opacity="0.3" d="M332.58 241.551C346.709 227.422 346.709 204.515 332.58 190.386C318.451 176.257 295.543 176.257 281.414 190.386C267.286 204.515 267.286 227.422 281.414 241.551C295.543 255.68 318.451 255.68 332.58 241.551Z" fill="white"/>
</g>
<defs>
<linearGradient id="paint0_linear" x1="230.732" y1="662.048" x2="230.732" y2="704.761" gradientUnits="userSpaceOnUse">
<stop stop-color="#1264AD"/>
<stop offset="1" stop-color="#48C6C9"/>
</linearGradient>
<linearGradient id="paint1_linear" x1="230.722" y1="601.711" x2="230.722" y2="616.683" gradientUnits="userSpaceOnUse">
<stop stop-color="#1264AD"/>
<stop offset="1" stop-color="#48C6C9"/>
</linearGradient>
<linearGradient id="paint2_linear" x1="230.722" y1="626.876" x2="230.722" y2="641.848" gradientUnits="userSpaceOnUse">
<stop stop-color="#1264AD"/>
<stop offset="1" stop-color="#48C6C9"/>
</linearGradient>
<linearGradient id="paint3_linear" x1="230.722" y1="652.042" x2="230.722" y2="667.014" gradientUnits="userSpaceOnUse">
<stop stop-color="#1264AD"/>
<stop offset="1" stop-color="#48C6C9"/>
</linearGradient>
<linearGradient id="paint4_linear" x1="371.035" y1="296.181" x2="371.035" y2="308.652" gradientUnits="userSpaceOnUse">
<stop stop-color="#1264AD"/>
<stop offset="1" stop-color="#48C6C9"/>
</linearGradient>
<linearGradient id="paint5_linear" x1="549.058" y1="433.022" x2="549.058" y2="445.492" gradientUnits="userSpaceOnUse">
<stop stop-color="#1264AD"/>
<stop offset="1" stop-color="#48C6C9"/>
</linearGradient>
<linearGradient id="paint6_linear" x1="87.9443" y1="686.615" x2="87.9443" y2="699.086" gradientUnits="userSpaceOnUse">
<stop stop-color="#1264AD"/>
<stop offset="1" stop-color="#48C6C9"/>
</linearGradient>
<linearGradient id="paint7_linear" x1="333.287" y1="263.1" x2="333.287" y2="285.428" gradientUnits="userSpaceOnUse">
<stop stop-color="#1264AD"/>
<stop offset="1" stop-color="#48C6C9"/>
</linearGradient>
<linearGradient id="paint8_linear" x1="334.692" y1="181.071" x2="334.692" y2="234.212" gradientUnits="userSpaceOnUse">
<stop stop-color="#1264AD"/>
<stop offset="1" stop-color="#48C6C9"/>
</linearGradient>
<linearGradient id="paint9_linear" x1="461.579" y1="214.691" x2="461.579" y2="239.634" gradientUnits="userSpaceOnUse">
<stop stop-color="#1264AD"/>
<stop offset="1" stop-color="#48C6C9"/>
</linearGradient>
<linearGradient id="paint10_linear" x1="126.468" y1="456.534" x2="126.468" y2="464.126" gradientUnits="userSpaceOnUse">
<stop stop-color="#1264AD"/>
<stop offset="1" stop-color="#48C6C9"/>
</linearGradient>
<linearGradient id="paint11_linear" x1="411.692" y1="443.52" x2="411.692" y2="451.112" gradientUnits="userSpaceOnUse">
<stop stop-color="#1264AD"/>
<stop offset="1" stop-color="#48C6C9"/>
</linearGradient>
<linearGradient id="paint12_linear" x1="631.845" y1="457.619" x2="631.845" y2="465.21" gradientUnits="userSpaceOnUse">
<stop stop-color="#1264AD"/>
<stop offset="1" stop-color="#48C6C9"/>
</linearGradient>
<linearGradient id="paint13_linear" x1="215.397" y1="294.944" x2="215.397" y2="304.704" gradientUnits="userSpaceOnUse">
<stop stop-color="#1264AD"/>
<stop offset="1" stop-color="#48C6C9"/>
</linearGradient>
<linearGradient id="paint14_linear" x1="181.399" y1="431.005" x2="181.399" y2="453.333" gradientUnits="userSpaceOnUse">
<stop stop-color="#1264AD"/>
<stop offset="1" stop-color="#48C6C9"/>
</linearGradient>
</defs>
</svg>
