<svg width="537" height="114" viewBox="0 0 537 114" fill="none" xmlns="http://www.w3.org/2000/svg">
<path fill-rule="evenodd" clip-rule="evenodd" d="M533.312 0.556641C426.173 48.8771 308.013 75.4627 210.418 90.077C150.966 98.9797 99.2089 103.431 62.3196 105.656C43.8761 106.769 29.152 107.325 19.0446 107.603C13.991 107.742 10.0917 107.811 7.45896 107.846C6.14259 107.863 5.14286 107.872 4.47379 107.876C4.13926 107.878 3.8874 107.88 3.71996 107.88L3.53233 107.88L3.48642 107.881H3.47551C3.47341 107.881 3.47266 107.881 3.47266 110.881V107.881C1.8158 107.881 0.472656 109.224 0.472656 110.881C0.472656 112.537 1.8158 113.881 3.47266 113.881V110.881C3.47266 113.881 3.4746 113.881 3.47788 113.881H3.49117L3.54185 113.88L3.7391 113.88C3.91298 113.879 4.17135 113.878 4.51246 113.876C5.19468 113.872 6.20785 113.863 7.53794 113.845C10.1981 113.81 14.126 113.741 19.2095 113.601C29.3763 113.321 44.1661 112.762 62.6809 111.646C99.7084 109.412 151.646 104.945 211.307 96.0108C309.352 81.3291 428.425 54.5597 536.483 5.70773L533.312 0.556641Z" fill="#22B039"/>
</svg>
