<svg width="640" height="572" viewBox="0 0 640 572" fill="none" xmlns="http://www.w3.org/2000/svg">
<path d="M493.753 11.6779C599.351 16.983 717.901 15.6435 723.575 63.4385C729.249 111.233 622.714 207.997 561.091 268.209C499.319 327.972 621.765 333.407 630.554 386.271C639.195 438.685 853.491 375.398 826.047 403.689C769.642 510.807 631.831 458.763 410.811 509.83C292.378 537.195 217.797 580.687 82.3996 569.39C19.1099 564.11 -20.0158 484.354 18.2116 427.546C56.439 370.739 71.4633 397.282 93.2332 321.196C115.003 245.11 3.70132 161.321 0.53504 103.642C-3.44605 45.6791 101.523 14.1105 199.924 4.1591C297.657 -5.62592 388.97 6.65655 493.753 11.6779Z" fill="#F8007A"/>
</svg>
