<svg xmlns="http://www.w3.org/2000/svg" viewBox="0 0 1440 150" width="1440" height="150">
	<defs>
		<clipPath clipPathUnits="userSpaceOnUse" id="cp1">
			<path d="M0 0L1440 0L1440 821L0 821L0 0Z" />
		</clipPath>
	</defs>
	<style>
		tspan { white-space:pre }
		.shp0 { opacity: 0.102;fill: #131313 } 
		.shp1 { fill: #131313 } 
	</style>
	<g id="Clip-Path" clip-path="url(#cp1)">
		<g id="Layer">
			<path id="Layer" class="shp0" d="M125.14 26.5C-60.85 3.87 -89.31 28.49 -207.87 121.52C-326.49 215.6 -267.04 291.36 -259.82 441.85C-252.6 592.35 -214.23 553.69 -68.61 638.65C78.74 722.64 335 735.29 530.01 692.86C723.37 650.34 841.84 687.34 1036.69 732.17C1231.54 777.01 1480.5 822.51 1560.21 794C1639.93 765.49 1557.88 626.8 1622.86 488.62C1689.49 350.53 1762.16 158.81 1707.33 107.25C1654.15 55.78 1505.11 49.37 1300.76 55.35C1094.75 61.25 987.78 69.1 800.26 129.47C467.31 207.28 312.85 48.17 125.14 26.5Z" />
			<path id="Layer" class="shp1" d="M-0.72 701.3C-187.92 708.26 -214.32 682.56 -325.04 584.56C-435.75 485.56 -370.41 615.52 -351.16 472.64C-331.91 329.75 -281.14 183.7 -129.18 114.16C24.41 45.68 280.86 53.77 471.84 109.53C661.17 165.26 782.22 139.31 980.03 111.88C1177.84 84.46 1429.63 60.66 1506.81 94.1C1583.99 127.53 1475.46 439.21 1529.17 576.03C1584.53 712.89 1565.6 677.66 1506.81 722.5C1449.68 767.38 1376.61 787.97 1173.4 766.2C968.53 744.39 895.4 665.48 680.47 656.22C246.5 637.5 188.11 695.41 -0.72 701.3Z" />
		</g>
	</g>
</svg>