<svg width="1440" height="967" viewBox="0 0 1440 967" fill="none" xmlns="http://www.w3.org/2000/svg">
<mask id="mask0" mask-type="alpha" maskUnits="userSpaceOnUse" x="0" y="0" width="1440" height="967">
<rect width="1440" height="967" fill="#C4C4C4"/>
</mask>
<g mask="url(#mask0)">
<path opacity="0.1" d="M132.005 952.731C-34.2803 965.484 -57.8084 938.858 -156.469 837.641C-255.115 735.347 -197.279 661.543 -180.608 508.796C-163.936 356.048 -172.29 114.407 -37.4998 36.0001C98.7464 -41.3296 379.606 44.5767 549.441 98.5258C717.805 152.474 825.265 121.376 1000.91 86.5153C1176.56 51.6544 1400.18 19.1144 1468.84 52.5285C1537.51 85.9426 1442.04 421.026 1490.16 565.228C1539.75 709.432 1598.59 835.812 1546.5 885.249C1495.88 934.689 1350.1 970.113 1169.5 952.731C987.433 935.347 1031.97 923 835.5 885.249C499.5 800.5 299.746 941.054 132.005 952.731Z" fill="#131313"/>
<path d="M241.691 11.4357C64.9573 10.819 -132.307 75.0623 -234.138 174.908C-335.925 275.743 -343.794 413.271 -321.858 552.864C-299.922 692.458 -248.181 834.118 -103.026 897.322C43.643 959.437 285.285 942.996 463.927 881.929C641.01 820.961 779.38 872.684 966.662 893.039C1153.94 913.394 1368.52 898.13 1440.42 862.752C1512.32 827.375 1401.73 525.09 1448.76 389.031C1497.34 252.872 1694.24 111.203 1637.61 69.1489C1582.54 26.9947 1272.43 85.5442 1081.36 113.646C888.72 141.848 813.607 140.693 696.434 108.466C579.217 75.2498 419.939 10.9626 241.691 11.4357Z" fill="white"/>
</g>
</svg>
