<svg width="1440" height="908" viewBox="0 0 1440 908" fill="none" xmlns="http://www.w3.org/2000/svg">
<mask id="mask0" mask-type="alpha" maskUnits="userSpaceOnUse" x="0" y="0" width="1440" height="908">
<rect width="1440" height="908" fill="#C4C4C4"/>
</mask>
<g mask="url(#mask0)">
<path opacity="0.05" d="M1298.62 26.7943C1464.56 11.1657 1488.72 35.3388 1589.77 127.021C1690.85 219.703 1634.79 289.514 1621.78 431.649C1608.78 573.783 1567.89 720.525 1435.01 796.364C1300.66 871.235 1072.84 875.236 901.754 829.043C732.142 782.818 625.455 814.128 450.687 850.487C275.919 886.845 53.1419 922.144 -16.3037 892.7C-85.7493 863.257 1.6681 550.112 -49.8961 417.386C-102.93 284.692 -158.963 101.082 -108.069 54.0137C-58.6459 6.97796 73.8066 5.54394 254.773 17.5558C437.208 29.5355 531.728 40.2803 695.373 103.219C987.231 187.164 1131.2 41.4564 1298.62 26.7943Z" fill="#131313"/>
<path opacity="0.05" d="M-0.723272 873.596C-187.924 880.551 -214.32 854.846 -325.043 756.853C-435.747 657.851 -370.415 590.314 -351.163 447.429C-331.911 304.543 -281.145 158.487 -129.183 88.9515C24.4139 20.471 280.861 28.5566 471.844 84.3249C661.172 140.047 782.221 114.098 980.032 86.673C1177.84 59.2481 1429.63 35.4492 1506.81 68.8878C1583.99 102.327 1475.46 413.999 1529.17 550.817C1584.53 687.682 1641.6 876.139 1582.82 920.976C1525.68 965.859 1376.61 960.257 1173.4 938.491C968.533 916.679 862.539 900.794 680.467 828.505C354.827 728.172 188.113 867.696 -0.723272 873.596Z" fill="#131313"/>
</g>
</svg>
