<svg width="1440" height="821" viewBox="0 0 1440 821" fill="none" xmlns="http://www.w3.org/2000/svg">
<mask id="mask0" mask-type="alpha" maskUnits="userSpaceOnUse" x="0" y="0" width="1440" height="821">
<rect width="1440" height="821" fill="#C4C4C4"/>
</mask>
<g mask="url(#mask0)">
<path opacity="0.1" d="M125.138 26.4996C-60.8514 3.86755 -89.3123 28.4876 -207.871 121.517C-326.494 215.6 -267.038 291.355 -259.817 441.853C-252.597 592.351 -214.234 553.689 -68.6069 638.647C78.739 722.639 335.002 735.287 530.015 692.86C723.374 650.344 841.843 687.337 1036.69 732.175C1231.54 777.013 1480.5 822.508 1560.21 794C1639.93 765.493 1557.88 626.803 1622.86 488.624C1689.49 350.533 1762.16 158.813 1707.33 107.252C1654.15 55.7805 1505.11 49.3684 1300.76 55.3537C1094.75 61.2506 987.78 69.0956 800.265 129.472C467.315 207.279 312.846 48.1664 125.138 26.4996Z" fill="#131313"/>
<path d="M-0.723328 701.305C-187.924 708.26 -214.321 682.556 -325.044 584.563C-435.747 485.561 -370.414 615.523 -351.162 472.638C-331.91 329.752 -281.144 183.696 -129.183 114.16C24.4143 45.6796 280.861 53.7652 471.844 109.533C661.173 165.256 782.221 139.306 980.032 111.882C1177.84 84.4566 1429.63 60.6577 1506.81 94.0964C1583.99 127.535 1475.46 439.208 1529.17 576.026C1584.53 712.891 1565.6 677.663 1506.81 722.5C1449.68 767.383 1376.61 787.967 1173.4 766.2C968.533 744.388 895.403 665.484 680.467 656.215C246.5 637.5 188.113 695.406 -0.723328 701.305Z" fill="#131313"/>
</g>
</svg>
