<svg width="1440" height="802" viewBox="0 0 1440 802" fill="none" xmlns="http://www.w3.org/2000/svg">
<path opacity="0.1" d="M114 796C-59.3596 815.458 -16.5982 783.155 -125.5 708.5C-234.446 632.992 -246.873 583.786 -237.906 461.813C-228.94 339.839 -190.914 212.903 -54.1711 143.193C84.1564 74.2544 322.74 62.4612 503.522 95.658C682.764 128.936 793.525 98.2512 975.459 60.7486C1157.39 23.246 1389.67 -15.1153 1463.4 7.49991C1537.13 30.1151 1455.81 301.002 1514.2 412.56C1574.12 524.036 1638.86 678.925 1587.08 721.029C1536.83 763.051 1398.09 769.145 1208.08 765.529C1016.52 761.995 885.093 717.471 743.593 708.5C435.021 647.472 288.944 777.313 114 796Z" fill="#131313"/>
</svg>
