<svg width="1440" height="867" viewBox="0 0 1440 867" fill="none" xmlns="http://www.w3.org/2000/svg">
<mask id="mask0" mask-type="alpha" maskUnits="userSpaceOnUse" x="0" y="0" width="1440" height="867">
<rect width="1440" height="867" fill="#C4C4C4"/>
</mask>
<g mask="url(#mask0)">
<path opacity="0.1" d="M-62.9059 860.628C-236.215 881.032 -376.141 940.627 -485.435 858.565C-594.779 775.571 -615.448 647.687 -607.075 514.524C-598.702 381.362 -561.286 242.921 -424.848 167.459C-286.821 92.8474 -48.2331 81.1331 132.757 118.27C312.208 155.488 422.849 122.518 604.647 82.4495C786.445 42.3815 1018.59 1.62143 1092.45 26.6793C1166.32 51.7372 1086.3 347.174 1145.24 469.29C1205.73 591.325 1412.22 701.881 1360.63 747.609C1310.57 793.256 1000.85 773.225 810.772 768.349C619.15 763.553 580.399 767.178 468.493 810.497C356.636 854.747 111.992 841.075 -62.9059 860.628Z" fill="#131313"/>
<path d="M1108.27 9.45771C1282.42 -0.79534 1479.68 43.6345 1584.48 123.95C1689.27 205.12 1703.14 323.03 1687.73 444.358C1672.32 565.686 1627.63 690.431 1487.39 752.804C1345.6 814.322 1106.73 813.468 927.959 770.747C750.73 728.026 616.664 780.145 433 807.963C249.335 835.781 37.1911 834.45 -35.2416 807.963C-107.674 781.476 -12.1248 515.275 -64.5229 400.782C-118.462 286.29 -318.808 175.215 -264.869 135.912C-212.471 96.6086 95.7537 129.931 285.312 143.602C476.411 157.272 550.385 152.146 664.428 117.969C778.471 82.9379 932.583 18.8563 1108.27 9.45771Z" fill="white"/>
</g>
</svg>
