<svg width="25" height="24" viewBox="0 0 25 24" fill="none" xmlns="http://www.w3.org/2000/svg">
<circle cx="12.5083" cy="12" r="11.5" stroke="#48C6C9"/>
<path d="M8.88672 15.9096L9.3029 15.0773H14.3013C14.9893 15.0773 15.5499 14.5167 15.5499 13.8287C15.5499 13.1407 14.9893 12.5802 14.3013 12.5802H10.1353V11.7478H14.3013C15.4522 11.7478 16.3822 12.6821 16.3822 13.8287C16.3822 14.9796 15.4479 15.9096 14.3013 15.9096H8.88672Z" fill="#48C6C9"/>
<path d="M14.301 16.139H8.5127L9.16245 14.8437H14.3053C14.8658 14.8437 15.3245 14.3851 15.3245 13.8245C15.3245 13.2639 14.8658 12.8053 14.3053 12.8053H9.90563V11.51H14.301C15.575 11.51 16.6155 12.5462 16.6155 13.8245C16.6155 15.1028 15.575 16.139 14.301 16.139ZM9.26012 15.6761H14.301C15.3202 15.6761 16.1526 14.8437 16.1526 13.8245C16.1526 12.8053 15.3202 11.9729 14.301 11.9729H10.3685V12.3424H14.301C15.1164 12.3424 15.7831 13.0049 15.7831 13.8245C15.7831 14.6399 15.1206 15.3066 14.301 15.3066H9.44698L9.26012 15.6761Z" fill="#48C6C9"/>
<path d="M8.88623 8.36719L9.30241 9.19955H13.7445C14.4325 9.19955 14.9931 9.76012 14.9931 10.4481C14.9931 11.1361 14.4325 11.6966 13.7445 11.6966H10.551V12.529H13.7445C14.8954 12.529 15.8254 11.5947 15.8254 10.4481C15.8254 9.29722 14.8911 8.36719 13.7445 8.36719H8.88623Z" fill="#48C6C9"/>
<path d="M13.7445 12.7627H10.3217V11.4675H13.7445C14.3051 11.4675 14.7638 11.0088 14.7638 10.4483C14.7638 9.88769 14.3051 9.42905 13.7445 9.42905H9.15805L8.5083 8.13379H13.7403C15.0143 8.13379 16.0548 9.16999 16.0548 10.4483C16.059 11.7223 15.0228 12.7627 13.7445 12.7627ZM10.7846 12.2998H13.7445C14.7638 12.2998 15.5961 11.4675 15.5961 10.4483C15.5961 9.42905 14.768 8.59668 13.7445 8.59668H9.25997L9.44683 8.96615H13.7445C14.5599 8.96615 15.2267 9.62864 15.2267 10.4483C15.2267 11.2679 14.5642 11.9304 13.7445 11.9304H10.7846V12.2998Z" fill="#48C6C9"/>
<path d="M10.9671 8.40991H10.1348V15.9054H10.9671V8.40991Z" fill="#48C6C9"/>
<path d="M11.2005 16.1391H9.90527V8.18066H11.2005V16.1391ZM10.3682 15.6762H10.7376V8.64356H10.3682V15.6762Z" fill="#48C6C9"/>
<path d="M11.9864 7.11462H11.1541V8.77935H11.9864V7.11462Z" fill="#48C6C9"/>
<path d="M12.1011 8.8983H11.0352V7H12.1011V8.8983ZM11.2687 8.66472H11.8718V7.22932H11.2687V8.66472Z" fill="#48C6C9"/>
<path d="M13.7913 7.11462H12.959V8.77935H13.7913V7.11462Z" fill="#48C6C9"/>
<path d="M13.906 8.8983H12.8401V7H13.906V8.8983ZM13.0737 8.66472H13.6767V7.22932H13.0737V8.66472Z" fill="#48C6C9"/>
<path d="M11.9864 15.4468H11.1541V17.1115H11.9864V15.4468Z" fill="#48C6C9"/>
<path d="M12.1011 17.2262H11.0352V15.3279H12.1011V17.2262ZM11.2687 16.9969H11.8718V15.5615H11.2687V16.9969Z" fill="#48C6C9"/>
<path d="M13.7913 15.4468H12.959V17.1115H13.7913V15.4468Z" fill="#48C6C9"/>
<path d="M13.906 17.2262H12.8401V15.3279H13.906V17.2262ZM13.0737 16.9969H13.6767V15.5615H13.0737V16.9969Z" fill="#48C6C9"/>
</svg>
