<svg width="25" height="24" viewBox="0 0 25 24" fill="none" xmlns="http://www.w3.org/2000/svg">
<circle cx="12.5083" cy="12" r="11.5" stroke="#48C6C9"/>
<path d="M7.91336 11.0293H8.28159L8.39085 10.6777C8.9615 8.84112 10.6748 7.5 12.6887 7.5C14.1136 7.5 15.098 8.11501 15.9717 8.98941L15.9716 8.98952L15.9808 8.99833C15.9893 9.0064 15.9961 9.0161 16.0008 9.02688C16.0056 9.03765 16.0081 9.0493 16.0083 9.06111C16.0085 9.07289 16.0063 9.08458 16.0019 9.09552L16.4659 9.28186L16.0019 9.09553C15.9975 9.10645 15.991 9.11637 15.9828 9.1247C15.9745 9.13304 15.9648 9.13962 15.954 9.14407C15.9432 9.14855 15.9317 9.15082 15.9201 9.15076C15.9085 9.15071 15.897 9.14834 15.8863 9.14378L15.6904 9.60382L15.8863 9.14378C15.8756 9.13923 15.8659 9.13256 15.8577 9.12413L15.8577 9.12409L15.8526 9.11895C15.4234 8.68945 14.9964 8.32104 14.4866 8.06531C13.9684 7.8053 13.3949 7.67645 12.6887 7.67645C10.8833 7.67645 9.34231 8.7733 8.6915 10.3372L8.4035 11.0293H9.15313H12.9734C13.0215 11.0293 13.0612 11.0685 13.0612 11.1176C13.0612 11.1667 13.0215 11.2058 12.9734 11.2058H8.87762H8.4145L8.37909 11.6676C8.3779 11.683 8.37638 11.7007 8.3747 11.7202C8.36815 11.7963 8.35927 11.8993 8.35927 11.9999C8.35927 12.2276 8.37802 12.4493 8.41098 12.664L8.4761 13.0881H8.90519H12.9734C13.0215 13.0881 13.0612 13.1272 13.0612 13.1763C13.0612 13.2255 13.0215 13.2646 12.9734 13.2646H9.29089H8.46794L8.84713 13.995C9.56697 15.3815 11.0132 16.3234 12.6888 16.3234C13.3964 16.3234 13.9704 16.1916 14.4885 15.929C14.9977 15.6709 15.4243 15.3003 15.8526 14.8716L15.8526 14.8717L15.8574 14.8668C15.8655 14.8584 15.8752 14.8518 15.886 14.8472L15.6904 14.387L15.886 14.8472C15.8967 14.8427 15.9082 14.8403 15.9198 14.8402C15.9315 14.8402 15.943 14.8425 15.9537 14.8469C15.9644 14.8514 15.9742 14.858 15.9824 14.8663C15.9906 14.8746 15.9971 14.8845 16.0015 14.8955C16.0059 14.9064 16.0081 14.9181 16.0079 14.9299C16.0077 14.9416 16.0052 14.9533 16.0005 14.964C15.9958 14.9748 15.989 14.9845 15.9805 14.9926L15.9804 14.9925L15.9717 15.0012C15.0962 15.8775 14.1117 16.4998 12.6888 16.4998C10.77 16.4998 9.12759 15.2895 8.48189 13.5872L8.3595 13.2646H8.0144H7.09605C7.04798 13.2646 7.00832 13.2255 7.00832 13.1763C7.00832 13.1272 7.048 13.0881 7.09605 13.0881H7.72053H8.28264L8.21712 12.5298C8.19638 12.3531 8.18379 12.1741 8.18379 11.9999C8.18379 11.952 8.18654 11.9214 8.19053 11.8769C8.1936 11.8426 8.19741 11.8002 8.20126 11.7355L8.2328 11.2058H7.70214H7.09604C7.04796 11.2058 7.0083 11.1667 7.0083 11.1176C7.0083 11.0685 7.04798 11.0293 7.09604 11.0293H7.91336Z" fill="#48C6C9" stroke="#48C6C9"/>
</svg>
