<svg width="24" height="24" viewBox="0 0 24 24" fill="none" xmlns="http://www.w3.org/2000/svg">
<g opacity="0.2">
<circle cx="12" cy="12" r="11.5" stroke="#131313"/>
</g>
<g opacity="0.3">
<path d="M8.37842 15.9096L8.7946 15.0772H13.793C14.481 15.0772 15.0416 14.5166 15.0416 13.8286C15.0416 13.1407 14.481 12.5801 13.793 12.5801H9.62696V11.7477H13.793C14.9439 11.7477 15.8739 12.682 15.8739 13.8286C15.8739 14.9795 14.9396 15.9096 13.793 15.9096H8.37842Z" fill="#131313"/>
<path d="M13.7927 16.139H8.00439L8.65415 14.8437H13.797C14.3575 14.8437 14.8162 14.3851 14.8162 13.8245C14.8162 13.2639 14.3575 12.8053 13.797 12.8053H9.39733V11.51H13.7927C15.0667 11.51 16.1072 12.5462 16.1072 13.8245C16.1072 15.1028 15.0667 16.139 13.7927 16.139ZM8.75182 15.6761H13.7927C14.8119 15.6761 15.6443 14.8437 15.6443 13.8245C15.6443 12.8053 14.8119 11.9729 13.7927 11.9729H9.86022V12.3424H13.7927C14.6081 12.3424 15.2748 13.0049 15.2748 13.8245C15.2748 14.6399 14.6123 15.3066 13.7927 15.3066H8.93868L8.75182 15.6761Z" fill="#131313"/>
<path d="M8.37793 8.36731L8.79411 9.19967H13.2362C13.9242 9.19967 14.4847 9.76024 14.4847 10.4482C14.4847 11.1362 13.9242 11.6968 13.2362 11.6968H10.0427V12.5291H13.2362C14.3871 12.5291 15.3171 11.5948 15.3171 10.4482C15.3171 9.29735 14.3828 8.36731 13.2362 8.36731H8.37793Z" fill="#131313"/>
<path d="M13.2362 12.7628H9.81336V11.4675H13.2362C13.7968 11.4675 14.2555 11.0089 14.2555 10.4483C14.2555 9.88776 13.7968 9.42911 13.2362 9.42911H8.64975L8 8.13385H13.232C14.506 8.13385 15.5465 9.17006 15.5465 10.4483C15.5507 11.7223 14.5145 12.7628 13.2362 12.7628ZM10.2763 12.2999H13.2362C14.2555 12.2999 15.0878 11.4675 15.0878 10.4483C15.0878 9.42911 14.2597 8.59675 13.2362 8.59675H8.75167L8.93853 8.96621H13.2362C14.0516 8.96621 14.7184 9.6287 14.7184 10.4483C14.7184 11.2679 14.0559 11.9304 13.2362 11.9304H10.2763V12.2999Z" fill="#131313"/>
<path d="M10.4588 8.40991H9.62646V15.9054H10.4588V8.40991Z" fill="#131313"/>
<path d="M10.6922 16.139H9.39697V8.1806H10.6922V16.139ZM9.85987 15.6761H10.2293V8.6435H9.85987V15.6761Z" fill="#131313"/>
<path d="M11.4779 7.11462H10.6455V8.77935H11.4779V7.11462Z" fill="#131313"/>
<path d="M11.5928 8.8983H10.5269V7H11.5928V8.8983ZM10.7604 8.66472H11.3635V7.22932H10.7604V8.66472Z" fill="#131313"/>
<path d="M13.283 7.11462H12.4507V8.77935H13.283V7.11462Z" fill="#131313"/>
<path d="M13.3975 8.8983H12.3315V7H13.3975V8.8983ZM12.5651 8.66472H13.1682V7.22932H12.5651V8.66472Z" fill="#131313"/>
<path d="M11.4779 15.4467H10.6455V17.1114H11.4779V15.4467Z" fill="#131313"/>
<path d="M11.5928 17.2261H10.5269V15.3278H11.5928V17.2261ZM10.7604 16.9968H11.3635V15.5614H10.7604V16.9968Z" fill="#131313"/>
<path d="M13.2835 15.4467H12.4512V17.1114H13.2835V15.4467Z" fill="#131313"/>
<path d="M13.398 17.2261H12.332V15.3278H13.398V17.2261ZM12.5656 16.9968H13.1686V15.5614H12.5656V16.9968Z" fill="#131313"/>
</g>
</svg>
