<svg width="24" height="24" viewBox="0 0 24 24" fill="none" xmlns="http://www.w3.org/2000/svg">
<g opacity="0.2">
<circle cx="12" cy="12" r="11.5" stroke="#131313"/>
</g>
<g opacity="0.3">
<path d="M7.40506 11.0293H7.77329L7.88254 10.6777C8.4532 8.84112 10.1665 7.5 12.1804 7.5C13.6053 7.5 14.5897 8.11501 15.4634 8.98941L15.4633 8.98952L15.4725 8.99833C15.481 9.0064 15.4878 9.0161 15.4925 9.02688C15.4973 9.03765 15.4998 9.0493 15.5 9.06111C15.5002 9.07289 15.498 9.08458 15.4936 9.09552L15.9576 9.28186L15.4936 9.09553C15.4892 9.10645 15.4827 9.11637 15.4745 9.1247C15.4662 9.13304 15.4564 9.13962 15.4457 9.14407C15.4349 9.14855 15.4234 9.15082 15.4118 9.15076C15.4002 9.15071 15.3887 9.14834 15.378 9.14378L15.1821 9.60382L15.378 9.14378C15.3673 9.13923 15.3576 9.13256 15.3494 9.12413L15.3494 9.12409L15.3443 9.11895C14.9151 8.68945 14.4881 8.32104 13.9783 8.06531C13.4601 7.8053 12.8866 7.67645 12.1804 7.67645C10.375 7.67645 8.83401 8.7733 8.1832 10.3372L7.89519 11.0293H8.64483H12.4651C12.5132 11.0293 12.5529 11.0685 12.5529 11.1176C12.5529 11.1667 12.5132 11.2058 12.4651 11.2058H8.36932H7.9062L7.87079 11.6676C7.8696 11.683 7.86807 11.7007 7.8664 11.7202C7.85984 11.7963 7.85097 11.8993 7.85097 11.9999C7.85097 12.2276 7.86972 12.4493 7.90268 12.664L7.9678 13.0881H8.39689H12.4651C12.5132 13.0881 12.5529 13.1272 12.5529 13.1763C12.5529 13.2255 12.5132 13.2646 12.4651 13.2646H8.78259H7.95964L8.33883 13.995C9.05867 15.3815 10.5049 16.3234 12.1805 16.3234C12.8881 16.3234 13.4621 16.1916 13.9802 15.929C14.4894 15.6709 14.916 15.3003 15.3443 14.8716L15.3443 14.8717L15.3491 14.8668C15.3572 14.8584 15.3669 14.8518 15.3777 14.8472L15.1821 14.387L15.3777 14.8472C15.3884 14.8427 15.3999 14.8403 15.4115 14.8402C15.4232 14.8402 15.4347 14.8425 15.4454 14.8469C15.4561 14.8514 15.4659 14.858 15.4741 14.8663C15.4823 14.8746 15.4888 14.8845 15.4932 14.8955C15.4976 14.9064 15.4998 14.9181 15.4996 14.9299C15.4994 14.9416 15.4969 14.9533 15.4922 14.964C15.4875 14.9748 15.4807 14.9845 15.4722 14.9926L15.4721 14.9925L15.4634 15.0012C14.5879 15.8775 13.6034 16.4998 12.1805 16.4998C10.2617 16.4998 8.61929 15.2895 7.97359 13.5872L7.8512 13.2646H7.5061H6.58775C6.53968 13.2646 6.50001 13.2255 6.50001 13.1763C6.50001 13.1272 6.5397 13.0881 6.58775 13.0881H7.21223H7.77434L7.70882 12.5298C7.68808 12.3531 7.67549 12.1741 7.67549 11.9999C7.67549 11.952 7.67824 11.9214 7.68223 11.8769C7.6853 11.8426 7.68911 11.8002 7.69296 11.7355L7.7245 11.2058H7.19384H6.58774C6.53966 11.2058 6.5 11.1667 6.5 11.1176C6.5 11.0685 6.53968 11.0293 6.58774 11.0293H7.40506Z" fill="#131313" stroke="#131313"/>
</g>
</svg>
