<svg width="24" height="24" viewBox="0 0 24 24" fill="none" xmlns="http://www.w3.org/2000/svg">
<g opacity="0.2">
<circle cx="12" cy="12" r="11.5" stroke="#131313"/>
</g>
<g opacity="0.3">
<path fill-rule="evenodd" clip-rule="evenodd" d="M15.8029 7.04911L17.991 11.4519C17.9993 11.4682 18.002 11.4867 17.9985 11.5047C17.9951 11.5226 17.9858 11.539 17.9719 11.5514L12.0624 16.976C12.0456 16.9914 12.0233 17 12 17C11.9767 17 11.9544 16.9914 11.9376 16.976L6.02809 11.5518C6.01423 11.5393 6.0049 11.5229 6.00147 11.505C5.99803 11.4871 6.00067 11.4686 6.00899 11.4522L8.19709 7.04945C8.20415 7.03467 8.21551 7.02214 8.2298 7.01337C8.24409 7.0046 8.26072 6.99996 8.2777 7.00001L15.7216 7.00001C15.7387 6.9998 15.7554 7.00433 15.7698 7.01305C15.7843 7.02176 15.7957 7.03429 15.8029 7.04911Z" fill="black"/>
<path fill-rule="evenodd" clip-rule="evenodd" d="M11.1861 12.2253C11.2316 12.2281 11.4665 12.2395 11.9903 12.2395C12.407 12.2395 12.7029 12.2293 12.8067 12.2253C14.417 12.1676 15.6189 11.9394 15.6189 11.6661C15.6189 11.3928 14.417 11.1649 12.8067 11.1063L12.8067 11.998C12.7014 12.0042 12.3998 12.0187 11.9831 12.0187C11.4831 12.0187 11.2327 12.0017 11.1877 11.9983L11.1877 11.1069C9.58076 11.1652 8.38146 11.3935 8.38146 11.6661C8.38146 11.9388 9.58038 12.167 11.1877 12.225L11.1861 12.2253ZM11.1861 11.0147L11.1861 10.2168L8.9436 10.2168L8.9436 9L15.0492 9L15.0492 10.2168L12.807 10.2168L12.807 11.0144C14.6295 11.0826 16 11.3765 16 11.7287C16 12.081 14.6295 12.3746 12.807 12.4431L12.807 15L11.1865 15L11.1865 12.4421C9.36825 12.374 8 12.0803 8 11.7284C8 11.3765 9.36711 11.0829 11.1865 11.0144L11.1861 11.0147Z" fill="white"/>
</g>
</svg>
