<svg width="24" height="24" viewBox="0 0 24 24" fill="none" xmlns="http://www.w3.org/2000/svg">
<g opacity="0.2">
<circle cx="12" cy="12" r="11.5" stroke="#131313"/>
</g>
<g opacity="0.3">
<path fill-rule="evenodd" clip-rule="evenodd" d="M13.6231 6.02125L12.042 10.8456L10.4538 5.99988C7.88945 6.69349 6 9.07117 6 11.8977C6 15.2679 8.68629 18 12 18C15.3137 18 18 15.2679 18 11.8977C18 9.09952 16.1483 6.74123 13.6231 6.02125ZM8.06896 11.8556C8.06896 14.0869 9.84747 15.8958 12.0414 15.8958C14.2353 15.8958 16.0138 14.0869 16.0138 11.8556C16.0138 10.5617 15.4158 9.40988 14.4855 8.67043L12.0411 14.8857L9.59679 8.67082C8.66679 9.41028 8.06896 10.5619 8.06896 11.8556Z" fill="black"/>
</g>
</svg>
