<svg xmlns="http://www.w3.org/2000/svg" viewBox="0 0 1440 150" width="1440" height="150">
	<defs>
		<clipPath clipPathUnits="userSpaceOnUse" id="cp1">
			<path d="M0 -817L1440 -817L1440 150L0 150L0 -817Z" />
		</clipPath>
	</defs>
	<style>
		tspan { white-space:pre }
		.shp0 { opacity: 0.102;fill: #131313 } 
		.shp1 { fill: #ffffff } 
	</style>
	<g id="Clip-Path" clip-path="url(#cp1)">
		<g id="Layer">
			<path id="Layer" class="shp0" d="M132 135.73C-34.28 148.48 -57.81 121.86 -156.47 20.64C-255.12 -81.65 -197.28 -155.46 -180.61 -308.2C-163.94 -460.95 -172.29 -702.59 -37.5 -781C98.75 -858.33 379.61 -772.42 549.44 -718.47C717.8 -664.53 825.26 -695.62 1000.91 -730.48C1176.56 -765.35 1400.18 -797.89 1468.84 -764.47C1537.51 -731.06 1442.04 -395.97 1490.16 -251.77C1539.75 -107.57 1598.59 18.81 1546.5 68.25C1495.88 117.69 1350.1 153.11 1169.5 135.73C987.43 118.35 1031.97 106 835.5 68.25C499.5 -16.5 299.75 124.05 132 135.73Z" />
			<path id="Layer" class="shp1" d="M241.69 -805.56C64.96 -806.18 -132.31 -741.94 -234.14 -642.09C-335.93 -541.26 -343.79 -403.73 -321.86 -264.14C-299.92 -124.54 -248.18 17.12 -103.03 80.32C43.64 142.44 285.29 126 463.93 64.93C641.01 3.96 779.38 55.68 966.66 76.04C1153.94 96.39 1368.52 81.13 1440.42 45.75C1512.32 10.38 1401.73 -291.91 1448.76 -427.97C1497.34 -564.13 1694.24 -705.8 1637.61 -747.85C1582.54 -790.01 1272.43 -731.46 1081.36 -703.35C888.72 -675.15 813.61 -676.31 696.43 -708.53C579.22 -741.75 419.94 -806.04 241.69 -805.56Z" />
		</g>
	</g>
</svg>