<svg xmlns="http://www.w3.org/2000/svg" viewBox="0 0 1440 150" width="1440" height="150">
	<defs>
		<clipPath clipPathUnits="userSpaceOnUse" id="cp1">
			<path d="M0 0L1440 0L1440 967L0 967L0 0Z" />
		</clipPath>
	</defs>
	<style>
		tspan { white-space:pre }
		.shp0 { opacity: 0.102;fill: #131313 } 
		.shp1 { fill: #ffffff } 
	</style>
	<g id="Clip-Path" clip-path="url(#cp1)">
		<g id="Layer">
			<path id="Layer" class="shp0" d="M132 952.73C-34.28 965.48 -57.81 938.86 -156.47 837.64C-255.12 735.35 -197.28 661.54 -180.61 508.8C-163.94 356.05 -172.29 114.41 -37.5 36C98.75 -41.33 379.61 44.58 549.44 98.53C717.8 152.47 825.26 121.38 1000.91 86.52C1176.56 51.65 1400.18 19.11 1468.84 52.53C1537.51 85.94 1442.04 421.03 1490.16 565.23C1539.75 709.43 1598.59 835.81 1546.5 885.25C1495.88 934.69 1350.1 970.11 1169.5 952.73C987.43 935.35 1031.97 923 835.5 885.25C499.5 800.5 299.75 941.05 132 952.73Z" />
			<path id="Layer" class="shp1" d="M241.69 11.44C64.96 10.82 -132.31 75.06 -234.14 174.91C-335.93 275.74 -343.79 413.27 -321.86 552.86C-299.92 692.46 -248.18 834.12 -103.03 897.32C43.64 959.44 285.29 943 463.93 881.93C641.01 820.96 779.38 872.68 966.66 893.04C1153.94 913.39 1368.52 898.13 1440.42 862.75C1512.32 827.38 1401.73 525.09 1448.76 389.03C1497.34 252.87 1694.24 111.2 1637.61 69.15C1582.54 26.99 1272.43 85.54 1081.36 113.65C888.72 141.85 813.61 140.69 696.43 108.47C579.22 75.25 419.94 10.96 241.69 11.44Z" />
		</g>
	</g>
</svg>