<svg xmlns="http://www.w3.org/2000/svg" viewBox="0 0 1440 150" width="1440" height="150">
	<defs>
		<clipPath clipPathUnits="userSpaceOnUse" id="cp1">
			<path d="M0 1L1440 1L1440 909L0 909L0 1Z" />
		</clipPath>
	</defs>
	<style>
		tspan { white-space:pre }
		.shp0 { opacity: 0.051;fill: #131313 } 
	</style>
	<g id="Clip-Path" clip-path="url(#cp1)">
		<g id="Layer">
			<path id="Layer" class="shp0" d="M1298.62 27.79C1464.56 12.17 1488.72 36.34 1589.77 128.02C1690.85 220.7 1634.79 290.51 1621.78 432.65C1608.78 574.78 1567.89 721.52 1435.01 797.36C1300.66 872.24 1072.84 876.24 901.75 830.04C732.14 783.82 625.46 815.13 450.69 851.49C275.92 887.85 53.14 923.14 -16.3 893.7C-85.75 864.26 1.67 551.11 -49.9 418.39C-102.93 285.69 -158.96 102.08 -108.07 55.01C-58.65 7.98 73.81 6.54 254.77 18.56C437.21 30.54 531.73 41.28 695.37 104.22C987.23 188.16 1131.2 42.46 1298.62 27.79Z" />
			<path id="Layer" class="shp0" d="M-0.72 874.6C-187.92 881.55 -214.32 855.85 -325.04 757.85C-435.75 658.85 -370.42 591.31 -351.16 448.43C-331.91 305.54 -281.14 159.49 -129.18 89.95C24.41 21.47 280.86 29.56 471.84 85.32C661.17 141.05 782.22 115.1 980.03 87.67C1177.84 60.25 1429.63 36.45 1506.81 69.89C1583.99 103.33 1475.46 415 1529.17 551.82C1584.53 688.68 1641.6 877.14 1582.82 921.98C1525.68 966.86 1376.61 961.26 1173.4 939.49C968.53 917.68 862.54 901.79 680.47 829.5C354.83 729.17 188.11 868.7 -0.72 874.6Z" />
		</g>
	</g>
</svg>