<svg xmlns="http://www.w3.org/2000/svg" viewBox="0 0 1440 805" width="1440" height="805">
	<defs>
		<clipPath clipPathUnits="userSpaceOnUse" id="cp1">
			<path d="M-96.07 62.6L753.28 62.6L753.28 674.28L-96.07 674.28L-96.07 62.6Z" />
		</clipPath>
		<linearGradient id="grd1" gradientUnits="userSpaceOnUse"  x1="230.732" y1="569.048" x2="230.732" y2="611.761">
			<stop offset="0" stop-color="#1264ad"  />
			<stop offset="1" stop-color="#48c6c9"  />
		</linearGradient>
		<linearGradient id="grd2" gradientUnits="userSpaceOnUse"  x1="230.722" y1="508.711" x2="230.722" y2="523.683">
			<stop offset="0" stop-color="#1264ad"  />
			<stop offset="1" stop-color="#48c6c9"  />
		</linearGradient>
		<linearGradient id="grd3" gradientUnits="userSpaceOnUse"  x1="230.722" y1="533.876" x2="230.722" y2="548.848">
			<stop offset="0" stop-color="#1264ad"  />
			<stop offset="1" stop-color="#48c6c9"  />
		</linearGradient>
		<linearGradient id="grd4" gradientUnits="userSpaceOnUse"  x1="230.722" y1="559.042" x2="230.722" y2="574.014">
			<stop offset="0" stop-color="#1264ad"  />
			<stop offset="1" stop-color="#48c6c9"  />
		</linearGradient>
		<linearGradient id="grd5" gradientUnits="userSpaceOnUse"  x1="371.035" y1="203.181" x2="371.035" y2="215.652">
			<stop offset="0" stop-color="#1264ad"  />
			<stop offset="1" stop-color="#48c6c9"  />
		</linearGradient>
		<linearGradient id="grd6" gradientUnits="userSpaceOnUse"  x1="549.058" y1="340.022" x2="549.058" y2="352.492">
			<stop offset="0" stop-color="#1264ad"  />
			<stop offset="1" stop-color="#48c6c9"  />
		</linearGradient>
		<linearGradient id="grd7" gradientUnits="userSpaceOnUse"  x1="87.944" y1="593.615" x2="87.944" y2="606.086">
			<stop offset="0" stop-color="#1264ad"  />
			<stop offset="1" stop-color="#48c6c9"  />
		</linearGradient>
		<linearGradient id="grd8" gradientUnits="userSpaceOnUse"  x1="333.287" y1="170.1" x2="333.287" y2="192.428">
			<stop offset="0" stop-color="#1264ad"  />
			<stop offset="1" stop-color="#48c6c9"  />
		</linearGradient>
		<linearGradient id="grd9" gradientUnits="userSpaceOnUse"  x1="334.692" y1="88.071" x2="334.692" y2="141.212">
			<stop offset="0" stop-color="#1264ad"  />
			<stop offset="1" stop-color="#48c6c9"  />
		</linearGradient>
		<linearGradient id="grd10" gradientUnits="userSpaceOnUse"  x1="461.579" y1="121.691" x2="461.579" y2="146.634">
			<stop offset="0" stop-color="#1264ad"  />
			<stop offset="1" stop-color="#48c6c9"  />
		</linearGradient>
		<linearGradient id="grd11" gradientUnits="userSpaceOnUse"  x1="126.468" y1="363.534" x2="126.468" y2="371.126">
			<stop offset="0" stop-color="#1264ad"  />
			<stop offset="1" stop-color="#48c6c9"  />
		</linearGradient>
		<linearGradient id="grd12" gradientUnits="userSpaceOnUse"  x1="411.692" y1="350.52" x2="411.692" y2="358.112">
			<stop offset="0" stop-color="#1264ad"  />
			<stop offset="1" stop-color="#48c6c9"  />
		</linearGradient>
		<linearGradient id="grd13" gradientUnits="userSpaceOnUse"  x1="631.845" y1="364.619" x2="631.845" y2="372.21">
			<stop offset="0" stop-color="#1264ad"  />
			<stop offset="1" stop-color="#48c6c9"  />
		</linearGradient>
		<linearGradient id="grd14" gradientUnits="userSpaceOnUse"  x1="215.397" y1="201.944" x2="215.397" y2="211.704">
			<stop offset="0" stop-color="#1264ad"  />
			<stop offset="1" stop-color="#48c6c9"  />
		</linearGradient>
		<linearGradient id="grd15" gradientUnits="userSpaceOnUse"  x1="181.399" y1="338.005" x2="181.399" y2="360.333">
			<stop offset="0" stop-color="#1264ad"  />
			<stop offset="1" stop-color="#48c6c9"  />
		</linearGradient>
	</defs>
	<style>
		tspan { white-space:pre }
		.shp0 { opacity: 0.102;fill: #131313 } 
		.shp1 { fill: #ffffff } 
		.shp2 { fill: #f8007a } 
		.shp3 { opacity: 0.302;fill: #131313 } 
		.shp4 { fill: #af7d61 } 
		.shp5 { fill: #2d334a } 
		.shp6 { fill: #299ed3 } 
		.shp7 { fill: #131313 } 
		.shp8 { opacity: 0.6;fill: #299ed3 } 
		.shp9 { fill: #48c6c9 } 
		.shp10 { fill: #d6d1bc } 
		.shp11 { fill: #383e56 } 
		.shp12 { opacity: 0.561;fill: #48c6c9 } 
		.shp13 { fill: #d1a58c } 
		.shp14 { fill: #1264ad } 
		.shp15 { opacity: 0.561;fill: #1264ad } 
		.shp16 { fill: #adb1cc } 
		.shp17 { fill: #dedede } 
		.shp18 { opacity: 0.2;fill: #48c6c9 } 
		.shp19 { fill: none;stroke: #131313;stroke-width: 4 } 
		.shp20 { fill: none;stroke: #131313;stroke-width: 2 } 
		.shp21 { opacity: 0.71;fill: #dddddd } 
		.shp22 { opacity: 0.761;fill: #e0e0e0 } 
		.shp23 { opacity: 0.631;fill: #cacaca } 
		.shp24 { fill: url(#grd1) } 
		.shp25 { fill: url(#grd2) } 
		.shp26 { fill: url(#grd3) } 
		.shp27 { fill: url(#grd4) } 
		.shp28 { fill: url(#grd5) } 
		.shp29 { fill: url(#grd6) } 
		.shp30 { fill: url(#grd7) } 
		.shp31 { fill: url(#grd8) } 
		.shp32 { fill: url(#grd9) } 
		.shp33 { fill: url(#grd10) } 
		.shp34 { fill: url(#grd11) } 
		.shp35 { fill: url(#grd12) } 
		.shp36 { fill: url(#grd13) } 
		.shp37 { fill: url(#grd14) } 
		.shp38 { fill: url(#grd15) } 
		.shp39 { fill: #3b3e54 } 
		.shp40 { opacity: 0.302;fill: #ffffff } 
	</style>
	<path id="Layer" class="shp0" d="M114 797C-59.36 816.46 -16.6 784.15 -125.5 709.5C-234.45 633.99 -246.87 584.79 -237.91 462.81C-228.94 340.84 -190.91 213.9 -54.17 144.19C84.16 75.25 322.74 63.46 503.52 96.66C682.76 129.94 793.52 99.25 975.46 61.75C1157.39 24.25 1389.67 -14.12 1463.4 8.5C1537.13 31.11 1455.81 302 1514.2 413.56C1574.12 525.04 1638.86 679.92 1587.08 722.03C1536.83 764.05 1398.09 770.14 1208.08 766.53C1016.52 763 885.09 718.47 743.59 709.5C435.02 648.47 288.94 778.31 114 797Z" />
	<path id="Layer" class="shp1" d="M527.55 714.35C645.38 724.89 768.15 699.5 837.86 643.39C907.61 586.62 907.1 485.52 849.34 416.33C791.54 347.8 676.5 311.2 627.44 242.18C578.42 172.5 596.24 69.06 553.31 31.02C511.22 -7.73 408.45 17.62 328.67 56.02C248.13 93.82 190.67 143.37 102.87 169.83C15.07 196.29 -102.98 198.35 -164.79 240.97C-226.57 282.93 -232.91 365.5 -196.02 426.07C-158.38 487.25 -102.82 609.95 -83.32 697.59C-63.83 785.24 -116.37 740.48 -72.8 781.1C-29.23 821.72 99.79 788.9 201.16 746.67C302.49 705.1 451.01 695.58 527.55 714.35Z" />
	<path id="Layer" fill-rule="evenodd" class="shp2" d="M710.84 671.73L-59.32 671.73C-127.97 654.68 -192.44 634.71 -229.25 606.84C-291.87 558.92 -275.06 487.99 -204.49 446.08C-170.72 426.23 -124.62 413.04 -78.98 399.99C-29.33 385.78 19.77 371.73 51.86 349.43C82.79 327.74 97.78 298.14 111.39 271.27C124.91 244.57 137.07 220.57 162.14 209.73C211.69 187.39 313.35 217.06 389.24 253.25C418.59 266.95 444.19 281.47 469.43 295.78C510.21 318.91 550.05 341.51 603.22 359.25C635.13 369.9 671.86 378.68 708.34 387.39C770.25 402.19 831.45 416.81 867.15 440.14C923.96 476.74 917.17 535.45 869.47 573.72C851.39 588.09 827.77 599.57 803.48 611.39C769.48 627.93 734.15 645.12 710.84 671.73Z" />
	<path id="Layer" fill-rule="evenodd" class="shp3" d="M14.64 626.17L595.76 626.17C642.42 617.64 685.4 607.66 710.7 594.16C756.89 569.24 744.64 532.51 692.77 510.89C667.94 500.65 634.03 493.88 600.46 487.18C563.93 479.89 527.81 472.68 504.23 461.17C481.5 449.98 470.52 434.66 460.55 420.76C450.64 406.94 441.74 394.52 423.3 388.94C386.86 377.43 311.97 392.95 256.03 411.81C234.4 418.95 215.53 426.5 196.92 433.96C166.85 446 137.48 457.76 98.31 467.03C74.8 472.59 47.74 477.19 20.87 481.76C-24.74 489.51 -69.82 497.17 -96.14 509.31C-138.03 528.36 -133.14 558.77 -98.09 578.53C-84.81 585.95 -67.45 591.87 -49.58 597.96C-26.4 605.86 -2.37 614.05 14.64 626.17Z" />
	<g id="Clip-Path" clip-path="url(#cp1)">
		<g id="Layer">
			<path id="Layer" class="shp1" d="M581.76 337.97C581.76 337.97 530.5 582.34 505.11 666.05C505.11 666.05 536.07 694.58 564.81 686.55C612.23 673.26 602.82 494.45 590.24 407.34C585.95 377.77 581.76 337.97 581.76 337.97Z" />
			<path id="Layer" class="shp4" d="M516.28 296.08C517.36 295.37 518.07 294.17 518.18 292.87C518.85 285.14 520.68 258.03 515.12 252.58C509.14 246.72 502.46 274.72 508.55 294.66C509.37 297.38 512.62 298.5 514.97 296.94L516.28 296.08Z" />
			<path id="Layer" class="shp1" d="M521.91 298.13C515.94 295.63 510.3 293.24 504.4 289.92C467.48 446.73 578.74 490.04 611.75 342.15C616.79 319.52 609.58 328.11 597.11 328.41C597.11 325.01 597.15 325.01 597.11 328.41C584.64 328.71 582.96 328.75 581.02 345.88C568.06 457.93 503.28 409.17 521.91 298.13Z" />
			<path id="Layer" class="shp1" d="M688.4 541.34C694.67 544.74 699.83 547.47 705.61 550.12C735.97 428.51 737.5 395.28 633.03 321.09C617.05 309.74 606.74 338.68 631.65 350.81C719.09 393.38 706.66 458.31 688.4 541.34Z" />
			<path id="Layer" class="shp1" d="M568.06 905.94C575.12 909.11 575.53 914.86 582.92 917.18C605.1 787.17 604.8 620.8 635.01 503.3C615.48 499.08 595.92 495.08 576.35 491.09C552.9 628.15 597.41 750.77 568.06 905.94Z" />
			<path id="Layer" class="shp5" d="M576.31 491.09C595.88 495.08 615.44 499.08 634.97 503.3C606.93 612.36 607.15 763.2 589.35 888.32L570.75 890.52C594.5 742.55 553.69 623.6 576.31 491.09Z" />
			<path id="Layer" class="shp1" d="M621.53 907.62C628.77 910.31 629.56 916.06 637.06 917.89C650.76 786.72 639.71 620.72 662.23 501.5C642.48 498.55 622.69 495.83 602.9 493.1C588.41 631.44 640.76 750.88 621.53 907.62Z" />
			<path id="Layer" class="shp5" d="M602.9 493.1C622.69 495.83 642.48 498.55 662.23 501.5C641.32 612.17 651.32 762.68 641.62 888.65L623.21 892.05C637.32 742.89 588.9 626.81 602.9 493.1Z" />
			<path id="Layer" class="shp6" d="M712.33 704.13C710.62 698.53 708.9 692.82 707.22 687.03C685.15 610.6 668.42 519.88 660.58 473.8C649.2 406.74 652.59 377.25 641.73 344.65C637.17 330.99 636.35 322.92 625.34 316.13C624.07 315.34 622.69 314.6 621.16 313.85C618.99 312.8 616.86 312.06 614.85 311.65C593.19 307.05 580.2 335.95 576.61 355.59C575.9 359.44 575.19 362.35 574.56 364.81C574.56 364.81 574.56 364.81 574.56 364.85C571.65 376.09 570.41 376.72 580.2 404.69C584.45 416.79 574.97 487.43 570.71 511.25C569.33 518.98 568.44 532.64 565.37 546.72C547.15 630.99 535.47 721.01 525.72 807.89C525.39 810.92 525.05 813.98 524.71 817C533.6 817.23 542.56 815.88 551.07 813.49C571.46 807.71 590.17 797.92 611.08 793.74C625 790.98 638.85 791.84 652.82 794.49C661.4 796.13 669.17 799.87 678.1 800.46C691.01 801.28 702.48 800.2 714.16 792.7C721.82 787.77 733.35 787.1 740.34 776.98C730.4 757.53 721 732.17 712.33 704.13Z" />
			<path id="Layer" class="shp1" d="M655.65 699.62C678.47 699.99 698.41 691.48 707.22 687.03C685.15 610.64 670.07 518.57 662.23 472.49C650.84 405.44 655.99 377.28 645.16 344.69C640.61 331.02 636.39 322.92 625.38 316.13C625.9 337.63 618.36 384.3 616.49 470.96C614.14 579.99 655.65 699.62 655.65 699.62Z" />
			<path id="Layer" class="shp1" d="M573.81 364.78C573.81 364.81 573.81 364.81 573.81 364.78C573.81 364.81 594.27 323.48 607.42 316.13C610.33 314.48 612.53 312.99 614.1 311.61C592.44 307.02 579.45 335.92 575.87 355.55C575.19 359.4 574.45 362.35 573.81 364.78Z" />
			<path id="Layer" class="shp4" d="M692.02 543.28C685.49 551.69 671.64 570.65 673.17 577.86C674.88 585.96 694.64 568.11 702.14 548.48C698.82 546.83 695.53 545.15 692.02 543.28Z" />
			<path id="Layer" class="shp7" d="M607.98 290.55C607.98 290.55 614.1 315.15 643.86 307.46C673.62 299.77 676.71 268.97 672.87 255.12C669.02 241.26 645.84 217.89 617.57 235.14C589.35 252.43 607.98 290.55 607.98 290.55Z" />
			<path id="Layer" class="shp4" d="M632.8 285.4C619.36 302.54 596.55 307.05 586.06 298.84C575.61 290.63 581.47 272.78 594.91 255.68C608.35 238.54 623.66 236.49 634.15 244.7C644.64 252.91 646.25 268.3 632.8 285.4Z" />
			<path id="Layer" class="shp4" d="M629.67 280.39L607.12 276.74C606.6 279.83 602.34 309.29 602.79 320.53C603.38 324 608.95 325.95 615.22 324.86C620.82 323.89 625.04 320.76 625.41 317.62L625.45 317.62C625.15 310.86 627.91 291.19 629.67 280.39Z" />
			<path id="Layer" class="shp7" d="M648.82 245.04C648.82 245.04 645.57 223.75 668.69 216.21C691.8 208.71 718.27 217.22 715.39 241.41C712.52 265.61 688.92 294.25 661.7 285.29C634.49 276.36 648.82 245.04 648.82 245.04Z" />
			<path id="Layer" class="shp7" d="M697.44 227C697.44 227 694.97 210.87 712.48 205.2C729.96 199.52 750.04 205.94 747.88 224.28C745.71 242.61 727.83 264.3 707.22 257.51C686.61 250.71 697.44 227 697.44 227Z" />
			<path id="Layer" class="shp7" d="M608.42 242.8C608.42 242.8 634.56 258.81 623.77 290.77C618.69 305.78 661.82 265.5 661.82 265.5C661.82 265.5 634.26 225.77 608.42 242.8Z" />
			<path id="Layer" class="shp4" d="M635.87 297.35C632.73 301.34 624.78 303.32 621.9 301.04C619.03 298.76 620.82 294.99 623.96 291C627.09 287 632.36 285.14 635.23 287.38C638.11 289.65 639 293.39 635.87 297.35Z" />
			<path id="Layer" class="shp8" d="M580.09 245.89L577.02 250.41C574.07 254.78 575.19 260.75 579.6 263.7L590.05 270.8C592.48 272.44 595.65 272.4 598.04 270.72L599.13 269.98C600.4 269.08 602.08 269.08 603.35 269.94C604.62 270.8 605.21 272.37 604.88 273.86L604.58 275.13C603.91 277.97 605.06 280.92 607.49 282.56L618.47 289.99C622.84 292.94 628.81 291.82 631.76 287.41L634.82 282.9C638.22 277.86 636.91 271.06 631.87 267.66L595.36 242.98C590.32 239.55 583.48 240.86 580.09 245.89Z" />
			<path id="Layer" class="shp1" d="M443.62 539.44C442.95 544.11 440.11 548.14 436 550.42C425.44 556.24 405.16 566.58 398.22 563.97C388.66 560.42 419.5 536.79 443.99 536.79L443.62 539.44Z" />
			<path id="Layer" class="shp9" d="M425.81 539.4C432.71 542.5 438.02 546.87 444.89 550.53C447.39 546.2 449.85 541.87 452.24 537.53L431.71 527.23C429.73 531.37 427.75 535.44 425.81 539.4Z" />
			<path id="Layer" class="shp1" d="M414.35 314.89C388.32 302.57 389.4 335.8 415.69 346.67C500.33 381.69 462.81 463.64 431.78 527.23L452.32 537.53C499.47 452.48 524.12 366.87 414.35 314.89Z" />
			<path id="Layer" class="shp10" d="M227.1 167.08C230.61 163.94 232.44 159.35 232.03 154.64C231.06 142.62 228.44 120.03 222.43 115.66C214.18 109.65 211.53 148.41 225.08 168.87L227.1 167.08Z" />
			<path id="Layer" class="shp9" d="M237.7 158.38C230.65 160.43 224.26 162.04 216.68 164.54C217.73 169.06 218.89 173.57 220.12 178.09L241.47 171.71C240.17 167.3 238.9 162.86 237.7 158.38Z" />
			<path id="Layer" class="shp1" d="M370.25 331.4C300.77 301.15 262.87 242.12 241.51 171.67L220.16 178.05C242.11 258.59 290.95 336.21 375.07 364.74C395.12 371.53 391.76 340.77 370.25 331.4Z" />
			<path id="Layer" class="shp11" d="M409.49 529.43L385.97 639.95L362.33 750.47L359.27 764.47L359.24 764.69C359.24 764.69 359.2 764.81 359.24 764.77L359.27 764.58C359.31 764.47 359.31 764.32 359.31 764.21L359.35 763.95C359.38 763.61 359.35 763.57 359.35 763.5C359.35 763.5 359.35 763.57 359.35 763.61L359.35 763.69L359.35 763.8L359.35 763.99C359.35 764.58 359.35 765.48 359.42 766.41C359.54 768.28 359.72 770.44 359.94 772.57C360.43 776.9 361.03 781.42 361.7 785.98C362.37 790.49 363.08 795.09 363.83 799.68C366.85 818.01 370.21 836.49 373.65 854.94L384.03 910.46C385.75 919.72 387.46 929.01 389.11 938.39C389.93 943.05 390.75 947.76 391.5 952.54C391.87 954.93 392.24 957.32 392.58 959.78C392.76 961.01 392.91 962.28 393.06 963.63C393.14 964.3 393.21 964.97 393.25 965.75C393.29 966.13 393.32 966.54 393.32 966.95L393.36 967.62L393.4 968.41L369.76 969.12C369.76 969.08 369.76 969.04 369.76 969L369.73 968.78L369.65 968.22C369.58 967.81 369.5 967.32 369.43 966.84C369.24 965.83 369.06 964.78 368.83 963.7C368.42 961.54 367.94 959.3 367.45 957.06C366.48 952.57 365.43 948.02 364.35 943.5C362.19 934.43 359.98 925.32 357.7 916.17L344.12 861.32C339.6 842.99 335.15 824.66 330.97 806.03C329.93 801.36 328.92 796.69 327.95 791.95C326.98 787.21 326.04 782.47 325.19 777.46C324.77 774.96 324.36 772.42 324.03 769.62C323.88 768.2 323.73 766.75 323.62 764.99L323.58 764.32L323.58 763.99L323.58 763.61L323.58 762.83L323.58 761.97C323.62 761.33 323.62 760.7 323.73 759.77L323.77 759.47C323.77 759.36 323.8 759.24 323.8 759.09L323.92 758.27L324.06 757.49L326.27 743.75L343.55 632.18L360.73 520.55L409.49 529.43Z" />
			<path id="Layer" class="shp11" d="M370.21 528.35C355.17 564.31 340.19 600.34 325.33 636.4C317.9 654.44 310.51 672.47 303.16 690.5C299.5 699.54 295.84 708.54 292.22 717.58C288.59 726.57 285.01 735.61 281.54 744.57L279 751.25C278.18 753.46 277.36 755.7 276.57 757.79L276.01 759.36L275.75 760.1L275.53 760.77L275.15 761.86C275.15 761.82 275.15 761.86 275.15 761.78C275.19 761.67 275.19 761.56 275.23 761.45L275.26 761.15L275.26 761L275.26 760.85C275.26 760.81 275.26 760.77 275.26 760.74L275.26 760.77C275.26 760.77 275.26 760.85 275.26 760.89C275.26 760.92 275.26 761 275.26 761.07L275.26 761.3L275.26 761.56C275.26 761.75 275.26 761.93 275.26 762.15C275.26 763.01 275.3 764.02 275.34 765.07C275.45 767.16 275.6 769.44 275.82 771.71C276.01 773.99 276.27 776.34 276.5 778.7C276.98 783.4 277.58 788.14 278.18 792.92C279.37 802.48 280.72 812.08 282.06 821.67C283.44 831.27 284.86 840.9 286.28 850.53L295.09 908.4C296.55 918.08 298 927.75 299.42 937.45C300.13 942.31 300.8 947.2 301.44 952.13C301.77 954.59 302.07 957.06 302.37 959.63C302.52 960.9 302.67 962.21 302.78 963.55C302.86 964.22 302.89 964.93 302.97 965.68C303.01 966.43 303.08 967.17 303.08 968.26L279.45 968.97L279.3 967.88C279.22 967.43 279.15 966.87 279.07 966.35C278.92 965.27 278.74 964.15 278.51 962.99C278.1 960.71 277.69 958.36 277.24 956.01C276.35 951.31 275.41 946.56 274.44 941.82C272.5 932.3 270.49 922.78 268.51 913.26L256.37 855.95C254.36 846.35 252.38 836.79 250.44 827.16C248.49 817.53 246.59 807.89 244.8 798.15C243.9 793.26 243.04 788.37 242.22 783.4C241.81 780.9 241.4 778.4 241.03 775.86C240.65 773.28 240.32 770.71 240.02 767.94C239.87 766.56 239.76 765.14 239.65 763.54C239.61 763.13 239.61 762.75 239.57 762.3L239.53 761.67L239.53 761L239.53 760.25C239.53 759.99 239.53 759.77 239.53 759.47L239.57 758.61L239.65 757.6L239.68 757.3L239.72 757L239.79 756.37C239.79 756.26 239.83 756.14 239.83 756.03L239.91 755.62L240.06 754.8C240.17 754.16 240.32 753.57 240.47 752.97L240.8 751.7L240.95 751.1L241.1 750.58L241.4 749.5L241.7 748.49L242.26 746.55C243.01 744.01 243.75 741.62 244.54 739.23L246.81 732.1C249.88 722.69 253.01 713.39 256.19 704.1C259.36 694.8 262.53 685.54 265.71 676.32C272.09 657.84 278.55 639.35 285.01 620.91C297.97 584.02 311 547.21 324.14 510.35L370.21 528.35Z" />
			<path id="Layer" class="shp9" d="M415.95 527.49C417.37 522.53 418.79 517.56 420.06 512.67C420.88 509.46 421.63 506.21 422.3 503.11C423.83 496.05 425.06 488.96 426.29 482.01C426.89 478.73 427.26 475.52 427.68 472.42C428.72 464.69 429.58 457.07 430.25 449.46C430.55 446.17 430.92 443.07 431 439.86C431.26 419.06 431.15 397 429.21 376.65C428.09 364.78 428.38 353.01 425.58 342.26C417.22 310.19 403.97 299.1 371.78 311.83C359.87 318.07 349.53 341.59 350.27 364.29C351.1 389.23 351.39 419.62 345.76 445.57C345.42 447.18 344.82 449.79 344.23 451.81C343.4 454.68 342.58 457.67 341.61 460.88C340.27 465.36 338.77 470.14 337.13 474.88C336.12 477.76 335.04 480.86 333.85 483.96C331.72 489.45 329.11 495.27 326.34 500.65C325.6 502.14 324.59 503.97 323.77 505.35C322.94 506.73 322.27 507.89 321.49 509.16C319.62 512.15 317.57 515.21 315.74 518.12C313.91 521.03 312.15 523.53 310.32 526.37C309.54 527.6 308.76 528.84 307.97 530.11C313.35 532.53 318.5 534.77 324.33 535.89C339.49 538.8 355.88 538.69 370.77 542.16C383.95 545.23 394.74 551.72 407.03 556.69C408.97 550.12 411.1 543.36 413.11 536.79C414.08 533.65 415.06 530.55 415.95 527.49Z" />
			<path id="Layer" class="shp5" d="M384.59 231.63C384.59 231.63 365.99 232.68 366.55 244.44C367.11 256.16 388.06 243.02 388.06 243.02C388.06 243.02 393.32 229.84 384.59 231.63Z" />
			<path id="Layer" class="shp10" d="M400.31 282.3C383.58 297.98 359.12 299.06 349.53 288.83C339.93 278.6 348.89 260.98 365.58 245.3C382.31 229.62 398.55 229.91 408.15 240.11C417.74 250.38 417.03 266.62 400.31 282.3Z" />
			<path id="Layer" class="shp10" d="M401.95 274.68L378.13 271.28C377.64 274.53 373.76 305.63 374.47 317.43C375.18 321.09 381.08 323.03 387.61 321.73C393.51 320.57 397.88 317.21 398.18 313.89L398.22 313.89C397.81 306.83 400.34 286.11 401.95 274.68Z" />
			<path id="Layer" class="shp5" d="M413.23 274.76C413.23 274.76 420.62 261.17 416.62 249.18C412.63 237.19 396.83 221.66 378.73 232.08C378.73 232.08 366.55 240.67 378.13 254.44C389.7 268.22 393.77 259.19 394.22 271.58C394.67 283.98 404.86 284.5 404.71 287.08L413.23 274.76Z" />
			<path id="Layer" class="shp1" d="M401.95 304.33C401.95 304.33 407.92 399.84 404.19 431.68C398.63 479.55 378.09 600.08 378.09 600.08L407.77 604.56C407.77 604.56 431.04 485.79 431.04 437.36C431.07 392.37 436.97 309.18 401.95 304.33Z" />
			<path id="Layer" class="shp1" d="M371.74 311.83C371.74 311.83 362.67 317.96 358.6 371.8C354.53 425.64 344.86 527.23 307.97 583.76L269.22 581.93C269.22 581.93 319.14 514.76 329.96 452.14C340.83 389.57 345.24 313.77 371.74 311.83Z" />
			<path id="Layer" class="shp9" d="M401.35 284.99C401.35 284.99 410.84 250.38 374.95 233.8C374.95 233.8 382.01 225.36 393.36 225.62C404.71 225.88 433.65 244.18 436.23 258.44C436.23 258.44 439.02 268.3 430.81 266.92C422.6 265.53 422.63 267.03 421.07 270.24C419.54 273.45 411.66 294.02 401.35 284.99Z" />
			<path id="Layer" class="shp10" d="M404.86 292.19C400.98 295.85 392.39 296.64 389.74 293.84C387.09 291.04 389.59 287.34 393.47 283.72C397.36 280.06 403.14 278.94 405.8 281.74C408.45 284.54 408.75 288.53 404.86 292.19Z" />
			<path id="Layer" class="shp12" d="M347.03 232.15L343.29 236.15C339.67 240.03 339.89 246.08 343.78 249.7L353 258.33C355.13 260.31 358.26 260.79 360.88 259.49L362.07 258.89C363.45 258.22 365.1 258.44 366.22 259.52C367.34 260.57 367.71 262.21 367.11 263.63L366.63 264.86C365.55 267.55 366.22 270.65 368.35 272.67L378.02 281.7C381.9 285.32 387.95 285.1 391.57 281.22L395.3 277.22C399.45 272.78 399.19 265.83 394.78 261.69L362.56 231.63C358.12 227.49 351.17 227.71 347.03 232.15Z" />
			<path id="Layer" class="shp1" d="M12.75 560.42C17.9 556.13 23.8 552.06 29.59 547.47C-44.86 461.97 -36.61 392.52 77.45 356.86C97.05 350.74 99.93 347.82 89.81 332.67C93.1 329.87 93.13 329.87 89.81 332.67C79.69 317.47 74.69 320.98 56.69 329.94C-61.03 388.3 -83.21 462.6 12.75 560.42Z" />
			<path id="Layer" class="shp13" d="M243.38 344.09C243.38 344.09 238 302.83 229.04 297.38C220.08 291.97 220.75 331.81 236.36 351.52L243.38 344.09Z" />
			<path id="Layer" class="shp1" d="M95.11 330.02C106.17 333.6 103.51 332.29 114.53 335.32C114.3 335.28 125.43 337.89 125.43 338.04C137.45 434.15 234.08 486.64 228.11 343.79C235.69 344.2 240.69 344.76 248.23 344.91C256.86 505.13 116.51 482.76 95.97 351.78C94.4 341.55 95.19 339.61 95.11 330.02Z" />
			<path id="Layer" class="shp5" d="M83.91 309.93C83.91 309.93 57.74 298.69 51.65 272.07C45.57 245.45 71.25 227.38 93.84 230.4C116.43 233.46 118.3 251.72 116.62 255.9C114.9 260.08 83.91 309.93 83.91 309.93Z" />
			<path id="Layer" class="shp5" d="M105.61 238.61C105.61 238.61 123.68 244.14 120.28 255.6C116.88 267.03 99.44 248.99 99.44 248.99C99.44 248.99 97.43 234.73 105.61 238.61Z" />
			<path id="Layer" class="shp11" d="M228.15 961.39C221.01 965.64 213.66 969.45 206.12 972.96C157.21 827.31 132.94 670.75 84.85 532.79C105.68 526.03 126.66 519.65 147.72 513.53C188.57 661.46 168.37 793.29 228.15 961.39Z" />
			<path id="Layer" class="shp11" d="M-11.26 961.39C-4.13 965.64 3.23 969.45 10.77 972.96C59.68 827.31 83.95 670.75 132.04 532.79C111.2 526.03 90.22 519.65 69.16 513.53C28.32 661.46 48.52 793.29 -11.26 961.39Z" />
			<path id="Layer" class="shp14" d="M129.95 580.4C142.34 581.26 158.25 580.29 164.11 578.35C153.77 521.48 136 419.74 133.12 365C132 343.08 124.8 331.47 117.03 325.5C115.13 324.04 113.18 322.92 111.36 322.1C98.21 315.38 85.22 314.93 75.1 320.53C66.81 325.01 60.43 333.45 57.37 345.73C55.09 354.85 55.69 362.09 56.62 374.22C60.91 432.02 59.34 520.1 51.65 587.31C70.43 586.18 100.9 575.32 119.94 579.17C121.4 579.5 123 579.73 124.68 579.95" />
			<path id="Layer" class="shp13" d="M77.86 284.76C90.56 304.25 114.42 311.24 126.33 303.47C138.24 295.7 133.68 276.18 121.03 256.69C108.33 237.2 92.24 233.54 80.33 241.3C68.42 249.07 65.21 265.27 77.86 284.76Z" />
			<path id="Layer" class="shp13" d="M80.7 281.55L105.01 279.16C105.34 282.49 107.88 314.19 106.65 326.13C105.75 329.83 99.71 331.51 93.1 329.9C87.16 328.49 82.9 324.86 82.72 321.46L82.68 321.46C83.46 314.33 81.82 293.16 80.7 281.55Z" />
			<path id="Layer" class="shp5" d="M89.74 291.45C93.32 287.56 96.68 291.07 105.31 295.89C113.93 300.74 129.35 299.47 130.43 279.31C130.88 270.76 134.24 277.18 136.44 282.45C138.05 286.33 144.77 295.67 144.77 304.85C144.77 312.92 143.17 316.65 136.56 320.2C124.27 326.81 108.44 318.96 99.22 312.39C93.84 308.58 88.09 301.9 88.43 295.33C88.54 293.69 88.95 292.34 89.74 291.45Z" />
			<path id="Layer" class="shp5" d="M131.11 278.56C131.11 278.56 130.81 278.71 130.28 279.01C126.03 281.33 106.76 292.12 104.82 300.07C102.62 309.03 115.16 296.6 118.97 290.85C122.78 285.1 127.37 285.88 131.48 284.69C135.62 283.49 137.49 278.34 131.11 278.56Z" />
			<path id="Layer" class="shp5" d="M66.96 274.2C66.96 274.2 62.97 259.04 69.8 248.17C76.63 237.31 95.97 225.85 111.28 240.48C111.28 240.48 121.21 251.87 106.46 262.66C91.72 273.45 89.92 263.56 86.49 275.65C83.05 287.75 72.86 285.81 72.41 288.42L66.96 274.2Z" />
			<path id="Layer" class="shp13" d="M72.08 295.85C75.03 300.41 83.31 303.25 86.6 301.12C89.89 298.99 88.32 294.77 85.37 290.21C82.42 285.66 77 283.16 73.72 285.29C70.4 287.45 69.13 291.3 72.08 295.85Z" />
			<path id="Layer" class="shp5" d="M55.09 246.57C55.09 246.57 46.95 246.57 48.33 233.69C49.71 220.8 57.07 216.44 62.59 217.41C68.16 218.42 77.27 222.15 74.88 234.55C72.56 246.98 55.09 246.57 55.09 246.57Z" />
			<path id="Layer" class="shp1" d="M111.36 322.06C111.36 322.06 118.75 378.44 132.04 486.27C145.33 594.1 148.8 611.76 148.8 611.76L176.13 611.76C176.13 611.76 147.61 447.52 143.73 421.68C139.84 395.84 139.81 328.3 111.36 322.06Z" />
			<path id="Layer" class="shp1" d="M79.28 318.59C79.28 318.59 75.4 345.21 75.55 447.81C75.74 550.38 69.72 604.56 69.72 604.56L44.93 604.56C44.93 604.56 55.95 425.19 54.42 388.41C52.88 351.6 54.38 321.54 79.28 318.59Z" />
			<path id="Layer" class="shp13" d="M26.15 550.12C22.57 552.88 18.98 555.46 15.62 558.11C17.71 560.5 20.44 562.25 23.58 563.19C35.63 566.77 57.29 572.37 63.56 568.34C70.77 563.75 48.11 551.61 26.15 550.12Z" />
			<path id="Layer" class="shp15" d="M80.92 281.51L83.46 286.37C85.93 291.04 91.72 292.87 96.38 290.4L107.58 284.5C110.16 283.16 111.65 280.32 111.28 277.44L111.13 276.14C110.94 274.61 111.73 273.11 113.07 272.4C114.42 271.69 116.1 271.88 117.25 272.89L118.22 273.75C120.43 275.69 123.56 276.06 126.14 274.68L137.86 268.52C142.53 266.06 144.36 260.27 141.9 255.6L139.36 250.75C136.52 245.37 129.91 243.32 124.53 246.16L85.52 266.69C80.18 269.49 78.12 276.14 80.92 281.51Z" />
			<path id="Layer" class="shp16" d="M538.98 623.37C526.99 623.37 516.87 631.4 513.74 642.41L564.22 642.41C561.08 631.4 550.96 623.37 538.98 623.37Z" />
			<path id="Layer" class="shp16" d="M607.86 623.37C595.88 623.37 585.76 631.4 582.62 642.41L633.1 642.41C629.97 631.4 619.85 623.37 607.86 623.37Z" />
			<path id="Layer" class="shp16" d="M575.04 615.2C557.91 615.2 543.46 626.7 538.98 642.38L611.11 642.38C606.63 626.7 592.18 615.2 575.04 615.2Z" />
			<path id="Layer" class="shp1" d="M737.84 549.96C742.95 566.04 753.76 583.37 753.76 601.45C753.76 629.79 737.17 656.34 725.28 679.02L-54.3 679.02C-84.31 644.4 -73.78 599.78 -81.82 549.96L737.84 549.96Z" />
			<path id="Layer" class="shp17" d="M669.21 627.67L43.36 627.67C31.79 627.67 22.42 618.3 22.42 606.72C22.42 595.15 31.79 585.77 43.36 585.77L669.21 585.77C680.78 585.77 690.15 595.15 690.15 606.72C690.15 618.3 680.78 627.67 669.21 627.67Z" />
			<path id="Layer" class="shp10" d="M443.62 539.44C442.95 544.11 440.11 548.14 436 550.42C425.44 556.24 405.16 566.58 398.22 563.97C388.66 560.42 419.5 536.79 443.99 536.79L443.62 539.44Z" />
			<path id="Layer" class="shp9" d="M425.81 539.4C432.72 542.5 438.02 546.87 444.89 550.53C447.39 546.2 449.85 541.87 452.24 537.53L431.71 527.23C429.73 531.38 427.75 535.45 425.81 539.4Z" />
			<path id="Layer" class="shp13" d="M26.15 550.12C22.57 552.88 18.98 555.46 15.62 558.11C17.71 560.5 20.44 562.25 23.57 563.19C35.63 566.77 57.29 572.37 63.56 568.34C70.77 563.75 48.11 551.61 26.15 550.12Z" />
			<path id="Layer" class="shp1" d="M12.75 560.42C17.9 556.13 23.8 552.06 29.59 547.47C23.2 540.15 17.41 532.94 12.26 525.85L-10.1 534.88C-3.38 543.21 4.2 551.72 12.75 560.42Z" />
			<path id="Layer" class="shp18" d="M216.01 262.1L216.01 227.04C217.13 226.63 217.95 225.58 217.95 224.31C217.95 222.71 216.65 221.4 215.04 221.4L200.48 221.4C198.87 221.4 197.57 222.71 197.57 224.31C197.57 225.58 198.39 226.67 199.51 227.04L199.51 262.1C192.38 263.41 186.1 266.36 181.36 270.43C185.92 272.81 189.84 276.44 192.53 280.84C194.43 283.98 195.74 287.53 198.01 290.4C200.29 293.28 204.06 295.48 207.61 294.47C210.52 293.65 212.58 290.92 215.41 289.84C219.71 288.2 224.49 290.74 227.77 293.91C231.06 297.08 233.71 301.08 237.67 303.39C237.7 303.43 237.78 303.47 237.85 303.47C241.32 299.21 243.34 294.21 243.34 288.8C243.3 275.84 231.66 264.98 216.01 262.1Z" />
			<path id="Layer" class="shp14" d="M219.89 304.07C214.74 304.29 209.1 306.94 204.77 304.18C202.23 302.57 200.74 299.32 197.87 298.47C193.57 297.16 189.13 301.94 184.83 300.59C181.14 299.4 180.24 294.62 177.66 291.71C176.25 290.1 174.34 289.13 172.25 288.61C172.25 288.68 172.25 288.76 172.25 288.8C172.25 300.33 181.44 310.19 194.47 314.26L221.13 314.26C225.46 312.92 229.34 310.9 232.63 308.44C228.78 305.75 224.56 303.88 219.89 304.07Z" />
			<path id="Layer" class="shp6" d="M237.81 303.47C237.78 303.43 237.7 303.39 237.63 303.39C233.67 301.08 231.02 297.12 227.73 293.91C224.45 290.74 219.67 288.2 215.38 289.84C212.54 290.92 210.52 293.65 207.57 294.47C204.03 295.48 200.29 293.28 197.98 290.4C195.7 287.53 194.39 283.98 192.49 280.84C189.84 276.44 185.88 272.81 181.32 270.43C175.69 275.24 172.21 281.63 172.18 288.65C174.27 289.13 176.17 290.14 177.59 291.75C180.17 294.66 181.06 299.44 184.76 300.63C189.05 301.98 193.46 297.23 197.79 298.5C200.66 299.36 202.16 302.61 204.7 304.22C209.07 306.98 214.67 304.33 219.82 304.1C224.49 303.92 228.71 305.75 232.55 308.47C234.6 306.98 236.32 305.3 237.81 303.47Z" />
			<path id="Layer" class="shp19" d="M513.14 262.58C521.68 262.58 528.6 241.37 528.6 215.2C528.6 189.04 521.68 167.82 513.14 167.82C504.6 167.82 497.68 189.04 497.68 215.2C497.68 241.37 504.6 262.58 513.14 262.58Z" />
			<path id="Layer" class="shp19" d="M555.66 236.17C559.43 228.51 543.47 212.92 520 201.35C496.53 189.78 474.44 186.61 470.67 194.26C466.89 201.92 482.86 217.51 506.33 229.08C529.8 240.65 551.88 243.82 555.66 236.17Z" />
			<path id="Layer" class="shp19" d="M519.96 229.04C543.43 217.47 559.4 201.88 555.63 194.22C551.85 186.56 529.76 189.74 506.29 201.31C482.82 212.88 466.86 228.47 470.63 236.13C474.41 243.78 496.49 240.61 519.96 229.04Z" />
			<path id="Layer" class="shp14" d="M482.79 195.83C486.23 195.83 489.02 193.03 489.02 189.59C489.02 186.15 486.23 183.36 482.79 183.36C479.34 183.36 476.55 186.15 476.55 189.59C476.55 193.03 479.34 195.83 482.79 195.83Z" />
			<path id="Layer" class="shp9" d="M508.42 253.13C508.97 249.73 506.66 246.52 503.26 245.97C499.87 245.42 496.66 247.73 496.11 251.13C495.56 254.53 497.87 257.73 501.27 258.28C504.67 258.83 507.87 256.52 508.42 253.13Z" />
			<path id="Layer" class="shp6" d="M551.11 211.99C554.55 211.99 557.35 209.2 557.35 205.76C557.35 202.31 554.55 199.52 551.11 199.52C547.67 199.52 544.88 202.31 544.88 205.76C544.88 209.2 547.67 211.99 551.11 211.99Z" />
			<path id="Layer" class="shp20" d="M230.65 489.18L230.65 418.65C230.65 408.54 238.86 400.36 248.94 400.36C259.06 400.36 267.24 408.57 267.24 418.65L267.24 444.98C267.24 451.47 272.5 456.77 279.04 456.77C285.53 456.77 290.83 451.51 290.83 444.98L290.83 411.3C290.83 405.25 295.73 400.32 301.81 400.32C307.86 400.32 312.79 405.21 312.79 411.3L312.79 445.91C312.79 451.88 317.64 456.74 323.62 456.74C329.59 456.74 334.44 451.88 334.44 445.91L334.44 411.22C334.44 405.21 339.33 400.32 345.35 400.32C351.36 400.32 356.25 405.21 356.25 411.22L356.25 464.09C356.25 490.6 377.75 512.07 404.23 512.07C430.74 512.07 452.21 490.57 452.21 464.09L452.21 440.65C452.21 435.16 456.65 430.71 462.14 430.71C467.63 430.71 472.07 435.16 472.07 440.65L472.07 503.26C472.07 508.15 476.03 512.11 480.92 512.11C485.81 512.11 489.77 508.15 489.77 503.26L489.77 440.24C489.77 434.97 494.02 430.71 499.29 430.71C504.55 430.71 508.81 434.97 508.81 440.24L508.81 589.51" />
			<path id="Layer" class="shp21" d="M284.82 601.72L246.29 532.9C245.96 532.31 245.43 531.82 244.84 531.52L244.84 474.88L245.99 474.88C248.27 474.88 250.14 473.02 250.14 470.74L250.14 468.91C250.14 466.63 248.27 464.76 245.99 464.76L215.53 464.76C213.25 464.76 211.38 466.63 211.38 468.91L211.38 470.74C211.38 473.02 213.25 474.88 215.53 474.88L216.68 474.88L216.68 531.52C216.09 531.82 215.56 532.31 215.23 532.9L176.69 601.72C174.16 606.24 177.44 611.76 182.59 611.76L278.96 611.76C284.08 611.76 287.32 606.2 284.82 601.72Z" />
			<path id="Layer" class="shp22" d="M524.9 520.21L492.12 520.21C488.76 520.21 486 522.94 486 526.33C486 529.58 488.57 532.27 491.78 532.42L491.78 604.11C491.78 608.33 495.18 611.72 499.4 611.72L517.58 611.72C521.8 611.72 525.2 608.33 525.2 604.11L525.2 532.42C528.41 532.23 530.99 529.58 530.99 526.33C531.02 522.97 528.26 520.21 524.9 520.21Z" />
			<path id="Layer" class="shp23" d="M108.41 619.12C119.79 612.99 120.43 594.74 132.19 589.4C136.11 587.6 140.59 587.68 144.81 586.78C147.72 586.19 150.48 585.07 153.02 583.57C144.88 575.51 133.12 569.76 119.64 567.78L119.64 516.96C121.1 516.44 122.14 515.06 122.14 513.45C122.14 511.4 120.47 509.72 118.41 509.72L99.71 509.72C97.65 509.72 95.97 511.4 95.97 513.45C95.97 515.1 97.02 516.48 98.47 516.96L98.47 567.78C72.75 571.59 53.3 589.1 53.3 610.08C53.3 612.81 53.63 615.5 54.27 618.11C58.34 615.61 62.82 614.08 67.71 614C81.75 613.78 96.08 625.76 108.41 619.12Z" />
			<path id="Layer" class="shp6" d="M153.06 583.57C150.52 585.07 147.72 586.15 144.85 586.78C140.63 587.68 136.15 587.61 132.23 589.4C120.47 594.74 119.83 612.99 108.44 619.12C96.12 625.76 81.75 613.78 67.78 614C62.89 614.08 58.41 615.61 54.34 618.11C57.89 632.67 70.88 644.62 88.24 650.03L130.02 650.03C150.45 643.65 164.9 628.15 164.9 610.08C164.86 600.08 160.45 590.89 153.06 583.57Z" />
			<path id="Layer" class="shp9" d="M158.85 600.3C154.89 600.67 150.78 601.12 147.35 603.17C139.02 608.14 138.13 620.13 131.25 627C122.44 635.77 108.03 633.08 95.6 632.26C85.07 631.59 74.43 632.78 64.31 635.77C70.36 642.08 78.61 647.04 88.17 650.03L129.95 650.03C150.37 643.65 164.82 628.15 164.82 610.08C164.82 606.57 164.26 603.14 163.25 599.89C161.8 600 160.3 600.15 158.85 600.3Z" />
			<path id="Layer" class="shp24" d="M204.51 579.54C200.37 577.75 195.92 576.14 191.48 575.28L176.66 601.72C174.12 606.24 177.4 611.76 182.56 611.76L278.92 611.76C284.08 611.76 287.32 606.2 284.82 601.72L266.53 569.05C256.41 576.44 247.11 586.26 234.72 587.72C224.22 588.95 214.22 583.72 204.51 579.54Z" />
			<path id="Layer" class="shp25" d="M225.79 518.75C225.79 516.03 230.72 508.71 230.72 508.71C230.72 508.71 235.65 516.03 235.65 518.75C235.65 521.48 233.45 523.68 230.72 523.68C228 523.68 225.79 521.48 225.79 518.75Z" />
			<path id="Layer" class="shp26" d="M225.79 543.92C225.79 541.19 230.72 533.88 230.72 533.88C230.72 533.88 235.65 541.19 235.65 543.92C235.65 546.64 233.45 548.85 230.72 548.85C228 548.85 225.79 546.64 225.79 543.92Z" />
			<path id="Layer" class="shp27" d="M225.79 569.09C225.79 566.36 230.72 559.04 230.72 559.04C230.72 559.04 235.65 566.36 235.65 569.09C235.65 571.81 233.45 574.01 230.72 574.01C228 574.01 225.79 571.81 225.79 569.09Z" />
			<path id="Layer" class="shp6" d="M513.77 572.45C510.49 571.55 507.46 569.87 504.25 568.67C500.3 567.22 496 566.7 491.82 566.99L491.82 604.14C491.82 608.36 495.22 611.76 499.44 611.76L517.62 611.76C521.84 611.76 525.24 608.36 525.24 604.14L525.24 572.37C521.43 573.27 517.55 573.45 513.77 572.45Z" />
			<path id="Layer" class="shp28" d="M371.04 215.65C374.48 215.65 377.27 212.86 377.27 209.42C377.27 205.97 374.48 203.18 371.04 203.18C367.59 203.18 364.8 205.97 364.8 209.42C364.8 212.86 367.59 215.65 371.04 215.65Z" />
			<path id="Layer" class="shp29" d="M549.06 352.49C552.5 352.49 555.29 349.7 555.29 346.26C555.29 342.81 552.5 340.02 549.06 340.02C545.61 340.02 542.82 342.81 542.82 346.26C542.82 349.7 545.61 352.49 549.06 352.49Z" />
			<path id="Layer" class="shp30" d="M87.94 606.09C91.39 606.09 94.18 603.29 94.18 599.85C94.18 596.41 91.39 593.62 87.94 593.62C84.5 593.62 81.71 596.41 81.71 599.85C81.71 603.29 84.5 606.09 87.94 606.09Z" />
			<path id="Layer" class="shp31" d="M333.29 192.43C339.45 192.43 344.45 187.43 344.45 181.26C344.45 175.1 339.45 170.1 333.29 170.1C327.12 170.1 322.12 175.1 322.12 181.26C322.12 187.43 327.12 192.43 333.29 192.43Z" />
			<path id="Layer" fill-rule="evenodd" class="shp32" d="M308.12 114.64C308.12 99.97 320.02 88.07 334.69 88.07C349.37 88.07 361.26 99.97 361.26 114.64C361.26 129.32 349.37 141.21 334.69 141.21C320.02 141.21 308.12 129.32 308.12 114.64ZM334.69 130.58C343.5 130.58 350.63 123.45 350.63 114.64C350.63 105.84 343.5 98.7 334.69 98.7C325.89 98.7 318.75 105.84 318.75 114.64C318.75 123.45 325.89 130.58 334.69 130.58Z" />
			<path id="Layer" class="shp33" d="M474.05 134.16C474.05 141.05 468.47 146.63 461.58 146.63C454.69 146.63 449.11 141.05 449.11 134.16C449.11 127.28 454.69 121.69 461.58 121.69C468.47 121.69 474.05 127.28 474.05 134.16Z" />
			<path id="Layer" fill-rule="evenodd" class="shp34" d="M122.67 367.33C122.67 365.23 124.37 363.53 126.47 363.53C128.56 363.53 130.26 365.23 130.26 367.33C130.26 369.43 128.56 371.13 126.47 371.13C124.37 371.13 122.67 369.43 122.67 367.33ZM126.47 369.61C127.73 369.61 128.75 368.59 128.75 367.33C128.75 366.07 127.73 365.05 126.47 365.05C125.21 365.05 124.19 366.07 124.19 367.33C124.19 368.59 125.21 369.61 126.47 369.61Z" />
			<path id="Layer" fill-rule="evenodd" class="shp35" d="M407.9 354.32C407.9 352.22 409.6 350.52 411.69 350.52C413.79 350.52 415.49 352.22 415.49 354.32C415.49 356.41 413.79 358.11 411.69 358.11C409.6 358.11 407.9 356.41 407.9 354.32ZM411.69 356.59C412.95 356.59 413.97 355.57 413.97 354.32C413.97 353.06 412.95 352.04 411.69 352.04C410.43 352.04 409.41 353.06 409.41 354.32C409.41 355.57 410.43 356.59 411.69 356.59Z" />
			<path id="Layer" fill-rule="evenodd" class="shp36" d="M628.05 368.41C628.05 366.32 629.75 364.62 631.85 364.62C633.94 364.62 635.64 366.32 635.64 368.41C635.64 370.51 633.94 372.21 631.85 372.21C629.75 372.21 628.05 370.51 628.05 368.41ZM631.85 370.69C633.1 370.69 634.12 369.67 634.12 368.41C634.12 367.16 633.1 366.14 631.85 366.14C630.59 366.14 629.57 367.16 629.57 368.41C629.57 369.67 630.59 370.69 631.85 370.69Z" />
			<path id="Layer" class="shp37" d="M215.4 211.7C212.7 211.7 210.52 209.52 210.52 206.82C210.52 204.13 212.7 201.94 215.4 201.94C218.09 201.94 220.28 204.13 220.28 206.82C220.28 209.52 218.09 211.7 215.4 211.7Z" />
			<path id="Layer" class="shp38" d="M181.4 360.33C187.56 360.33 192.56 355.33 192.56 349.17C192.56 343 187.56 338 181.4 338C175.23 338 170.24 343 170.24 349.17C170.24 355.33 175.23 360.33 181.4 360.33Z" />
			<path id="Layer" class="shp39" d="M270.32 131.88L269.35 125.65L195.98 137.11L196.95 143.35L270.32 131.88Z" />
			<path id="Layer" class="shp14" d="M194.62 140.53C194.17 137.77 196.07 135.19 198.84 134.74L247.07 127.2L248.64 137.17L200.4 144.71C197.6 145.16 195.03 143.29 194.62 140.53Z" />
			<path id="Layer" fill-rule="evenodd" class="shp39" d="M313.13 162.26C291.43 165.66 271.08 150.8 267.69 129.1C264.29 107.41 279.15 87.06 300.84 83.66C322.53 80.27 342.88 95.13 346.28 116.82C349.68 138.55 334.82 158.86 313.13 162.26ZM312.56 158.71C332.32 155.65 345.83 137.13 342.73 117.38C339.67 97.63 321.15 84.11 301.4 87.21C281.65 90.27 268.13 108.79 271.23 128.54C274.33 148.29 292.81 161.77 312.56 158.71Z" />
			<path id="Layer" class="shp40" d="M332.58 148.55C346.71 134.42 346.71 111.51 332.58 97.39C318.45 83.26 295.54 83.26 281.41 97.39C267.29 111.51 267.29 134.42 281.41 148.55C295.54 162.68 318.45 162.68 332.58 148.55Z" />
		</g>
	</g>
</svg>