<svg xmlns="http://www.w3.org/2000/svg" viewBox="0 0 1440 150" width="1440" height="150">
	<defs>
		<clipPath clipPathUnits="userSpaceOnUse" id="cp1">
			<path d="M0 -709L1440 -709L1440 158L0 158L0 -709Z" />
		</clipPath>
	</defs>
	<style>
		tspan { white-space:pre }
		.shp0 { opacity: 0.102;fill: #131313 } 
		.shp1 { fill: #ffffff } 
	</style>
	<g id="Clip-Path" clip-path="url(#cp1)">
		<g id="Layer">
			<path id="Layer" class="shp0" d="M-62.91 151.63C-236.22 172.03 -376.14 231.63 -485.44 149.57C-594.78 66.57 -615.45 -61.31 -607.08 -194.48C-598.7 -327.64 -561.29 -466.08 -424.85 -541.54C-286.82 -616.15 -48.23 -627.87 132.76 -590.73C312.21 -553.51 422.85 -586.48 604.65 -626.55C786.45 -666.62 1018.59 -707.38 1092.45 -682.32C1166.32 -657.26 1086.3 -361.83 1145.24 -239.71C1205.73 -117.67 1412.22 -7.12 1360.63 38.61C1310.57 84.26 1000.85 64.23 810.77 59.35C619.15 54.55 580.4 58.18 468.49 101.5C356.64 145.75 111.99 132.08 -62.91 151.63Z" />
			<path id="Layer" class="shp1" d="M1108.27 -699.54C1282.42 -709.8 1479.68 -665.37 1584.48 -585.05C1689.27 -503.88 1703.14 -385.97 1687.73 -264.64C1672.32 -143.31 1627.63 -18.57 1487.39 43.8C1345.6 105.32 1106.73 104.47 927.96 61.75C750.73 19.03 616.66 71.14 433 98.96C249.34 126.78 37.19 125.45 -35.24 98.96C-107.67 72.48 -12.12 -193.73 -64.52 -308.22C-118.46 -422.71 -318.81 -533.78 -264.87 -573.09C-212.47 -612.39 95.75 -579.07 285.31 -565.4C476.41 -551.73 550.38 -556.85 664.43 -591.03C778.47 -626.06 932.58 -690.14 1108.27 -699.54Z" />
		</g>
	</g>
</svg>