<svg width="261" height="265" viewBox="0 0 261 265" fill="none" xmlns="http://www.w3.org/2000/svg">
<path d="M117.938 245.676C91.9178 254.404 59.8431 270.188 36.477 262.579C13.0053 254.774 -1.9354 223.672 0.202942 194.475C2.44684 165.473 21.7698 138.376 22.0597 110.429C22.2441 82.2854 3.00665 52.9955 6.58711 35.4001C9.88436 17.7049 35.7884 11.3127 58.6857 12.1006C81.6551 12.5969 101.407 19.8818 124.252 15.8971C147.098 11.9125 172.827 -3.73299 192.483 0.824167C212.033 5.18561 225.689 29.6539 226.764 53.3287C227.766 77.295 216.259 100.176 225.108 129.763C233.958 159.35 263.164 195.643 259.828 214.118C256.492 232.592 220.792 233.151 192.676 234.167C164.666 235.379 144.241 237.048 117.938 245.676Z" fill="white"/>
</svg>
