<svg xmlns="http://www.w3.org/2000/svg" viewBox="0 0 1440 150" width="1440" height="150">
	<defs>
		<clipPath clipPathUnits="userSpaceOnUse" id="cp1">
			<path d="M0 -691L1440 -691L1440 176L0 176L0 -691Z" />
		</clipPath>
	</defs>
	<style>
		tspan { white-space:pre }
		.shp0 { opacity: 0.102;fill: #131313 } 
		.shp1 { fill: #ffffff } 
	</style>
	<g id="Clip-Path" clip-path="url(#cp1)">
		<g id="Layer">
			<path id="Layer" class="shp0" d="M-62.91 169.63C-236.22 190.03 -376.14 249.63 -485.44 167.57C-594.78 84.57 -615.45 -43.31 -607.08 -176.48C-598.7 -309.64 -561.29 -448.08 -424.85 -523.54C-286.82 -598.15 -48.23 -609.87 132.76 -572.73C312.21 -535.51 422.85 -568.48 604.65 -608.55C786.45 -648.62 1018.59 -689.38 1092.45 -664.32C1166.32 -639.26 1086.3 -343.83 1145.24 -221.71C1205.73 -99.67 1412.22 10.88 1360.63 56.61C1310.57 102.26 1000.85 82.23 810.77 77.35C619.15 72.55 580.4 76.18 468.49 119.5C356.64 163.75 111.99 150.08 -62.91 169.63Z" />
			<path id="Layer" class="shp1" d="M1108.27 -681.54C1282.42 -691.8 1479.68 -647.37 1584.48 -567.05C1689.27 -485.88 1703.14 -367.97 1687.73 -246.64C1672.32 -125.31 1627.63 -0.57 1487.39 61.8C1345.6 123.32 1106.73 122.47 927.96 79.75C750.73 37.03 616.66 89.14 433 116.96C249.34 144.78 37.19 143.45 -35.24 116.96C-107.67 90.48 -12.12 -175.73 -64.52 -290.22C-118.46 -404.71 -318.81 -515.78 -264.87 -555.09C-212.47 -594.39 95.75 -561.07 285.31 -547.4C476.41 -533.73 550.38 -538.85 664.43 -573.03C778.47 -608.06 932.58 -672.14 1108.27 -681.54Z" />
		</g>
	</g>
</svg>