<svg xmlns="http://www.w3.org/2000/svg" viewBox="0 0 1440 150" width="1440" height="150">
	<defs>
		<clipPath clipPathUnits="userSpaceOnUse" id="cp1">
			<path d="M0 -7L1440 -7L1440 860L0 860L0 -7Z" />
		</clipPath>
	</defs>
	<style>
		tspan { white-space:pre }
		.shp0 { opacity: 0.102;fill: #131313 } 
		.shp1 { fill: #ffffff } 
	</style>
	<g id="Clip-Path" clip-path="url(#cp1)">
		<g id="Layer">
			<path id="Layer" class="shp0" d="M-62.91 853.63C-236.22 874.03 -376.14 933.63 -485.44 851.57C-594.78 768.57 -615.45 640.69 -607.08 507.52C-598.7 374.36 -561.29 235.92 -424.85 160.46C-286.82 85.85 -48.23 74.13 132.76 111.27C312.21 148.49 422.85 115.52 604.65 75.45C786.45 35.38 1018.59 -5.38 1092.45 19.68C1166.32 44.74 1086.3 340.17 1145.24 462.29C1205.73 584.33 1412.22 694.88 1360.63 740.61C1310.57 786.26 1000.85 766.23 810.77 761.35C619.15 756.55 580.4 760.18 468.49 803.5C356.64 847.75 111.99 834.08 -62.91 853.63Z" />
			<path id="Layer" class="shp1" d="M1108.27 2.46C1282.42 -7.8 1479.68 36.63 1584.48 116.95C1689.27 198.12 1703.14 316.03 1687.73 437.36C1672.32 558.69 1627.63 683.43 1487.39 745.8C1345.6 807.32 1106.73 806.47 927.96 763.75C750.73 721.03 616.66 773.14 433 800.96C249.34 828.78 37.19 827.45 -35.24 800.96C-107.67 774.48 -12.12 508.27 -64.52 393.78C-118.46 279.29 -318.81 168.22 -264.87 128.91C-212.47 89.61 95.75 122.93 285.31 136.6C476.41 150.27 550.38 145.15 664.43 110.97C778.47 75.94 932.58 11.86 1108.27 2.46Z" />
		</g>
	</g>
</svg>