<svg xmlns="http://www.w3.org/2000/svg" viewBox="0 0 272 189" width="272" height="189">
	<defs>
		<linearGradient id="grd1" gradientUnits="userSpaceOnUse"  x1="56.596" y1="40.229" x2="56.596" y2="3.526">
			<stop offset="0" stop-color="#142760"  />
			<stop offset="1" stop-color="#074680"  />
		</linearGradient>
		<linearGradient id="grd2" gradientUnits="userSpaceOnUse"  x1="64.868" y1="88.57" x2="64.868" y2="70.3">
			<stop offset="0" stop-color="#142760"  />
			<stop offset="1" stop-color="#074680"  />
		</linearGradient>
		<clipPath clipPathUnits="userSpaceOnUse" id="cp1">
			<path d="M52.69 110.02L85.26 110.02L85.26 138.51L52.69 138.51L52.69 110.02Z" />
		</clipPath>
		<clipPath clipPathUnits="userSpaceOnUse" id="cp2">
			<path d="M112.61 117.47L128.65 117.47L128.65 131.06L112.61 131.06L112.61 117.47Z" />
		</clipPath>
	</defs>
	<style>
		tspan { white-space:pre }
		.shp0 { fill: url(#grd1) } 
		.shp1 { fill: #1c2f76 } 
		.shp2 { fill: url(#grd2) } 
		.shp3 { fill: #6c6b9a } 
		.shp4 { fill: #b02011 } 
		.shp5 { fill: #0080bc } 
		.shp6 { fill: #110f0d } 
		.shp7 { fill: #d4801b } 
		.shp8 { fill: #c8001b } 
		.shp9 { fill: #231f20 } 
		.shp10 { fill: #ff5f00 } 
		.shp11 { fill: #0d7fa0 } 
		.shp12 { fill: #d07520 } 
		.shp13 { fill: #003080 } 
		.shp14 { fill: #0080bb } 
		.shp15 { fill: #012169 } 
		.shp16 { fill: #3e3e3d } 
		.shp17 { fill: #808080 } 
		.shp18 { fill: #3c3c3c } 
		.shp19 { fill: #373737 } 
		.shp20 { fill: #1c1c1c } 
		.shp21 { fill: #d4801a } 
		.shp22 { fill: #ffffff } 
		.shp23 { fill: #4d4d4d } 
	</style>
	<g id="&lt;Group&gt;">
		<path id="&lt;Compound Path&gt;" fill-rule="evenodd" class="shp0" d="M42.95 4.18L28.09 39.63L18.41 39.63L11.1 11.34C10.95 10.01 10.13 8.85 8.91 8.27C6.04 6.89 3 5.88 -0.13 5.25L0.09 4.23L15.69 4.23C17.75 4.25 19.5 5.75 19.85 7.79L23.71 28.29L33.3 4.18L42.95 4.18ZM80.93 28.1C80.93 35.44 74.54 40.23 64.95 40.23C61.5 40.2 58.09 39.52 54.89 38.23L56.48 30.47C59.38 32 62.62 32.77 65.9 32.7C68.53 32.66 71.38 31.62 71.38 29.24C71.38 27.67 70.02 26.43 66.58 24.83C63.15 23.23 58.59 20.34 58.59 15.24C58.64 8.32 65.02 3.53 74.08 3.53C77.01 3.54 79.92 4.09 82.66 5.13L81.06 12.63C78.25 11.3 75.12 10.75 72.02 11.04C69.38 11.39 68.13 12.73 68.13 14.01C67.99 18.18 80.92 18.71 80.92 28.06L80.93 28.1ZM103.74 34.34L91.94 34.34L90.02 39.63L80.44 39.63L94.24 6.79C94.89 5.2 96.43 4.17 98.14 4.18L105.92 4.18L113.32 39.67L104.9 39.67L103.74 34.34ZM102.25 27.11L99.47 13.8L94.67 27.11L102.25 27.11ZM56.04 4.18L48.46 39.63L39.29 39.63L46.88 4.18L56.04 4.18Z" />
		<g id="&lt;Group&gt;">
			<path id="&lt;Path&gt;" class="shp1" d="M31.21 64.76L27.29 52.73L28.97 52.73L30.84 58.64C31.35 60.27 31.8 61.72 32.12 63.13C32.46 61.74 32.93 60.23 33.48 58.66L35.55 52.73L37.18 52.73L32.89 64.74L31.21 64.76Z" />
			<path id="&lt;Compound Path&gt;" fill-rule="evenodd" class="shp1" d="M38.03 60.73C37.9 62.25 39.02 63.59 40.55 63.72C40.69 63.73 40.84 63.73 40.99 63.72C41.81 63.74 42.62 63.59 43.37 63.27L43.64 64.4C42.73 64.77 41.76 64.96 40.78 64.93C38.12 64.93 36.53 63.19 36.53 60.58C36.53 57.98 38.06 55.93 40.6 55.93C43.42 55.93 44.17 58.37 44.17 60C44.17 60.25 44.15 60.49 44.11 60.74L38.03 60.73ZM42.62 59.61C42.62 58.61 42.22 57.06 40.45 57.06C38.86 57.06 38.17 58.51 38.01 59.61L42.62 59.61Z" />
			<path id="&lt;Path&gt;" class="shp1" d="M45.37 58.82C45.37 57.81 45.37 56.94 45.29 56.14L46.66 56.14L46.71 57.83L46.79 57.83C47.09 56.75 48.05 55.99 49.17 55.94C49.32 55.94 49.47 55.96 49.61 56L49.61 57.48C49.44 57.44 49.25 57.42 49.07 57.42C47.97 57.47 47.07 58.33 46.97 59.43C46.93 59.68 46.9 59.92 46.9 60.17L46.9 64.76L45.35 64.76L45.37 58.82Z" />
			<path id="&lt;Compound Path&gt;" class="shp1" d="M52.29 53.72C52.29 54.25 51.86 54.69 51.32 54.69C50.79 54.69 50.35 54.25 50.35 53.72C50.34 53.19 50.75 52.75 51.28 52.74C51.3 52.74 51.31 52.74 51.33 52.74C51.84 52.72 52.27 53.12 52.29 53.63C52.29 53.66 52.29 53.69 52.29 53.72ZM50.54 56.16L52.11 56.16L52.11 64.75L50.54 64.75L50.54 56.16Z" />
			<path id="&lt;Path&gt;" class="shp1" d="M54.16 64.76L54.16 57.33L52.95 57.33L52.95 56.14L54.16 56.14L54.16 55.73C54.08 54.64 54.44 53.56 55.16 52.73C55.73 52.2 56.48 51.91 57.26 51.92C57.72 51.92 58.17 52 58.6 52.17L58.38 53.39C58.07 53.24 57.73 53.18 57.38 53.19C56.05 53.19 55.71 54.36 55.71 55.68L55.71 56.15L57.8 56.15L57.8 57.33L55.71 57.33L55.71 64.76L54.16 64.76Z" />
			<path id="&lt;Compound Path&gt;" class="shp1" d="M61.09 53.72C61.09 54.25 60.65 54.69 60.12 54.69C59.58 54.69 59.15 54.25 59.15 53.72C59.14 53.19 59.55 52.75 60.08 52.74C60.09 52.74 60.11 52.74 60.13 52.74C60.64 52.72 61.07 53.12 61.09 53.63C61.09 53.66 61.09 53.69 61.09 53.72ZM59.35 56.16L60.91 56.16L60.91 64.75L59.35 64.75L59.35 56.16Z" />
			<path id="&lt;Compound Path&gt;" fill-rule="evenodd" class="shp1" d="M63.67 60.73C63.54 62.25 64.67 63.59 66.19 63.72C66.33 63.73 66.48 63.73 66.63 63.72C67.45 63.74 68.26 63.59 69.01 63.27L69.28 64.4C68.37 64.78 67.38 64.97 66.38 64.95C63.73 64.95 62.15 63.2 62.15 60.6C62.15 57.99 63.68 55.95 66.22 55.95C69.04 55.95 69.79 58.39 69.79 60.02C69.78 60.27 69.77 60.51 69.73 60.75L63.67 60.73ZM68.26 59.61C68.26 58.61 67.86 57.06 66.09 57.06C64.51 57.06 63.81 58.51 63.65 59.61L68.26 59.61Z" />
			<path id="&lt;Compound Path&gt;" fill-rule="evenodd" class="shp1" d="M78.45 52.11L78.45 62.51C78.45 63.27 78.45 64.13 78.53 64.74L77.12 64.74L77.04 63.24C76.47 64.34 75.31 65 74.07 64.95C71.99 64.95 70.39 63.19 70.39 60.56C70.39 57.7 72.16 55.94 74.26 55.94C75.3 55.88 76.29 56.38 76.86 57.26L76.86 52.11L78.45 52.11ZM76.88 59.65C76.88 59.42 76.86 59.2 76.81 58.99C76.58 57.92 75.62 57.16 74.53 57.17C72.9 57.17 71.95 58.59 71.95 60.5C71.95 62.24 72.76 63.69 74.5 63.69C75.61 63.68 76.57 62.9 76.79 61.81C76.84 61.59 76.87 61.36 76.87 61.14L76.88 59.65Z" />
			<path id="&lt;Compound Path&gt;" fill-rule="evenodd" class="shp1" d="M84.26 64.76C84.3 64.13 84.3 63.32 84.3 62.51L84.3 52.11L85.85 52.11L85.85 57.53C86.45 56.49 87.59 55.88 88.79 55.94C90.93 55.94 92.44 57.72 92.42 60.34C92.42 63.42 90.47 64.95 88.55 64.95C87.36 65.01 86.23 64.38 85.67 63.32L85.62 63.32L85.55 64.75L84.26 64.76ZM85.89 61.31C85.9 61.5 85.92 61.69 85.96 61.88C86.24 62.95 87.2 63.7 88.31 63.71C89.94 63.71 90.92 62.38 90.92 60.39C90.92 58.67 90.04 57.19 88.36 57.19C87.2 57.19 86.2 57.98 85.93 59.11C85.88 59.32 85.85 59.54 85.84 59.75L85.89 61.31Z" />
			<path id="&lt;Path&gt;" class="shp1" d="M94.2 56.14L96.09 61.23C96.28 61.8 96.5 62.48 96.64 62.99C96.8 62.48 96.98 61.81 97.2 61.19L98.91 56.14L100.53 56.14L98.18 62.28C97.06 65.23 96.29 66.75 95.22 67.68C94.68 68.18 94.02 68.53 93.3 68.69L92.97 67.39C93.47 67.22 93.93 66.97 94.34 66.63C94.9 66.16 95.36 65.56 95.66 64.88C95.72 64.77 95.76 64.64 95.78 64.51C95.76 64.37 95.73 64.23 95.67 64.1L92.45 56.14L94.2 56.14Z" />
			<path id="&lt;Compound Path&gt;" fill-rule="evenodd" class="shp2" d="M58.07 70.65L50.66 88.29L45.83 88.29L42.19 74.2C42.13 73.53 41.71 72.95 41.11 72.65C39.68 71.97 38.16 71.47 36.6 71.15L36.71 70.64L44.48 70.64C45.53 70.64 46.43 71.4 46.59 72.44L48.51 82.66L53.27 70.65L58.07 70.65ZM76.98 82.53C76.96 86.2 73.83 88.57 69.03 88.57C67.29 88.58 65.56 88.26 63.94 87.63L64.75 83.76C66.21 84.53 67.83 84.91 69.47 84.86C70.79 84.85 72.21 84.33 72.21 83.14C72.21 82.36 71.57 81.79 69.84 80.95C68.1 80.1 65.84 78.68 65.84 76.14C65.86 72.7 69.04 70.3 73.55 70.3C75.01 70.31 76.46 70.59 77.83 71.11L77.01 74.86C75.61 74.19 74.06 73.91 72.51 74.05C71.19 74.23 70.57 74.89 70.57 75.53C70.53 77.64 76.97 77.87 76.97 82.53L76.98 82.53ZM88.37 85.67L82.49 85.67L81.54 88.31L76.74 88.31L83.59 71.95C83.91 71.15 84.69 70.64 85.54 70.65L89.44 70.65L93.13 88.29L88.9 88.29L88.37 85.67ZM87.56 82.05L86.25 75.42L83.8 82.05L87.56 82.05ZM64.59 70.65L60.81 88.31L56.24 88.31L60.02 70.65L64.59 70.65Z" />
		</g>
		<g id="&lt;Group&gt;">
			<g id="&lt;Group&gt;">
				<path id="&lt;Path&gt;" class="shp3" d="M240.78 3.85L254.04 3.85L254.04 27.7L240.78 27.7L240.78 3.85Z" />
				<path id="&lt;Path&gt;" class="shp4" d="M241.61 15.77C241.61 10.94 243.87 6.63 247.41 3.85C244.82 1.82 241.57 0.61 238.04 0.61C229.66 0.61 222.88 7.4 222.88 15.77C222.88 24.15 229.66 30.93 238.04 30.93C241.57 30.93 244.82 29.72 247.41 27.7C243.88 24.91 241.61 20.61 241.61 15.77Z" />
				<path id="&lt;Path&gt;" class="shp5" d="M271.93 15.77C271.93 24.15 265.15 30.93 256.77 30.93C253.24 30.93 249.98 29.72 247.41 27.7C250.93 24.91 253.2 20.61 253.2 15.77C253.2 10.94 250.94 6.63 247.41 3.85C249.98 1.82 253.24 0.61 256.77 0.61C265.15 0.61 271.93 7.4 271.93 15.77Z" />
				<path id="&lt;Compound Path&gt;" fill-rule="evenodd" class="shp6" d="M258.52 34.43C258.7 34.43 258.95 34.47 259.14 34.54L258.87 35.36C258.68 35.27 258.49 35.25 258.32 35.25C257.74 35.25 257.46 35.63 257.46 36.28L257.46 38.54L256.58 38.54L256.58 34.52L257.46 34.52L257.46 35.01C257.69 34.66 258.02 34.43 258.52 34.43ZM255.29 35.33L253.86 35.33L253.86 37.14C253.86 37.55 254 37.82 254.43 37.82C254.66 37.82 254.94 37.73 255.21 37.59L255.47 38.34C255.19 38.53 254.76 38.65 254.38 38.65C253.35 38.65 252.98 38.1 252.98 37.16L252.98 35.32L252.16 35.32L252.16 34.51L252.98 34.51L252.98 33.28L253.87 33.28L253.87 34.51L255.29 34.51L255.29 35.33ZM247.07 36.87L244.09 36.87C244.22 37.6 244.73 37.86 245.3 37.86C245.7 37.86 246.13 37.71 246.46 37.44L246.89 38.08C246.4 38.5 245.85 38.65 245.24 38.65C244.03 38.65 243.17 37.82 243.17 36.54C243.17 35.29 243.99 34.43 245.17 34.43C246.3 34.43 247.07 35.29 247.08 36.54C247.08 36.66 247.07 36.77 247.07 36.87ZM246.18 36.19C246.09 35.56 245.72 35.21 245.16 35.21C244.53 35.21 244.18 35.61 244.09 36.19L246.18 36.19ZM250.93 35.56C250.69 35.41 250.19 35.21 249.68 35.21C249.19 35.21 248.91 35.38 248.91 35.68C248.91 35.95 249.22 36.03 249.59 36.07L250.01 36.12C250.89 36.24 251.42 36.62 251.42 37.33C251.42 38.1 250.75 38.65 249.58 38.65C248.92 38.65 248.32 38.48 247.84 38.12L248.25 37.44C248.55 37.67 248.99 37.86 249.59 37.86C250.19 37.86 250.51 37.68 250.51 37.37C250.51 37.14 250.28 37.02 249.8 36.96L249.38 36.9C248.48 36.78 248 36.36 248 35.72C248 34.91 248.66 34.43 249.68 34.43C250.32 34.43 250.9 34.58 251.32 34.84L250.93 35.56ZM261.73 34.43C262.04 34.43 262.34 34.48 262.61 34.59C262.88 34.7 263.1 34.84 263.29 35.03C263.48 35.22 263.64 35.45 263.75 35.71C263.86 35.96 263.91 36.24 263.91 36.55C263.91 36.86 263.86 37.14 263.75 37.4C263.64 37.65 263.49 37.88 263.29 38.07C263.1 38.26 262.86 38.41 262.61 38.51C262.34 38.62 262.06 38.68 261.73 38.68C261.42 38.68 261.13 38.62 260.86 38.51C260.59 38.41 260.36 38.26 260.17 38.07C259.99 37.88 259.82 37.65 259.72 37.4C259.61 37.14 259.55 36.86 259.55 36.55C259.55 36.24 259.61 35.96 259.72 35.71C259.82 35.45 259.97 35.22 260.17 35.03C260.36 34.84 260.59 34.7 260.86 34.59C261.13 34.48 261.41 34.43 261.73 34.43ZM261.73 35.26C261.56 35.26 261.38 35.29 261.24 35.36C261.09 35.42 260.95 35.5 260.83 35.63C260.72 35.73 260.63 35.88 260.56 36.03C260.5 36.19 260.47 36.36 260.47 36.55C260.47 36.74 260.5 36.92 260.56 37.08C260.63 37.24 260.71 37.37 260.83 37.48C260.94 37.59 261.07 37.68 261.24 37.75C261.4 37.82 261.56 37.84 261.73 37.84C261.91 37.84 262.08 37.82 262.23 37.75C262.39 37.68 262.53 37.6 262.63 37.48C262.75 37.37 262.83 37.22 262.9 37.08C262.97 36.92 263 36.74 263 36.55C263 36.36 262.97 36.19 262.9 36.03C262.83 35.87 262.75 35.73 262.63 35.63C262.53 35.52 262.39 35.42 262.23 35.36C262.07 35.29 261.91 35.26 261.73 35.26ZM242.22 38.53L241.34 38.53L241.34 38.04C241.06 38.41 240.64 38.63 240.07 38.63C238.94 38.63 238.05 37.75 238.05 36.52C238.05 35.3 238.94 34.42 240.07 34.42C240.64 34.42 241.06 34.64 241.34 35.01L241.34 34.52L242.22 34.52L242.22 38.53ZM240.19 37.83C240.91 37.83 241.4 37.28 241.4 36.54C241.4 35.8 240.91 35.25 240.19 35.25C239.42 35.25 238.97 35.82 238.97 36.54C238.97 37.25 239.42 37.83 240.19 37.83ZM237.28 38.54L236.4 38.54L236.4 36.3C236.4 35.61 236.12 35.23 235.51 35.23C234.93 35.23 234.53 35.61 234.53 36.31L234.53 38.54L233.64 38.54L233.64 36.3C233.64 35.61 233.35 35.23 232.77 35.23C232.18 35.23 231.79 35.61 231.79 36.31L231.79 38.54L230.9 38.54L230.9 34.52L231.77 34.52L231.77 35.02C232.11 34.55 232.53 34.43 232.96 34.43C233.57 34.43 234.01 34.7 234.29 35.14C234.65 34.58 235.19 34.42 235.7 34.43C236.68 34.44 237.28 35.07 237.28 36.03L237.28 38.54Z" />
			</g>
			<g id="&lt;Group&gt;">
				<path id="&lt;Compound Path&gt;" fill-rule="evenodd" class="shp7" d="M157.81 76.59C157.18 76.19 156.5 75.87 155.78 75.64C155.07 75.42 154.32 75.3 153.57 75.3C153.11 75.3 152.65 75.35 152.19 75.46C151.81 75.55 151.45 75.7 151.12 75.91C150.84 76.1 150.6 76.34 150.42 76.62C150.26 76.91 150.17 77.23 150.18 77.56C150.16 77.85 150.24 78.14 150.39 78.39C150.55 78.62 150.76 78.81 151.01 78.95C151.32 79.12 151.65 79.25 151.99 79.33C152.43 79.44 152.87 79.53 153.31 79.58L154.35 79.73C154.96 79.81 155.55 79.94 156.14 80.12C156.7 80.29 157.23 80.54 157.71 80.87C158.16 81.18 158.54 81.6 158.81 82.08C159.1 82.63 159.24 83.24 159.22 83.86C159.24 84.58 159.07 85.28 158.73 85.91C158.41 86.5 157.96 87.01 157.42 87.4C156.84 87.82 156.18 88.13 155.49 88.32C154.74 88.53 153.96 88.64 153.17 88.63C152.64 88.63 152.11 88.59 151.58 88.5C151.02 88.42 150.47 88.29 149.93 88.12C149.4 87.96 148.88 87.75 148.39 87.49C147.92 87.25 147.48 86.95 147.07 86.61L148.4 84.67C148.68 84.92 149 85.14 149.33 85.33C150.11 85.75 150.94 86.05 151.81 86.2C152.25 86.28 152.7 86.33 153.14 86.33C153.61 86.33 154.08 86.28 154.53 86.18C154.93 86.09 155.3 85.94 155.65 85.74C155.95 85.56 156.21 85.32 156.4 85.03C156.59 84.76 156.68 84.43 156.68 84.1C156.69 83.53 156.37 83 155.85 82.75C155.05 82.38 154.2 82.15 153.32 82.07L152.14 81.9C151.58 81.82 151.03 81.69 150.49 81.51C149.97 81.34 149.49 81.09 149.06 80.75C148.63 80.42 148.29 80 148.04 79.52C147.77 78.96 147.64 78.35 147.66 77.72C147.65 77.03 147.81 76.34 148.13 75.72C148.44 75.13 148.88 74.63 149.41 74.23C149.99 73.82 150.63 73.51 151.31 73.33C152.06 73.11 152.84 73.01 153.62 73.01C154.64 73 155.64 73.15 156.61 73.45C157.49 73.73 158.32 74.13 159.09 74.64L157.81 76.59ZM166.04 77.75C166.72 77.74 167.39 77.88 168.02 78.15C168.6 78.4 169.13 78.78 169.55 79.25C169.99 79.75 170.34 80.33 170.56 80.95C170.81 81.66 170.93 82.41 170.93 83.16C170.93 83.3 170.93 83.45 170.93 83.59C170.93 83.73 170.93 83.87 170.93 84L163.24 84C163.3 84.42 163.43 84.83 163.64 85.2C163.82 85.52 164.06 85.8 164.34 86.03C164.62 86.24 164.93 86.4 165.26 86.5C165.6 86.6 165.96 86.65 166.32 86.65C166.85 86.64 167.38 86.55 167.87 86.36C168.39 86.16 168.88 85.88 169.3 85.53L170.43 87.14C169.85 87.65 169.16 88.04 168.42 88.27C167.69 88.49 166.94 88.6 166.18 88.59C165.45 88.6 164.72 88.47 164.04 88.2C163.42 87.96 162.86 87.58 162.39 87.1C161.91 86.62 161.54 86.03 161.3 85.39C161.03 84.68 160.9 83.92 160.91 83.16C160.89 82.41 161.01 81.66 161.27 80.95C161.5 80.31 161.86 79.73 162.32 79.23C162.79 78.75 163.35 78.37 163.98 78.12C164.63 77.87 165.33 77.74 166.04 77.75ZM165.98 79.76C165.61 79.75 165.25 79.81 164.9 79.94C164.59 80.05 164.31 80.23 164.08 80.46C163.84 80.7 163.66 80.98 163.52 81.29C163.38 81.62 163.27 81.96 163.22 82.32L168.58 82.32C168.51 81.63 168.22 80.96 167.75 80.45C167.28 79.98 166.64 79.73 165.98 79.76ZM177.97 77.75C177.97 77.75 177.97 77.75 177.97 77.75C177.97 77.75 177.97 77.75 177.96 77.75L177.97 77.75ZM180.13 78.16C180.77 78.43 181.34 78.86 181.78 79.4L180.39 80.95C180.04 80.61 179.65 80.33 179.21 80.12C178.79 79.94 178.33 79.84 177.87 79.85C177.48 79.87 177.09 79.96 176.73 80.12C176.37 80.28 176.04 80.51 175.76 80.8C175.48 81.1 175.26 81.46 175.12 81.84C174.81 82.71 174.81 83.66 175.12 84.53C175.26 84.92 175.48 85.27 175.76 85.57C176.04 85.86 176.37 86.09 176.73 86.25C177.11 86.42 177.52 86.5 177.94 86.49C178.42 86.5 178.89 86.39 179.33 86.19C179.75 85.99 180.13 85.73 180.47 85.42L181.86 86.97C181.39 87.51 180.81 87.93 180.15 88.2C179.47 88.49 178.74 88.63 178 88.61C177.23 88.63 176.47 88.49 175.76 88.2C174.47 87.69 173.44 86.65 172.95 85.34C172.43 83.95 172.43 82.42 172.95 81.02C173.44 79.72 174.47 78.68 175.76 78.16C176.47 77.89 177.21 77.74 177.97 77.75C178.71 77.74 179.44 77.89 180.13 78.16ZM193.39 83.97C193.41 84.7 193.27 85.42 192.97 86.09C192.73 86.64 192.36 87.14 191.9 87.53C191.45 87.91 190.93 88.19 190.37 88.36C189.22 88.71 187.98 88.71 186.83 88.36C186.27 88.19 185.74 87.91 185.29 87.53C184.83 87.14 184.46 86.64 184.21 86.09C183.93 85.42 183.79 84.7 183.81 83.97L183.81 78.01L186.08 78.01L186.08 83.8C186.07 84.23 186.13 84.66 186.27 85.07C186.38 85.38 186.57 85.67 186.81 85.9C187.04 86.12 187.32 86.28 187.63 86.37C188.28 86.56 188.97 86.56 189.62 86.37C189.92 86.28 190.21 86.12 190.44 85.9C190.68 85.67 190.87 85.38 190.98 85.07C191.12 84.66 191.19 84.23 191.18 83.8L191.18 78.01L193.45 78.01L193.39 83.97ZM201.63 77.75C201.62 77.75 201.62 77.75 201.62 77.75C201.93 77.75 202.24 77.78 202.55 77.82C202.83 77.87 203.11 77.94 203.38 78.05L202.84 80.28C202.58 80.15 202.3 80.05 202.01 80C201.72 79.94 201.42 79.9 201.13 79.9C200.79 79.9 200.45 79.96 200.13 80.08C199.84 80.2 199.57 80.39 199.36 80.62C199.13 80.88 198.96 81.17 198.85 81.5C198.73 81.87 198.67 82.27 198.67 82.67L198.67 88.35L196.41 88.35L196.41 78.02L198.65 78.02L198.65 79.19C198.96 78.72 199.38 78.34 199.89 78.1C200.44 77.86 201.03 77.74 201.62 77.75C201.62 77.75 201.62 77.75 201.62 77.75C201.62 77.75 201.62 77.75 201.62 77.75L201.63 77.75ZM209.19 77.75C209.19 77.75 209.19 77.75 209.19 77.75C209.18 77.75 209.18 77.75 209.18 77.75L209.19 77.75ZM211.16 78.15C211.75 78.4 212.27 78.78 212.7 79.25C213.14 79.75 213.49 80.33 213.73 80.95C213.97 81.66 214.1 82.41 214.09 83.16C214.09 83.3 214.09 83.45 214.09 83.59C214.09 83.73 214.09 83.87 214.09 84L206.46 84C206.51 84.42 206.64 84.83 206.85 85.2C207.03 85.52 207.27 85.8 207.55 86.03C207.83 86.24 208.14 86.4 208.47 86.5C208.82 86.6 209.17 86.65 209.53 86.65C210.06 86.64 210.59 86.55 211.09 86.36C211.61 86.16 212.09 85.88 212.52 85.53L213.64 87.14C213.06 87.65 212.37 88.04 211.63 88.27C210.9 88.49 210.15 88.6 209.39 88.59C208.66 88.6 207.94 88.47 207.26 88.2C206.64 87.96 206.07 87.58 205.6 87.1C205.12 86.62 204.75 86.03 204.51 85.39C204.24 84.68 204.11 83.92 204.12 83.16C204.12 82.41 204.24 81.66 204.5 80.95C204.74 80.31 205.1 79.73 205.56 79.23C206.03 78.75 206.59 78.37 207.21 78.12C207.84 77.88 208.51 77.75 209.19 77.75C209.86 77.74 210.54 77.88 211.16 78.15ZM209.14 79.76C208.78 79.75 208.41 79.81 208.07 79.94C207.76 80.05 207.48 80.23 207.24 80.46C207.01 80.7 206.82 80.98 206.69 81.29C206.54 81.62 206.43 81.96 206.38 82.32L211.74 82.32C211.67 81.63 211.38 80.96 210.91 80.45C210.44 79.99 209.81 79.74 209.15 79.76L209.14 79.76ZM223.8 72.98C224.45 72.97 225.1 73.05 225.74 73.19C226.35 73.33 226.93 73.54 227.49 73.82C228.02 74.09 228.51 74.42 228.95 74.82C229.38 75.21 229.75 75.65 230.05 76.15L228.01 77.49C227.55 76.82 226.94 76.28 226.23 75.9C225.46 75.5 224.61 75.3 223.75 75.32C223.02 75.31 222.29 75.45 221.61 75.72C220.99 75.97 220.43 76.36 219.96 76.84C219.47 77.34 219.1 77.93 218.84 78.58C218.3 80.02 218.3 81.6 218.84 83.04C219.1 83.69 219.47 84.28 219.96 84.78C220.43 85.26 220.99 85.65 221.61 85.91C222.29 86.17 223.02 86.31 223.75 86.3C225.45 86.35 227.05 85.53 228.01 84.12L229.99 85.58C229.66 86.05 229.27 86.49 228.83 86.86C228.39 87.23 227.91 87.55 227.39 87.82C226.84 88.09 226.27 88.29 225.68 88.43C223.98 88.8 222.21 88.67 220.59 88.05C218.69 87.3 217.19 85.8 216.45 83.91C215.68 81.9 215.68 79.67 216.45 77.66C217.19 75.76 218.69 74.26 220.59 73.52C221.62 73.13 222.71 72.94 223.8 72.97L223.8 72.98ZM237.1 77.75C237.86 77.74 238.62 77.88 239.32 78.16C239.98 78.42 240.59 78.81 241.11 79.3C241.61 79.79 242 80.37 242.27 81.02C242.83 82.4 242.83 83.95 242.27 85.34C242 85.98 241.61 86.57 241.11 87.06C240.6 87.54 240 87.93 239.35 88.19C237.92 88.75 236.34 88.75 234.91 88.19C234.26 87.93 233.66 87.55 233.15 87.06C232.65 86.56 232.26 85.98 231.99 85.34C231.43 83.95 231.43 82.4 231.99 81.02C232.26 80.37 232.65 79.79 233.15 79.3C233.66 78.8 234.26 78.42 234.91 78.16C235.61 77.88 236.35 77.74 237.1 77.75ZM237.1 79.87C236.66 79.87 236.23 79.95 235.82 80.11C235.44 80.27 235.09 80.5 234.8 80.79C234.5 81.09 234.27 81.45 234.12 81.84C233.79 82.7 233.79 83.66 234.12 84.52C234.27 84.91 234.5 85.27 234.8 85.57C235.09 85.86 235.44 86.09 235.82 86.24C236.65 86.57 237.56 86.57 238.39 86.24C239.17 85.93 239.79 85.3 240.1 84.51C240.43 83.65 240.43 82.69 240.1 81.83C239.94 81.43 239.71 81.08 239.41 80.78C239.12 80.49 238.76 80.26 238.38 80.11C237.97 79.95 237.54 79.87 237.1 79.87ZM249.51 77.75C250.77 77.72 251.96 78.29 252.73 79.3L252.73 72.85L254.98 72.85L254.98 88.35L252.73 88.35L252.73 87.11C252.37 87.57 251.91 87.95 251.39 88.21C250.79 88.5 250.14 88.64 249.48 88.63C248.1 88.64 246.77 88.09 245.81 87.1C245.34 86.6 244.96 86.02 244.71 85.38C244.18 83.97 244.18 82.41 244.71 81.01C244.96 80.37 245.34 79.79 245.81 79.3C246.78 78.29 248.12 77.73 249.51 77.75ZM249.75 79.87C249.75 79.87 249.75 79.87 249.76 79.87C249.76 79.87 249.77 79.87 249.78 79.87L249.75 79.87ZM248.48 80.14C248.11 80.31 247.77 80.55 247.5 80.85C247.23 81.16 247.02 81.52 246.89 81.9C246.6 82.73 246.6 83.64 246.89 84.47C247.02 84.85 247.23 85.21 247.5 85.52C247.77 85.82 248.11 86.06 248.48 86.23C249.3 86.57 250.23 86.57 251.06 86.23C251.43 86.07 251.76 85.83 252.04 85.53C252.32 85.23 252.54 84.88 252.68 84.49C252.98 83.64 252.98 82.71 252.68 81.86C252.53 81.48 252.32 81.12 252.04 80.82C251.76 80.52 251.43 80.28 251.06 80.12C250.64 79.95 250.2 79.86 249.76 79.87C249.32 79.87 248.88 79.96 248.48 80.14ZM262.52 77.75C263.2 77.74 263.87 77.88 264.49 78.15C265.08 78.4 265.61 78.78 266.03 79.25C266.46 79.75 266.79 80.33 267.01 80.95C267.26 81.66 267.38 82.41 267.37 83.16C267.37 83.3 267.37 83.45 267.37 83.59C267.37 83.73 267.37 83.87 267.37 84L259.74 84C259.79 84.42 259.93 84.83 260.14 85.2C260.31 85.52 260.55 85.8 260.84 86.03C261.11 86.24 261.43 86.4 261.76 86.5C262.1 86.6 262.46 86.65 262.82 86.65C263.35 86.64 263.87 86.55 264.37 86.36C264.89 86.16 265.37 85.88 265.8 85.53L266.88 87.16C266.29 87.67 265.61 88.06 264.87 88.29C264.14 88.51 263.38 88.62 262.63 88.61C261.89 88.63 261.17 88.49 260.49 88.23C259.87 87.98 259.31 87.61 258.84 87.13C258.36 86.64 257.99 86.06 257.74 85.42C257.48 84.7 257.35 83.94 257.36 83.18C257.35 82.43 257.48 81.68 257.74 80.97C257.97 80.34 258.33 79.75 258.8 79.25C259.26 78.77 259.83 78.4 260.45 78.15C261.1 77.88 261.79 77.75 262.48 77.75L262.52 77.75ZM268.36 88.35L268.36 87.83L268.15 87.83L268.15 87.72L268.69 87.72L268.69 87.83L268.48 87.83L268.48 88.35L268.36 88.35ZM269.39 88.35L269.39 87.88L269.22 88.29L269.1 88.29L268.93 87.88L268.93 88.35L268.81 88.35L268.81 87.72L268.98 87.72L269.17 88.15L269.36 87.72L269.52 87.72L269.52 88.35L269.39 88.35ZM262.44 79.76C262.44 79.76 262.44 79.76 262.44 79.76C262.45 79.76 262.46 79.76 262.48 79.76L262.44 79.76ZM261.4 79.94C261.09 80.05 260.81 80.23 260.58 80.46C260.34 80.7 260.15 80.98 260.02 81.29C259.87 81.62 259.77 81.96 259.72 82.32L265.07 82.32C265.01 81.63 264.72 80.96 264.25 80.45C263.77 79.97 263.11 79.72 262.44 79.76C262.09 79.76 261.73 79.82 261.4 79.94Z" />
				<path id="&lt;Compound Path&gt;" fill-rule="evenodd" class="shp8" d="M165.23 67.05L162.67 67.05L162.67 54.16L158.12 65.52L155.46 65.52L150.89 54.29L150.89 67.05L148.36 67.05L148.36 51.38L152.23 51.38L156.79 62.58L161.34 51.38L165.22 51.38L165.23 67.05ZM178.54 67.05L176.2 67.05L176.2 65.76C175.83 66.23 175.35 66.62 174.81 66.89C174.2 67.19 173.52 67.33 172.84 67.32C171.4 67.33 170.03 66.75 169.03 65.73C168.54 65.21 168.15 64.6 167.89 63.94C167.34 62.48 167.34 60.87 167.89 59.4C168.15 58.74 168.54 58.13 169.03 57.62C170.03 56.59 171.4 56.02 172.84 56.03C173.52 56.01 174.2 56.17 174.81 56.46C175.35 56.74 175.83 57.13 176.2 57.61L176.2 56.33L178.54 56.33L178.54 67.05ZM173.12 58.26C172.65 58.25 172.19 58.34 171.76 58.53C171.38 58.7 171.03 58.95 170.75 59.27C170.47 59.59 170.26 59.96 170.11 60.35C169.82 61.22 169.82 62.16 170.11 63.02C170.25 63.42 170.47 63.79 170.75 64.12C171.03 64.42 171.38 64.68 171.76 64.85C172.62 65.21 173.58 65.21 174.44 64.85C174.83 64.68 175.17 64.43 175.46 64.13C175.75 63.81 175.97 63.45 176.12 63.05C176.43 62.16 176.43 61.2 176.12 60.32C175.97 59.92 175.75 59.55 175.46 59.23C175.17 58.93 174.83 58.68 174.44 58.51C174.02 58.34 173.57 58.25 173.12 58.26ZM189.28 59.02C189.08 58.91 188.88 58.8 188.67 58.71C188.4 58.59 188.13 58.5 187.85 58.42C187.54 58.32 187.23 58.25 186.92 58.19C186.59 58.13 186.26 58.1 185.93 58.1C185.4 58.07 184.88 58.19 184.43 58.46C184.1 58.65 183.9 59 183.9 59.38C183.9 59.55 183.94 59.71 184.04 59.85C184.14 59.99 184.27 60.09 184.41 60.17C184.59 60.26 184.78 60.32 184.98 60.37C185.19 60.42 185.42 60.46 185.67 60.5L186.78 60.66C187.76 60.77 188.71 61.12 189.52 61.69C190.17 62.2 190.54 63 190.5 63.83C190.51 64.32 190.39 64.81 190.17 65.24C189.94 65.68 189.62 66.06 189.22 66.35C188.76 66.68 188.24 66.93 187.69 67.07C187.02 67.25 186.32 67.34 185.62 67.33C185.35 67.33 185.03 67.32 184.66 67.28C184.27 67.24 183.88 67.18 183.5 67.08C183.07 66.97 182.65 66.83 182.24 66.66C181.81 66.47 181.4 66.24 181.02 65.96L182.11 64.2C182.31 64.36 182.52 64.5 182.74 64.62C182.98 64.77 183.24 64.88 183.51 64.97C183.81 65.08 184.13 65.16 184.46 65.21C184.85 65.28 185.24 65.31 185.64 65.3C186.26 65.34 186.89 65.22 187.46 64.95C187.83 64.77 188.07 64.4 188.07 63.99C188.06 63.68 187.9 63.39 187.62 63.23C187.19 62.99 186.71 62.85 186.22 62.8L185.1 62.66C184.12 62.58 183.17 62.21 182.39 61.61C181.77 61.09 181.43 60.32 181.46 59.51C181.45 59.02 181.56 58.53 181.77 58.09C181.98 57.64 182.31 57.25 182.71 56.97C183.13 56.66 183.6 56.42 184.1 56.29C184.7 56.12 185.32 56.04 185.94 56.05C186.75 56.04 187.55 56.15 188.33 56.34C189.02 56.52 189.68 56.8 190.29 57.17L189.28 59.02ZM200.38 58.46L196.24 58.46L196.24 63.12C196.23 63.43 196.28 63.74 196.37 64.03C196.45 64.27 196.57 64.48 196.74 64.66C196.89 64.82 197.07 64.94 197.27 65.01C197.49 65.09 197.72 65.13 197.95 65.13C198.33 65.13 198.7 65.05 199.06 64.91C199.42 64.78 199.77 64.61 200.1 64.4L201.03 66.27C200.58 66.58 200.09 66.83 199.57 67.02C198.99 67.24 198.37 67.35 197.75 67.34C196.7 67.39 195.69 67.02 194.92 66.31C194.18 65.44 193.82 64.3 193.92 63.16L193.92 58.46L191.78 58.46L191.78 56.33L193.92 56.33L193.92 53.09L196.26 53.09L196.26 56.33L200.4 56.33L200.38 58.46ZM207.57 56.05C208.28 56.04 208.97 56.18 209.62 56.45C210.23 56.72 210.78 57.11 211.22 57.6C211.69 58.12 212.05 58.73 212.29 59.39C212.55 60.13 212.68 60.9 212.66 61.68C212.66 61.83 212.66 61.98 212.66 62.13C212.66 62.28 212.66 62.42 212.66 62.55L204.74 62.55C204.8 62.99 204.94 63.4 205.16 63.79C205.35 64.11 205.59 64.39 205.88 64.62C206.17 64.84 206.49 65 206.84 65.11C207.19 65.21 207.56 65.26 207.93 65.26C208.5 65.26 209.06 65.16 209.59 64.96C210.12 64.77 210.62 64.49 211.07 64.14L212.23 65.79C211.63 66.32 210.92 66.72 210.15 66.97C209.4 67.19 208.61 67.31 207.83 67.31C207.07 67.32 206.31 67.18 205.61 66.9C204.96 66.64 204.37 66.26 203.87 65.76C203.38 65.25 202.99 64.64 202.74 63.98C202.46 63.24 202.33 62.45 202.34 61.67C202.33 60.88 202.46 60.11 202.72 59.38C202.97 58.71 203.34 58.1 203.83 57.59C204.29 57.09 204.85 56.7 205.48 56.44C206.14 56.17 206.85 56.04 207.57 56.05ZM207.52 58.13C207.52 58.13 207.52 58.13 207.52 58.13C207.53 58.13 207.53 58.13 207.53 58.13L207.52 58.13ZM206.41 58.32C206.1 58.45 205.82 58.63 205.59 58.87C205.35 59.11 205.15 59.39 205.01 59.7C204.85 60.04 204.75 60.39 204.69 60.76L210.25 60.76C210.18 60.04 209.86 59.35 209.36 58.82C208.87 58.35 208.2 58.1 207.52 58.13C207.15 58.13 206.77 58.19 206.41 58.32ZM220.76 56.05C221.09 56.04 221.41 56.07 221.73 56.12C222.01 56.17 222.29 56.25 222.56 56.36L221.99 58.67C221.73 58.54 221.46 58.44 221.17 58.38C220.86 58.32 220.56 58.28 220.25 58.28C219.9 58.28 219.55 58.34 219.22 58.47C218.91 58.59 218.62 58.79 218.4 59.03C218.16 59.3 217.98 59.61 217.87 59.94C217.73 60.34 217.67 60.75 217.68 61.16L217.68 67.05L215.34 67.05L215.34 56.3L217.65 56.3L217.65 57.51C217.98 57.02 218.44 56.63 218.98 56.38C219.54 56.15 220.14 56.04 220.74 56.05L220.76 56.05ZM228.76 56.05C229.53 56.04 230.29 56.19 231.01 56.48C231.68 56.77 232.28 57.22 232.74 57.79L231.24 59.39C230.89 59.05 230.49 58.77 230.06 58.56C229.62 58.36 229.15 58.27 228.67 58.27C228.24 58.27 227.82 58.35 227.42 58.52C227.04 58.68 226.69 58.92 226.41 59.22C226.12 59.54 225.9 59.91 225.75 60.31C225.42 61.21 225.42 62.2 225.75 63.1C225.9 63.5 226.12 63.87 226.41 64.18C226.69 64.48 227.04 64.72 227.42 64.88C227.82 65.05 228.24 65.13 228.67 65.13C229.17 65.13 229.66 65.03 230.11 64.82C230.54 64.6 230.94 64.32 231.29 63.99L232.73 65.6C232.25 66.16 231.65 66.6 230.97 66.89C230.26 67.18 229.5 67.33 228.73 67.32C227.93 67.33 227.15 67.18 226.41 66.89C225.06 66.35 224.01 65.28 223.49 63.92C222.95 62.48 222.95 60.89 223.49 59.45C224.01 58.09 225.06 57.01 226.41 56.48C227.15 56.18 227.94 56.04 228.73 56.05L228.76 56.05ZM245.23 67.05L242.89 67.05L242.89 65.76C242.51 66.24 242.02 66.63 241.47 66.89C240.85 67.19 240.18 67.33 239.49 67.32C238.06 67.33 236.69 66.75 235.69 65.73C235.19 65.21 234.81 64.6 234.55 63.94C234 62.48 234 60.87 234.55 59.4C234.81 58.74 235.19 58.13 235.69 57.62C236.69 56.59 238.06 56.02 239.49 56.03C240.18 56.01 240.86 56.17 241.47 56.46C242.02 56.74 242.51 57.14 242.89 57.63L242.89 56.33L245.23 56.33L245.23 67.05ZM239.77 58.26C239.78 58.26 239.78 58.26 239.78 58.26C239.79 58.26 239.79 58.26 239.8 58.26L239.77 58.26ZM238.44 58.53C238.06 58.7 237.72 58.95 237.43 59.27C237.15 59.59 236.94 59.96 236.8 60.35C236.5 61.22 236.5 62.16 236.8 63.02C236.94 63.42 237.15 63.79 237.43 64.12C237.72 64.42 238.06 64.68 238.44 64.85C239.3 65.21 240.27 65.21 241.12 64.85C241.51 64.68 241.85 64.43 242.14 64.13C242.43 63.82 242.65 63.45 242.8 63.05C243.12 62.16 243.12 61.2 242.8 60.32C242.65 59.92 242.43 59.55 242.14 59.23C241.85 58.93 241.51 58.68 241.12 58.51C240.7 58.33 240.25 58.24 239.78 58.26C239.32 58.25 238.87 58.35 238.44 58.53ZM254.1 56.06C254.42 56.06 254.75 56.08 255.07 56.13C255.35 56.18 255.63 56.26 255.89 56.36L255.33 58.68C255.07 58.55 254.79 58.45 254.5 58.39C254.2 58.33 253.89 58.29 253.59 58.29C253.24 58.29 252.89 58.35 252.56 58.48C252.25 58.6 251.96 58.79 251.73 59.04C251.5 59.31 251.32 59.62 251.21 59.95C251.07 60.34 251.01 60.76 251.02 61.17L251.02 67.06L248.68 67.06L248.68 56.31L251 56.31L251 57.52C251.33 57.03 251.79 56.63 252.33 56.39C252.88 56.16 253.47 56.04 254.07 56.05L254.1 56.06ZM261.77 56.06C262.46 56.04 263.14 56.19 263.75 56.49C264.29 56.76 264.77 57.16 265.14 57.64L265.14 50.94L267.48 50.94L267.48 67.05L265.14 67.05L265.14 65.76C264.76 66.24 264.28 66.62 263.73 66.89C263.11 67.19 262.43 67.33 261.75 67.32C260.32 67.33 258.94 66.75 257.95 65.73C257.45 65.21 257.06 64.6 256.8 63.94C256.25 62.48 256.25 60.87 256.8 59.4C257.06 58.74 257.45 58.13 257.95 57.62C258.94 56.59 260.32 56.02 261.75 56.03L261.77 56.06ZM270.18 66.06C270.28 66.06 270.37 66.08 270.46 66.11C270.54 66.15 270.62 66.2 270.68 66.26C270.74 66.33 270.79 66.4 270.83 66.48C270.9 66.65 270.9 66.84 270.83 67.01C270.79 67.09 270.74 67.16 270.68 67.22C270.62 67.29 270.54 67.34 270.46 67.37C270.37 67.41 270.28 67.43 270.18 67.43C269.91 67.43 269.65 67.27 269.54 67.02C269.47 66.85 269.47 66.65 269.54 66.48C269.61 66.32 269.74 66.19 269.91 66.12C270 66.09 270.09 66.06 270.18 66.06ZM270.18 67.28C270.26 67.28 270.33 67.27 270.39 67.24C270.45 67.21 270.51 67.17 270.56 67.12C270.76 66.91 270.76 66.58 270.56 66.37C270.51 66.32 270.45 66.28 270.39 66.25C270.32 66.24 270.25 66.24 270.18 66.25C270.12 66.24 270.05 66.24 269.98 66.25C269.72 66.38 269.6 66.7 269.73 66.96C269.75 67 269.78 67.04 269.81 67.08C269.86 67.13 269.91 67.17 269.98 67.2C270.04 67.24 270.11 67.26 270.18 67.27L270.18 67.28ZM270.18 66.45C270.25 66.45 270.32 66.47 270.38 66.51C270.42 66.55 270.45 66.6 270.44 66.66C270.45 66.71 270.43 66.76 270.39 66.79C270.35 66.83 270.3 66.86 270.24 66.86L270.45 67.1L270.28 67.1L270.09 66.86L270.04 66.86L270.04 67.1L269.9 67.1L269.9 66.46L270.18 66.45ZM270.03 66.57L270.03 66.73L270.18 66.73C270.21 66.74 270.24 66.74 270.27 66.73C270.28 66.71 270.28 66.69 270.27 66.67C270.28 66.65 270.28 66.62 270.27 66.6C270.24 66.59 270.21 66.59 270.18 66.6L270.03 66.57ZM261.99 58.3C261.52 58.29 261.06 58.38 260.63 58.57C260.25 58.74 259.91 58.99 259.62 59.31C259.34 59.63 259.13 60 258.99 60.4C258.69 61.26 258.69 62.2 258.99 63.06C259.13 63.46 259.34 63.84 259.62 64.16C259.91 64.47 260.25 64.72 260.63 64.89C261.49 65.25 262.46 65.25 263.31 64.89C263.7 64.72 264.04 64.48 264.33 64.17C264.62 63.85 264.84 63.49 264.99 63.09C265.3 62.2 265.3 61.24 264.99 60.35C264.84 59.96 264.62 59.59 264.33 59.27C264.04 58.97 263.7 58.72 263.31 58.55C262.91 58.36 262.47 58.27 262.02 58.26L261.99 58.3Z" />
			</g>
			<g id="&lt;Group&gt;">
				<path id="&lt;Compound Path&gt;" fill-rule="evenodd" class="shp9" d="M153.55 38.37L153.55 36.17C153.55 35.5 153.27 35.13 152.68 35.13L152.51 35.13C152 35.19 151.64 35.66 151.71 36.17L151.71 38.37L150.84 38.37L150.84 36.17C150.84 35.5 150.55 35.13 149.98 35.13L149.8 35.13C149.79 35.13 149.79 35.13 149.78 35.13C149.28 35.2 148.93 35.67 149 36.17L149 38.31L148.13 38.31L148.13 34.35L149 34.35L149 34.84C149.26 34.46 149.7 34.24 150.16 34.26C150.7 34.24 151.2 34.51 151.48 34.97C151.77 34.49 152.31 34.22 152.87 34.26L153.04 34.26C153.06 34.26 153.07 34.26 153.09 34.26C153.89 34.34 154.49 35.06 154.41 35.87L154.41 38.35L153.55 38.37ZM167.28 35.18L165.87 35.18L165.87 36.99C165.87 37.38 166.02 37.65 166.44 37.65C166.71 37.63 166.97 37.56 167.2 37.42L167.45 38.16C167.13 38.36 166.75 38.47 166.37 38.46C165.35 38.46 165 37.92 165 37L165 35.19L164.19 35.19L164.19 34.39L165 34.39L165 33.19L165.87 33.19L165.87 34.39L167.28 34.39L167.28 35.18ZM174.6 34.3C174.8 34.3 175.01 34.33 175.21 34.41L174.94 35.21C174.77 35.14 174.59 35.11 174.4 35.11C173.88 35.11 173.6 35.48 173.6 36.13L173.6 38.35L172.74 38.35L172.74 34.39L173.59 34.39L173.59 34.88C173.81 34.51 174.21 34.28 174.64 34.3L174.6 34.3ZM163.16 35.36C162.78 35.14 162.35 35.03 161.91 35.02C161.43 35.02 161.15 35.22 161.15 35.49C161.15 35.75 161.45 35.83 161.82 35.87L162.24 35.93C163.1 36.05 163.62 36.36 163.62 37.11C163.62 37.87 162.96 38.41 161.81 38.41C161.2 38.42 160.6 38.25 160.1 37.9L160.52 37.23C160.9 37.51 161.36 37.66 161.84 37.65C162.42 37.65 162.74 37.39 162.74 37.16C162.74 36.94 162.51 36.81 162.04 36.74L161.62 36.68C160.73 36.57 160.25 36.16 160.25 35.52C160.25 34.73 160.9 34.25 161.91 34.25C162.48 34.23 163.03 34.38 163.52 34.67L163.16 35.36ZM186.57 34.3C186.77 34.3 186.98 34.33 187.18 34.41L186.91 35.21C186.74 35.14 186.56 35.11 186.37 35.11C185.85 35.11 185.57 35.48 185.57 36.13L185.57 38.31L184.71 38.31L184.71 34.35L185.55 34.35L185.55 34.83C185.77 34.46 186.17 34.24 186.6 34.25L186.57 34.3ZM175.5 36.18C175.56 35.08 176.5 34.24 177.6 34.3C178.12 34.27 178.63 34.44 179.03 34.77L178.61 35.47C178.32 35.23 177.95 35.1 177.57 35.09C176.95 35.14 176.46 35.63 176.41 36.25C176.35 36.95 176.87 37.57 177.57 37.62C177.95 37.62 178.31 37.49 178.61 37.27L179.03 37.96C178.63 38.29 178.12 38.46 177.6 38.43L177.42 38.43C176.31 38.39 175.46 37.46 175.5 36.36C175.5 36.3 175.5 36.24 175.5 36.18ZM183.57 38.37L182.71 38.37L182.71 37.89C182.4 38.26 181.94 38.46 181.46 38.43C181.37 38.44 181.29 38.44 181.2 38.43C180.06 38.36 179.19 37.38 179.26 36.23C179.33 35.09 180.31 34.22 181.46 34.29C181.94 34.27 182.41 34.49 182.71 34.87L182.71 34.39L183.54 34.39L183.54 36.36L183.57 38.37ZM180.37 36.36C180.37 36.38 180.35 36.41 180.32 36.45C180.35 37.07 180.85 37.57 181.47 37.6C182.12 37.62 182.68 37.11 182.7 36.45C182.73 35.8 182.22 35.24 181.56 35.22C180.91 35.19 180.35 35.7 180.32 36.36L180.37 36.36ZM169.94 34.3C170.01 34.3 170.07 34.3 170.14 34.31C171.18 34.42 171.93 35.34 171.82 36.38L171.82 36.7L168.88 36.7C168.94 37.3 169.47 37.73 170.06 37.67C170.48 37.67 170.88 37.52 171.21 37.26L171.63 37.9C171.17 38.26 170.6 38.45 170.02 38.43C169.93 38.44 169.85 38.44 169.77 38.43C168.62 38.38 167.74 37.41 167.79 36.27C167.85 35.12 168.82 34.24 169.96 34.29L169.94 34.3ZM169.95 35.09C169.39 35.08 168.93 35.5 168.89 36.05L170.97 36.05L170.97 36.05C170.95 35.51 170.5 35.08 169.96 35.09L169.95 35.09ZM191.53 38.37L190.73 38.37L190.73 37.89C190.43 38.25 189.97 38.45 189.5 38.43C189.42 38.44 189.33 38.44 189.25 38.43C188.1 38.36 187.23 37.38 187.3 36.23C187.38 35.09 188.36 34.22 189.5 34.29C189.99 34.27 190.45 34.49 190.75 34.87L190.75 32.79L191.56 32.79L191.56 36.41L191.53 38.37ZM188.37 36.37C188.37 36.39 188.36 36.44 188.34 36.51C188.37 37.13 188.87 37.63 189.49 37.65C190.14 37.68 190.7 37.17 190.73 36.51C190.75 35.85 190.24 35.3 189.58 35.27C188.93 35.25 188.37 35.76 188.34 36.42L188.37 36.37ZM159.3 38.37L158.41 38.37L158.41 37.89C158.1 38.26 157.64 38.46 157.16 38.43C157.08 38.44 156.99 38.44 156.9 38.43C155.76 38.36 154.89 37.38 154.96 36.23C155.03 35.09 156.02 34.22 157.16 34.29C157.65 34.27 158.11 34.49 158.41 34.87L158.41 34.39L159.3 34.39L159.3 38.37ZM156.09 36.47C156.11 37.04 156.57 37.5 157.14 37.53C157.75 37.56 158.27 37.08 158.3 36.47C158.33 35.86 157.86 35.34 157.25 35.31C156.63 35.28 156.11 35.75 156.09 36.37C156.09 36.39 156.09 36.43 156.09 36.47Z" />
				<path id="&lt;Path&gt;" class="shp10" d="M163.24 4.2L176.29 4.2L176.29 27.66L163.24 27.66L163.24 4.2Z" />
				<path id="&lt;Path&gt;" class="shp8" d="M164.06 15.93C164.06 11.35 166.16 7.03 169.76 4.2C163.28 -0.89 153.91 0.24 148.82 6.72C143.73 13.19 144.86 22.57 151.33 27.66C156.74 31.91 164.35 31.91 169.76 27.66C166.16 24.84 164.06 20.51 164.06 15.93Z" />
				<path id="&lt;Path&gt;" class="shp7" d="M193.9 15.93C193.9 24.17 187.22 30.85 178.99 30.85C175.64 30.85 172.39 29.73 169.76 27.66C176.24 22.57 177.37 13.19 172.28 6.72C171.54 5.78 170.7 4.94 169.76 4.2C176.24 -0.89 185.61 0.23 190.71 6.71C192.78 9.34 193.9 12.59 193.9 15.93Z" />
			</g>
		</g>
		<g id="surface1">
			<path id="&lt;Compound Path&gt;" fill-rule="evenodd" class="shp11" d="M23.6 124.32C23.6 125.27 23.52 126.1 23.37 126.8C23.22 127.55 22.99 128.16 22.68 128.63C22.38 129.1 22.02 129.5 21.58 129.83C21.16 130.15 20.68 130.4 20.15 130.55C19.66 130.7 18.97 130.81 18.08 130.88C17.22 130.96 16.18 130.99 14.96 130.99C14.08 130.99 13.31 130.96 12.67 130.91C11.99 130.85 11.46 130.76 11.07 130.64C10.52 130.49 10.04 130.24 9.63 129.89L9.63 134.84C9.63 134.96 9.59 135.05 9.51 135.13C9.43 135.21 9.34 135.25 9.23 135.25L7.31 135.25C7.2 135.25 7.1 135.21 7.01 135.13C6.94 135.06 6.9 134.96 6.9 134.84L6.9 118.19C6.9 118.07 6.94 117.98 7.01 117.91C7.1 117.83 7.2 117.79 7.31 117.79L9.23 117.79C9.34 117.79 9.43 117.83 9.51 117.91C9.59 117.99 9.63 118.08 9.63 118.19L9.63 118.78C9.7 118.7 9.78 118.63 9.86 118.57C10.2 118.32 10.59 118.13 11.02 117.99C11.4 117.87 11.95 117.78 12.68 117.72C13.38 117.66 14.21 117.63 15.17 117.63C16.82 117.63 18.09 117.7 18.98 117.81C19.87 117.94 20.61 118.18 21.21 118.52C21.65 118.78 22.04 119.1 22.36 119.48C22.69 119.85 22.94 120.27 23.11 120.75C23.43 121.6 23.6 122.8 23.6 124.32ZM20.74 124.37C20.74 123.21 20.64 122.34 20.44 121.79C20.35 121.53 20.22 121.31 20.06 121.12C19.91 120.94 19.72 120.79 19.49 120.65C19.21 120.48 18.75 120.36 18.11 120.26C17.4 120.17 16.58 120.12 15.62 120.12C14.12 120.12 12.99 120.17 12.22 120.26C11.53 120.35 11.02 120.5 10.69 120.73C10.32 120.98 10.04 121.37 9.86 121.88C9.67 122.42 9.58 123.19 9.58 124.19C9.58 125.38 9.68 126.25 9.89 126.81C9.98 127.09 10.11 127.31 10.26 127.5C10.41 127.68 10.6 127.84 10.83 127.97C11.16 128.15 11.64 128.28 12.29 128.36C12.97 128.45 13.85 128.49 14.92 128.49C16.38 128.49 17.44 128.45 18.12 128.35C18.76 128.27 19.26 128.12 19.61 127.89C19.99 127.65 20.27 127.26 20.45 126.73C20.65 126.18 20.74 125.39 20.74 124.37Z" />
			<path id="&lt;Compound Path&gt;" fill-rule="evenodd" class="shp11" d="M41.58 123.97L41.58 130.43C41.58 130.54 41.54 130.64 41.46 130.72C41.37 130.8 41.28 130.84 41.18 130.84L39.25 130.84C39.14 130.84 39.04 130.8 38.96 130.72C38.88 130.63 38.84 130.52 38.84 130.42L38.86 129.97C38.48 130.31 38.04 130.55 37.55 130.69C37.23 130.78 36.72 130.85 36.01 130.92C35.31 130.97 34.51 130.99 33.61 130.99C32.79 130.99 31.87 130.98 30.88 130.96C30.1 130.92 29.51 130.88 29.1 130.84L29.09 130.84C28.66 130.78 28.26 130.69 27.92 130.57C27.55 130.45 27.25 130.29 27.01 130.1C26.52 129.76 26.17 129.33 25.98 128.84C25.79 128.35 25.7 127.7 25.7 126.89C25.7 125.88 25.84 125.09 26.13 124.52C26.29 124.21 26.48 123.95 26.73 123.73C26.97 123.52 27.26 123.35 27.6 123.21L27.6 123.2C27.82 123.1 28.07 123.03 28.35 122.98C28.81 122.9 29.35 122.83 29.99 122.79C30.62 122.75 31.41 122.73 32.36 122.73C33.61 122.73 34.66 122.75 35.49 122.79C36.34 122.84 36.97 122.9 37.36 122.96C37.79 123.04 38.18 123.19 38.52 123.4C38.63 123.46 38.74 123.54 38.84 123.63L38.84 123.13C38.84 122.62 38.8 122.18 38.71 121.82C38.63 121.49 38.51 121.23 38.36 121.04C38.23 120.88 38.05 120.73 37.83 120.6C37.63 120.48 37.36 120.39 37.02 120.31C36.67 120.24 36.23 120.2 35.68 120.16C35.12 120.12 34.44 120.09 33.65 120.09C32.61 120.09 31.77 120.12 31.1 120.18L30.26 120.3C30.03 120.34 29.85 120.39 29.74 120.44C29.52 120.54 29.35 120.67 29.25 120.85C29.13 121.06 29.07 121.34 29.07 121.69L29.07 121.86C29.07 121.98 29.03 122.07 28.95 122.15C28.88 122.23 28.79 122.26 28.67 122.26L26.66 122.26C26.56 122.26 26.47 122.23 26.39 122.15C26.31 122.08 26.27 122 26.25 121.91L26.23 121.32C26.23 120.61 26.37 120.01 26.65 119.52C26.92 119.01 27.34 118.62 27.9 118.35C28.43 118.09 29.17 117.9 30.1 117.78C31.01 117.66 32.15 117.6 33.51 117.6C34.5 117.6 35.4 117.63 36.22 117.68C36.98 117.73 37.6 117.8 38.07 117.89C39.08 118.11 39.87 118.51 40.44 119.09C40.92 119.59 41.23 120.17 41.37 120.82C41.45 121.19 41.5 121.61 41.53 122.08C41.57 122.61 41.58 123.24 41.58 123.97ZM38.71 126.88C38.71 126.55 38.64 126.3 38.51 126.1C38.37 125.91 38.16 125.76 37.87 125.64C37.53 125.52 37.02 125.42 36.32 125.36C35.66 125.29 34.77 125.25 33.64 125.25C32.04 125.25 30.93 125.28 30.32 125.34C30.02 125.37 29.76 125.41 29.56 125.45C29.4 125.48 29.26 125.53 29.13 125.6C28.96 125.7 28.82 125.85 28.72 126.06C28.62 126.29 28.57 126.57 28.57 126.92C28.57 127.25 28.63 127.52 28.74 127.74C28.85 127.93 29.02 128.09 29.25 128.2L29.41 128.24C29.56 128.29 29.76 128.33 30.04 128.35C30.83 128.45 32.16 128.49 34.03 128.49C35.08 128.49 35.93 128.47 36.56 128.41C37.21 128.35 37.68 128.25 37.97 128.13C38.22 128.03 38.41 127.88 38.53 127.69C38.65 127.47 38.71 127.2 38.71 126.88Z" />
			<path id="&lt;Path&gt;" class="shp11" d="M45.65 117.99L51.36 128.24L56.62 118C56.7 117.86 56.82 117.79 56.97 117.79L59.24 117.79C59.39 117.79 59.51 117.85 59.59 117.98C59.66 118.12 59.67 118.25 59.6 118.37L53.64 129.76L53.64 129.77C52.91 131.15 52.34 132.13 51.94 132.7C51.5 133.31 51.01 133.8 50.48 134.18C49.97 134.53 49.42 134.77 48.82 134.9C48.27 135.02 47.46 135.09 46.41 135.09C45.98 135.09 45.6 135.09 45.29 135.07C45.19 135.06 45.1 135.02 45.03 134.95C44.95 134.87 44.91 134.78 44.91 134.67L44.91 132.89C44.91 132.78 44.95 132.68 45.04 132.6C45.13 132.52 45.23 132.49 45.36 132.5C45.68 132.54 45.96 132.55 46.21 132.55C46.82 132.55 47.35 132.51 47.77 132.43C48.19 132.36 48.51 132.27 48.73 132.14L48.73 132.13C48.93 132.01 49.17 131.8 49.43 131.49C49.57 131.29 49.74 131.07 49.9 130.81C49.77 130.8 49.67 130.73 49.58 130.61L42.7 118.39C42.62 118.26 42.62 118.12 42.7 117.98C42.77 117.85 42.89 117.79 43.04 117.79L45.31 117.79C45.46 117.79 45.58 117.85 45.65 117.99Z" />
			<g id="&lt;Clip Group&gt;" clip-path="url(#cp1)">
				<g id="&lt;Group&gt;">
					<path id="&lt;Path&gt;" class="shp12" d="M52.96 138.51L53.4 138.51C58.72 138.51 63.24 138.03 66.95 137.05C67.22 136.97 67.49 136.89 67.75 136.82C72.83 135.34 75.64 132.95 76.18 129.66C76.36 128.61 75.95 127.47 74.95 126.25C74.48 125.67 73.8 125.01 72.92 124.27C72.49 123.94 72.02 123.59 71.51 123.22C69.59 121.82 68.37 120.89 67.86 120.41C66.79 119.42 66.31 118.57 66.43 117.84C66.88 115.14 70.03 113.1 75.9 111.72C76.53 111.57 77.19 111.43 77.89 111.29C77.99 111.27 78.1 111.26 78.2 111.24C78.73 111.14 79.26 111.04 79.79 110.96C80.2 110.9 80.61 110.84 81.02 110.78C81.22 110.75 81.42 110.72 81.62 110.7C82.13 110.63 82.65 110.57 83.17 110.51C83.23 110.5 83.29 110.49 83.36 110.49C83.93 110.42 84.5 110.37 85.07 110.33L85.07 110.33C85.07 110.33 85.07 110.33 85.07 110.33C85.15 110.33 85.22 110.26 85.22 110.18C85.22 110.09 85.15 110.02 85.07 110.02C85.07 110.02 85.07 110.02 85.07 110.02C84.93 110.02 84.79 110.02 84.64 110.02L84.63 110.02C84.63 110.02 84.63 110.03 84.62 110.03C84.54 110.03 84.46 110.03 84.38 110.04C83.8 110.04 83.23 110.04 82.67 110.05C82.35 110.06 82.03 110.08 81.72 110.09C81.41 110.1 81.09 110.11 80.79 110.12C77.1 110.3 73.86 110.77 71.07 111.5C70.81 111.58 70.54 111.65 70.28 111.72C65.21 113.21 62.39 115.6 61.85 118.88C61.67 119.94 62.08 121.08 63.08 122.3C63.55 122.87 64.24 123.53 65.11 124.27C65.54 124.6 66.01 124.95 66.52 125.32C68.44 126.73 69.66 127.66 70.17 128.13C71.24 129.12 71.72 129.98 71.6 130.69C71.15 133.4 68 135.44 62.13 136.82C61.5 136.97 60.84 137.12 60.14 137.25C60.04 137.27 59.93 137.29 59.83 137.31C59.3 137.41 58.77 137.5 58.24 137.58C57.83 137.65 57.42 137.71 57.01 137.77C56.81 137.79 56.61 137.82 56.41 137.85C55.89 137.92 55.38 137.98 54.86 138.04C54.8 138.04 54.73 138.05 54.67 138.06C54.1 138.12 52.96 138.21 52.96 138.21C52.88 138.21 52.81 138.28 52.81 138.37C52.81 138.45 52.88 138.51 52.96 138.51Z" />
				</g>
			</g>
			<path id="&lt;Compound Path&gt;" fill-rule="evenodd" class="shp12" d="M94.47 125.15L81.25 125.15C81.29 125.71 81.36 126.18 81.47 126.57C81.6 127.02 81.78 127.37 82.01 127.6C82.14 127.75 82.34 127.89 82.62 128.02C82.91 128.15 83.23 128.24 83.58 128.29L83.56 128.29C83.98 128.36 84.5 128.42 85.13 128.46C85.85 128.48 86.64 128.49 87.48 128.49C88.84 128.49 89.83 128.43 90.45 128.32C90.73 128.26 90.98 128.18 91.19 128.07C91.37 127.98 91.53 127.87 91.66 127.74C91.67 127.74 91.67 127.74 91.68 127.73C91.75 127.64 91.82 127.5 91.88 127.32C91.94 127.14 91.99 126.9 92.02 126.61C92.03 126.52 92.08 126.43 92.15 126.35C92.22 126.29 92.31 126.26 92.43 126.26L94.46 126.26C94.56 126.26 94.65 126.3 94.73 126.38C94.81 126.44 94.85 126.54 94.85 126.66C94.83 127.46 94.68 128.14 94.38 128.69C94.1 129.27 93.68 129.73 93.11 130.07C92.57 130.37 91.84 130.61 90.91 130.77C90.02 130.92 88.94 130.99 87.69 130.99C85.66 130.99 84.08 130.91 82.96 130.76C81.84 130.59 80.98 130.29 80.38 129.88C79.7 129.38 79.18 128.67 78.83 127.73C78.52 126.8 78.36 125.68 78.36 124.34C78.36 123.4 78.43 122.58 78.56 121.88C78.7 121.15 78.92 120.54 79.2 120.05C79.48 119.57 79.81 119.17 80.21 118.86C80.58 118.53 81.04 118.28 81.58 118.11C82.09 117.94 82.75 117.83 83.55 117.75C84.33 117.67 85.28 117.63 86.43 117.63C87.48 117.63 88.4 117.66 89.18 117.72C89.97 117.78 90.6 117.86 91.08 117.98C92.09 118.21 92.91 118.69 93.53 119.4C94.05 120 94.41 120.67 94.59 121.42C94.76 122.16 94.86 123.27 94.88 124.75C94.88 124.85 94.84 124.95 94.75 125.03C94.68 125.11 94.59 125.15 94.47 125.15ZM91.92 122.68C91.89 122.32 91.82 121.98 91.71 121.69C91.58 121.35 91.38 121.09 91.13 120.89C90.79 120.61 90.27 120.42 89.57 120.3C88.85 120.18 87.79 120.12 86.37 120.12C85.14 120.12 84.21 120.18 83.56 120.3C82.98 120.39 82.53 120.56 82.2 120.82L82.19 120.83C81.94 121.03 81.74 121.3 81.6 121.66C81.47 121.96 81.38 122.3 81.33 122.68L91.92 122.68Z" />
			<path id="&lt;Path&gt;" class="shp12" d="M109.86 118.65C109.41 118.27 108.84 118 108.17 117.84C107.53 117.7 106.61 117.63 105.39 117.63C104.96 117.63 104.57 117.63 104.23 117.65C103.57 117.66 103.04 117.7 102.62 117.74C101.96 117.81 101.43 117.96 101.01 118.18C100.65 118.36 100.35 118.58 100.09 118.83L100.09 118.19C100.09 118.08 100.05 117.99 99.97 117.91C99.88 117.83 99.78 117.79 99.67 117.79L97.74 117.79C97.64 117.79 97.55 117.83 97.48 117.91C97.39 117.99 97.35 118.08 97.35 118.19L97.35 130.43C97.35 130.54 97.39 130.64 97.48 130.72C97.55 130.8 97.64 130.84 97.74 130.84L99.67 130.84C99.78 130.84 99.88 130.8 99.97 130.72C100.05 130.64 100.09 130.54 100.09 130.43L100.09 124.78C100.09 124.01 100.13 123.33 100.22 122.74C100.31 122.18 100.43 121.74 100.59 121.41C100.7 121.2 100.81 121.05 100.94 120.94C101.07 120.82 101.25 120.71 101.48 120.6C101.74 120.5 102.03 120.42 102.37 120.34C102.9 120.23 103.52 120.17 104.23 120.13C104.52 120.12 104.83 120.12 105.16 120.12C105.89 120.12 106.51 120.17 107.02 120.28C107.46 120.38 107.78 120.52 107.97 120.7C108.14 120.87 108.26 121.09 108.33 121.36L108.33 121.37C108.42 121.72 108.46 122.2 108.46 122.82L108.46 123.69C108.46 123.8 108.5 123.89 108.58 123.97C108.66 124.06 108.75 124.1 108.86 124.1L110.84 124.1C110.95 124.1 111.04 124.06 111.12 123.97C111.21 123.89 111.25 123.8 111.25 123.69L111.25 122.43C111.24 121.55 111.12 120.82 110.91 120.23C110.68 119.59 110.33 119.07 109.86 118.65Z" />
			<g id="&lt;Clip Group&gt;" clip-path="url(#cp2)">
				<g id="&lt;Group&gt;">
					<path id="&lt;Compound Path&gt;" fill-rule="evenodd" class="shp12" d="M128.65 123.97L128.65 130.43C128.65 130.54 128.61 130.64 128.53 130.72C128.46 130.8 128.36 130.84 128.25 130.84L126.31 130.84C126.22 130.84 126.12 130.8 126.02 130.72C125.96 130.64 125.92 130.54 125.92 130.42L125.93 129.97C125.53 130.31 125.1 130.55 124.62 130.69C124.3 130.78 123.79 130.85 123.08 130.92C122.39 130.97 121.59 130.99 120.69 130.99C119.87 130.99 118.95 130.98 117.95 130.96C117.18 130.92 116.58 130.88 116.16 130.84C115.71 130.78 115.32 130.69 114.99 130.57C114.63 130.45 114.33 130.29 114.09 130.11C113.59 129.76 113.24 129.33 113.05 128.84C112.87 128.35 112.78 127.7 112.78 126.89C112.78 125.88 112.92 125.09 113.19 124.52C113.36 124.21 113.57 123.95 113.81 123.73C114.05 123.51 114.34 123.34 114.68 123.21L114.68 123.2C114.91 123.1 115.15 123.03 115.41 122.98C115.87 122.9 116.42 122.83 117.06 122.79C117.68 122.75 118.47 122.73 119.41 122.73C120.69 122.73 121.73 122.75 122.56 122.79C123.4 122.84 124.02 122.9 124.43 122.96C124.85 123.04 125.24 123.19 125.59 123.4C125.7 123.46 125.81 123.54 125.92 123.63L125.92 123.13C125.92 122.62 125.88 122.18 125.79 121.82C125.69 121.48 125.58 121.22 125.42 121.04C125.3 120.88 125.12 120.73 124.89 120.6C124.69 120.48 124.42 120.39 124.09 120.31L124.07 120.31C123.74 120.24 123.31 120.2 122.76 120.16C122.2 120.12 121.52 120.09 120.73 120.09C119.69 120.09 118.83 120.12 118.17 120.18L117.33 120.3C117.08 120.35 116.91 120.4 116.81 120.44C116.59 120.53 116.43 120.66 116.31 120.85C116.2 121.06 116.14 121.34 116.14 121.69L116.14 121.86C116.14 121.98 116.1 122.07 116.03 122.15C115.95 122.23 115.86 122.26 115.75 122.26L113.73 122.26C113.62 122.26 113.54 122.23 113.47 122.15C113.39 122.09 113.34 122.01 113.33 121.91L113.3 121.32C113.3 120.61 113.44 120.01 113.71 119.52C114 119.01 114.42 118.62 114.98 118.35C115.51 118.09 116.25 117.9 117.18 117.78C118.08 117.66 119.22 117.6 120.57 117.6C121.58 117.6 122.48 117.63 123.28 117.68C124.05 117.73 124.67 117.79 125.15 117.89C126.14 118.11 126.93 118.51 127.51 119.09L127.49 119.09C127.98 119.58 128.3 120.16 128.45 120.82C128.52 121.19 128.57 121.61 128.59 122.08C128.63 122.61 128.65 123.24 128.65 123.97ZM125.79 126.88C125.79 126.55 125.72 126.3 125.59 126.1C125.45 125.91 125.23 125.76 124.94 125.64C124.61 125.52 124.09 125.42 123.39 125.36C122.74 125.29 121.85 125.25 120.7 125.25C119.12 125.25 118.02 125.28 117.39 125.34C117.08 125.36 116.83 125.4 116.63 125.45C116.45 125.49 116.3 125.54 116.21 125.6C116.03 125.7 115.88 125.85 115.78 126.06C115.68 126.3 115.63 126.59 115.63 126.92C115.63 127.23 115.69 127.51 115.81 127.74C115.91 127.93 116.08 128.08 116.3 128.2L116.48 128.24C116.64 128.29 116.85 128.33 117.11 128.35C117.9 128.45 119.23 128.49 121.11 128.49C122.16 128.49 123 128.47 123.64 128.41C124.28 128.35 124.74 128.25 125.03 128.13C125.29 128.03 125.48 127.88 125.59 127.69C125.72 127.47 125.79 127.21 125.79 126.88Z" />
				</g>
			</g>
		</g>
		<g id="&lt;Group&gt;">
			<g id="&lt;Group&gt;">
				<path id="&lt;Path&gt;" class="shp13" d="M166.83 109.36C165.35 107.68 162.72 106.95 159.3 106.95L149.43 106.95C148.74 106.95 148.15 107.45 148.05 108.14L143.94 134.15C143.88 134.67 144.27 135.14 144.77 135.14L150.85 135.14L152.36 125.43L152.33 125.73C152.42 125.04 153.02 124.55 153.71 124.55L156.6 124.55C162.29 124.55 166.73 122.24 168.01 115.57C168.04 115.37 168.07 115.17 168.11 114.98C168.57 112.54 168.17 110.86 166.83 109.36Z" />
			</g>
			<g id="&lt;Group&gt;">
				<path id="&lt;Compound Path&gt;" fill-rule="evenodd" class="shp14" d="M245.4 117.11C246.26 118.13 246.55 119.61 246.26 121.48C245.6 125.79 243 127.96 238.53 127.96L236.39 127.96C235.93 127.96 235.54 128.29 235.48 128.75L234.69 133.68C234.62 134.01 234.36 134.24 234.03 134.24L230.54 134.24C230.18 134.24 229.92 133.91 229.98 133.58L232.75 116.16C232.81 115.69 233.21 115.37 233.67 115.37L240.47 115.37C242.74 115.37 244.45 115.96 245.4 117.11ZM240.93 119.8C240.34 119.11 239.16 119.11 237.94 119.11L237.48 119.11C237.22 119.11 236.95 119.34 236.92 119.61L236.2 124.18L237.22 124.18C239.02 124.18 240.9 124.18 241.26 121.75C241.39 120.86 241.29 120.27 240.93 119.8Z" />
			</g>
			<g id="&lt;Group&gt;">
				<path id="&lt;Compound Path&gt;" fill-rule="evenodd" class="shp13" d="M196.91 117.11C197.76 118.13 198.06 119.61 197.76 121.48C197.1 125.79 194.51 127.96 190.03 127.96L187.9 127.96C187.44 127.96 187.04 128.29 186.98 128.75L186.22 133.45C186.16 133.91 185.76 134.24 185.3 134.24L182.04 134.24C181.68 134.24 181.42 133.91 181.48 133.58L184.25 116.16C184.31 115.69 184.71 115.37 185.17 115.37L191.97 115.37C194.27 115.37 195.98 115.96 196.91 117.11ZM192.43 119.8C191.84 119.11 190.66 119.11 189.44 119.11L188.98 119.11C188.72 119.11 188.46 119.34 188.42 119.61L187.7 124.18L188.72 124.18C190.53 124.18 192.4 124.18 192.76 121.75C192.89 120.86 192.79 120.27 192.43 119.8Z" />
			</g>
			<g id="&lt;Group&gt;">
				<path id="&lt;Compound Path&gt;" fill-rule="evenodd" class="shp13" d="M212.89 122.32L211.11 133.47C211.05 133.93 210.65 134.26 210.19 134.26L207.26 134.26C206.9 134.26 206.64 133.93 206.71 133.59L206.84 132.68C205.76 133.93 204.26 134.55 202.33 134.55C200.62 134.55 199.21 134.09 198.22 132.91C197.14 131.63 196.71 129.82 197.01 127.91C197.6 124.1 200.69 121.37 204.27 121.37C205.85 121.37 207.43 121.73 208.12 122.75L208.35 123.08L208.48 122.15C208.51 121.86 208.78 121.66 209.04 121.66L212.3 121.66C212.66 121.66 212.92 121.96 212.89 122.32ZM207.2 125.67C206.71 125.08 205.95 124.79 205.03 124.79C203.19 124.79 201.68 126.07 201.38 127.91C201.25 128.83 201.41 129.65 201.91 130.21C202.37 130.8 203.12 131.1 204.08 131.1C205.98 131.1 207.43 129.85 207.76 127.98C207.92 127.09 207.72 126.27 207.2 125.67Z" />
			</g>
			<g id="&lt;Group&gt;">
				<path id="&lt;Compound Path&gt;" fill-rule="evenodd" class="shp14" d="M261.39 122.32L259.61 133.47C259.54 133.93 259.15 134.26 258.69 134.26L255.76 134.26C255.4 134.26 255.14 133.93 255.21 133.59L255.34 132.68C254.26 133.93 252.76 134.55 250.83 134.55C249.12 134.55 247.71 134.09 246.72 132.91C245.64 131.63 245.21 129.82 245.51 127.91C246.1 124.1 249.19 121.37 252.77 121.37C254.35 121.37 255.93 121.73 256.62 122.75L256.85 123.08L256.98 122.15C257.01 121.86 257.28 121.66 257.54 121.66L260.79 121.66C261.16 121.66 261.42 121.96 261.39 122.32ZM255.7 125.67C255.21 125.08 254.45 124.79 253.53 124.79C251.69 124.79 250.17 126.07 249.88 127.91C249.75 128.83 249.91 129.65 250.41 130.21C250.86 130.8 251.62 131.1 252.58 131.1C254.48 131.1 255.93 129.85 256.25 127.98C256.39 127.09 256.19 126.27 255.7 125.67Z" />
			</g>
			<g id="&lt;Group&gt;">
				<path id="&lt;Path&gt;" class="shp13" d="M229.64 121.64L226.35 121.64C226.02 121.64 225.76 121.81 225.56 122.07L221.09 128.71L219.18 122.33C219.05 121.94 218.69 121.64 218.26 121.64L215.04 121.64C214.65 121.64 214.39 122.03 214.51 122.4L218.13 132.98L214.75 137.75C214.48 138.11 214.75 138.64 215.21 138.64L218.46 138.64C218.76 138.64 219.05 138.47 219.25 138.24L230.13 122.53C230.36 122.17 230.1 121.64 229.64 121.64Z" />
			</g>
			<g id="&lt;Group&gt;">
				<path id="&lt;Path&gt;" class="shp14" d="M264.62 115.83L261.83 133.58C261.76 133.91 262.03 134.24 262.39 134.24L265.18 134.24C265.64 134.24 266.04 133.91 266.1 133.45L268.86 116.03C268.93 115.7 268.67 115.37 268.31 115.37L265.18 115.37C264.92 115.37 264.69 115.57 264.62 115.83Z" />
			</g>
			<g id="&lt;Group&gt;">
				<path id="&lt;Path&gt;" class="shp13" d="M166.83 109.36C165.35 107.68 162.72 106.95 159.3 106.95L149.43 106.95C148.74 106.95 148.15 107.45 148.05 108.14L143.94 134.15C143.88 134.67 144.27 135.14 144.77 135.14L150.85 135.14L152.36 125.43L152.33 125.73C152.42 125.04 153.02 124.55 153.71 124.55L156.6 124.55C162.29 124.55 166.73 122.24 168.01 115.57C168.04 115.37 168.07 115.17 168.11 114.98C168.57 112.54 168.17 110.86 166.83 109.36Z" />
			</g>
			<g id="&lt;Group&gt;">
				<path id="&lt;Path&gt;" class="shp13" d="M154.08 115.05C154.14 114.62 154.41 114.29 154.77 114.12C154.93 114.05 155.1 113.99 155.3 113.99L162.99 113.99C163.91 113.99 164.77 114.05 165.52 114.19C165.75 114.22 165.95 114.26 166.18 114.32C166.37 114.35 166.61 114.42 166.8 114.49C166.9 114.52 167 114.55 167.1 114.59C167.49 114.72 167.85 114.85 168.15 115.05C168.55 112.58 168.15 110.9 166.8 109.39C165.32 107.71 162.69 106.99 159.27 106.99L149.41 106.99C148.72 106.99 148.13 107.48 148.03 108.17L143.99 134.15C143.92 134.67 144.32 135.14 144.81 135.14L150.89 135.14L152.4 125.43L154.08 115.05Z" />
			</g>
			<g id="&lt;Group&gt;">
				<path id="&lt;Path&gt;" class="shp14" d="M168.18 115.02C168.15 115.22 168.11 115.42 168.08 115.61C166.8 122.29 162.33 124.59 156.68 124.59L153.78 124.59C153.09 124.59 152.5 125.08 152.4 125.77L150.89 135.14L150.46 137.8C150.4 138.27 150.72 138.66 151.18 138.66L156.31 138.66C156.9 138.66 157.43 138.23 157.53 137.61L157.59 137.35L158.55 131.23L158.62 130.9C158.71 130.31 159.24 129.85 159.83 129.85L160.59 129.85C165.55 129.85 169.43 127.84 170.58 121.99C171.04 119.56 170.81 117.52 169.56 116.08C169.2 115.65 168.71 115.32 168.18 115.02Z" />
			</g>
			<g id="&lt;Group&gt;">
				<path id="&lt;Path&gt;" class="shp15" d="M166.82 114.47C166.62 114.4 166.42 114.37 166.19 114.31C166 114.27 165.76 114.21 165.53 114.17C164.75 114.04 163.89 113.98 163 113.98L155.28 113.98C155.08 113.98 154.92 114.01 154.75 114.11C154.39 114.27 154.13 114.6 154.06 115.03L152.42 125.42L152.38 125.71C152.48 125.02 153.07 124.53 153.76 124.53L156.66 124.53C162.34 124.53 166.78 122.23 168.07 115.56C168.1 115.35 168.13 115.16 168.16 114.96C167.84 114.8 167.47 114.64 167.11 114.5C167.01 114.54 166.91 114.5 166.82 114.47Z" />
			</g>
		</g>
		<g id="&lt;Group&gt;">
			<path id="&lt;Compound Path&gt;" fill-rule="evenodd" class="shp16" d="M45.98 169.33C45.98 169.57 45.76 169.76 45.52 169.76L37.01 169.76C37.23 171.86 38.81 173.78 41.03 173.78C42.56 173.78 43.69 173.21 44.54 171.99C44.64 171.86 44.76 171.77 44.91 171.77C45.15 171.77 45.34 171.95 45.34 172.2C45.34 172.29 45.3 172.35 45.27 172.41C44.42 173.91 42.71 174.64 41.03 174.64C38.17 174.64 36.13 172.08 36.13 169.33C36.13 166.59 38.17 164.03 41.03 164.03C43.9 164.03 45.98 166.59 45.98 169.33ZM45.06 168.9C44.88 166.8 43.26 164.88 41.03 164.88C38.81 164.88 37.23 166.8 37.01 168.9L45.06 168.9Z" />
			<path id="&lt;Path&gt;" class="shp16" d="M56.31 164.24C56.55 164.24 56.74 164.46 56.74 164.67C56.74 164.91 56.55 165.09 56.31 165.09L54.02 165.09L54.02 174.06C54.02 174.27 53.84 174.49 53.6 174.49C53.35 174.49 53.17 174.27 53.17 174.06L53.17 165.09L50.97 165.09C50.73 165.09 50.55 164.91 50.55 164.67C50.55 164.46 50.73 164.24 50.97 164.24L53.17 164.24L53.17 160.95C53.17 160.71 53.35 160.52 53.6 160.52C53.84 160.52 54.02 160.71 54.02 160.95L54.02 164.24L56.31 164.24Z" />
			<path id="&lt;Path&gt;" class="shp16" d="M70.24 168.57L70.24 173.99C70.24 174.24 70.03 174.42 69.81 174.42C69.57 174.42 69.39 174.24 69.39 173.99L69.39 168.57C69.39 166.74 68.35 164.91 66.31 164.91C63.69 164.91 62.56 167.2 62.71 169.54C62.71 169.61 62.74 169.88 62.74 169.91L62.74 173.99C62.74 174.24 62.56 174.42 62.31 174.42C62.07 174.42 61.89 174.24 61.89 173.99L61.89 156.17C61.89 155.95 62.07 155.74 62.31 155.74C62.56 155.74 62.74 155.95 62.74 156.17L62.74 166.25C63.47 164.94 64.78 164.06 66.31 164.06C68.81 164.06 70.24 166.25 70.24 168.57Z" />
			<path id="&lt;Compound Path&gt;" fill-rule="evenodd" class="shp16" d="M85.51 169.33C85.51 169.57 85.3 169.76 85.06 169.76L76.55 169.76C76.77 171.86 78.35 173.78 80.57 173.78C82.1 173.78 83.23 173.21 84.08 171.99C84.17 171.86 84.29 171.77 84.45 171.77C84.69 171.77 84.87 171.95 84.87 172.2C84.87 172.29 84.84 172.35 84.81 172.41C83.96 173.91 82.25 174.64 80.57 174.64C77.71 174.64 75.67 172.08 75.67 169.33C75.67 166.59 77.71 164.03 80.57 164.03C83.44 164.03 85.51 166.59 85.51 169.33ZM84.6 168.9C84.41 166.8 82.8 164.88 80.57 164.88C78.35 164.88 76.77 166.8 76.55 168.9L84.6 168.9Z" />
			<path id="&lt;Path&gt;" class="shp16" d="M95.97 164.64C95.97 164.91 95.82 165.06 95.57 165.09C93.07 165.46 91.94 167.5 91.94 169.88L91.94 173.97C91.94 174.2 91.76 174.39 91.52 174.39C91.27 174.39 91.09 174.2 91.09 173.97L91.09 164.67C91.09 164.43 91.27 164.24 91.52 164.24C91.76 164.24 91.94 164.43 91.94 164.67L91.94 166.56C92.64 165.37 94.05 164.24 95.51 164.24C95.72 164.24 95.97 164.39 95.97 164.64Z" />
			<path id="&lt;Compound Path&gt;" fill-rule="evenodd" class="shp16" d="M109.96 169.33C109.96 169.57 109.74 169.76 109.5 169.76L101 169.76C101.21 171.86 102.8 173.78 105.02 173.78C106.54 173.78 107.67 173.21 108.53 171.99C108.62 171.86 108.74 171.77 108.89 171.77C109.14 171.77 109.32 171.95 109.32 172.2C109.32 172.29 109.29 172.35 109.26 172.41C108.4 173.91 106.7 174.64 105.02 174.64C102.15 174.64 100.12 172.08 100.12 169.33C100.12 166.59 102.15 164.03 105.02 164.03C107.89 164.03 109.96 166.59 109.96 169.33ZM109.05 168.9C108.86 166.8 107.25 164.88 105.02 164.88C102.8 164.88 101.21 166.8 101 168.9L109.05 168.9Z" />
			<path id="&lt;Path&gt;" class="shp16" d="M123.71 164.73L123.71 167.69L123.71 174.06C123.71 174.3 123.5 174.48 123.28 174.48C123.04 174.48 122.85 174.3 122.85 174.06L122.85 172.29C122.15 173.69 120.91 174.7 119.32 174.7C116.79 174.7 115.39 172.5 115.39 170.18L115.39 164.73C115.39 164.51 115.57 164.3 115.81 164.3C116.06 164.3 116.24 164.51 116.24 164.73L116.24 170.18C116.24 172.02 117.28 173.85 119.32 173.85C122.18 173.85 122.85 171.16 122.85 168.21L122.85 164.73C122.85 164.51 123.04 164.3 123.28 164.3C123.5 164.3 123.71 164.51 123.71 164.73Z" />
			<path id="&lt;Path&gt;" class="shp16" d="M145.26 168.54L145.26 173.99C145.26 174.24 145.04 174.42 144.83 174.42C144.59 174.42 144.41 174.24 144.41 173.99L144.41 168.54C144.41 166.71 143.37 164.91 141.33 164.91C138.77 164.91 137.79 167.65 137.79 169.79L137.79 173.99C137.79 174.24 137.58 174.42 137.36 174.42C137.12 174.42 136.94 174.24 136.94 173.99L136.94 168.54C136.94 166.71 135.9 164.91 133.86 164.91C131.26 164.91 130.2 166.96 130.29 169.67C130.29 169.73 130.32 169.85 130.29 169.88L130.29 173.99C130.29 174.24 130.11 174.42 129.87 174.42C129.62 174.42 129.44 174.24 129.44 173.99L129.44 164.67C129.44 164.43 129.62 164.24 129.87 164.24C130.11 164.24 130.29 164.43 130.29 164.67L130.29 166.22C131.03 164.91 132.33 164.06 133.86 164.06C135.59 164.06 136.94 165.16 137.49 166.77C138.19 165.19 139.56 164.06 141.33 164.06C143.83 164.06 145.26 166.22 145.26 168.54Z" />
			<path id="&lt;Path&gt;" class="shp17" d="M2.5 172.58L13.77 188.45L13.77 179.23L2.5 172.58Z" />
			<path id="&lt;Path&gt;" class="shp18" d="M2.5 170.44L13.77 177.1L13.77 165.32L2.5 170.44Z" />
			<path id="&lt;Path&gt;" class="shp17" d="M2.5 170.44L13.77 165.32L13.77 151.75L2.5 170.44Z" />
			<path id="&lt;Path&gt;" class="shp19" d="M25.03 172.58L13.77 188.45L13.77 179.23L25.03 172.58Z" />
			<path id="&lt;Path&gt;" class="shp20" d="M25.03 170.44L13.77 177.1L13.77 165.32L25.03 170.44Z" />
			<path id="&lt;Path&gt;" class="shp19" d="M25.03 170.44L13.77 165.32L13.77 151.75L25.03 170.44Z" />
		</g>
		<g id="&lt;Group&gt;">
			<path id="&lt;Path&gt;" class="shp21" d="M186.41 168.04C184.27 176.64 175.57 181.87 166.97 179.72C158.38 177.58 153.15 168.88 155.3 160.28C157.44 151.69 166.14 146.46 174.73 148.61C183.33 150.74 188.56 159.45 186.41 168.04Z" />
			<path id="&lt;Compound Path&gt;" fill-rule="evenodd" class="shp22" d="M175.68 164.46C177.26 165.28 178.06 166.55 177.3 168.73C176.35 171.45 174.09 171.67 171.09 171.1L170.36 174.03L168.6 173.59L169.32 170.71C168.86 170.59 168.4 170.47 167.92 170.34L167.2 173.24L165.44 172.8L166.17 169.87C165.75 169.77 165.34 169.66 164.91 169.55L162.63 168.98L163.5 166.96C164.36 167.19 164.79 167.3 164.77 167.28C165.27 167.41 165.49 167.08 165.58 166.86L166.73 162.25L166.92 162.3C166.85 162.27 166.78 162.25 166.74 162.24L167.55 158.95C167.58 158.57 167.45 158.1 166.74 157.92C166.75 157.91 166.33 157.8 165.46 157.6L165.93 155.72L168.35 156.33L168.35 156.34C168.72 156.43 169.09 156.52 169.47 156.6L170.2 153.71L171.96 154.15L171.25 156.99C171.72 157.09 172.19 157.2 172.66 157.32L173.36 154.5L175.12 154.94L174.4 157.83C176.62 158.59 178.25 159.74 177.93 161.88C177.7 163.44 176.83 164.2 175.68 164.46ZM169.45 164.35L168.49 168.23C169.68 168.52 173.36 169.7 173.91 167.52C174.47 165.24 170.65 164.65 169.45 164.35ZM170.77 159.06L169.9 162.58C170.89 162.82 173.95 163.84 174.45 161.85C174.97 159.77 171.77 159.31 170.77 159.06Z" />
			<path id="&lt;Compound Path&gt;" fill-rule="evenodd" class="shp23" d="M204.33 162.6C205.07 162.6 205.71 162.74 206.25 163C206.79 163.26 207.23 163.61 207.58 164.05C207.94 164.5 208.2 165.02 208.37 165.62C208.54 166.22 208.62 166.87 208.62 167.55C208.62 168.62 208.43 169.62 208.03 170.56C207.64 171.51 207.11 172.33 206.43 173.03C205.75 173.73 204.96 174.28 204.04 174.68C203.12 175.09 202.12 175.29 201.05 175.29C200.9 175.29 200.66 175.29 200.32 175.28C199.97 175.27 199.57 175.24 199.13 175.18C198.66 175.11 198.18 175.02 197.72 174.9C197.23 174.78 196.75 174.62 196.3 174.4L200.28 157.65L203.85 157.1L202.43 163.04C202.72 162.91 203.03 162.8 203.35 162.72C203.67 162.64 204 162.6 204.33 162.6ZM201.34 172.46C201.88 172.46 202.39 172.33 202.86 172.07C203.34 171.81 203.76 171.45 204.1 171.02C204.45 170.58 204.72 170.07 204.91 169.53C205.11 168.98 205.21 168.4 205.21 167.81C205.21 167.07 205.09 166.5 204.84 166.08C204.6 165.67 204.14 165.46 203.48 165.46C203.27 165.46 202.99 165.5 202.64 165.57C202.3 165.65 201.99 165.82 201.71 166.06L200.19 172.37C200.28 172.38 200.36 172.4 200.43 172.42C200.5 172.43 200.57 172.44 200.65 172.45C200.73 172.46 200.82 172.46 200.93 172.46L201.34 172.46ZM212.32 174.97L208.91 174.97L211.79 162.86L215.22 162.86L212.32 174.97ZM213.98 161.39C213.51 161.39 213.06 161.24 212.69 160.96C212.3 160.68 212.11 160.24 212.11 159.66C212.11 159.34 212.18 159.03 212.31 158.75C212.43 158.47 212.61 158.22 212.83 158.01C213.04 157.8 213.3 157.64 213.57 157.52C213.86 157.39 214.17 157.33 214.48 157.33C214.96 157.33 215.39 157.47 215.77 157.76C216.16 158.04 216.35 158.48 216.35 159.06C216.35 159.38 216.28 159.69 216.15 159.97C216.03 160.25 215.85 160.5 215.63 160.71C215.42 160.92 215.16 161.08 214.89 161.2C214.6 161.32 214.3 161.39 213.98 161.39ZM218.21 159.84L221.78 159.29L220.9 162.86L224.72 162.86L224.04 165.67L220.23 165.67L219.22 169.91C219.13 170.26 219.08 170.59 219.06 170.9C219.04 171.2 219.08 171.46 219.18 171.69C219.27 171.92 219.43 172.09 219.67 172.21C219.91 172.33 220.25 172.4 220.7 172.4C221.06 172.4 221.42 172.36 221.77 172.29C222.12 172.22 222.47 172.13 222.81 172L223.07 174.63C222.58 174.8 222.08 174.95 221.57 175.06C221.03 175.19 220.4 175.25 219.66 175.25C218.6 175.25 217.78 175.09 217.19 174.78C216.61 174.46 216.2 174.03 215.95 173.49C215.71 172.94 215.6 172.32 215.63 171.61C215.66 170.9 215.77 170.16 215.95 169.38L218.21 159.84ZM224.58 170.14C224.58 169.1 224.75 168.11 225.08 167.19C225.42 166.27 225.9 165.46 226.53 164.77C227.16 164.08 227.93 163.54 228.83 163.14C229.72 162.74 230.73 162.54 231.83 162.54C232.52 162.54 233.14 162.6 233.68 162.73C234.23 162.87 234.72 163.03 235.17 163.25L233.99 165.92C233.68 165.8 233.36 165.68 233.04 165.59C232.71 165.49 232.31 165.44 231.83 165.44C230.69 165.44 229.79 165.83 229.12 166.61C228.46 167.4 228.12 168.45 228.12 169.77C228.12 170.55 228.29 171.18 228.63 171.67C228.97 172.15 229.59 172.4 230.49 172.4C230.94 172.4 231.37 172.35 231.79 172.26C232.2 172.16 232.57 172.05 232.89 171.91L233.15 174.65C232.68 174.83 232.2 174.98 231.72 175.1C231.19 175.23 230.57 175.29 229.85 175.29C228.9 175.29 228.09 175.16 227.43 174.88C226.77 174.6 226.23 174.24 225.8 173.77C225.37 173.29 225.06 172.75 224.87 172.12C224.67 171.49 224.58 170.82 224.58 170.14ZM239.72 175.29C238.9 175.29 238.2 175.17 237.6 174.92C237 174.68 236.51 174.34 236.11 173.89C235.72 173.44 235.43 172.92 235.23 172.31C235.03 171.7 234.93 171.03 234.93 170.3C234.93 169.38 235.08 168.45 235.38 167.53C235.67 166.61 236.12 165.78 236.7 165.05C237.28 164.31 238 163.71 238.84 163.24C239.68 162.77 240.65 162.54 241.75 162.54C242.54 162.54 243.25 162.66 243.85 162.91C244.46 163.15 244.95 163.5 245.35 163.94C245.74 164.39 246.04 164.91 246.23 165.52C246.43 166.13 246.53 166.8 246.53 167.53C246.53 168.45 246.39 169.38 246.1 170.3C245.81 171.22 245.38 172.05 244.81 172.79C244.24 173.52 243.53 174.12 242.68 174.59C241.82 175.06 240.84 175.29 239.72 175.29ZM241.42 165.44C240.92 165.44 240.47 165.59 240.09 165.88C239.7 166.17 239.38 166.54 239.12 166.98C238.86 167.43 238.66 167.92 238.53 168.44C238.4 168.98 238.34 169.47 238.34 169.95C238.34 170.72 238.46 171.32 238.7 171.75C238.95 172.18 239.4 172.4 240.04 172.4C240.55 172.4 240.99 172.25 241.38 171.95C241.76 171.67 242.08 171.3 242.34 170.85C242.6 170.41 242.8 169.92 242.93 169.39C243.06 168.86 243.13 168.35 243.13 167.88C243.13 167.11 243 166.51 242.76 166.08C242.51 165.65 242.06 165.44 241.42 165.44ZM250.25 174.97L246.84 174.97L249.71 162.86L253.15 162.86L250.25 174.97ZM251.9 161.39C251.44 161.39 250.99 161.24 250.62 160.96C250.23 160.68 250.04 160.24 250.04 159.66C250.04 159.34 250.1 159.03 250.23 158.75C250.36 158.47 250.54 158.22 250.75 158.01C250.97 157.8 251.22 157.64 251.5 157.52C251.79 157.39 252.1 157.33 252.41 157.33C252.89 157.33 253.32 157.47 253.7 157.76C254.08 158.04 254.28 158.48 254.28 159.06C254.28 159.38 254.21 159.69 254.08 159.97C253.95 160.25 253.78 160.5 253.56 160.71C253.34 160.92 253.09 161.08 252.81 161.2C252.53 161.32 252.23 161.39 251.9 161.39ZM255.61 163.41C255.86 163.33 256.15 163.25 256.47 163.14C256.82 163.04 257.17 162.95 257.53 162.87C257.92 162.79 258.36 162.71 258.84 162.66C259.32 162.61 259.87 162.58 260.48 162.58C262.28 162.58 263.52 163.1 264.21 164.15C264.89 165.19 265.01 166.62 264.56 168.43L263 174.97L259.57 174.97L261.08 168.57C261.18 168.17 261.25 167.78 261.3 167.4C261.36 167.03 261.35 166.7 261.29 166.41C261.24 166.14 261.08 165.9 260.87 165.72C260.64 165.55 260.3 165.46 259.84 165.46C259.38 165.46 258.93 165.51 258.49 165.6L256.25 174.97L252.82 174.97L255.61 163.41Z" />
		</g>
	</g>
</svg>